<svg width="20" height="18" viewBox="0 0 20 18" fill="none" xmlns="http://www.w3.org/2000/svg">
  <path d="M7 0C5.90455 0 5 0.904546 5 2V3H2C0.904546 3 0 3.90455 0 5V16C0 17.0955 0.904546 18 2 18H18C19.0955 18 20 17.0955 20 16V5C20 3.90455 19.0955 3 18 3H15V2C15 0.904546 14.0955 0 13 0H7ZM7 2H13V3C13 4.09545 13.9045 5 15 5H18V16H2V5H5C6.09545 5 7 4.09545 7 3V2ZM10 6C7.80271 6 6 7.80271 6 10C6 12.1973 7.80271 14 10 14C12.1973 14 14 12.1973 14 10C14 7.80271 12.1973 6 10 6ZM16 6C15.7348 6 15.4804 6.10536 15.2929 6.29289C15.1054 6.48043 15 6.73478 15 7C15 7.26522 15.1054 7.51957 15.2929 7.70711C15.4804 7.89464 15.7348 8 16 8C16.2652 8 16.5196 7.89464 16.7071 7.70711C16.8946 7.51957 17 7.26522 17 7C17 6.73478 16.8946 6.48043 16.7071 6.29289C16.5196 6.10536 16.2652 6 16 6ZM10 8C11.1164 8 12 8.88359 12 10C12 11.1164 11.1164 12 10 12C8.88359 12 8 11.1164 8 10C8 8.88359 8.88359 8 10 8Z" fill="#1E0D61"/>
</svg>
