<svg width="22" height="22" viewBox="0 0 22 22" fill="none" xmlns="http://www.w3.org/2000/svg">
    <path fill-rule="evenodd" clip-rule="evenodd" d="M3 3.75907C3 2.24016 4.22635 1 5.75 1H12.75C13.0161 1 13.2712 1.10607 13.4589 1.29472L18.7089 6.57192C18.8954 6.75931 19 7.01288 19 7.2772V17.8316C19 19.3505 17.7736 20.5907 16.25 20.5907H5.75C4.22635 20.5907 3 19.3505 3 17.8316V3.75907ZM5.75 3C5.34065 3 5 3.33497 5 3.75907V17.8316C5 18.2557 5.34065 18.5907 5.75 18.5907H16.25C16.6593 18.5907 17 18.2557 17 17.8316V7.6899L12.3343 3H5.75Z" fill="#7E72F2"/>
    <path fill-rule="evenodd" clip-rule="evenodd" d="M12.75 1C13.3023 1 13.75 1.44772 13.75 2V6.2772H18C18.5523 6.2772 19 6.72492 19 7.2772C19 7.82949 18.5523 8.2772 18 8.2772H12.75C12.1977 8.2772 11.75 7.82949 11.75 7.2772V2C11.75 1.44772 12.1977 1 12.75 1Z" fill="#7E72F2"/>
    <path fill-rule="evenodd" clip-rule="evenodd" d="M6.5 11.6748C6.5 11.1225 6.94772 10.6748 7.5 10.6748H14.5C15.0523 10.6748 15.5 11.1225 15.5 11.6748C15.5 12.2271 15.0523 12.6748 14.5 12.6748H7.5C6.94772 12.6748 6.5 12.2271 6.5 11.6748Z" fill="#7E72F2"/>
    <path fill-rule="evenodd" clip-rule="evenodd" d="M6.5 15.1929C6.5 14.6406 6.94772 14.1929 7.5 14.1929H14.5C15.0523 14.1929 15.5 14.6406 15.5 15.1929C15.5 15.7452 15.0523 16.1929 14.5 16.1929H7.5C6.94772 16.1929 6.5 15.7452 6.5 15.1929Z" fill="#7E72F2"/>
    <path fill-rule="evenodd" clip-rule="evenodd" d="M6.5 8.15674C6.5 7.60445 6.94772 7.15674 7.5 7.15674H9.25C9.80228 7.15674 10.25 7.60445 10.25 8.15674C10.25 8.70902 9.80228 9.15674 9.25 9.15674H7.5C6.94772 9.15674 6.5 8.70902 6.5 8.15674Z" fill="#7E72F2"/>
    </svg>
    