<svg width="36" height="32" viewBox="0 0 36 32" fill="none" xmlns="http://www.w3.org/2000/svg">
  <path fill-rule="evenodd" clip-rule="evenodd" d="M3 2H29C29.5523 2 30 2.44772 30 3V15.1681L25.539 10.7071C25.3083 10.4764 24.993 10.382 24.693 10.4238C24.4822 10.4515 24.2785 10.5462 24.1166 10.7082L18.7253 16.0994L9.88623 7.26035C9.71062 7.08474 9.47981 6.99797 9.24965 7.00004C9.01969 6.99812 8.78912 7.08489 8.61366 7.26035L2 13.874V3C2 2.44772 2.44772 2 3 2ZM29.0213 17.0178L24.8283 12.8249L20.1395 17.5137L21.2149 18.589C21.562 18.9362 21.562 19.499 21.2149 19.8461C20.8678 20.1932 20.305 20.1932 19.9578 19.8461L9.24995 9.13822L2 16.3882V25C2 25.5523 2.44772 26 3 26H21.15C21.0516 25.5153 21 25.0137 21 24.5C21 20.3579 24.3579 17 28.5 17C28.6752 17 28.8491 17.006 29.0213 17.0178ZM21.865 28H3C1.34315 28 0 26.6569 0 25V3C0 1.34315 1.34315 0 3 0H29C30.6569 0 32 1.34315 32 3V17.865C34.3789 19.1225 36 21.622 36 24.5C36 28.6421 32.6421 32 28.5 32C25.622 32 23.1225 30.3789 21.865 28ZM21 8C21 9.10457 20.1046 10 19 10C17.8954 10 17 9.10457 17 8C17 6.89543 17.8954 6 19 6C20.1046 6 21 6.89543 21 8ZM23 8C23 10.2091 21.2091 12 19 12C16.7909 12 15 10.2091 15 8C15 5.79086 16.7909 4 19 4C21.2091 4 23 5.79086 23 8ZM28.5 30C31.5376 30 34 27.5376 34 24.5C34 21.4624 31.5376 19 28.5 19C25.4624 19 23 21.4624 23 24.5C23 27.5376 25.4624 30 28.5 30ZM25.4994 23.4964L27.9451 21.2259C28.2672 20.9247 28.7895 20.9247 29.1117 21.2259L31.5 23.4426C31.8222 23.7439 31.8222 24.2323 31.5 24.5336C31.1778 24.8348 30.6555 24.8348 30.3334 24.5336L29.3533 23.6337L29.3529 27.2286C29.3529 27.6546 28.9835 28 28.5279 28C28.0724 28 27.703 27.6546 27.703 27.2286L27.7035 23.6337L26.6661 24.5873C26.3439 24.8886 25.8216 24.8886 25.4994 24.5873C25.1773 24.2861 25.1773 23.7977 25.4994 23.4964Z" fill="#7E72F2"/>
</svg>
