<svg width="41" height="37" viewBox="0 0 41 37" fill="none" xmlns="http://www.w3.org/2000/svg">
  <path fill-rule="evenodd" clip-rule="evenodd" d="M14.6663 10.1668C14.6663 9.70659 15.0394 9.3335 15.4997 9.3335H25.4997C25.9599 9.3335 26.333 9.70659 26.333 10.1668V15.1668H27.1663C27.8294 15.1668 28.4653 15.4302 28.9341 15.8991C29.4029 16.3679 29.6663 17.0038 29.6663 17.6668V21.8335C29.6663 22.4965 29.4029 23.1324 28.9341 23.6013C28.4653 24.0701 27.8294 24.3335 27.1663 24.3335H26.333V26.8335C26.333 27.2937 25.9599 27.6668 25.4997 27.6668H15.4997C15.0394 27.6668 14.6663 27.2937 14.6663 26.8335V24.3335H13.833C13.17 24.3335 12.5341 24.0701 12.0652 23.6013C11.5964 23.1324 11.333 22.4965 11.333 21.8335V17.6668C11.333 17.0038 11.5964 16.3679 12.0652 15.8991C12.5341 15.4302 13.17 15.1668 13.833 15.1668H14.6663V10.1668ZM16.333 23.5002L16.333 26.0002H24.6663V23.5014C24.6663 23.501 24.6663 23.5006 24.6663 23.5002C24.6663 23.4997 24.6663 23.4993 24.6663 23.4989V21.0002H16.333L16.333 23.5002ZM26.333 22.6668V20.1668C26.333 19.7066 25.9599 19.3335 25.4997 19.3335H15.4997C15.0394 19.3335 14.6663 19.7066 14.6663 20.1668V22.6668H13.833C13.612 22.6668 13.4 22.579 13.2438 22.4228C13.0875 22.2665 12.9997 22.0545 12.9997 21.8335V17.6668C12.9997 17.4458 13.0875 17.2339 13.2438 17.0776C13.4 16.9213 13.612 16.8335 13.833 16.8335L15.4997 16.8335H25.4997L27.1663 16.8335C27.3874 16.8335 27.5993 16.9213 27.7556 17.0776C27.9119 17.2339 27.9997 17.4458 27.9997 17.6668V21.8335C27.9997 22.0545 27.9119 22.2665 27.7556 22.4228C27.5993 22.579 27.3874 22.6668 27.1663 22.6668H26.333ZM24.6663 11.0002V15.1668H16.333V11.0002H24.6663Z" fill="#7E72F2"/>
  <rect x="0.5" y="0.5" width="40" height="36" rx="4" stroke="#7E72F2"/>
</svg>
