<svg width="18" height="18" viewBox="0 0 18 18" fill="none" xmlns="http://www.w3.org/2000/svg">
  <path d="M9 17C13.4183 17 17 13.4183 17 9C17 4.58172 13.4183 1 9 1C4.58172 1 1 4.58172 1 9C1 13.4183 4.58172 17 9 17Z" fill="#FFDADA"/>
  <path fill-rule="evenodd" clip-rule="evenodd" d="M9.8002 5.8C9.8002 5.35817 9.44202 5 9.0002 5C8.55837 5 8.2002 5.35817 8.2002 5.8V9C8.2002 9.44183 8.55837 9.8 9.0002 9.8C9.44202 9.8 9.8002 9.44183 9.8002 9V5.8ZM8.99622 11.4C8.55659 11.4 8.2002 11.7582 8.2002 12.2C8.2002 12.6418 8.55659 13 8.99622 13H9.00418C9.44381 13 9.8002 12.6418 9.8002 12.2C9.8002 11.7582 9.44381 11.4 9.00418 11.4H8.99622Z" fill="#EA5455"/>
</svg>
