<svg width="22" height="22" viewBox="0 0 22 22" fill="none" xmlns="http://www.w3.org/2000/svg">
    <path fill-rule="evenodd" clip-rule="evenodd" d="M18.0362 2.79541C19.5551 2.79541 20.7953 4.02176 20.7953 5.54541L20.7953 12.5454C20.7953 12.8115 20.6892 13.0667 20.5006 13.2543L15.2234 18.5043C15.036 18.6908 14.7824 18.7954 14.5181 18.7954L3.96368 18.7954C2.44477 18.7954 1.20461 17.5691 1.20461 16.0454L1.20461 5.54541C1.20461 4.02176 2.44477 2.79541 3.96368 2.79541L18.0362 2.79541ZM18.7953 5.54541C18.7953 5.13606 18.4603 4.79541 18.0362 4.79541L3.96368 4.79541C3.53958 4.79541 3.20461 5.13606 3.20461 5.54541L3.20461 16.0454C3.20461 16.4548 3.53958 16.7954 3.96368 16.7954L14.1054 16.7954L18.7953 12.1297L18.7953 5.54541Z" fill="#7E72F2"/>
    <path fill-rule="evenodd" clip-rule="evenodd" d="M20.7953 12.5454C20.7953 13.0977 20.3476 13.5454 19.7953 13.5454L15.5181 13.5454L15.5181 17.7954C15.5181 18.3477 15.0704 18.7954 14.5181 18.7954C13.9658 18.7954 13.5181 18.3477 13.5181 17.7954L13.5181 12.5454C13.5181 11.9931 13.9658 11.5454 14.5181 11.5454L19.7953 11.5454C20.3476 11.5454 20.7953 11.9931 20.7953 12.5454Z" fill="#7E72F2"/>
    <path fill-rule="evenodd" clip-rule="evenodd" d="M12.7953 10.7954C12.7953 11.3477 12.3476 11.7954 11.7953 11.7954L5.79529 11.7954C5.243 11.7954 4.79529 11.3477 4.79529 10.7954C4.79529 10.2431 5.243 9.79541 5.79529 9.79541L11.7953 9.79541C12.3476 9.79541 12.7953 10.2431 12.7953 10.7954Z" fill="#7E72F2"/>
    <path fill-rule="evenodd" clip-rule="evenodd" d="M12.7953 7.29541C12.7953 7.84769 12.3476 8.29541 11.7953 8.29541L5.79529 8.29541C5.243 8.29541 4.79529 7.84769 4.79529 7.29541C4.79529 6.74312 5.243 6.29541 5.79529 6.29541L11.7953 6.29541C12.3476 6.29541 12.7953 6.74313 12.7953 7.29541Z" fill="#7E72F2"/>
    <path fill-rule="evenodd" clip-rule="evenodd" d="M9.62048 14.3149C9.62048 14.8672 9.17277 15.3149 8.62048 15.3149L5.87048 15.3149C5.3182 15.3149 4.87048 14.8672 4.87048 14.3149C4.87048 13.7627 5.3182 13.3149 5.87048 13.3149L8.62048 13.3149C9.17277 13.3149 9.62048 13.7627 9.62048 14.3149Z" fill="#7E72F2"/>
    </svg>
    