<svg width="22" height="22" viewBox="0 0 22 22" fill="none" xmlns="http://www.w3.org/2000/svg">
<path d="M14.9546 18.5454V16.8181C14.9546 15.9019 14.5906 15.0233 13.9428 14.3754C13.2949 13.7275 12.4162 13.3636 11.5 13.3636H5.45455C4.53835 13.3636 3.65967 13.7275 3.01182 14.3754C2.36396 15.0233 2 15.9019 2 16.8181V18.5454" stroke="#3C3C3C" stroke-width="2" stroke-linecap="round" stroke-linejoin="round"/>
<path d="M8.47702 9.90905C10.3849 9.90905 11.9316 8.36239 11.9316 6.45449C11.9316 4.5466 10.3849 2.99994 8.47702 2.99994C6.56912 2.99994 5.02246 4.5466 5.02246 6.45449C5.02246 8.36239 6.56912 9.90905 8.47702 9.90905Z" stroke="#3C3C3C" stroke-width="2" stroke-linecap="round" stroke-linejoin="round"/>
<path d="M15.8184 9.9091L17.5456 11.6364L21.0002 8.18182" stroke="#3C3C3C" stroke-width="2" stroke-linecap="round" stroke-linejoin="round"/>
</svg>
