<svg width="24" height="23" viewBox="0 0 24 23" fill="none" xmlns="http://www.w3.org/2000/svg">
<path fill-rule="evenodd" clip-rule="evenodd" d="M0.75 11.5C0.75 5.29152 5.78384 0.253174 12 0.253174C18.2162 0.253174 23.25 5.29152 23.25 11.5C23.25 17.7086 18.2162 22.7469 12 22.7469C5.78384 22.7469 0.75 17.7086 0.75 11.5ZM12 2.74691C7.17046 2.74691 3.25 6.66287 3.25 11.5C3.25 16.3372 7.17046 20.2532 12 20.2532C16.8295 20.2532 20.75 16.3372 20.75 11.5C20.75 6.66287 16.8295 2.74691 12 2.74691Z" fill="#E42728"/>
<path fill-rule="evenodd" clip-rule="evenodd" d="M12 4.34131C12.6904 4.34131 13.25 4.89955 13.25 5.58818V11.8225C13.25 12.5111 12.6904 13.0694 12 13.0694C11.3096 13.0694 10.75 12.5111 10.75 11.8225V5.58818C10.75 4.89955 11.3096 4.34131 12 4.34131Z" fill="#E42728"/>
<path fill-rule="evenodd" clip-rule="evenodd" d="M12 14.3162C12.6904 14.3162 13.25 14.8744 13.25 15.563L13.25 16.8099C13.25 17.4985 12.6904 18.0568 12 18.0568C11.3096 18.0568 10.75 17.4985 10.75 16.8099L10.75 15.563C10.75 14.8744 11.3096 14.3162 12 14.3162Z" fill="#E42728"/>
</svg>
