<svg width="88" height="88" viewBox="0 0 88 88" fill="none" xmlns="http://www.w3.org/2000/svg">
  <g filter="url(#filter0_d)">
    <circle cx="43" cy="45" r="36" fill="#6670CB"/>
  </g>
  <path d="M43 50.8001C45.6509 50.8001 47.8 48.651 47.8 46.0001C47.8 43.3491 45.6509 41.2001 43 41.2001C40.349 41.2001 38.2 43.3491 38.2 46.0001C38.2 48.651 40.349 50.8001 43 50.8001Z" fill="white"/>
  <path d="M38.5 31L35.755 34H31C29.35 34 28 35.35 28 37V55C28 56.65 29.35 58 31 58H55C56.65 58 58 56.65 58 55V37C58 35.35 56.65 34 55 34H50.245L47.5 31H38.5ZM43 53.5C38.86 53.5 35.5 50.14 35.5 46C35.5 41.86 38.86 38.5 43 38.5C47.14 38.5 50.5 41.86 50.5 46C50.5 50.14 47.14 53.5 43 53.5Z" fill="white"/>
  <defs>
    <filter id="filter0_d" x="0" y="0" width="88" height="88" filterUnits="userSpaceOnUse" color-interpolation-filters="sRGB">
      <feFlood flood-opacity="0" result="BackgroundImageFix"/>
      <feColorMatrix in="SourceAlpha" type="matrix" values="0 0 0 0 0 0 0 0 0 0 0 0 0 0 0 0 0 0 127 0"/>
      <feOffset dx="1" dy="-1"/>
      <feGaussianBlur stdDeviation="4"/>
      <feColorMatrix type="matrix" values="0 0 0 0 0 0 0 0 0 0 0 0 0 0 0 0 0 0 0.15 0"/>
      <feBlend mode="normal" in2="BackgroundImageFix" result="effect1_dropShadow"/>
      <feBlend mode="normal" in="SourceGraphic" in2="effect1_dropShadow" result="shape"/>
    </filter>
  </defs>
</svg>
