<svg width="16" height="18" viewBox="0 0 16 18" fill="none" xmlns="http://www.w3.org/2000/svg">
  <path d="M0.5 16V6.46676L8 0.633431L15.5 6.46676V16C15.5 16.7057 14.9279 17.2778 14.2222 17.2778H1.77778C1.07208 17.2778 0.5 16.7057 0.5 16Z" stroke="#B4B4B4" stroke-linecap="round" stroke-linejoin="round"/>
  <mask id="path-2-inside-1" fill="white">
    <path fill-rule="evenodd" clip-rule="evenodd" d="M5.33336 17.7778V8.88892H10.6667V17.7778"/>
  </mask>
  <path d="M4.33336 17.7778C4.33336 18.3301 4.78107 18.7778 5.33336 18.7778C5.88564 18.7778 6.33336 18.3301 6.33336 17.7778H4.33336ZM5.33336 8.88892V7.88892C4.78107 7.88892 4.33336 8.33663 4.33336 8.88892H5.33336ZM10.6667 8.88892H11.6667C11.6667 8.33663 11.219 7.88892 10.6667 7.88892V8.88892ZM9.66669 17.7778C9.66669 18.3301 10.1144 18.7778 10.6667 18.7778C11.219 18.7778 11.6667 18.3301 11.6667 17.7778H9.66669ZM6.33336 17.7778V8.88892H4.33336V17.7778H6.33336ZM5.33336 9.88892H10.6667V7.88892H5.33336V9.88892ZM9.66669 8.88892V17.7778H11.6667V8.88892H9.66669Z" fill="#B4B4B4" mask="url(#path-2-inside-1)"/>
</svg>
