<svg width="115" height="18" viewBox="0 0 115 18" fill="none" xmlns="http://www.w3.org/2000/svg">
<path d="M28.455 15H31.41C34.71 15 36.645 13.02 36.645 9.435C36.645 5.835 34.71 3.945 31.32 3.945H28.455V15ZM30.195 13.575V5.37H31.2C33.57 5.37 34.845 6.675 34.845 9.435C34.845 12.18 33.57 13.575 31.2 13.575H30.195ZM40.7433 15.195C41.7333 15.195 42.6183 14.7 43.3683 14.055H43.4283L43.5633 15H44.9733V10.035C44.9733 7.845 44.0283 6.54 41.9733 6.54C40.6533 6.54 39.4983 7.08 38.6433 7.62L39.2883 8.79C39.9933 8.34 40.8033 7.95 41.6733 7.95C42.8883 7.95 43.2333 8.79 43.2483 9.75C39.8133 10.125 38.3133 11.04 38.3133 12.81C38.3133 14.265 39.3183 15.195 40.7433 15.195ZM41.2683 13.83C40.5333 13.83 39.9783 13.5 39.9783 12.69C39.9783 11.76 40.8033 11.13 43.2483 10.845V12.87C42.5733 13.485 41.9883 13.83 41.2683 13.83ZM49.6562 15.195C51.6962 15.195 52.7912 14.07 52.7912 12.69C52.7912 11.13 51.5162 10.62 50.3612 10.185C49.4612 9.855 48.6512 9.585 48.6512 8.88C48.6512 8.31 49.0712 7.86 49.9862 7.86C50.6612 7.86 51.2462 8.16 51.8162 8.58L52.6262 7.515C51.9662 6.99 51.0512 6.54 49.9562 6.54C48.1262 6.54 47.0162 7.575 47.0162 8.955C47.0162 10.35 48.2312 10.935 49.3412 11.355C50.2262 11.7 51.1562 12.03 51.1562 12.78C51.1562 13.41 50.6912 13.89 49.7012 13.89C48.8162 13.89 48.0962 13.515 47.3612 12.945L46.5512 14.055C47.3612 14.715 48.5162 15.195 49.6562 15.195ZM54.6282 15H56.3532V9.15C57.0732 8.415 57.5982 8.025 58.3632 8.025C59.3382 8.025 59.7582 8.595 59.7582 10.02V15H61.4832V9.81C61.4832 7.71 60.7032 6.54 58.9482 6.54C57.8232 6.54 56.9982 7.155 56.2782 7.845L56.3532 6.21V3.045H54.6282V15ZM67.7846 15.195C69.6446 15.195 71.3396 13.575 71.3396 10.74C71.3396 8.205 70.1546 6.54 68.0696 6.54C67.1996 6.54 66.3146 7.005 65.6096 7.62L65.6696 6.21V3.045H63.9446V15H65.2946L65.4596 14.145H65.5046C66.2096 14.805 67.0346 15.195 67.7846 15.195ZM67.4546 13.77C66.9446 13.77 66.2996 13.575 65.6696 13.02V8.985C66.3446 8.31 66.9746 7.98 67.6196 7.98C68.9996 7.98 69.5546 9.045 69.5546 10.77C69.5546 12.705 68.6546 13.77 67.4546 13.77ZM76.6782 15.195C78.7182 15.195 80.5632 13.62 80.5632 10.875C80.5632 8.13 78.7182 6.54 76.6782 6.54C74.6382 6.54 72.7932 8.13 72.7932 10.875C72.7932 13.62 74.6382 15.195 76.6782 15.195ZM76.6782 13.785C75.3882 13.785 74.5782 12.63 74.5782 10.875C74.5782 9.135 75.3882 7.965 76.6782 7.965C77.9832 7.965 78.7932 9.135 78.7932 10.875C78.7932 12.63 77.9832 13.785 76.6782 13.785ZM84.3224 15.195C85.3124 15.195 86.1974 14.7 86.9474 14.055H87.0074L87.1424 15H88.5524V10.035C88.5524 7.845 87.6074 6.54 85.5524 6.54C84.2324 6.54 83.0774 7.08 82.2224 7.62L82.8674 8.79C83.5724 8.34 84.3824 7.95 85.2524 7.95C86.4674 7.95 86.8124 8.79 86.8274 9.75C83.3924 10.125 81.8924 11.04 81.8924 12.81C81.8924 14.265 82.8974 15.195 84.3224 15.195ZM84.8474 13.83C84.1124 13.83 83.5574 13.5 83.5574 12.69C83.5574 11.76 84.3824 11.13 86.8274 10.845V12.87C86.1524 13.485 85.5674 13.83 84.8474 13.83ZM91.0003 15H92.7253V9.855C93.2353 8.55 94.0453 8.085 94.7203 8.085C95.0503 8.085 95.2603 8.13 95.5453 8.22L95.8603 6.72C95.6053 6.6 95.3353 6.54 94.9303 6.54C94.0453 6.54 93.1753 7.17 92.5903 8.235H92.5453L92.4103 6.75H91.0003V15ZM99.8269 15.195C100.757 15.195 101.612 14.7 102.227 14.07H102.287L102.422 15H103.832V3.045H102.107V6.105L102.182 7.47C101.507 6.9 100.907 6.54 99.9619 6.54C98.1169 6.54 96.4219 8.205 96.4219 10.875C96.4219 13.62 97.7569 15.195 99.8269 15.195ZM100.232 13.77C98.9419 13.77 98.2069 12.735 98.2069 10.86C98.2069 9.075 99.1369 7.98 100.292 7.98C100.907 7.98 101.492 8.175 102.107 8.73V12.765C101.507 13.455 100.922 13.77 100.232 13.77Z" fill="#F3F3F3"/>
<rect x="1" y="1" width="6.22222" height="6.22222" stroke="#F3F3F3" stroke-width="2" stroke-linecap="round" stroke-linejoin="round"/>
<rect x="10.7778" y="1" width="6.22222" height="6.22222" stroke="#F3F3F3" stroke-width="2" stroke-linecap="round" stroke-linejoin="round"/>
<rect x="10.7778" y="10.7778" width="6.22222" height="6.22222" stroke="#F3F3F3" stroke-width="2" stroke-linecap="round" stroke-linejoin="round"/>
<rect x="1" y="10.7778" width="6.22222" height="6.22222" stroke="#F3F3F3" stroke-width="2" stroke-linecap="round" stroke-linejoin="round"/>
</svg>
