<svg width="16" height="17" viewBox="0 0 16 17" fill="none" xmlns="http://www.w3.org/2000/svg">
    <rect y="0.5" width="16" height="16" rx="2" fill="#7E72F2" />
    <path
        d="M12.4267 5.40635C12.327 5.30863 12.193 5.25391 12.0534 5.25391C11.9138 5.25391 11.7797 5.30863 11.6801 5.40635L6.88005 10.313L4.96 8.28636C4.91415 8.22523 4.85573 8.17466 4.78864 8.13809C4.72155 8.10151 4.64742 8.07977 4.5712 8.07435C4.49498 8.06893 4.41844 8.07995 4.34685 8.10667C4.27526 8.13339 4.21025 8.1752 4.15622 8.22923C4.10219 8.28326 4.06042 8.34827 4.0337 8.41986C4.00698 8.49144 3.99592 8.56792 4.00134 8.64414C4.00676 8.72036 4.0285 8.79453 4.06508 8.86162C4.10165 8.92871 4.15225 8.98716 4.21338 9.03301L6.56 11.4864C6.56 11.593 6.77338 11.6997 6.88005 11.6997C6.96285 11.6997 7.04447 11.6804 7.11853 11.6434C7.19258 11.6063 7.257 11.5526 7.30668 11.4864L12.4267 6.15303C12.5244 6.05333 12.5791 5.91929 12.5791 5.77969C12.5791 5.64009 12.5244 5.50604 12.4267 5.40635Z"
        fill="white" />
</svg>
    