<svg width="16" height="16" viewBox="0 0 16 16" fill="none" xmlns="http://www.w3.org/2000/svg">
    <rect width="16" height="16" rx="2" fill="#696D71" />
    <path
        d="M12.4267 4.90635C12.327 4.80863 12.193 4.75391 12.0534 4.75391C11.9138 4.75391 11.7797 4.80863 11.6801 4.90635L6.88005 9.81302L4.96 7.78636C4.91415 7.72523 4.85573 7.67466 4.78864 7.63809C4.72155 7.60151 4.64742 7.57977 4.5712 7.57435C4.49498 7.56893 4.41844 7.57995 4.34685 7.60667C4.27526 7.63339 4.21025 7.6752 4.15622 7.72923C4.10219 7.78326 4.06042 7.84827 4.0337 7.91986C4.00698 7.99144 3.99592 8.06792 4.00134 8.14414C4.00676 8.22036 4.0285 8.29453 4.06508 8.36162C4.10165 8.42871 4.15225 8.48716 4.21338 8.53301L6.56 10.9864C6.56 11.093 6.77338 11.1997 6.88005 11.1997C6.96285 11.1997 7.04447 11.1804 7.11853 11.1434C7.19258 11.1063 7.257 11.0526 7.30668 10.9864L12.4267 5.65303C12.5244 5.55333 12.5791 5.41929 12.5791 5.27969C12.5791 5.14009 12.5244 5.00604 12.4267 4.90635Z"
        fill="white" />
</svg>
    