<svg width="17" height="16" viewBox="0 0 17 16" fill="none" xmlns="http://www.w3.org/2000/svg">
  <path d="M8.66699 16C13.0853 16 16.667 12.4183 16.667 8C16.667 3.58172 13.0853 0 8.66699 0C4.24871 0 0.666992 3.58172 0.666992 8C0.666992 12.4183 4.24871 16 8.66699 16Z" fill="#FFDADA"/>
  <path fill-rule="evenodd" clip-rule="evenodd" d="M9.46719 4.8C9.46719 4.35817 9.10902 4 8.66719 4C8.22536 4 7.86719 4.35817 7.86719 4.8V8C7.86719 8.44183 8.22536 8.8 8.66719 8.8C9.10902 8.8 9.46719 8.44183 9.46719 8V4.8ZM8.66321 10.4C8.22358 10.4 7.86719 10.7582 7.86719 11.2C7.86719 11.6418 8.22358 12 8.66321 12H8.67117C9.1108 12 9.46719 11.6418 9.46719 11.2C9.46719 10.7582 9.1108 10.4 8.67117 10.4H8.66321Z" fill="#EA5455"/>
</svg>
