<svg width="42" height="42" viewBox="0 0 42 42" fill="none" xmlns="http://www.w3.org/2000/svg">
    <path
        d="M20.9999 7.7903C19.8483 7.7903 18.9677 6.90966 18.9677 5.75805V2.03225C18.9677 0.880643 19.8483 0 20.9999 0C22.1515 0 23.0322 0.880643 23.0322 2.03225V5.75805C23.0322 6.84192 22.1515 7.7903 20.9999 7.7903Z"
        fill="#9F8AEF" />
    <path
        d="M20.9999 42.0003C19.8483 42.0003 18.9677 41.1196 18.9677 39.968V36.2422C18.9677 35.0906 19.8483 34.21 20.9999 34.21C22.1515 34.21 23.0322 35.0906 23.0322 36.2422V39.968C23.0322 41.1196 22.1515 42.0003 20.9999 42.0003Z"
        fill="#412B97" />
    <path
        d="M13.3452 9.82295C12.6677 9.82295 11.9903 9.48424 11.5839 8.80683L9.75485 5.62296C9.21292 4.67458 9.55163 3.38749 10.5 2.84555C11.4484 2.30362 12.7355 2.64233 13.2774 3.59071L15.1065 6.77457C15.6484 7.72296 15.3097 9.01005 14.3613 9.55198C14.0903 9.68747 13.6839 9.82295 13.3452 9.82295Z"
        fill="#BDAFF4" />
    <path
        d="M30.4837 39.4255C29.8063 39.4255 29.1289 39.0868 28.7224 38.4094L26.8934 35.2255C26.3515 34.2771 26.6902 32.99 27.6386 32.4481C28.5869 31.9062 29.874 32.2449 30.416 33.1932L32.245 36.3771C32.7869 37.3255 32.4482 38.6126 31.4998 39.1545C31.1611 39.3577 30.8224 39.4255 30.4837 39.4255Z"
        fill="#432E95" />
    <path
        d="M7.79033 15.3773C7.45162 15.3773 7.11292 15.3096 6.77421 15.1063L3.59034 13.2773C2.64196 12.7354 2.30325 11.4483 2.84518 10.4999C3.38712 9.55151 4.67421 9.2128 5.6226 9.75473L8.80646 11.5838C9.75484 12.1257 10.0936 13.4128 9.55162 14.3612C9.14517 15.0386 8.46775 15.3773 7.79033 15.3773Z"
        fill="#D8CFFA" />
    <path
        d="M37.4612 32.516C37.1225 32.516 36.7838 32.4482 36.4451 32.245L33.1935 30.416C32.2451 29.874 31.9064 28.5869 32.4483 27.6386C32.9903 26.6902 34.2774 26.3515 35.2257 26.8934L38.4096 28.7224C39.358 29.2644 39.6967 30.5515 39.1548 31.4998C38.8161 32.1773 38.1386 32.516 37.4612 32.516Z"
        fill="#5541A7" />
    <path
        d="M5.75805 23.0323H2.03225C0.880643 23.0323 0 22.1516 0 21C0 19.8484 0.880643 18.9678 2.03225 18.9678H5.75805C6.90966 18.9678 7.7903 19.8484 7.7903 21C7.7903 22.1516 6.84192 23.0323 5.75805 23.0323Z"
        fill="#E4DDFF" />
    <path
        d="M39.9676 23.0323H36.2418C35.0902 23.0323 34.2096 22.1516 34.2096 21C34.2096 19.8484 35.0902 18.9678 36.2418 18.9678H39.9676C41.1193 18.9678 41.9999 19.8484 41.9999 21C41.9999 22.1516 41.1193 23.0323 39.9676 23.0323Z"
        fill="#644DBF" />
    <path
        d="M4.53872 32.516C3.8613 32.516 3.18389 32.1773 2.77744 31.4998C2.2355 30.5515 2.57421 29.2644 3.5226 28.7224L6.70646 26.8934C7.65484 26.3515 8.94194 26.6902 9.48387 27.6386C10.0258 28.5869 9.68709 29.874 8.73871 30.416L5.55485 32.245C5.28388 32.4482 4.94517 32.516 4.53872 32.516Z"
        fill="#1E0D61" />
    <path
        d="M34.2096 15.3773C33.5322 15.3773 32.8548 15.0386 32.4483 14.3612C31.9064 13.4128 32.2451 12.1257 33.1935 11.5838L36.3774 9.75473C37.3257 9.2128 38.6128 9.55151 39.1548 10.4999C39.6967 11.4483 39.358 12.7354 38.4096 13.2773L35.2257 15.1063C34.887 15.3096 34.5483 15.3773 34.2096 15.3773Z"
        fill="#745DCD" />
    <path
        d="M11.5161 39.4255C11.1774 39.4255 10.8387 39.3577 10.5 39.1545C9.55163 38.6126 9.21292 37.3255 9.75485 36.3771L11.5839 33.1932C12.1258 32.2449 13.4129 31.9062 14.3613 32.4481C15.3097 32.99 15.6484 34.2771 15.1065 35.2255L13.2774 38.4094C12.871 39.0868 12.1936 39.4255 11.5161 39.4255Z"
        fill="#331F82" />
    <path
        d="M28.6547 9.82295C28.316 9.82295 27.9773 9.75521 27.6386 9.55198C26.6902 9.01005 26.3515 7.72296 26.8934 6.77457L28.7224 3.59071C29.2644 2.64233 30.5515 2.30362 31.4998 2.84555C32.4482 3.38749 32.7869 4.67458 32.245 5.62296L30.416 8.80683C30.0095 9.4165 29.3321 9.82295 28.6547 9.82295Z"
        fill="#856FDF" />
</svg>