<svg width="86" height="24" viewBox="0 0 86 24" fill="none" xmlns="http://www.w3.org/2000/svg">
  <path fill-rule="evenodd" clip-rule="evenodd" d="M24 12C24 18.6274 18.6274 24 12 24C5.37258 24 0 18.6274 0 12C0 5.37258 5.37258 0 12 0C18.6274 0 24 5.37258 24 12ZM10.6075 5.31289L9.05186 5.03344H9.05123C8.47369 4.92976 7.87939 5.0641 7.39903 5.40691C6.91868 5.74971 6.5916 6.27292 6.48974 6.86145L5.00934 15.422C4.98012 15.5901 5.01762 15.7632 5.1136 15.9031C5.20957 16.0431 5.35616 16.1385 5.52113 16.1683L8.01059 16.6151C8.34062 16.6745 8.68027 16.5978 8.95482 16.4019C9.22937 16.206 9.41632 15.9071 9.47457 15.5707L11.1199 6.05916C11.1343 5.97587 11.1326 5.89049 11.1146 5.8079C11.0967 5.72532 11.063 5.64714 11.0154 5.57784C10.9678 5.50853 10.9073 5.44946 10.8373 5.404C10.7673 5.35854 10.6892 5.32758 10.6075 5.31289ZM18.4771 8.03527L13.4994 7.14026C13.3359 7.11089 13.1684 7.11462 13.0064 7.15125C12.8443 7.18788 12.6909 7.25668 12.555 7.35372C12.419 7.45077 12.3032 7.57415 12.214 7.71684C12.1249 7.85952 12.0642 8.0187 12.0354 8.18529L10.3895 17.6962C10.3749 17.7796 10.3767 17.8651 10.3946 17.9478C10.4125 18.0305 10.4463 18.1088 10.4939 18.1782C10.5416 18.2475 10.6022 18.3067 10.6723 18.3521C10.7424 18.3976 10.8207 18.4285 10.9025 18.4432L13.7022 18.9454C14.1517 19.0262 14.6123 19.016 15.0579 18.9154C15.5034 18.8148 15.9252 18.6257 16.2991 18.3589C16.6729 18.0922 16.9916 17.7531 17.2368 17.3608C17.482 16.9686 17.6491 16.531 17.7283 16.073L18.9901 8.7809C19.0045 8.69761 19.0026 8.61225 18.9846 8.5297C18.9666 8.44715 18.9328 8.36903 18.8851 8.29979C18.8375 8.23055 18.7769 8.17155 18.7069 8.12616C18.6369 8.08078 18.5588 8.04989 18.4771 8.03527Z" fill="white"/>
  <path d="M38.6882 12.5876C38.8079 12.8258 38.9217 13.0734 39.0294 13.3304C39.1431 13.5874 39.2508 13.8507 39.3526 14.1202C39.4543 13.8444 39.5621 13.578 39.6758 13.321C39.7895 13.0578 39.9062 12.8039 40.0259 12.5594L43.3835 5.63935C43.4433 5.52026 43.5032 5.42937 43.563 5.36669C43.6289 5.29774 43.7007 5.24759 43.7785 5.21625C43.8563 5.18491 43.9431 5.16611 44.0388 5.15984C44.1406 5.15357 44.2573 5.15044 44.389 5.15044H46.7052V18.8496H44.0299V10.9704C44.0299 10.5881 44.0478 10.1744 44.0837 9.72935L40.6184 16.7717C40.5107 16.991 40.364 17.1572 40.1785 17.27C39.999 17.3828 39.7925 17.4392 39.5591 17.4392H39.1461C38.9127 17.4392 38.7032 17.3828 38.5177 17.27C38.3381 17.1572 38.1945 16.991 38.0868 16.7717L34.6035 9.71995C34.6274 9.93933 34.6454 10.1587 34.6573 10.3781C34.6693 10.5912 34.6753 10.7887 34.6753 10.9704V18.8496H32V5.15044H34.3162C34.4479 5.15044 34.5616 5.15357 34.6573 5.15984C34.7591 5.16611 34.8489 5.18491 34.9267 5.21625C35.0045 5.24759 35.0733 5.29774 35.1332 5.36669C35.199 5.42937 35.2618 5.52026 35.3217 5.63935L38.6882 12.5876Z" fill="white"/>
  <path d="M61.4155 18.8496H59.0634C58.8 18.8496 58.5816 18.7869 58.408 18.6615C58.2404 18.5299 58.1237 18.3638 58.0579 18.1632L57.2858 15.775H52.3123L51.5402 18.1632C51.4804 18.3387 51.3636 18.4985 51.1901 18.6427C51.0165 18.7806 50.804 18.8496 50.5527 18.8496H48.1826L53.2459 5.15044H56.3522L61.4155 18.8496ZM53.0125 13.6125H56.5856L55.3826 9.86098C55.3048 9.62279 55.212 9.34385 55.1043 9.02418C55.0025 8.69823 54.9008 8.34721 54.799 7.97112C54.7033 8.35348 54.6045 8.70763 54.5028 9.03358C54.401 9.35953 54.3053 9.64159 54.2155 9.87979L53.0125 13.6125Z" fill="white"/>
  <path d="M75.2204 11.9953C75.2204 12.9857 75.0559 13.9071 74.7267 14.7596C74.4035 15.612 73.9456 16.3548 73.3531 16.9879C72.7606 17.6147 72.0454 18.1068 71.2075 18.4641C70.3756 18.8214 69.4509 19 68.4334 19C67.416 19 66.4883 18.8214 65.6504 18.4641C64.8125 18.1068 64.0943 17.6147 63.4958 16.9879C62.9033 16.3548 62.4425 15.612 62.1133 14.7596C61.7901 13.9071 61.6285 12.9857 61.6285 11.9953C61.6285 11.0049 61.7901 10.0835 62.1133 9.23103C62.4425 8.37855 62.9033 7.63891 63.4958 7.01209C64.0943 6.38527 64.8125 5.89322 65.6504 5.53593C66.4883 5.17864 67.416 5 68.4334 5C69.4509 5 70.3756 5.18178 71.2075 5.54533C72.0454 5.90262 72.7606 6.39467 73.3531 7.02149C73.9456 7.64831 74.4035 8.38796 74.7267 9.24043C75.0559 10.0929 75.2204 11.0112 75.2204 11.9953ZM72.1142 11.9953C72.1142 11.3183 72.0304 10.7103 71.8629 10.1713C71.6953 9.62592 71.4529 9.16521 71.1357 8.78912C70.8245 8.41303 70.4414 8.12469 69.9866 7.92411C69.5317 7.72353 69.014 7.62324 68.4334 7.62324C67.8469 7.62324 67.3232 7.72353 66.8624 7.92411C66.4075 8.12469 66.0215 8.41303 65.7043 8.78912C65.3931 9.16521 65.1537 9.62592 64.9861 10.1713C64.8185 10.7103 64.7347 11.3183 64.7347 11.9953C64.7347 12.6785 64.8185 13.2928 64.9861 13.8381C65.1537 14.3772 65.3931 14.8348 65.7043 15.2109C66.0215 15.587 66.4075 15.8753 66.8624 16.0759C67.3232 16.2702 67.8469 16.3674 68.4334 16.3674C69.014 16.3674 69.5317 16.2702 69.9866 16.0759C70.4414 15.8753 70.8245 15.587 71.1357 15.2109C71.4529 14.8348 71.6953 14.3772 71.8629 13.8381C72.0304 13.2928 72.1142 12.6785 72.1142 11.9953Z" fill="white"/>
  <path d="M86 5.15044V7.67025H82.3192V18.8496H79.2848V7.67025H75.604V5.15044H86Z" fill="white"/>
</svg>
