<svg width="199" height="36" viewBox="0 0 199 36" fill="none" xmlns="http://www.w3.org/2000/svg">
<path d="M184.51 32.2573V22.9243H186.238C186.586 22.9243 186.814 23.0803 186.922 23.3923L187.075 23.8963C187.231 23.7343 187.393 23.5873 187.561 23.4553C187.729 23.3173 187.909 23.2003 188.101 23.1043C188.299 23.0023 188.509 22.9243 188.731 22.8703C188.959 22.8103 189.208 22.7803 189.478 22.7803C190.042 22.7803 190.507 22.9273 190.873 23.2213C191.245 23.5093 191.527 23.8963 191.719 24.3823C191.875 24.0943 192.064 23.8483 192.286 23.6443C192.514 23.4403 192.757 23.2753 193.015 23.1493C193.279 23.0233 193.555 22.9303 193.843 22.8703C194.137 22.8103 194.428 22.7803 194.716 22.7803C195.25 22.7803 195.724 22.8613 196.138 23.0233C196.552 23.1793 196.897 23.4103 197.173 23.7163C197.455 24.0163 197.668 24.3883 197.812 24.8323C197.956 25.2703 198.028 25.7683 198.028 26.3263V32.2573H195.238V26.3263C195.238 25.3603 194.824 24.8773 193.996 24.8773C193.618 24.8773 193.303 25.0033 193.051 25.2553C192.805 25.5013 192.682 25.8583 192.682 26.3263V32.2573H189.892V26.3263C189.892 25.7923 189.787 25.4173 189.577 25.2013C189.367 24.9853 189.058 24.8773 188.65 24.8773C188.398 24.8773 188.158 24.9343 187.93 25.0483C187.708 25.1623 187.498 25.3153 187.3 25.5073V32.2573H184.51Z" fill="white"/>
<path d="M180.612 26.4703C180.612 26.2483 180.582 26.0323 180.522 25.8223C180.468 25.6123 180.375 25.4263 180.243 25.2643C180.117 25.0963 179.949 24.9613 179.739 24.8593C179.529 24.7573 179.274 24.7063 178.974 24.7063C178.446 24.7063 178.032 24.8593 177.732 25.1653C177.432 25.4653 177.234 25.9003 177.138 26.4703H180.612ZM177.102 28.0903C177.192 28.8703 177.429 29.4373 177.813 29.7913C178.197 30.1393 178.692 30.3133 179.298 30.3133C179.622 30.3133 179.901 30.2743 180.135 30.1963C180.369 30.1183 180.576 30.0313 180.756 29.9353C180.942 29.8393 181.11 29.7523 181.26 29.6743C181.416 29.5963 181.578 29.5573 181.746 29.5573C181.968 29.5573 182.136 29.6383 182.25 29.8003L183.06 30.7993C182.772 31.1293 182.46 31.3993 182.124 31.6093C181.794 31.8133 181.452 31.9753 181.098 32.0953C180.75 32.2093 180.399 32.2873 180.045 32.3293C179.697 32.3773 179.364 32.4013 179.046 32.4013C178.392 32.4013 177.777 32.2963 177.201 32.0863C176.631 31.8703 176.13 31.5523 175.698 31.1323C175.272 30.7123 174.933 30.1903 174.681 29.5663C174.435 28.9423 174.312 28.2163 174.312 27.3883C174.312 26.7643 174.417 26.1733 174.627 25.6153C174.843 25.0573 175.149 24.5683 175.545 24.1483C175.947 23.7283 176.43 23.3953 176.994 23.1493C177.564 22.9033 178.206 22.7803 178.92 22.7803C179.538 22.7803 180.102 22.8763 180.612 23.0683C181.128 23.2603 181.569 23.5393 181.935 23.9053C182.307 24.2713 182.595 24.7213 182.799 25.2553C183.009 25.7833 183.114 26.3833 183.114 27.0553C183.114 27.2653 183.105 27.4363 183.087 27.5683C183.069 27.7003 183.036 27.8053 182.988 27.8833C182.94 27.9613 182.874 28.0153 182.79 28.0453C182.712 28.0753 182.61 28.0903 182.484 28.0903H177.102Z" fill="white"/>
<path d="M171.326 32.4008C170.882 32.4008 170.489 32.3378 170.147 32.2118C169.811 32.0798 169.526 31.8968 169.292 31.6628C169.064 31.4228 168.89 31.1348 168.77 30.7988C168.65 30.4628 168.59 30.0878 168.59 29.6738V24.8498H167.798C167.654 24.8498 167.531 24.8048 167.429 24.7148C167.327 24.6188 167.276 24.4808 167.276 24.3008V23.2118L168.761 22.9238L169.31 20.6468C169.382 20.3588 169.586 20.2148 169.922 20.2148H171.38V22.9418H173.693V24.8498H171.38V29.4848C171.38 29.7008 171.431 29.8808 171.533 30.0248C171.641 30.1628 171.794 30.2318 171.992 30.2318C172.094 30.2318 172.178 30.2228 172.244 30.2048C172.316 30.1808 172.376 30.1568 172.424 30.1328C172.478 30.1028 172.526 30.0788 172.568 30.0608C172.616 30.0368 172.67 30.0248 172.73 30.0248C172.814 30.0248 172.88 30.0458 172.928 30.0878C172.982 30.1238 173.036 30.1838 173.09 30.2678L173.936 31.5908C173.576 31.8608 173.171 32.0648 172.721 32.2028C172.271 32.3348 171.806 32.4008 171.326 32.4008Z" fill="white"/>
<path d="M165.902 24.9673C165.83 25.0813 165.752 25.1623 165.668 25.2103C165.59 25.2583 165.488 25.2823 165.362 25.2823C165.23 25.2823 165.098 25.2553 164.966 25.2013C164.834 25.1413 164.69 25.0783 164.534 25.0123C164.384 24.9463 164.213 24.8863 164.021 24.8323C163.829 24.7723 163.61 24.7423 163.364 24.7423C163.01 24.7423 162.737 24.8113 162.545 24.9493C162.359 25.0813 162.266 25.2673 162.266 25.5073C162.266 25.6813 162.326 25.8253 162.446 25.9393C162.572 26.0533 162.737 26.1553 162.941 26.2453C163.145 26.3293 163.376 26.4103 163.634 26.4883C163.892 26.5663 164.156 26.6533 164.426 26.7493C164.696 26.8453 164.96 26.9593 165.218 27.0913C165.476 27.2173 165.707 27.3763 165.911 27.5683C166.115 27.7543 166.277 27.9823 166.397 28.2523C166.523 28.5223 166.586 28.8463 166.586 29.2243C166.586 29.6863 166.502 30.1123 166.334 30.5023C166.166 30.8923 165.914 31.2283 165.578 31.5103C165.248 31.7923 164.837 32.0113 164.345 32.1673C163.859 32.3233 163.298 32.4013 162.662 32.4013C162.344 32.4013 162.026 32.3713 161.708 32.3113C161.39 32.2513 161.081 32.1703 160.781 32.0683C160.487 31.9663 160.214 31.8463 159.962 31.7083C159.71 31.5643 159.494 31.4113 159.314 31.2493L159.962 30.2233C160.034 30.1033 160.124 30.0103 160.232 29.9443C160.346 29.8723 160.49 29.8363 160.664 29.8363C160.826 29.8363 160.97 29.8723 161.096 29.9443C161.228 30.0163 161.369 30.0943 161.519 30.1783C161.669 30.2623 161.843 30.3403 162.041 30.4123C162.245 30.4843 162.5 30.5203 162.806 30.5203C163.022 30.5203 163.205 30.4993 163.355 30.4573C163.505 30.4093 163.625 30.3463 163.715 30.2683C163.805 30.1903 163.871 30.1033 163.913 30.0073C163.955 29.9113 163.976 29.8123 163.976 29.7103C163.976 29.5243 163.913 29.3713 163.787 29.2513C163.661 29.1313 163.496 29.0293 163.292 28.9453C163.088 28.8553 162.854 28.7743 162.59 28.7023C162.332 28.6243 162.068 28.5373 161.798 28.4413C161.528 28.3453 161.261 28.2313 160.997 28.0993C160.739 27.9613 160.508 27.7903 160.304 27.5863C160.1 27.3763 159.935 27.1213 159.809 26.8213C159.683 26.5213 159.62 26.1583 159.62 25.7323C159.62 25.3363 159.695 24.9613 159.845 24.6073C160.001 24.2473 160.232 23.9323 160.538 23.6623C160.844 23.3923 161.228 23.1793 161.69 23.0233C162.152 22.8613 162.692 22.7803 163.31 22.7803C163.646 22.7803 163.97 22.8103 164.282 22.8703C164.6 22.9303 164.897 23.0143 165.173 23.1223C165.449 23.2303 165.701 23.3593 165.929 23.5093C166.157 23.6533 166.358 23.8123 166.532 23.9863L165.902 24.9673Z" fill="white"/>
<path d="M159.361 22.9238L154.375 34.6778C154.291 34.8638 154.189 34.9988 154.069 35.0828C153.949 35.1728 153.757 35.2178 153.493 35.2178H151.405L153.205 31.4378L149.479 22.9238H151.945C152.161 22.9238 152.326 22.9718 152.44 23.0678C152.56 23.1638 152.647 23.2778 152.701 23.4098L154.231 27.4328C154.375 27.7988 154.492 28.1738 154.582 28.5578C154.648 28.3658 154.714 28.1738 154.78 27.9818C154.846 27.7898 154.915 27.6008 154.987 27.4148L156.373 23.4098C156.427 23.2718 156.523 23.1578 156.661 23.0678C156.799 22.9718 156.949 22.9238 157.111 22.9238H159.361Z" fill="white"/>
<path d="M148.538 21.808C148.448 21.952 148.352 22.06 148.25 22.132C148.154 22.204 148.028 22.24 147.872 22.24C147.734 22.24 147.584 22.198 147.422 22.114C147.266 22.024 147.086 21.925 146.882 21.817C146.684 21.709 146.456 21.613 146.198 21.529C145.94 21.439 145.646 21.394 145.316 21.394C144.746 21.394 144.32 21.517 144.038 21.763C143.762 22.003 143.624 22.33 143.624 22.744C143.624 23.008 143.708 23.227 143.876 23.401C144.044 23.575 144.263 23.725 144.533 23.851C144.809 23.977 145.121 24.094 145.469 24.202C145.823 24.304 146.183 24.421 146.549 24.553C146.915 24.679 147.272 24.829 147.62 25.003C147.974 25.177 148.286 25.399 148.556 25.669C148.832 25.939 149.054 26.269 149.222 26.659C149.39 27.043 149.474 27.508 149.474 28.054C149.474 28.66 149.369 29.227 149.159 29.755C148.949 30.283 148.643 30.745 148.241 31.141C147.845 31.531 147.353 31.84 146.765 32.068C146.183 32.29 145.52 32.401 144.776 32.401C144.368 32.401 143.951 32.359 143.525 32.275C143.105 32.191 142.697 32.074 142.301 31.924C141.905 31.768 141.533 31.585 141.185 31.375C140.837 31.165 140.534 30.931 140.276 30.673L141.176 29.251C141.248 29.149 141.341 29.065 141.455 28.999C141.575 28.927 141.704 28.891 141.842 28.891C142.022 28.891 142.202 28.948 142.382 29.062C142.568 29.176 142.775 29.302 143.003 29.44C143.237 29.578 143.504 29.704 143.804 29.818C144.104 29.932 144.458 29.989 144.866 29.989C145.418 29.989 145.847 29.869 146.153 29.629C146.459 29.383 146.612 28.996 146.612 28.468C146.612 28.162 146.528 27.913 146.36 27.721C146.192 27.529 145.97 27.37 145.694 27.244C145.424 27.118 145.115 27.007 144.767 26.911C144.419 26.815 144.062 26.71 143.696 26.596C143.33 26.476 142.973 26.332 142.625 26.164C142.277 25.99 141.965 25.765 141.689 25.489C141.419 25.207 141.2 24.859 141.032 24.445C140.864 24.025 140.78 23.509 140.78 22.897C140.78 22.405 140.879 21.925 141.077 21.457C141.275 20.989 141.566 20.572 141.95 20.206C142.334 19.84 142.805 19.549 143.363 19.333C143.921 19.111 144.56 19 145.28 19C145.682 19 146.072 19.033 146.45 19.099C146.834 19.159 147.197 19.252 147.539 19.378C147.881 19.498 148.199 19.645 148.493 19.819C148.793 19.987 149.06 20.179 149.294 20.395L148.538 21.808Z" fill="white"/>
<path d="M133.234 32.4008C132.79 32.4008 132.397 32.3378 132.055 32.2118C131.719 32.0798 131.434 31.8968 131.2 31.6628C130.972 31.4228 130.798 31.1348 130.678 30.7988C130.558 30.4628 130.498 30.0878 130.498 29.6738V24.8498H129.706C129.562 24.8498 129.439 24.8048 129.337 24.7148C129.235 24.6188 129.184 24.4808 129.184 24.3008V23.2118L130.669 22.9238L131.218 20.6468C131.29 20.3588 131.494 20.2148 131.83 20.2148H133.288V22.9418H135.601V24.8498H133.288V29.4848C133.288 29.7008 133.339 29.8808 133.441 30.0248C133.549 30.1628 133.702 30.2318 133.9 30.2318C134.002 30.2318 134.086 30.2228 134.152 30.2048C134.224 30.1808 134.284 30.1568 134.332 30.1328C134.386 30.1028 134.434 30.0788 134.476 30.0608C134.524 30.0368 134.578 30.0248 134.638 30.0248C134.722 30.0248 134.788 30.0458 134.836 30.0878C134.89 30.1238 134.944 30.1838 134.998 30.2678L135.844 31.5908C135.484 31.8608 135.079 32.0648 134.629 32.2028C134.179 32.3348 133.714 32.4008 133.234 32.4008Z" fill="white"/>
<path d="M122.326 23.9323C122.506 23.7643 122.692 23.6083 122.884 23.4643C123.076 23.3203 123.28 23.2003 123.496 23.1043C123.718 23.0023 123.955 22.9243 124.207 22.8703C124.465 22.8103 124.744 22.7803 125.044 22.7803C125.554 22.7803 126.004 22.8703 126.394 23.0503C126.79 23.2243 127.123 23.4703 127.393 23.7883C127.663 24.1003 127.867 24.4753 128.005 24.9133C128.143 25.3453 128.212 25.8163 128.212 26.3263V32.2573H125.422V26.3263C125.422 25.8703 125.317 25.5163 125.107 25.2643C124.897 25.0063 124.588 24.8773 124.18 24.8773C123.874 24.8773 123.586 24.9433 123.316 25.0753C123.052 25.2013 122.794 25.3753 122.542 25.5973V32.2573H119.752V22.9243H121.48C121.828 22.9243 122.056 23.0803 122.164 23.3923L122.326 23.9323Z" fill="white"/>
<path d="M115.854 26.4703C115.854 26.2483 115.824 26.0323 115.764 25.8223C115.71 25.6123 115.617 25.4263 115.485 25.2643C115.359 25.0963 115.191 24.9613 114.981 24.8593C114.771 24.7573 114.516 24.7063 114.216 24.7063C113.688 24.7063 113.274 24.8593 112.974 25.1653C112.674 25.4653 112.476 25.9003 112.38 26.4703H115.854ZM112.344 28.0903C112.434 28.8703 112.671 29.4373 113.055 29.7913C113.439 30.1393 113.934 30.3133 114.54 30.3133C114.864 30.3133 115.143 30.2743 115.377 30.1963C115.611 30.1183 115.818 30.0313 115.998 29.9353C116.184 29.8393 116.352 29.7523 116.502 29.6743C116.658 29.5963 116.82 29.5573 116.988 29.5573C117.21 29.5573 117.378 29.6383 117.492 29.8003L118.302 30.7993C118.014 31.1293 117.702 31.3993 117.366 31.6093C117.036 31.8133 116.694 31.9753 116.34 32.0953C115.992 32.2093 115.641 32.2873 115.287 32.3293C114.939 32.3773 114.606 32.4013 114.288 32.4013C113.634 32.4013 113.019 32.2963 112.443 32.0863C111.873 31.8703 111.372 31.5523 110.94 31.1323C110.514 30.7123 110.175 30.1903 109.923 29.5663C109.677 28.9423 109.554 28.2163 109.554 27.3883C109.554 26.7643 109.659 26.1733 109.869 25.6153C110.085 25.0573 110.391 24.5683 110.787 24.1483C111.189 23.7283 111.672 23.3953 112.236 23.1493C112.806 22.9033 113.448 22.7803 114.162 22.7803C114.78 22.7803 115.344 22.8763 115.854 23.0683C116.37 23.2603 116.811 23.5393 117.177 23.9053C117.549 24.2713 117.837 24.7213 118.041 25.2553C118.251 25.7833 118.356 26.3833 118.356 27.0553C118.356 27.2653 118.347 27.4363 118.329 27.5683C118.311 27.7003 118.278 27.8053 118.23 27.8833C118.182 27.9613 118.116 28.0153 118.032 28.0453C117.954 28.0753 117.852 28.0903 117.726 28.0903H112.344Z" fill="white"/>
<path d="M94.7385 32.2573V22.9243H96.4665C96.8145 22.9243 97.0425 23.0803 97.1505 23.3923L97.3035 23.8963C97.4595 23.7343 97.6215 23.5873 97.7895 23.4553C97.9575 23.3173 98.1375 23.2003 98.3295 23.1043C98.5275 23.0023 98.7375 22.9243 98.9595 22.8703C99.1875 22.8103 99.4365 22.7803 99.7065 22.7803C100.271 22.7803 100.736 22.9273 101.102 23.2213C101.474 23.5093 101.756 23.8963 101.948 24.3823C102.104 24.0943 102.293 23.8483 102.515 23.6443C102.743 23.4403 102.986 23.2753 103.244 23.1493C103.508 23.0233 103.784 22.9303 104.072 22.8703C104.366 22.8103 104.657 22.7803 104.945 22.7803C105.479 22.7803 105.953 22.8613 106.367 23.0233C106.781 23.1793 107.126 23.4103 107.402 23.7163C107.684 24.0163 107.897 24.3883 108.041 24.8323C108.185 25.2703 108.257 25.7683 108.257 26.3263V32.2573H105.467V26.3263C105.467 25.3603 105.053 24.8773 104.225 24.8773C103.847 24.8773 103.532 25.0033 103.28 25.2553C103.034 25.5013 102.911 25.8583 102.911 26.3263V32.2573H100.121V26.3263C100.121 25.7923 100.016 25.4173 99.8055 25.2013C99.5955 24.9853 99.2865 24.8773 98.8785 24.8773C98.6265 24.8773 98.3865 24.9343 98.1585 25.0483C97.9365 25.1623 97.7265 25.3153 97.5285 25.5073V32.2573H94.7385Z" fill="white"/>
<path d="M90.8404 26.4703C90.8404 26.2483 90.8104 26.0323 90.7504 25.8223C90.6964 25.6123 90.6034 25.4263 90.4714 25.2643C90.3454 25.0963 90.1774 24.9613 89.9674 24.8593C89.7574 24.7573 89.5024 24.7063 89.2024 24.7063C88.6744 24.7063 88.2604 24.8593 87.9604 25.1653C87.6604 25.4653 87.4624 25.9003 87.3664 26.4703H90.8404ZM87.3304 28.0903C87.4204 28.8703 87.6574 29.4373 88.0414 29.7913C88.4254 30.1393 88.9204 30.3133 89.5264 30.3133C89.8504 30.3133 90.1294 30.2743 90.3634 30.1963C90.5974 30.1183 90.8044 30.0313 90.9844 29.9353C91.1704 29.8393 91.3384 29.7523 91.4884 29.6743C91.6444 29.5963 91.8064 29.5573 91.9744 29.5573C92.1964 29.5573 92.3644 29.6383 92.4784 29.8003L93.2884 30.7993C93.0004 31.1293 92.6884 31.3993 92.3524 31.6093C92.0224 31.8133 91.6804 31.9753 91.3264 32.0953C90.9784 32.2093 90.6274 32.2873 90.2734 32.3293C89.9254 32.3773 89.5924 32.4013 89.2744 32.4013C88.6204 32.4013 88.0054 32.2963 87.4294 32.0863C86.8594 31.8703 86.3584 31.5523 85.9264 31.1323C85.5004 30.7123 85.1614 30.1903 84.9094 29.5663C84.6634 28.9423 84.5404 28.2163 84.5404 27.3883C84.5404 26.7643 84.6454 26.1733 84.8554 25.6153C85.0714 25.0573 85.3774 24.5683 85.7734 24.1483C86.1754 23.7283 86.6584 23.3953 87.2224 23.1493C87.7924 22.9033 88.4344 22.7803 89.1484 22.7803C89.7664 22.7803 90.3304 22.8763 90.8404 23.0683C91.3564 23.2603 91.7974 23.5393 92.1634 23.9053C92.5354 24.2713 92.8234 24.7213 93.0274 25.2553C93.2374 25.7833 93.3424 26.3833 93.3424 27.0553C93.3424 27.2653 93.3334 27.4363 93.3154 27.5683C93.2974 27.7003 93.2644 27.8053 93.2164 27.8833C93.1684 27.9613 93.1024 28.0153 93.0184 28.0453C92.9404 28.0753 92.8384 28.0903 92.7124 28.0903H87.3304Z" fill="white"/>
<path d="M79.1333 27.0997C79.5953 27.0997 79.9283 26.9857 80.1323 26.7577C80.3423 26.5237 80.4473 26.2237 80.4473 25.8577C80.4473 25.4797 80.3423 25.1827 80.1323 24.9667C79.9283 24.7507 79.5953 24.6427 79.1333 24.6427C78.6713 24.6427 78.3353 24.7507 78.1253 24.9667C77.9213 25.1827 77.8193 25.4797 77.8193 25.8577C77.8193 26.0377 77.8433 26.2027 77.8913 26.3527C77.9453 26.5027 78.0263 26.6347 78.1343 26.7487C78.2423 26.8567 78.3773 26.9437 78.5393 27.0097C78.7073 27.0697 78.9053 27.0997 79.1333 27.0997ZM81.2933 32.5987C81.2933 32.3767 81.1943 32.2177 80.9963 32.1217C80.7983 32.0197 80.5403 31.9477 80.2223 31.9057C79.9043 31.8637 79.5473 31.8397 79.1513 31.8337C78.7613 31.8217 78.3713 31.7977 77.9813 31.7617C77.8073 31.8817 77.6633 32.0167 77.5493 32.1667C77.4413 32.3107 77.3873 32.4757 77.3873 32.6617C77.3873 32.7937 77.4143 32.9137 77.4683 33.0217C77.5283 33.1297 77.6303 33.2227 77.7743 33.3007C77.9183 33.3787 78.1103 33.4387 78.3503 33.4807C78.5963 33.5287 78.9053 33.5527 79.2773 33.5527C79.6793 33.5527 80.0093 33.5287 80.2673 33.4807C80.5253 33.4327 80.7293 33.3667 80.8793 33.2827C81.0353 33.1987 81.1433 33.0967 81.2033 32.9767C81.2633 32.8627 81.2933 32.7367 81.2933 32.5987ZM84.0473 23.2117V24.2287C84.0473 24.3847 84.0023 24.5077 83.9123 24.5977C83.8283 24.6877 83.6813 24.7567 83.4713 24.8047L82.7963 24.9577C82.8323 25.0897 82.8593 25.2247 82.8773 25.3627C82.9013 25.5007 82.9133 25.6447 82.9133 25.7947C82.9133 26.2627 82.8143 26.6827 82.6163 27.0547C82.4243 27.4267 82.1573 27.7447 81.8153 28.0087C81.4793 28.2667 81.0803 28.4677 80.6183 28.6117C80.1563 28.7497 79.6613 28.8187 79.1333 28.8187C78.9893 28.8187 78.8483 28.8157 78.7103 28.8097C78.5723 28.7977 78.4373 28.7797 78.3053 28.7557C78.1013 28.8817 77.9993 29.0227 77.9993 29.1787C77.9993 29.3347 78.0833 29.4487 78.2513 29.5207C78.4193 29.5867 78.6413 29.6347 78.9173 29.6647C79.1933 29.6887 79.5053 29.7067 79.8533 29.7187C80.2073 29.7247 80.5673 29.7457 80.9333 29.7817C81.2993 29.8117 81.6563 29.8657 82.0043 29.9437C82.3583 30.0217 82.6733 30.1477 82.9493 30.3217C83.2253 30.4957 83.4473 30.7297 83.6153 31.0237C83.7833 31.3117 83.8673 31.6807 83.8673 32.1307C83.8673 32.5507 83.7653 32.9617 83.5613 33.3637C83.3573 33.7657 83.0573 34.1227 82.6613 34.4347C82.2653 34.7467 81.7793 34.9957 81.2033 35.1817C80.6273 35.3737 79.9673 35.4697 79.2233 35.4697C78.4913 35.4697 77.8583 35.4007 77.3243 35.2627C76.7963 35.1247 76.3553 34.9417 76.0013 34.7137C75.6533 34.4917 75.3953 34.2337 75.2273 33.9397C75.0593 33.6457 74.9753 33.3397 74.9753 33.0217C74.9753 32.6077 75.0953 32.2627 75.3353 31.9867C75.5753 31.7107 75.9113 31.4887 76.3433 31.3207C76.1153 31.1827 75.9353 31.0057 75.8033 30.7897C75.6713 30.5737 75.6053 30.2947 75.6053 29.9527C75.6053 29.8147 75.6293 29.6707 75.6773 29.5207C75.7253 29.3647 75.8003 29.2147 75.9023 29.0707C76.0103 28.9207 76.1423 28.7797 76.2983 28.6477C76.4543 28.5157 76.6403 28.3987 76.8563 28.2967C76.3703 28.0387 75.9863 27.6997 75.7043 27.2797C75.4223 26.8537 75.2813 26.3587 75.2813 25.7947C75.2813 25.3267 75.3803 24.9067 75.5783 24.5347C75.7763 24.1567 76.0463 23.8387 76.3883 23.5807C76.7363 23.3167 77.1443 23.1157 77.6123 22.9777C78.0803 22.8337 78.5873 22.7617 79.1333 22.7617C79.9253 22.7617 80.6273 22.9117 81.2393 23.2117H84.0473Z" fill="white"/>
<path d="M71.0769 28.4591C70.5189 28.4831 70.0599 28.5311 69.6999 28.6031C69.3399 28.6751 69.0549 28.7651 68.8449 28.8731C68.6349 28.9811 68.4879 29.1041 68.4039 29.2421C68.3259 29.3801 68.2869 29.5301 68.2869 29.6921C68.2869 30.0101 68.3739 30.2351 68.5479 30.3671C68.7219 30.4931 68.9769 30.5561 69.3129 30.5561C69.6729 30.5561 69.9879 30.4931 70.2579 30.3671C70.5279 30.2411 70.8009 30.0371 71.0769 29.7551V28.4591ZM66.0549 24.2201C66.6189 23.7221 67.2429 23.3531 67.9269 23.1131C68.6169 22.8671 69.3549 22.7441 70.1409 22.7441C70.7049 22.7441 71.2119 22.8371 71.6619 23.0231C72.1179 23.2031 72.5019 23.4581 72.8139 23.7881C73.1319 24.1121 73.3749 24.4991 73.5429 24.9491C73.7109 25.3991 73.7949 25.8911 73.7949 26.4251V32.2571H72.5169C72.2529 32.2571 72.0519 32.2211 71.9139 32.1491C71.7819 32.0771 71.6709 31.9271 71.5809 31.6991L71.3829 31.1861C71.1489 31.3841 70.9239 31.5581 70.7079 31.7081C70.4919 31.8581 70.2669 31.9871 70.0329 32.0951C69.8049 32.1971 69.5589 32.2721 69.2949 32.3201C69.0369 32.3741 68.7489 32.4011 68.4309 32.4011C68.0049 32.4011 67.6179 32.3471 67.2699 32.2391C66.9219 32.1251 66.6249 31.9601 66.3789 31.7441C66.1389 31.5281 65.9529 31.2611 65.8209 30.9431C65.6889 30.6191 65.6229 30.2471 65.6229 29.8271C65.6229 29.4911 65.7069 29.1521 65.8749 28.8101C66.0429 28.4621 66.3339 28.1471 66.7479 27.8651C67.1619 27.5771 67.7199 27.3371 68.4219 27.1451C69.1239 26.9531 70.0089 26.8451 71.0769 26.8211V26.4251C71.0769 25.8791 70.9629 25.4861 70.7349 25.2461C70.5129 25.0001 70.1949 24.8771 69.7809 24.8771C69.4509 24.8771 69.1809 24.9131 68.9709 24.9851C68.7609 25.0571 68.5719 25.1381 68.4039 25.2281C68.2419 25.3181 68.0829 25.3991 67.9269 25.4711C67.7709 25.5431 67.5849 25.5791 67.3689 25.5791C67.1769 25.5791 67.0149 25.5311 66.8829 25.4351C66.7509 25.3391 66.6429 25.2251 66.5589 25.0931L66.0549 24.2201Z" fill="white"/>
<path d="M58.5703 23.9323C58.7503 23.7643 58.9363 23.6083 59.1283 23.4643C59.3203 23.3203 59.5243 23.2003 59.7403 23.1043C59.9623 23.0023 60.1993 22.9243 60.4513 22.8703C60.7093 22.8103 60.9883 22.7803 61.2883 22.7803C61.7983 22.7803 62.2483 22.8703 62.6383 23.0503C63.0343 23.2243 63.3673 23.4703 63.6373 23.7883C63.9073 24.1003 64.1113 24.4753 64.2493 24.9133C64.3873 25.3453 64.4563 25.8163 64.4563 26.3263V32.2573H61.6663V26.3263C61.6663 25.8703 61.5613 25.5163 61.3513 25.2643C61.1413 25.0063 60.8323 24.8773 60.4243 24.8773C60.1183 24.8773 59.8303 24.9433 59.5603 25.0753C59.2963 25.2013 59.0383 25.3753 58.7863 25.5973V32.2573H55.9963V22.9243H57.7243C58.0723 22.9243 58.3003 23.0803 58.4083 23.3923L58.5703 23.9323Z" fill="white"/>
<path d="M51.4949 28.4591C50.9369 28.4831 50.4779 28.5311 50.1179 28.6031C49.7579 28.6751 49.4729 28.7651 49.2629 28.8731C49.0529 28.9811 48.9059 29.1041 48.8219 29.2421C48.7439 29.3801 48.7049 29.5301 48.7049 29.6921C48.7049 30.0101 48.7919 30.2351 48.9659 30.3671C49.1399 30.4931 49.3949 30.5561 49.7309 30.5561C50.0909 30.5561 50.4059 30.4931 50.6759 30.3671C50.9459 30.2411 51.2189 30.0371 51.4949 29.7551V28.4591ZM46.4729 24.2201C47.0369 23.7221 47.6609 23.3531 48.3449 23.1131C49.0349 22.8671 49.7729 22.7441 50.5589 22.7441C51.1229 22.7441 51.6299 22.8371 52.0799 23.0231C52.5359 23.2031 52.9199 23.4581 53.2319 23.7881C53.5499 24.1121 53.7929 24.4991 53.9609 24.9491C54.1289 25.3991 54.2129 25.8911 54.2129 26.4251V32.2571H52.9349C52.6709 32.2571 52.4699 32.2211 52.3319 32.1491C52.1999 32.0771 52.0889 31.9271 51.9989 31.6991L51.8009 31.1861C51.5669 31.3841 51.3419 31.5581 51.1259 31.7081C50.9099 31.8581 50.6849 31.9871 50.4509 32.0951C50.2229 32.1971 49.9769 32.2721 49.7129 32.3201C49.4549 32.3741 49.1669 32.4011 48.8489 32.4011C48.4229 32.4011 48.0359 32.3471 47.6879 32.2391C47.3399 32.1251 47.0429 31.9601 46.7969 31.7441C46.5569 31.5281 46.3709 31.2611 46.2389 30.9431C46.1069 30.6191 46.0409 30.2471 46.0409 29.8271C46.0409 29.4911 46.1249 29.1521 46.2929 28.8101C46.4609 28.4621 46.7519 28.1471 47.1659 27.8651C47.5799 27.5771 48.1379 27.3371 48.8399 27.1451C49.5419 26.9531 50.4269 26.8451 51.4949 26.8211V26.4251C51.4949 25.8791 51.3809 25.4861 51.1529 25.2461C50.9309 25.0001 50.6129 24.8771 50.1989 24.8771C49.8689 24.8771 49.5989 24.9131 49.3889 24.9851C49.1789 25.0571 48.9899 25.1381 48.8219 25.2281C48.6599 25.3181 48.5009 25.3991 48.3449 25.4711C48.1889 25.5431 48.0029 25.5791 47.7869 25.5791C47.5949 25.5791 47.4329 25.5311 47.3009 25.4351C47.1689 25.3391 47.0609 25.2251 46.9769 25.0931L46.4729 24.2201Z" fill="white"/>
<path d="M44.66 19.1436V32.2566H41.978V24.7146C41.978 24.5406 41.981 24.3516 41.987 24.1476C41.999 23.9436 42.017 23.7366 42.041 23.5266L38.558 30.2676C38.45 30.4776 38.303 30.6366 38.117 30.7446C37.937 30.8526 37.73 30.9066 37.496 30.9066H37.082C36.848 30.9066 36.638 30.8526 36.452 30.7446C36.272 30.6366 36.128 30.4776 36.02 30.2676L32.537 23.5086C32.555 23.7246 32.57 23.9376 32.582 24.1476C32.594 24.3516 32.6 24.5406 32.6 24.7146V32.2566H29.918V19.1436H32.24C32.372 19.1436 32.486 19.1466 32.582 19.1526C32.684 19.1586 32.774 19.1766 32.852 19.2066C32.93 19.2366 32.999 19.2846 33.059 19.3506C33.125 19.4106 33.188 19.4976 33.248 19.6116L36.623 26.2626C36.743 26.4906 36.857 26.7276 36.965 26.9736C37.079 27.2196 37.187 27.4716 37.289 27.7296C37.391 27.4656 37.496 27.2076 37.604 26.9556C37.718 26.7036 37.838 26.4636 37.964 26.2356L41.33 19.6116C41.39 19.4976 41.45 19.4106 41.51 19.3506C41.576 19.2846 41.648 19.2366 41.726 19.2066C41.804 19.1766 41.891 19.1586 41.987 19.1526C42.089 19.1466 42.206 19.1436 42.338 19.1436H44.66Z" fill="white"/>
<path d="M18.8774 29.9616C19.2794 29.9616 19.6064 29.9106 19.8584 29.8086C20.1164 29.7066 20.3174 29.5746 20.4614 29.4126C20.6054 29.2506 20.7044 29.0676 20.7584 28.8636C20.8124 28.6596 20.8394 28.4526 20.8394 28.2426C20.8394 28.0026 20.8064 27.7866 20.7404 27.5946C20.6804 27.4026 20.5724 27.2406 20.4164 27.1086C20.2664 26.9766 20.0654 26.8746 19.8134 26.8026C19.5614 26.7306 19.2434 26.6946 18.8594 26.6946H16.7354V29.9616H18.8774ZM16.7354 21.4206V24.6606H18.3194C18.6554 24.6606 18.9584 24.6366 19.2284 24.5886C19.4984 24.5406 19.7264 24.4566 19.9124 24.3366C20.1044 24.2166 20.2484 24.0516 20.3444 23.8416C20.4464 23.6316 20.4974 23.3676 20.4974 23.0496C20.4974 22.7376 20.4584 22.4796 20.3804 22.2756C20.3024 22.0656 20.1824 21.8976 20.0204 21.7716C19.8584 21.6456 19.6514 21.5556 19.3994 21.5016C19.1534 21.4476 18.8594 21.4206 18.5174 21.4206H16.7354ZM18.5174 19.1436C19.4234 19.1436 20.1944 19.2276 20.8304 19.3956C21.4664 19.5636 21.9854 19.8006 22.3874 20.1066C22.7894 20.4126 23.0804 20.7846 23.2604 21.2226C23.4464 21.6606 23.5394 22.1496 23.5394 22.6896C23.5394 22.9836 23.4974 23.2686 23.4134 23.5446C23.3294 23.8146 23.1974 24.0696 23.0174 24.3096C22.8374 24.5436 22.6064 24.7596 22.3244 24.9576C22.0424 25.1556 21.7034 25.3266 21.3074 25.4706C22.1714 25.6806 22.8104 26.0196 23.2244 26.4876C23.6384 26.9556 23.8454 27.5616 23.8454 28.3056C23.8454 28.8636 23.7374 29.3826 23.5214 29.8626C23.3054 30.3426 22.9874 30.7626 22.5674 31.1226C22.1534 31.4766 21.6404 31.7556 21.0284 31.9596C20.4164 32.1576 19.7174 32.2566 18.9314 32.2566H13.6934V19.1436H18.5174Z" fill="white"/>
<path d="M11.898 25.6956C11.898 26.6436 11.733 27.5196 11.403 28.3236C11.079 29.1216 10.62 29.8146 10.026 30.4026C9.432 30.9846 8.715 31.4406 7.875 31.7706C7.041 32.0946 6.114 32.2566 5.094 32.2566H0V19.1436H5.094C6.114 19.1436 7.041 19.3086 7.875 19.6386C8.715 19.9686 9.432 20.4246 10.026 21.0066C10.62 21.5886 11.079 22.2816 11.403 23.0856C11.733 23.8836 11.898 24.7536 11.898 25.6956ZM8.784 25.6956C8.784 25.0476 8.7 24.4626 8.532 23.9406C8.364 23.4186 8.121 22.9776 7.803 22.6176C7.491 22.2516 7.107 21.9726 6.651 21.7806C6.195 21.5826 5.676 21.4836 5.094 21.4836H3.06V29.9166H5.094C5.676 29.9166 6.195 29.8206 6.651 29.6286C7.107 29.4306 7.491 29.1516 7.803 28.7916C8.121 28.4256 8.364 27.9816 8.532 27.4596C8.7 26.9376 8.784 26.3496 8.784 25.6956Z" fill="white"/>
<path d="M53.4034 2.55555H49.7134V13.2566H46.6714V2.55555H42.9814V0.143555H53.4034V2.55555Z" fill="white"/>
<path d="M42.5067 6.696C42.5067 7.644 42.3417 8.526 42.0117 9.342C41.6877 10.158 41.2287 10.869 40.6347 11.475C40.0407 12.075 39.3237 12.546 38.4837 12.888C37.6497 13.23 36.7227 13.401 35.7027 13.401C34.6827 13.401 33.7527 13.23 32.9127 12.888C32.0727 12.546 31.3527 12.075 30.7527 11.475C30.1587 10.869 29.6967 10.158 29.3667 9.342C29.0427 8.526 28.8807 7.644 28.8807 6.696C28.8807 5.748 29.0427 4.866 29.3667 4.05C29.6967 3.234 30.1587 2.526 30.7527 1.926C31.3527 1.326 32.0727 0.855 32.9127 0.513C33.7527 0.171 34.6827 0 35.7027 0C36.7227 0 37.6497 0.174 38.4837 0.522C39.3237 0.864 40.0407 1.335 40.6347 1.935C41.2287 2.535 41.6877 3.243 42.0117 4.059C42.3417 4.875 42.5067 5.754 42.5067 6.696ZM39.3927 6.696C39.3927 6.048 39.3087 5.466 39.1407 4.95C38.9727 4.428 38.7297 3.987 38.4117 3.627C38.0997 3.267 37.7157 2.991 37.2597 2.799C36.8037 2.607 36.2847 2.511 35.7027 2.511C35.1147 2.511 34.5897 2.607 34.1277 2.799C33.6717 2.991 33.2847 3.267 32.9667 3.627C32.6547 3.987 32.4147 4.428 32.2467 4.95C32.0787 5.466 31.9947 6.048 31.9947 6.696C31.9947 7.35 32.0787 7.938 32.2467 8.46C32.4147 8.976 32.6547 9.414 32.9667 9.774C33.2847 10.134 33.6717 10.41 34.1277 10.602C34.5897 10.788 35.1147 10.881 35.7027 10.881C36.2847 10.881 36.8037 10.788 37.2597 10.602C37.7157 10.41 38.0997 10.134 38.4117 9.774C38.7297 9.414 38.9727 8.976 39.1407 8.46C39.3087 7.938 39.3927 7.35 39.3927 6.696Z" fill="white"/>
<path d="M24.2092 8.24355L22.9942 4.65255C22.9042 4.42455 22.8082 4.15755 22.7062 3.85155C22.6042 3.53955 22.5022 3.20355 22.4002 2.84355C22.3102 3.20955 22.2142 3.54855 22.1122 3.86055C22.0102 4.17255 21.9142 4.44255 21.8242 4.67055L20.6182 8.24355H24.2092ZM29.0422 13.2566H26.6842C26.4202 13.2566 26.2072 13.1966 26.0452 13.0766C25.8832 12.9506 25.7602 12.7916 25.6762 12.5996L24.9022 10.3136H19.9162L19.1422 12.5996C19.0762 12.7676 18.9562 12.9206 18.7822 13.0586C18.6142 13.1906 18.4042 13.2566 18.1522 13.2566H15.7762L20.8522 0.143555H23.9662L29.0422 13.2566Z" fill="white"/>
<path d="M14.742 0.143555V13.2566H12.06V5.71455C12.06 5.54055 12.063 5.35155 12.069 5.14755C12.081 4.94355 12.099 4.73655 12.123 4.52655L8.64 11.2676C8.532 11.4776 8.385 11.6366 8.199 11.7446C8.019 11.8526 7.812 11.9066 7.578 11.9066H7.164C6.93 11.9066 6.72 11.8526 6.534 11.7446C6.354 11.6366 6.21 11.4776 6.102 11.2676L2.619 4.50855C2.637 4.72455 2.652 4.93755 2.664 5.14755C2.676 5.35155 2.682 5.54055 2.682 5.71455V13.2566H0V0.143555H2.322C2.454 0.143555 2.568 0.146554 2.664 0.152554C2.766 0.158554 2.856 0.176554 2.934 0.206554C3.012 0.236554 3.081 0.284554 3.141 0.350555C3.207 0.410555 3.27 0.497554 3.33 0.611554L6.705 7.26256C6.825 7.49056 6.939 7.72755 7.047 7.97355C7.161 8.21955 7.269 8.47155 7.371 8.72955C7.473 8.46555 7.578 8.20755 7.686 7.95555C7.8 7.70355 7.92 7.46355 8.046 7.23555L11.412 0.611554C11.472 0.497554 11.532 0.410555 11.592 0.350555C11.658 0.284554 11.73 0.236554 11.808 0.206554C11.886 0.176554 11.973 0.158554 12.069 0.152554C12.171 0.146554 12.288 0.143555 12.42 0.143555H14.742Z" fill="white"/>
</svg>
