<svg width="203" height="30" viewBox="0 0 203 30" fill="none" xmlns="http://www.w3.org/2000/svg">
<path d="M52.0808 8.36434V22.0992H49.5724V13.6652C49.5724 13.4885 49.5755 13.2992 49.5819 13.0972C49.5945 12.8953 49.6134 12.6902 49.6386 12.482L45.7103 19.9315C45.4958 20.3417 45.1645 20.5468 44.7164 20.5468H44.3189C44.098 20.5468 43.9024 20.4963 43.732 20.3954C43.5616 20.2881 43.4259 20.1335 43.325 19.9315L39.3777 12.4536C39.3967 12.6744 39.4124 12.889 39.4251 13.0972C39.4377 13.2992 39.444 13.4885 39.444 13.6652V22.0992H36.9355V8.36434H39.0937C39.2136 8.36434 39.3209 8.3675 39.4156 8.37381C39.5102 8.38012 39.5923 8.39905 39.6617 8.4306C39.7374 8.45585 39.8037 8.50002 39.8605 8.56313C39.9236 8.61992 39.9835 8.70196 40.0403 8.80924L43.8834 16.1358C44.0033 16.3566 44.1138 16.5838 44.2147 16.8173C44.322 17.0508 44.423 17.2906 44.5177 17.5367C44.6123 17.2843 44.7101 17.0382 44.8111 16.7984C44.9184 16.5586 45.032 16.3282 45.1519 16.1074L48.9666 8.80924C49.0234 8.70196 49.0833 8.61992 49.1464 8.56313C49.2095 8.50002 49.2758 8.45585 49.3452 8.4306C49.4209 8.39905 49.503 8.38012 49.5913 8.37381C49.686 8.3675 49.7964 8.36434 49.9226 8.36434H52.0808Z" fill="white"/>
<path d="M62.588 16.8836L61.1018 12.6807C61.0135 12.4599 60.9188 12.2011 60.8179 11.9046C60.7232 11.608 60.6317 11.2861 60.5433 10.939C60.455 11.2924 60.3603 11.6206 60.2594 11.9235C60.1647 12.2201 60.0732 12.4788 59.9849 12.6997L58.5082 16.8836H62.588ZM67.3587 22.0992H65.1532C64.9071 22.0992 64.7051 22.0424 64.5474 21.9288C64.3959 21.8089 64.2823 21.6575 64.2066 21.4745L63.279 18.8524H57.8077L56.8801 21.4745C56.817 21.6322 56.7065 21.7774 56.5488 21.9099C56.391 22.0361 56.1922 22.0992 55.9524 22.0992H53.728L59.0951 8.36434H62.0011L67.3587 22.0992Z" fill="white"/>
<path d="M81.8702 15.227C81.8702 16.2304 81.6998 17.1612 81.359 18.0195C81.0246 18.8777 80.5481 19.6192 79.9297 20.2439C79.3176 20.8687 78.5792 21.3609 77.7147 21.7206C76.8502 22.074 75.891 22.2507 74.8371 22.2507C73.7832 22.2507 72.824 22.074 71.9595 21.7206C71.0949 21.3609 70.3535 20.8687 69.735 20.2439C69.1166 19.6192 68.637 18.8777 68.2962 18.0195C67.9618 17.1612 67.7945 16.2304 67.7945 15.227C67.7945 14.2237 67.9618 13.296 68.2962 12.4441C68.637 11.5859 69.1166 10.8444 69.735 10.2196C70.3535 9.5949 71.0949 9.10583 71.9595 8.75244C72.824 8.39274 73.7832 8.21289 74.8371 8.21289C75.891 8.21289 76.8502 8.39274 77.7147 8.75244C78.5792 9.10583 79.3176 9.59805 79.9297 10.2291C80.5481 10.8538 81.0246 11.5953 81.359 12.4536C81.6998 13.3055 81.8702 14.23 81.8702 15.227ZM78.9642 15.227C78.9642 14.5076 78.8695 13.864 78.6802 13.296C78.4909 12.7218 78.2164 12.2359 77.8567 11.8383C77.5033 11.4344 77.071 11.1284 76.5599 10.9201C76.055 10.7056 75.4808 10.5983 74.8371 10.5983C74.1934 10.5983 73.616 10.7056 73.1049 10.9201C72.5937 11.1284 72.1583 11.4344 71.7986 11.8383C71.4452 12.2359 71.1738 12.7218 70.9845 13.296C70.7952 13.864 70.7005 14.5076 70.7005 15.227C70.7005 15.9528 70.7952 16.6027 70.9845 17.177C71.1738 17.745 71.4452 18.2277 71.7986 18.6253C72.1583 19.0228 72.5937 19.3289 73.1049 19.5435C73.616 19.7517 74.1934 19.8558 74.8371 19.8558C75.4808 19.8558 76.055 19.7517 76.5599 19.5435C77.071 19.3289 77.5033 19.0228 77.8567 18.6253C78.2164 18.2277 78.4909 17.745 78.6802 17.177C78.8695 16.6027 78.9642 15.9528 78.9642 15.227Z" fill="white"/>
<path d="M93.6531 10.6551H89.6396V22.0992H86.7904V10.6551H82.7769V8.36434H93.6531V10.6551Z" fill="white"/>
<path d="M111.832 8.36434V22.0992H108.973V16.1831H102.924V22.0992H100.066V8.36434H102.924V14.1953H108.973V8.36434H111.832Z" fill="white"/>
<path d="M122.542 10.9958C122.454 11.141 122.363 11.2483 122.268 11.3177C122.18 11.3808 122.063 11.4123 121.918 11.4123C121.779 11.4123 121.627 11.365 121.463 11.2703C121.306 11.1694 121.119 11.0621 120.905 10.9485C120.69 10.8349 120.444 10.7308 120.167 10.6361C119.889 10.5352 119.564 10.4847 119.192 10.4847C118.535 10.4847 118.043 10.633 117.715 10.9296C117.387 11.2199 117.223 11.6016 117.223 12.0749C117.223 12.3778 117.311 12.6303 117.488 12.8322C117.671 13.0278 117.907 13.1982 118.198 13.3434C118.494 13.4885 118.829 13.6179 119.201 13.7315C119.573 13.845 119.955 13.9713 120.346 14.1101C120.738 14.2426 121.119 14.4004 121.492 14.5834C121.864 14.7664 122.195 14.9967 122.486 15.2744C122.782 15.552 123.019 15.8928 123.196 16.2967C123.379 16.6942 123.47 17.1802 123.47 17.7544C123.47 18.3792 123.36 18.966 123.139 19.5151C122.924 20.0578 122.612 20.5342 122.202 20.9444C121.791 21.3483 121.283 21.6669 120.678 21.9004C120.078 22.1339 119.397 22.2507 118.633 22.2507C118.198 22.2507 117.762 22.2065 117.327 22.1181C116.898 22.0298 116.481 21.9067 116.077 21.749C115.68 21.5912 115.304 21.4019 114.951 21.181C114.597 20.9602 114.288 20.7141 114.023 20.4427L114.856 19.0986C114.926 18.9976 115.017 18.9156 115.131 18.8524C115.244 18.783 115.364 18.7483 115.49 18.7483C115.661 18.7483 115.841 18.8114 116.03 18.9376C116.219 19.0639 116.437 19.2027 116.683 19.3541C116.929 19.5056 117.213 19.6444 117.535 19.7706C117.863 19.8968 118.254 19.9599 118.709 19.9599C119.371 19.9599 119.883 19.8085 120.242 19.5056C120.608 19.2027 120.791 18.7515 120.791 18.152C120.791 17.8049 120.7 17.5241 120.517 17.3095C120.34 17.095 120.107 16.9151 119.816 16.77C119.526 16.6248 119.195 16.5018 118.822 16.4008C118.45 16.2935 118.068 16.1768 117.677 16.0506C117.286 15.9244 116.904 15.7729 116.532 15.5962C116.159 15.4195 115.828 15.186 115.538 14.8957C115.247 14.6055 115.011 14.2458 114.828 13.8166C114.651 13.3875 114.563 12.8543 114.563 12.2169C114.563 11.7058 114.664 11.2104 114.866 10.7308C115.068 10.2512 115.364 9.82523 115.755 9.45291C116.147 9.08059 116.626 8.78084 117.194 8.55366C117.769 8.32648 118.425 8.21289 119.163 8.21289C119.99 8.21289 120.753 8.34226 121.454 8.60099C122.161 8.85341 122.757 9.2068 123.243 9.66116L122.542 10.9958Z" fill="white"/>
<path d="M128.783 10.5888V14.1195H133.364V16.2683H128.783V19.8748H134.67V22.0992H125.924V8.36434H134.67V10.5888H128.783Z" fill="white"/>
<path d="M149.516 10.9958C149.428 11.141 149.336 11.2483 149.242 11.3177C149.153 11.3808 149.037 11.4123 148.892 11.4123C148.753 11.4123 148.601 11.365 148.437 11.2703C148.279 11.1694 148.093 11.0621 147.879 10.9485C147.664 10.8349 147.418 10.7308 147.14 10.6361C146.863 10.5352 146.538 10.4847 146.165 10.4847C145.509 10.4847 145.017 10.633 144.689 10.9296C144.361 11.2199 144.196 11.6016 144.196 12.0749C144.196 12.3778 144.285 12.6303 144.462 12.8322C144.645 13.0278 144.881 13.1982 145.171 13.3434C145.468 13.4885 145.803 13.6179 146.175 13.7315C146.547 13.845 146.929 13.9713 147.32 14.1101C147.711 14.2426 148.093 14.4004 148.466 14.5834C148.838 14.7664 149.169 14.9967 149.459 15.2744C149.756 15.552 149.993 15.8928 150.169 16.2967C150.352 16.6942 150.444 17.1802 150.444 17.7544C150.444 18.3792 150.333 18.966 150.113 19.5151C149.898 20.0578 149.586 20.5342 149.175 20.9444C148.765 21.3483 148.257 21.6669 147.652 21.9004C147.052 22.1339 146.37 22.2507 145.607 22.2507C145.171 22.2507 144.736 22.2065 144.301 22.1181C143.871 22.0298 143.455 21.9067 143.051 21.749C142.654 21.5912 142.278 21.4019 141.925 21.181C141.571 20.9602 141.262 20.7141 140.997 20.4427L141.83 19.0986C141.899 18.9976 141.991 18.9156 142.105 18.8524C142.218 18.783 142.338 18.7483 142.464 18.7483C142.635 18.7483 142.814 18.8114 143.004 18.9376C143.193 19.0639 143.411 19.2027 143.657 19.3541C143.903 19.5056 144.187 19.6444 144.509 19.7706C144.837 19.8968 145.228 19.9599 145.683 19.9599C146.345 19.9599 146.856 19.8085 147.216 19.5056C147.582 19.2027 147.765 18.7515 147.765 18.152C147.765 17.8049 147.674 17.5241 147.491 17.3095C147.314 17.095 147.08 16.9151 146.79 16.77C146.5 16.6248 146.169 16.5018 145.796 16.4008C145.424 16.2935 145.042 16.1768 144.651 16.0506C144.26 15.9244 143.878 15.7729 143.505 15.5962C143.133 15.4195 142.802 15.186 142.512 14.8957C142.221 14.6055 141.985 14.2458 141.802 13.8166C141.625 13.3875 141.537 12.8543 141.537 12.2169C141.537 11.7058 141.638 11.2104 141.84 10.7308C142.041 10.2512 142.338 9.82523 142.729 9.45291C143.121 9.08059 143.6 8.78084 144.168 8.55366C144.742 8.32648 145.399 8.21289 146.137 8.21289C146.964 8.21289 147.727 8.34226 148.428 8.60099C149.134 8.85341 149.731 9.2068 150.217 9.66116L149.516 10.9958Z" fill="white"/>
<path d="M161.107 12.34L155.844 24.7212C155.762 24.8979 155.661 25.0305 155.541 25.1188C155.427 25.2072 155.244 25.2513 154.992 25.2513H153.051L154.897 21.3136L150.978 12.34H153.269C153.477 12.34 153.638 12.3873 153.752 12.482C153.865 12.5766 153.947 12.6871 153.998 12.8133L155.853 17.4799C155.923 17.6629 155.982 17.8491 156.033 18.0384C156.09 18.2214 156.143 18.4044 156.194 18.5874C156.307 18.2151 156.437 17.8428 156.582 17.4704L158.305 12.8133C158.355 12.6744 158.447 12.5608 158.579 12.4725C158.712 12.3842 158.857 12.34 159.015 12.34H161.107Z" fill="white"/>
<path d="M168.392 14.3467C168.322 14.454 168.25 14.5329 168.174 14.5834C168.105 14.6275 168.007 14.6496 167.881 14.6496C167.754 14.6496 167.625 14.6181 167.493 14.555C167.36 14.4919 167.212 14.4256 167.048 14.3562C166.884 14.2805 166.694 14.2111 166.48 14.1479C166.272 14.0848 166.029 14.0533 165.751 14.0533C165.328 14.0533 165 14.1416 164.766 14.3183C164.533 14.4887 164.416 14.7159 164.416 14.9999C164.416 15.1955 164.482 15.3596 164.615 15.4921C164.748 15.6246 164.921 15.7414 165.136 15.8423C165.356 15.937 165.606 16.0285 165.883 16.1168C166.161 16.1989 166.445 16.2904 166.735 16.3913C167.032 16.4923 167.319 16.6091 167.597 16.7416C167.874 16.8741 168.12 17.0413 168.335 17.2433C168.556 17.4389 168.733 17.6787 168.865 17.9627C168.998 18.2403 169.064 18.5779 169.064 18.9755C169.064 19.4488 168.976 19.8874 168.799 20.2912C168.628 20.6888 168.376 21.0327 168.042 21.323C167.707 21.6133 167.291 21.8405 166.792 22.0046C166.294 22.1686 165.719 22.2507 165.069 22.2507C164.735 22.2507 164.404 22.2191 164.075 22.156C163.747 22.0992 163.435 22.0172 163.138 21.9099C162.842 21.7963 162.564 21.6669 162.305 21.5218C162.047 21.3767 161.823 21.2189 161.633 21.0485L162.239 20.0735C162.308 19.9599 162.394 19.8716 162.495 19.8085C162.602 19.7454 162.738 19.7138 162.902 19.7138C163.059 19.7138 163.205 19.7549 163.337 19.8369C163.47 19.9126 163.618 19.9978 163.782 20.0925C163.946 20.1808 164.139 20.266 164.359 20.348C164.587 20.4238 164.867 20.4616 165.202 20.4616C165.454 20.4616 165.672 20.4332 165.855 20.3764C166.038 20.3196 166.186 20.2439 166.3 20.1493C166.413 20.0483 166.496 19.9379 166.546 19.818C166.603 19.6917 166.631 19.5624 166.631 19.4299C166.631 19.2153 166.562 19.0418 166.423 18.9092C166.29 18.7704 166.114 18.6505 165.893 18.5495C165.678 18.4486 165.429 18.3571 165.145 18.275C164.861 18.193 164.571 18.1015 164.274 18.0005C163.984 17.8996 163.697 17.7797 163.413 17.6408C163.135 17.502 162.886 17.3285 162.665 17.1202C162.45 16.9056 162.274 16.6438 162.135 16.3345C162.002 16.0253 161.936 15.6499 161.936 15.2081C161.936 14.8042 162.015 14.4225 162.173 14.0628C162.331 13.6967 162.567 13.3749 162.883 13.0972C163.198 12.8196 163.59 12.5987 164.057 12.4346C164.53 12.2706 165.076 12.1885 165.694 12.1885C166.388 12.1885 167.019 12.3021 167.587 12.5293C168.155 12.7565 168.622 13.0531 168.988 13.4191L168.392 14.3467Z" fill="white"/>
<path d="M174.464 22.2507C174.022 22.2507 173.631 22.1876 173.29 22.0614C172.949 21.9288 172.662 21.7427 172.428 21.5029C172.195 21.2631 172.018 20.9728 171.898 20.632C171.778 20.2912 171.718 19.9063 171.718 19.4772V14.2142H170.8C170.661 14.2142 170.542 14.17 170.441 14.0817C170.346 13.9933 170.299 13.8608 170.299 13.6841V12.6618L171.86 12.3778L172.391 9.85047C172.46 9.5665 172.652 9.42451 172.968 9.42451H174.331V12.3968H176.849V14.2142H174.331V19.3068C174.331 19.5782 174.394 19.7927 174.52 19.9505C174.653 20.1082 174.839 20.1871 175.079 20.1871C175.205 20.1871 175.312 20.1745 175.401 20.1493C175.489 20.1177 175.565 20.0862 175.628 20.0546C175.691 20.0167 175.748 19.9852 175.798 19.9599C175.855 19.9284 175.912 19.9126 175.969 19.9126C176.044 19.9126 176.107 19.9316 176.158 19.9694C176.208 20.001 176.259 20.0578 176.309 20.1398L177.095 21.3893C176.735 21.6733 176.328 21.8878 175.874 22.033C175.42 22.1781 174.949 22.2507 174.464 22.2507Z" fill="white"/>
<path d="M184.741 16.0695C184.741 15.7982 184.703 15.5394 184.628 15.2933C184.558 15.0472 184.445 14.8295 184.287 14.6402C184.129 14.4509 183.93 14.3026 183.69 14.1953C183.451 14.0817 183.163 14.0249 182.829 14.0249C182.204 14.0249 181.715 14.2016 181.362 14.555C181.008 14.9084 180.778 15.4132 180.671 16.0695H184.741ZM180.633 17.6219C180.715 18.5369 180.974 19.2058 181.409 19.6286C181.851 20.0514 182.425 20.2629 183.132 20.2629C183.492 20.2629 183.801 20.2218 184.06 20.1398C184.325 20.0514 184.555 19.9568 184.751 19.8558C184.953 19.7485 185.132 19.6539 185.29 19.5718C185.454 19.4835 185.615 19.4393 185.773 19.4393C185.975 19.4393 186.133 19.5151 186.246 19.6665L187.003 20.6131C186.726 20.9349 186.42 21.2031 186.085 21.4177C185.751 21.6259 185.404 21.7932 185.044 21.9194C184.684 22.0393 184.321 22.1213 183.955 22.1655C183.589 22.216 183.236 22.2412 182.895 22.2412C182.214 22.2412 181.576 22.1308 180.983 21.9099C180.396 21.6827 179.882 21.3514 179.44 20.916C179.005 20.4743 178.661 19.9284 178.408 19.2784C178.156 18.6284 178.03 17.8743 178.03 17.0161C178.03 16.3535 178.137 15.7287 178.352 15.1419C178.573 14.555 178.888 14.0438 179.298 13.6084C179.708 13.173 180.207 12.829 180.794 12.5766C181.381 12.3179 182.043 12.1885 182.782 12.1885C183.406 12.1885 183.981 12.2895 184.504 12.4914C185.035 12.6871 185.489 12.9742 185.868 13.3528C186.252 13.7315 186.549 14.1984 186.757 14.7538C186.972 15.3028 187.079 15.9307 187.079 16.6375C187.079 16.8331 187.07 16.994 187.051 17.1202C187.032 17.2464 187 17.3474 186.956 17.4231C186.912 17.4988 186.852 17.5525 186.776 17.584C186.701 17.6093 186.603 17.6219 186.483 17.6219H180.633Z" fill="white"/>
<path d="M189.095 22.0992V12.34H190.704C191.032 12.34 191.25 12.4914 191.357 12.7943L191.509 13.4285C191.679 13.2519 191.852 13.0878 192.029 12.9363C192.212 12.7849 192.408 12.6555 192.616 12.5482C192.824 12.4346 193.048 12.3463 193.288 12.2832C193.534 12.2201 193.799 12.1885 194.083 12.1885C194.683 12.1885 195.178 12.3494 195.569 12.6713C195.961 12.9868 196.257 13.4096 196.459 13.9397C196.617 13.6305 196.809 13.3654 197.037 13.1446C197.27 12.9174 197.522 12.7344 197.794 12.5956C198.071 12.4567 198.362 12.3558 198.665 12.2927C198.974 12.2232 199.283 12.1885 199.592 12.1885C200.141 12.1885 200.627 12.2706 201.05 12.4346C201.473 12.5987 201.826 12.8417 202.11 13.1635C202.4 13.479 202.621 13.8671 202.773 14.3278C202.924 14.7885 203 15.3122 203 15.8991V22.0992H200.387V15.8991C200.387 14.7569 199.898 14.1858 198.92 14.1858C198.699 14.1858 198.494 14.2237 198.305 14.2994C198.122 14.3688 197.958 14.4761 197.813 14.6212C197.674 14.7664 197.563 14.9462 197.481 15.1608C197.406 15.3753 197.368 15.6215 197.368 15.8991V22.0992H194.755V15.8991C194.755 15.2807 194.632 14.8421 194.386 14.5834C194.146 14.3183 193.79 14.1858 193.316 14.1858C193.014 14.1858 192.726 14.2584 192.455 14.4035C192.19 14.5424 191.941 14.738 191.707 14.9904V22.0992H189.095Z" fill="white"/>
<path fill-rule="evenodd" clip-rule="evenodd" d="M28.3974 15C28.3974 22.8417 22.0404 29.1987 14.1987 29.1987C6.35697 29.1987 0 22.8417 0 15C0 7.15824 6.35697 0.80127 14.1987 0.80127C22.0404 0.80127 28.3974 7.15824 28.3974 15ZM12.5514 7.08852L10.7108 6.75787H10.7101C10.0267 6.6352 9.3235 6.79415 8.75513 7.19977C8.18676 7.60539 7.79976 8.22446 7.67923 8.92082L5.92758 19.0499C5.89301 19.2488 5.93739 19.4536 6.05095 19.6192C6.16451 19.7848 6.33795 19.8976 6.53315 19.9329L9.47874 20.4616C9.86925 20.5318 10.2711 20.4411 10.596 20.2093C10.9208 19.9776 11.142 19.6238 11.211 19.2259L13.1577 7.97153C13.1748 7.87298 13.1727 7.77196 13.1515 7.67424C13.1303 7.57652 13.0904 7.48402 13.0341 7.40202C12.9778 7.32002 12.9062 7.25012 12.8234 7.19633C12.7405 7.14254 12.6481 7.10591 12.5514 7.08852ZM21.8629 10.3097L15.9732 9.25071C15.7798 9.21596 15.5816 9.22038 15.3899 9.26372C15.1981 9.30706 15.0166 9.38846 14.8558 9.50329C14.6949 9.61812 14.5578 9.76411 14.4524 9.93294C14.3469 10.1018 14.2751 10.2901 14.241 10.4872L12.2935 21.7408C12.2763 21.8395 12.2783 21.9406 12.2996 22.0385C12.3208 22.1363 12.3607 22.229 12.4171 22.311C12.4735 22.3931 12.5452 22.4631 12.6282 22.5169C12.7111 22.5707 12.8037 22.6073 12.9006 22.6246L16.2132 23.2188C16.745 23.3145 17.2901 23.3024 17.8173 23.1833C18.3445 23.0643 18.8435 22.8406 19.2859 22.525C19.7282 22.2094 20.1052 21.808 20.3954 21.344C20.6856 20.8799 20.8832 20.3621 20.977 19.8201L22.47 11.192C22.487 11.0934 22.4848 10.9924 22.4634 10.8947C22.4421 10.7971 22.4021 10.7046 22.3458 10.6227C22.2894 10.5408 22.2177 10.471 22.1349 10.4173C22.0521 10.3636 21.9596 10.327 21.8629 10.3097Z" fill="white"/>
</svg>
