<svg width="232" height="34" viewBox="0 0 232 34" fill="none" xmlns="http://www.w3.org/2000/svg">
<g clip-path="url(#clip0_20108_92800)">
<path d="M42.7621 6.98486H39.863V13.9791H28.025V6.98486H25.1259C24.4313 6.98486 23.8877 7.60201 23.8877 8.39058V23.5449C23.8877 24.3334 24.4313 24.9506 25.1259 24.9506H28.025V17.442H39.863V24.9506H42.7621C43.4567 24.9506 44.0003 24.3334 44.0003 23.5449V8.39058C44.0003 7.60201 43.4567 6.98486 42.7621 6.98486Z" fill="white"/>
<path d="M19.2972 6.98486H16.3981V20.2534L7.27797 9.76201C5.85861 8.15058 4.86205 6.98486 2.53672 6.98486H0V23.5449C0 24.3334 0.543583 24.9506 1.23816 24.9506H4.13727V11.6477L13.1668 22.0706C14.6465 23.7163 15.9753 24.9849 18.1194 24.9849H20.5655V8.39058C20.5655 7.60201 19.9918 6.98486 19.3274 6.98486H19.2972Z" fill="white"/>
</g>
<path d="M53.898 3.09386H62.218V4.45886H53.898V3.09386ZM53.898 0.298863H55.627V3.71786H53.898V0.298863ZM52.546 5.66786H63.427V7.03286H52.546V5.66786ZM57.122 3.88686H58.838V6.26586H57.122V3.88686ZM57.941 7.66986C59.241 7.66986 60.2637 7.86486 61.009 8.25486C61.7543 8.64486 62.127 9.1952 62.127 9.90586C62.127 10.6165 61.7543 11.1669 61.009 11.5569C60.2637 11.9469 59.241 12.1419 57.941 12.1419C56.641 12.1419 55.6183 11.9469 54.873 11.5569C54.1363 11.1669 53.768 10.6165 53.768 9.90586C53.768 9.1952 54.1363 8.64486 54.873 8.25486C55.6183 7.86486 56.641 7.66986 57.941 7.66986ZM57.941 8.99586C57.4037 8.99586 56.953 9.0262 56.589 9.08686C56.2337 9.14753 55.965 9.2472 55.783 9.38586C55.601 9.52453 55.51 9.69786 55.51 9.90586C55.51 10.1139 55.601 10.2872 55.783 10.4259C55.965 10.5559 56.2337 10.6555 56.589 10.7249C56.953 10.7855 57.4037 10.8159 57.941 10.8159C58.4783 10.8159 58.9247 10.7855 59.28 10.7249C59.644 10.6555 59.917 10.5559 60.099 10.4259C60.281 10.2872 60.372 10.1139 60.372 9.90586C60.372 9.69786 60.281 9.52453 60.099 9.38586C59.917 9.2472 59.644 9.14753 59.28 9.08686C58.9247 9.0262 58.4783 8.99586 57.941 8.99586ZM71.291 2.66486H73.488V4.04286H71.291V2.66486ZM71.265 5.03086H73.462V6.40886H71.265V5.03086ZM64.518 1.10486H71.135V2.46986H64.518V1.10486ZM67.898 2.83386C68.4527 2.83386 68.9423 2.92486 69.367 3.10686C69.7917 3.28886 70.1253 3.54453 70.368 3.87386C70.6107 4.2032 70.732 4.58453 70.732 5.01786C70.732 5.44253 70.6107 5.81953 70.368 6.14886C70.1253 6.4782 69.7917 6.73386 69.367 6.91586C68.9423 7.09786 68.4527 7.18886 67.898 7.18886C67.352 7.18886 66.8667 7.09786 66.442 6.91586C66.0173 6.73386 65.6837 6.4782 65.441 6.14886C65.1983 5.81953 65.077 5.44253 65.077 5.01786C65.077 4.58453 65.1983 4.2032 65.441 3.87386C65.6837 3.54453 66.0173 3.28886 66.442 3.10686C66.8667 2.92486 67.352 2.83386 67.898 2.83386ZM67.898 4.09486C67.534 4.09486 67.2393 4.1772 67.014 4.34186C66.7973 4.49786 66.689 4.7232 66.689 5.01786C66.689 5.31253 66.7973 5.5422 67.014 5.70686C67.2393 5.86286 67.534 5.94086 67.898 5.94086C68.262 5.94086 68.5567 5.86286 68.782 5.70686C69.0073 5.5422 69.12 5.31253 69.12 5.01786C69.12 4.7232 69.0073 4.49786 68.782 4.34186C68.5567 4.1772 68.262 4.09486 67.898 4.09486ZM67.04 -0.000137091H68.782V2.05386H67.04V-0.000137091ZM72.825 0.103863H74.567V7.26686H72.825V0.103863ZM66.507 7.72186H68.21V8.59286H72.851V7.72186H74.567V12.0119H66.507V7.72186ZM68.21 9.86686V10.6729H72.851V9.86686H68.21ZM76.906 1.24786H78.609V8.24186H76.906V1.24786ZM76.906 7.79986H77.751C78.4703 7.79986 79.1506 7.7782 79.792 7.73486C80.442 7.69153 81.1136 7.60053 81.807 7.46186L82.028 8.90486C81.3086 9.0522 80.6066 9.14753 79.922 9.19086C79.2373 9.2342 78.5136 9.25586 77.751 9.25586H76.906V7.79986ZM85.161 0.0908625H86.812V12.1289H85.161V0.0908625ZM80.247 3.89986H83.003V5.29086H80.247V3.89986ZM82.613 0.298863H84.225V11.5959H82.613V0.298863ZM89.684 6.29186H98.147V7.65686H89.684V6.29186ZM88.41 9.35986H99.317V10.7639H88.41V9.35986ZM89.684 0.974863H98.056V2.35286H91.439V6.66886H89.684V0.974863ZM90.906 3.62686H97.783V4.96586H90.906V3.62686ZM103.19 5.45986H104.893V8.00786H103.19V5.45986ZM108.767 0.103863H110.496V8.07286H108.767V0.103863ZM100.512 6.25286L100.317 4.91386C101.036 4.91386 101.825 4.9052 102.683 4.88786C103.55 4.87053 104.434 4.83586 105.335 4.78386C106.245 4.73186 107.12 4.64953 107.961 4.53686L108.065 5.73286C107.207 5.8802 106.332 5.99286 105.439 6.07086C104.546 6.1402 103.68 6.18786 102.839 6.21386C102.007 6.2312 101.231 6.2442 100.512 6.25286ZM106.388 6.44786H109.04V7.63086H106.388V6.44786ZM101.942 8.48886H110.496V12.1419H108.767V9.85386H101.942V8.48886ZM104.191 0.376863C104.789 0.376863 105.313 0.459196 105.764 0.623863C106.215 0.788529 106.566 1.02253 106.817 1.32586C107.068 1.62053 107.194 1.9672 107.194 2.36586C107.194 2.7732 107.068 3.12853 106.817 3.43186C106.566 3.72653 106.215 3.9562 105.764 4.12086C105.313 4.28553 104.789 4.36786 104.191 4.36786C103.602 4.36786 103.077 4.28553 102.618 4.12086C102.167 3.9562 101.812 3.72653 101.552 3.43186C101.301 3.12853 101.175 2.7732 101.175 2.36586C101.175 1.9672 101.301 1.62053 101.552 1.32586C101.812 1.02253 102.167 0.788529 102.618 0.623863C103.077 0.459196 103.602 0.376863 104.191 0.376863ZM104.191 1.58586C103.766 1.58586 103.424 1.6552 103.164 1.79386C102.913 1.92386 102.787 2.11453 102.787 2.36586C102.787 2.62586 102.913 2.8252 103.164 2.96386C103.424 3.10253 103.766 3.17186 104.191 3.17186C104.624 3.17186 104.962 3.10253 105.205 2.96386C105.456 2.8252 105.582 2.62586 105.582 2.36586C105.582 2.11453 105.456 1.92386 105.205 1.79386C104.962 1.6552 104.624 1.58586 104.191 1.58586ZM116.8 0.792863H118.295V1.66386C118.295 2.18386 118.221 2.69086 118.074 3.18486C117.935 3.6702 117.727 4.12953 117.45 4.56286C117.173 4.9962 116.83 5.39053 116.423 5.74586C116.024 6.09253 115.565 6.39153 115.045 6.64286C114.525 6.8942 113.953 7.08053 113.329 7.20186L112.588 5.75886C113.125 5.66353 113.615 5.52053 114.057 5.32986C114.508 5.13053 114.902 4.8922 115.24 4.61486C115.578 4.33753 115.864 4.03853 116.098 3.71786C116.332 3.38853 116.505 3.05053 116.618 2.70386C116.739 2.34853 116.8 2.00186 116.8 1.66386V0.792863ZM117.138 0.792863H118.646V1.66386C118.646 2.01053 118.702 2.36153 118.815 2.71686C118.936 3.0722 119.11 3.41453 119.335 3.74386C119.569 4.06453 119.855 4.3592 120.193 4.62786C120.531 4.89653 120.921 5.13053 121.363 5.32986C121.805 5.52053 122.303 5.66353 122.858 5.75886L122.117 7.20186C121.493 7.08053 120.921 6.8942 120.401 6.64286C119.881 6.39153 119.417 6.09253 119.01 5.74586C118.611 5.3992 118.269 5.0092 117.983 4.57586C117.706 4.14253 117.493 3.67886 117.346 3.18486C117.207 2.69086 117.138 2.18386 117.138 1.66386V0.792863ZM112.328 9.25586H123.235V10.6729H112.328V9.25586ZM134.031 2.66486H136.228V4.04286H134.031V2.66486ZM134.005 5.03086H136.202V6.40886H134.005V5.03086ZM127.258 1.10486H133.875V2.46986H127.258V1.10486ZM130.638 2.83386C131.193 2.83386 131.683 2.92486 132.107 3.10686C132.532 3.28886 132.866 3.54453 133.108 3.87386C133.351 4.2032 133.472 4.58453 133.472 5.01786C133.472 5.44253 133.351 5.81953 133.108 6.14886C132.866 6.4782 132.532 6.73386 132.107 6.91586C131.683 7.09786 131.193 7.18886 130.638 7.18886C130.092 7.18886 129.607 7.09786 129.182 6.91586C128.758 6.73386 128.424 6.4782 128.181 6.14886C127.939 5.81953 127.817 5.44253 127.817 5.01786C127.817 4.58453 127.939 4.2032 128.181 3.87386C128.424 3.54453 128.758 3.28886 129.182 3.10686C129.607 2.92486 130.092 2.83386 130.638 2.83386ZM130.638 4.09486C130.274 4.09486 129.98 4.1772 129.754 4.34186C129.538 4.49786 129.429 4.7232 129.429 5.01786C129.429 5.31253 129.538 5.5422 129.754 5.70686C129.98 5.86286 130.274 5.94086 130.638 5.94086C131.002 5.94086 131.297 5.86286 131.522 5.70686C131.748 5.5422 131.86 5.31253 131.86 5.01786C131.86 4.7232 131.748 4.49786 131.522 4.34186C131.297 4.1772 131.002 4.09486 130.638 4.09486ZM129.78 -0.000137091H131.522V2.05386H129.78V-0.000137091ZM135.565 0.103863H137.307V7.26686H135.565V0.103863ZM129.247 7.72186H130.95V8.59286H135.591V7.72186H137.307V12.0119H129.247V7.72186ZM130.95 9.86686V10.6729H135.591V9.86686H130.95ZM139.646 5.82386H140.556C141.31 5.82386 141.956 5.81953 142.493 5.81086C143.039 5.79353 143.538 5.7632 143.988 5.71986C144.439 5.67653 144.885 5.61586 145.327 5.53786L145.509 6.91586C145.154 6.97653 144.803 7.02853 144.456 7.07186C144.118 7.1152 143.754 7.14553 143.364 7.16286C142.983 7.1802 142.563 7.1932 142.103 7.20186C141.653 7.21053 141.137 7.21486 140.556 7.21486H139.646V5.82386ZM139.62 0.779863H144.911V4.57586H141.362V6.74686H139.646V3.28886H143.208V2.15786H139.62V0.779863ZM147.524 0.103863H149.266V7.52686H147.524V0.103863ZM145.6 1.76786H147.849V3.14586H145.6V1.76786ZM145.6 4.32886H147.849V5.70686H145.6V4.32886ZM141.011 8.07286H149.266V12.1419H147.524V9.43786H141.011V8.07286ZM157.234 2.75586H160.25V4.14686H157.234V2.75586ZM154.465 0.597863C155.072 0.597863 155.614 0.72353 156.09 0.974863C156.576 1.21753 156.957 1.55553 157.234 1.98886C157.512 2.41353 157.65 2.90753 157.65 3.47086C157.65 4.02553 157.512 4.51953 157.234 4.95286C156.957 5.3862 156.576 5.72853 156.09 5.97986C155.614 6.22253 155.072 6.34386 154.465 6.34386C153.867 6.34386 153.326 6.22253 152.84 5.97986C152.364 5.72853 151.987 5.3862 151.709 4.95286C151.432 4.51953 151.293 4.02553 151.293 3.47086C151.293 2.90753 151.432 2.41353 151.709 1.98886C151.987 1.55553 152.364 1.21753 152.84 0.974863C153.326 0.72353 153.867 0.597863 154.465 0.597863ZM154.465 2.02786C154.171 2.02786 153.906 2.0842 153.672 2.19686C153.447 2.30953 153.269 2.4742 153.139 2.69086C153.009 2.90753 152.944 3.16753 152.944 3.47086C152.944 3.76553 153.009 4.0212 153.139 4.23786C153.269 4.45453 153.447 4.6192 153.672 4.73186C153.906 4.84453 154.171 4.90086 154.465 4.90086C154.76 4.90086 155.02 4.84453 155.245 4.73186C155.479 4.6192 155.661 4.45453 155.791 4.23786C155.921 4.0212 155.986 3.76553 155.986 3.47086C155.986 3.16753 155.921 2.90753 155.791 2.69086C155.661 2.4742 155.479 2.30953 155.245 2.19686C155.02 2.0842 154.76 2.02786 154.465 2.02786ZM159.483 0.103863H161.225V6.56486H159.483V0.103863ZM153.23 7.09786H154.946V8.22886H159.509V7.09786H161.225V12.0119H153.23V7.09786ZM154.946 9.55486V10.6339H159.509V9.55486H154.946ZM168.01 4.65386H169.908V6.05786H168.01V4.65386ZM165.202 3.44486H166.515V3.75686C166.515 4.38086 166.463 5.00053 166.359 5.61586C166.264 6.22253 166.108 6.79886 165.891 7.34486C165.683 7.8822 165.41 8.37186 165.072 8.81386C164.743 9.2472 164.336 9.60253 163.85 9.87986L162.888 8.57986C163.313 8.32853 163.673 8.0252 163.967 7.66986C164.262 7.30586 164.5 6.91153 164.682 6.48686C164.873 6.05353 165.007 5.6072 165.085 5.14786C165.163 4.67986 165.202 4.2162 165.202 3.75686V3.44486ZM165.54 3.44486H166.853V3.75686C166.853 4.19886 166.892 4.6452 166.97 5.09586C167.057 5.54653 167.191 5.9712 167.373 6.36986C167.555 6.76853 167.794 7.13686 168.088 7.47486C168.383 7.8042 168.743 8.08153 169.167 8.30686L168.231 9.59386C167.59 9.25586 167.07 8.78786 166.671 8.18986C166.273 7.5832 165.982 6.89853 165.8 6.13586C165.627 5.36453 165.54 4.57153 165.54 3.75686V3.44486ZM163.33 2.11886H168.699V3.50986H163.33V2.11886ZM165.202 0.493863H166.853V3.23686H165.202V0.493863ZM171.793 0.0908625H173.444V12.1289H171.793V0.0908625ZM169.362 0.285863H170.974V11.5829H169.362V0.285863ZM177.512 4.12086H179.228V6.33086H177.512V4.12086ZM181.737 4.12086H183.466V6.33086H181.737V4.12086ZM175.055 5.81086H185.949V7.16286H175.055V5.81086ZM180.476 7.77386C181.776 7.77386 182.799 7.96453 183.544 8.34586C184.289 8.71853 184.662 9.25586 184.662 9.95786C184.662 10.6512 184.289 11.1885 183.544 11.5699C182.799 11.9512 181.776 12.1419 180.476 12.1419C179.176 12.1419 178.153 11.9512 177.408 11.5699C176.671 11.1885 176.303 10.6512 176.303 9.95786C176.303 9.25586 176.671 8.71853 177.408 8.34586C178.153 7.96453 179.176 7.77386 180.476 7.77386ZM180.476 9.07386C179.939 9.07386 179.488 9.10853 179.124 9.17786C178.769 9.23853 178.5 9.33386 178.318 9.46386C178.136 9.59386 178.045 9.75853 178.045 9.95786C178.045 10.1572 178.136 10.3262 178.318 10.4649C178.5 10.5949 178.769 10.6902 179.124 10.7509C179.488 10.8115 179.939 10.8419 180.476 10.8419C181.013 10.8419 181.46 10.8115 181.815 10.7509C182.179 10.6902 182.452 10.5949 182.634 10.4649C182.816 10.3262 182.907 10.1572 182.907 9.95786C182.907 9.75853 182.816 9.59386 182.634 9.46386C182.452 9.33386 182.179 9.23853 181.815 9.17786C181.46 9.10853 181.013 9.07386 180.476 9.07386ZM180.502 0.272862C181.395 0.272862 182.166 0.368196 182.816 0.558863C183.475 0.740863 183.982 1.0052 184.337 1.35186C184.692 1.69853 184.87 2.1102 184.87 2.58686C184.87 3.06353 184.692 3.4752 184.337 3.82186C183.982 4.15986 183.475 4.4242 182.816 4.61486C182.166 4.79686 181.395 4.88786 180.502 4.88786C179.627 4.88786 178.86 4.79686 178.201 4.61486C177.542 4.4242 177.035 4.15986 176.68 3.82186C176.325 3.4752 176.147 3.06353 176.147 2.58686C176.147 2.1102 176.325 1.69853 176.68 1.35186C177.035 1.0052 177.542 0.740863 178.201 0.558863C178.86 0.368196 179.627 0.272862 180.502 0.272862ZM180.502 1.58586C179.965 1.58586 179.501 1.62486 179.111 1.70286C178.721 1.7722 178.426 1.88053 178.227 2.02786C178.036 2.1752 177.941 2.36153 177.941 2.58686C177.941 2.80353 178.036 2.98553 178.227 3.13286C178.426 3.2802 178.721 3.39286 179.111 3.47086C179.501 3.5402 179.965 3.57486 180.502 3.57486C181.057 3.57486 181.525 3.5402 181.906 3.47086C182.287 3.39286 182.578 3.2802 182.777 3.13286C182.976 2.98553 183.076 2.80353 183.076 2.58686C183.076 2.36153 182.976 2.1752 182.777 2.02786C182.578 1.88053 182.287 1.7722 181.906 1.70286C181.525 1.62486 181.057 1.58586 180.502 1.58586ZM65.167 23.4239C65.167 24.3719 65.002 25.2479 64.672 26.0519C64.348 26.8499 63.889 27.5429 63.295 28.1309C62.701 28.7129 61.984 29.1689 61.144 29.4989C60.31 29.8229 59.383 29.9849 58.363 29.9849H53.269V16.8719H58.363C59.383 16.8719 60.31 17.0369 61.144 17.3669C61.984 17.6969 62.701 18.1529 63.295 18.7349C63.889 19.3169 64.348 20.0099 64.672 20.8139C65.002 21.6119 65.167 22.4819 65.167 23.4239ZM62.053 23.4239C62.053 22.7759 61.969 22.1909 61.801 21.6689C61.633 21.1469 61.39 20.7059 61.072 20.3459C60.76 19.9799 60.376 19.7009 59.92 19.5089C59.464 19.3109 58.945 19.2119 58.363 19.2119H56.329V27.6449H58.363C58.945 27.6449 59.464 27.5489 59.92 27.3569C60.376 27.1589 60.76 26.8799 61.072 26.5199C61.39 26.1539 61.633 25.7099 61.801 25.1879C61.969 24.6659 62.053 24.0779 62.053 23.4239ZM69.3507 20.6519V29.9849H66.5607V20.6519H69.3507ZM69.6387 18.0959C69.6387 18.3179 69.5937 18.5279 69.5037 18.7259C69.4137 18.9179 69.2907 19.0889 69.1347 19.2389C68.9787 19.3829 68.7957 19.4999 68.5857 19.5899C68.3817 19.6739 68.1627 19.7159 67.9287 19.7159C67.7007 19.7159 67.4877 19.6739 67.2897 19.5899C67.0917 19.4999 66.9147 19.3829 66.7587 19.2389C66.6087 19.0889 66.4887 18.9179 66.3987 18.7259C66.3147 18.5279 66.2727 18.3179 66.2727 18.0959C66.2727 17.8679 66.3147 17.6549 66.3987 17.4569C66.4887 17.2589 66.6087 17.0849 66.7587 16.9349C66.9147 16.7849 67.0917 16.6679 67.2897 16.5839C67.4877 16.4999 67.7007 16.4579 67.9287 16.4579C68.1627 16.4579 68.3817 16.4999 68.5857 16.5839C68.7957 16.6679 68.9787 16.7849 69.1347 16.9349C69.2907 17.0849 69.4137 17.2589 69.5037 17.4569C69.5937 17.6549 69.6387 17.8679 69.6387 18.0959ZM74.8516 24.8279C75.3136 24.8279 75.6466 24.7139 75.8506 24.4859C76.0606 24.2519 76.1656 23.9519 76.1656 23.5859C76.1656 23.2079 76.0606 22.9109 75.8506 22.6949C75.6466 22.4789 75.3136 22.3709 74.8516 22.3709C74.3896 22.3709 74.0536 22.4789 73.8436 22.6949C73.6396 22.9109 73.5376 23.2079 73.5376 23.5859C73.5376 23.7659 73.5616 23.9309 73.6096 24.0809C73.6636 24.2309 73.7446 24.3629 73.8526 24.4769C73.9606 24.5849 74.0956 24.6719 74.2576 24.7379C74.4256 24.7979 74.6236 24.8279 74.8516 24.8279ZM77.0116 30.3269C77.0116 30.1049 76.9126 29.9459 76.7146 29.8499C76.5166 29.7479 76.2586 29.6759 75.9406 29.6339C75.6226 29.5919 75.2656 29.5679 74.8696 29.5619C74.4796 29.5499 74.0896 29.5259 73.6996 29.4899C73.5256 29.6099 73.3816 29.7449 73.2676 29.8949C73.1596 30.0389 73.1056 30.2039 73.1056 30.3899C73.1056 30.5219 73.1326 30.6419 73.1866 30.7499C73.2466 30.8579 73.3486 30.9509 73.4926 31.0289C73.6366 31.1069 73.8286 31.1669 74.0686 31.2089C74.3146 31.2569 74.6236 31.2809 74.9956 31.2809C75.3976 31.2809 75.7276 31.2569 75.9856 31.2089C76.2436 31.1609 76.4476 31.0949 76.5976 31.0109C76.7536 30.9269 76.8616 30.8249 76.9216 30.7049C76.9816 30.5909 77.0116 30.4649 77.0116 30.3269ZM79.7656 20.9399V21.9569C79.7656 22.1129 79.7206 22.2359 79.6306 22.3259C79.5466 22.4159 79.3996 22.4849 79.1896 22.5329L78.5146 22.6859C78.5506 22.8179 78.5776 22.9529 78.5956 23.0909C78.6196 23.2289 78.6316 23.3729 78.6316 23.5229C78.6316 23.9909 78.5326 24.4109 78.3346 24.7829C78.1426 25.1549 77.8756 25.4729 77.5336 25.7369C77.1976 25.9949 76.7986 26.1959 76.3366 26.3399C75.8746 26.4779 75.3796 26.5469 74.8516 26.5469C74.7076 26.5469 74.5666 26.5439 74.4286 26.5379C74.2906 26.5259 74.1556 26.5079 74.0236 26.4839C73.8196 26.6099 73.7176 26.7509 73.7176 26.9069C73.7176 27.0629 73.8016 27.1769 73.9696 27.2489C74.1376 27.3149 74.3596 27.3629 74.6356 27.3929C74.9116 27.4169 75.2236 27.4349 75.5716 27.4469C75.9256 27.4529 76.2856 27.4739 76.6516 27.5099C77.0176 27.5399 77.3746 27.5939 77.7226 27.6719C78.0766 27.7499 78.3916 27.8759 78.6676 28.0499C78.9436 28.2239 79.1656 28.4579 79.3336 28.7519C79.5016 29.0399 79.5856 29.4089 79.5856 29.8589C79.5856 30.2789 79.4836 30.6899 79.2796 31.0919C79.0756 31.4939 78.7756 31.8509 78.3796 32.1629C77.9836 32.4749 77.4976 32.7239 76.9216 32.9099C76.3456 33.1019 75.6856 33.1979 74.9416 33.1979C74.2096 33.1979 73.5766 33.1289 73.0426 32.9909C72.5146 32.8529 72.0736 32.6699 71.7196 32.4419C71.3716 32.2199 71.1136 31.9619 70.9456 31.6679C70.7776 31.3739 70.6936 31.0679 70.6936 30.7499C70.6936 30.3359 70.8136 29.9909 71.0536 29.7149C71.2936 29.4389 71.6296 29.2169 72.0616 29.0489C71.8336 28.9109 71.6536 28.7339 71.5216 28.5179C71.3896 28.3019 71.3236 28.0229 71.3236 27.6809C71.3236 27.5429 71.3476 27.3989 71.3956 27.2489C71.4436 27.0929 71.5186 26.9429 71.6206 26.7989C71.7286 26.6489 71.8606 26.5079 72.0166 26.3759C72.1726 26.2439 72.3586 26.1269 72.5746 26.0249C72.0886 25.7669 71.7046 25.4279 71.4226 25.0079C71.1406 24.5819 70.9996 24.0869 70.9996 23.5229C70.9996 23.0549 71.0986 22.6349 71.2966 22.2629C71.4946 21.8849 71.7646 21.5669 72.1066 21.3089C72.4546 21.0449 72.8626 20.8439 73.3306 20.7059C73.7986 20.5619 74.3056 20.4899 74.8516 20.4899C75.6436 20.4899 76.3456 20.6399 76.9576 20.9399H79.7656ZM83.7824 20.6519V29.9849H80.9924V20.6519H83.7824ZM84.0704 18.0959C84.0704 18.3179 84.0254 18.5279 83.9354 18.7259C83.8454 18.9179 83.7224 19.0889 83.5664 19.2389C83.4104 19.3829 83.2274 19.4999 83.0174 19.5899C82.8134 19.6739 82.5944 19.7159 82.3604 19.7159C82.1324 19.7159 81.9194 19.6739 81.7214 19.5899C81.5234 19.4999 81.3464 19.3829 81.1904 19.2389C81.0404 19.0889 80.9204 18.9179 80.8304 18.7259C80.7464 18.5279 80.7044 18.3179 80.7044 18.0959C80.7044 17.8679 80.7464 17.6549 80.8304 17.4569C80.9204 17.2589 81.0404 17.0849 81.1904 16.9349C81.3464 16.7849 81.5234 16.6679 81.7214 16.5839C81.9194 16.4999 82.1324 16.4579 82.3604 16.4579C82.5944 16.4579 82.8134 16.4999 83.0174 16.5839C83.2274 16.6679 83.4104 16.7849 83.5664 16.9349C83.7224 17.0849 83.8454 17.2589 83.9354 17.4569C84.0254 17.6549 84.0704 17.8679 84.0704 18.0959ZM89.0672 30.1289C88.6232 30.1289 88.2302 30.0659 87.8882 29.9399C87.5522 29.8079 87.2672 29.6249 87.0332 29.3909C86.8052 29.1509 86.6312 28.8629 86.5112 28.5269C86.3912 28.1909 86.3312 27.8159 86.3312 27.4019V22.5779H85.5392C85.3952 22.5779 85.2722 22.5329 85.1702 22.4429C85.0682 22.3469 85.0172 22.2089 85.0172 22.0289V20.9399L86.5022 20.6519L87.0512 18.3749C87.1232 18.0869 87.3272 17.9429 87.6632 17.9429H89.1212V20.6699H91.4342V22.5779H89.1212V27.2129C89.1212 27.4289 89.1722 27.6089 89.2742 27.7529C89.3822 27.8909 89.5352 27.9599 89.7332 27.9599C89.8352 27.9599 89.9192 27.9509 89.9852 27.9329C90.0572 27.9089 90.1172 27.8849 90.1652 27.8609C90.2192 27.8309 90.2672 27.8069 90.3092 27.7889C90.3572 27.7649 90.4112 27.7529 90.4712 27.7529C90.5552 27.7529 90.6212 27.7739 90.6692 27.8159C90.7232 27.8519 90.7772 27.9119 90.8312 27.9959L91.6772 29.3189C91.3172 29.5889 90.9122 29.7929 90.4622 29.9309C90.0122 30.0629 89.5472 30.1289 89.0672 30.1289ZM97.4514 26.1869C96.8934 26.2109 96.4344 26.2589 96.0744 26.3309C95.7144 26.4029 95.4294 26.4929 95.2194 26.6009C95.0094 26.7089 94.8624 26.8319 94.7784 26.9699C94.7004 27.1079 94.6614 27.2579 94.6614 27.4199C94.6614 27.7379 94.7484 27.9629 94.9224 28.0949C95.0964 28.2209 95.3514 28.2839 95.6874 28.2839C96.0474 28.2839 96.3624 28.2209 96.6324 28.0949C96.9024 27.9689 97.1754 27.7649 97.4514 27.4829V26.1869ZM92.4294 21.9479C92.9934 21.4499 93.6174 21.0809 94.3014 20.8409C94.9914 20.5949 95.7294 20.4719 96.5154 20.4719C97.0794 20.4719 97.5864 20.5649 98.0364 20.7509C98.4924 20.9309 98.8764 21.1859 99.1884 21.5159C99.5064 21.8399 99.7494 22.2269 99.9174 22.6769C100.085 23.1269 100.169 23.6189 100.169 24.1529V29.9849H98.8914C98.6274 29.9849 98.4264 29.9489 98.2884 29.8769C98.1564 29.8049 98.0454 29.6549 97.9554 29.4269L97.7574 28.9139C97.5234 29.1119 97.2984 29.2859 97.0824 29.4359C96.8664 29.5859 96.6414 29.7149 96.4074 29.8229C96.1794 29.9249 95.9334 29.9999 95.6694 30.0479C95.4114 30.1019 95.1234 30.1289 94.8054 30.1289C94.3794 30.1289 93.9924 30.0749 93.6444 29.9669C93.2964 29.8529 92.9994 29.6879 92.7534 29.4719C92.5134 29.2559 92.3274 28.9889 92.1954 28.6709C92.0634 28.3469 91.9974 27.9749 91.9974 27.5549C91.9974 27.2189 92.0814 26.8799 92.2494 26.5379C92.4174 26.1899 92.7084 25.8749 93.1224 25.5929C93.5364 25.3049 94.0944 25.0649 94.7964 24.8729C95.4984 24.6809 96.3834 24.5729 97.4514 24.5489V24.1529C97.4514 23.6069 97.3374 23.2139 97.1094 22.9739C96.8874 22.7279 96.5694 22.6049 96.1554 22.6049C95.8254 22.6049 95.5554 22.6409 95.3454 22.7129C95.1354 22.7849 94.9464 22.8659 94.7784 22.9559C94.6164 23.0459 94.4574 23.1269 94.3014 23.1989C94.1454 23.2709 93.9594 23.3069 93.7434 23.3069C93.5514 23.3069 93.3894 23.2589 93.2574 23.1629C93.1254 23.0669 93.0174 22.9529 92.9334 22.8209L92.4294 21.9479ZM104.743 16.5119V29.9849H101.953V16.5119H104.743ZM118.364 19.5359C118.274 19.6799 118.178 19.7879 118.076 19.8599C117.98 19.9319 117.854 19.9679 117.698 19.9679C117.56 19.9679 117.41 19.9259 117.248 19.8419C117.092 19.7519 116.912 19.6529 116.708 19.5449C116.51 19.4369 116.282 19.3409 116.024 19.2569C115.766 19.1669 115.472 19.1219 115.142 19.1219C114.572 19.1219 114.146 19.2449 113.864 19.4909C113.588 19.7309 113.45 20.0579 113.45 20.4719C113.45 20.7359 113.534 20.9549 113.702 21.1289C113.87 21.3029 114.089 21.4529 114.359 21.5789C114.635 21.7049 114.947 21.8219 115.295 21.9299C115.649 22.0319 116.009 22.1489 116.375 22.2809C116.741 22.4069 117.098 22.5569 117.446 22.7309C117.8 22.9049 118.112 23.1269 118.382 23.3969C118.658 23.6669 118.88 23.9969 119.048 24.3869C119.216 24.7709 119.3 25.2359 119.3 25.7819C119.3 26.3879 119.195 26.9549 118.985 27.4829C118.775 28.0109 118.469 28.4729 118.067 28.8689C117.671 29.2589 117.179 29.5679 116.591 29.7959C116.009 30.0179 115.346 30.1289 114.602 30.1289C114.194 30.1289 113.777 30.0869 113.351 30.0029C112.931 29.9189 112.523 29.8019 112.127 29.6519C111.731 29.4959 111.359 29.3129 111.011 29.1029C110.663 28.8929 110.36 28.6589 110.102 28.4009L111.002 26.9789C111.074 26.8769 111.167 26.7929 111.281 26.7269C111.401 26.6549 111.53 26.6189 111.668 26.6189C111.848 26.6189 112.028 26.6759 112.208 26.7899C112.394 26.9039 112.601 27.0299 112.829 27.1679C113.063 27.3059 113.33 27.4319 113.63 27.5459C113.93 27.6599 114.284 27.7169 114.692 27.7169C115.244 27.7169 115.673 27.5969 115.979 27.3569C116.285 27.1109 116.438 26.7239 116.438 26.1959C116.438 25.8899 116.354 25.6409 116.186 25.4489C116.018 25.2569 115.796 25.0979 115.52 24.9719C115.25 24.8459 114.941 24.7349 114.593 24.6389C114.245 24.5429 113.888 24.4379 113.522 24.3239C113.156 24.2039 112.799 24.0599 112.451 23.8919C112.103 23.7179 111.791 23.4929 111.515 23.2169C111.245 22.9349 111.026 22.5869 110.858 22.1729C110.69 21.7529 110.606 21.2369 110.606 20.6249C110.606 20.1329 110.705 19.6529 110.903 19.1849C111.101 18.7169 111.392 18.2999 111.776 17.9339C112.16 17.5679 112.631 17.2769 113.189 17.0609C113.747 16.8389 114.386 16.7279 115.106 16.7279C115.508 16.7279 115.898 16.7609 116.276 16.8269C116.66 16.8869 117.023 16.9799 117.365 17.1059C117.707 17.2259 118.025 17.3729 118.319 17.5469C118.619 17.7149 118.886 17.9069 119.12 18.1229L118.364 19.5359ZM132.533 16.8719V29.9849H129.473V24.4409H124.145V29.9849H121.085V16.8719H124.145V22.3529H129.473V16.8719H132.533ZM149.82 16.8719V29.9849H147.138V22.4429C147.138 22.2689 147.141 22.0799 147.147 21.8759C147.159 21.6719 147.177 21.4649 147.201 21.2549L143.718 27.9959C143.61 28.2059 143.463 28.3649 143.277 28.4729C143.097 28.5809 142.89 28.6349 142.656 28.6349H142.242C142.008 28.6349 141.798 28.5809 141.612 28.4729C141.432 28.3649 141.288 28.2059 141.18 27.9959L137.697 21.2369C137.715 21.4529 137.73 21.6659 137.742 21.8759C137.754 22.0799 137.76 22.2689 137.76 22.4429V29.9849H135.078V16.8719H137.4C137.532 16.8719 137.646 16.8749 137.742 16.8809C137.844 16.8869 137.934 16.9049 138.012 16.9349C138.09 16.9649 138.159 17.0129 138.219 17.0789C138.285 17.1389 138.348 17.2259 138.408 17.3399L141.783 23.9909C141.903 24.2189 142.017 24.4559 142.125 24.7019C142.239 24.9479 142.347 25.1999 142.449 25.4579C142.551 25.1939 142.656 24.9359 142.764 24.6839C142.878 24.4319 142.998 24.1919 143.124 23.9639L146.49 17.3399C146.55 17.2259 146.61 17.1389 146.67 17.0789C146.736 17.0129 146.808 16.9649 146.886 16.9349C146.964 16.9049 147.051 16.8869 147.147 16.8809C147.249 16.8749 147.366 16.8719 147.498 16.8719H149.82ZM163.768 19.5359C163.678 19.6799 163.582 19.7879 163.48 19.8599C163.384 19.9319 163.258 19.9679 163.102 19.9679C162.964 19.9679 162.814 19.9259 162.652 19.8419C162.496 19.7519 162.316 19.6529 162.112 19.5449C161.914 19.4369 161.686 19.3409 161.428 19.2569C161.17 19.1669 160.876 19.1219 160.546 19.1219C159.976 19.1219 159.55 19.2449 159.268 19.4909C158.992 19.7309 158.854 20.0579 158.854 20.4719C158.854 20.7359 158.938 20.9549 159.106 21.1289C159.274 21.3029 159.493 21.4529 159.763 21.5789C160.039 21.7049 160.351 21.8219 160.699 21.9299C161.053 22.0319 161.413 22.1489 161.779 22.2809C162.145 22.4069 162.502 22.5569 162.85 22.7309C163.204 22.9049 163.516 23.1269 163.786 23.3969C164.062 23.6669 164.284 23.9969 164.452 24.3869C164.62 24.7709 164.704 25.2359 164.704 25.7819C164.704 26.3879 164.599 26.9549 164.389 27.4829C164.179 28.0109 163.873 28.4729 163.471 28.8689C163.075 29.2589 162.583 29.5679 161.995 29.7959C161.413 30.0179 160.75 30.1289 160.006 30.1289C159.598 30.1289 159.181 30.0869 158.755 30.0029C158.335 29.9189 157.927 29.8019 157.531 29.6519C157.135 29.4959 156.763 29.3129 156.415 29.1029C156.067 28.8929 155.764 28.6589 155.506 28.4009L156.406 26.9789C156.478 26.8769 156.571 26.7929 156.685 26.7269C156.805 26.6549 156.934 26.6189 157.072 26.6189C157.252 26.6189 157.432 26.6759 157.612 26.7899C157.798 26.9039 158.005 27.0299 158.233 27.1679C158.467 27.3059 158.734 27.4319 159.034 27.5459C159.334 27.6599 159.688 27.7169 160.096 27.7169C160.648 27.7169 161.077 27.5969 161.383 27.3569C161.689 27.1109 161.842 26.7239 161.842 26.1959C161.842 25.8899 161.758 25.6409 161.59 25.4489C161.422 25.2569 161.2 25.0979 160.924 24.9719C160.654 24.8459 160.345 24.7349 159.997 24.6389C159.649 24.5429 159.292 24.4379 158.926 24.3239C158.56 24.2039 158.203 24.0599 157.855 23.8919C157.507 23.7179 157.195 23.4929 156.919 23.2169C156.649 22.9349 156.43 22.5869 156.262 22.1729C156.094 21.7529 156.01 21.2369 156.01 20.6249C156.01 20.1329 156.109 19.6529 156.307 19.1849C156.505 18.7169 156.796 18.2999 157.18 17.9339C157.564 17.5679 158.035 17.2769 158.593 17.0609C159.151 16.8389 159.79 16.7279 160.51 16.7279C160.912 16.7279 161.302 16.7609 161.68 16.8269C162.064 16.8869 162.427 16.9799 162.769 17.1059C163.111 17.2259 163.429 17.3729 163.723 17.5469C164.023 17.7149 164.29 17.9069 164.524 18.1229L163.768 19.5359ZM174.591 20.6519L169.605 32.4059C169.521 32.5919 169.419 32.7269 169.299 32.8109C169.179 32.9009 168.987 32.9459 168.723 32.9459H166.635L168.435 29.1659L164.709 20.6519H167.175C167.391 20.6519 167.556 20.6999 167.67 20.7959C167.79 20.8919 167.877 21.0059 167.931 21.1379L169.461 25.1609C169.605 25.5269 169.722 25.9019 169.812 26.2859C169.878 26.0939 169.944 25.9019 170.01 25.7099C170.076 25.5179 170.145 25.3289 170.217 25.1429L171.603 21.1379C171.657 20.9999 171.753 20.8859 171.891 20.7959C172.029 20.6999 172.179 20.6519 172.341 20.6519H174.591ZM181.132 22.6949C181.06 22.8089 180.982 22.8899 180.898 22.9379C180.82 22.9859 180.718 23.0099 180.592 23.0099C180.46 23.0099 180.328 22.9829 180.196 22.9289C180.064 22.8689 179.92 22.8059 179.764 22.7399C179.614 22.6739 179.443 22.6139 179.251 22.5599C179.059 22.4999 178.84 22.4699 178.594 22.4699C178.24 22.4699 177.967 22.5389 177.775 22.6769C177.589 22.8089 177.496 22.9949 177.496 23.2349C177.496 23.4089 177.556 23.5529 177.676 23.6669C177.802 23.7809 177.967 23.8829 178.171 23.9729C178.375 24.0569 178.606 24.1379 178.864 24.2159C179.122 24.2939 179.386 24.3809 179.656 24.4769C179.926 24.5729 180.19 24.6869 180.448 24.8189C180.706 24.9449 180.937 25.1039 181.141 25.2959C181.345 25.4819 181.507 25.7099 181.627 25.9799C181.753 26.2499 181.816 26.5739 181.816 26.9519C181.816 27.4139 181.732 27.8399 181.564 28.2299C181.396 28.6199 181.144 28.9559 180.808 29.2379C180.478 29.5199 180.067 29.7389 179.575 29.8949C179.089 30.0509 178.528 30.1289 177.892 30.1289C177.574 30.1289 177.256 30.0989 176.938 30.0389C176.62 29.9789 176.311 29.8979 176.011 29.7959C175.717 29.6939 175.444 29.5739 175.192 29.4359C174.94 29.2919 174.724 29.1389 174.544 28.9769L175.192 27.9509C175.264 27.8309 175.354 27.7379 175.462 27.6719C175.576 27.5999 175.72 27.5639 175.894 27.5639C176.056 27.5639 176.2 27.5999 176.326 27.6719C176.458 27.7439 176.599 27.8219 176.749 27.9059C176.899 27.9899 177.073 28.0679 177.271 28.1399C177.475 28.2119 177.73 28.2479 178.036 28.2479C178.252 28.2479 178.435 28.2269 178.585 28.1849C178.735 28.1369 178.855 28.0739 178.945 27.9959C179.035 27.9179 179.101 27.8309 179.143 27.7349C179.185 27.6389 179.206 27.5399 179.206 27.4379C179.206 27.2519 179.143 27.0989 179.017 26.9789C178.891 26.8589 178.726 26.7569 178.522 26.6729C178.318 26.5829 178.084 26.5019 177.82 26.4299C177.562 26.3519 177.298 26.2649 177.028 26.1689C176.758 26.0729 176.491 25.9589 176.227 25.8269C175.969 25.6889 175.738 25.5179 175.534 25.3139C175.33 25.1039 175.165 24.8489 175.039 24.5489C174.913 24.2489 174.85 23.8859 174.85 23.4599C174.85 23.0639 174.925 22.6889 175.075 22.3349C175.231 21.9749 175.462 21.6599 175.768 21.3899C176.074 21.1199 176.458 20.9069 176.92 20.7509C177.382 20.5889 177.922 20.5079 178.54 20.5079C178.876 20.5079 179.2 20.5379 179.512 20.5979C179.83 20.6579 180.127 20.7419 180.403 20.8499C180.679 20.9579 180.931 21.0869 181.159 21.2369C181.387 21.3809 181.588 21.5399 181.762 21.7139L181.132 22.6949ZM186.555 30.1289C186.111 30.1289 185.718 30.0659 185.376 29.9399C185.04 29.8079 184.755 29.6249 184.521 29.3909C184.293 29.1509 184.119 28.8629 183.999 28.5269C183.879 28.1909 183.819 27.8159 183.819 27.4019V22.5779H183.027C182.883 22.5779 182.76 22.5329 182.658 22.4429C182.556 22.3469 182.505 22.2089 182.505 22.0289V20.9399L183.99 20.6519L184.539 18.3749C184.611 18.0869 184.815 17.9429 185.151 17.9429H186.609V20.6699H188.922V22.5779H186.609V27.2129C186.609 27.4289 186.66 27.6089 186.762 27.7529C186.87 27.8909 187.023 27.9599 187.221 27.9599C187.323 27.9599 187.407 27.9509 187.473 27.9329C187.545 27.9089 187.605 27.8849 187.653 27.8609C187.707 27.8309 187.755 27.8069 187.797 27.7889C187.845 27.7649 187.899 27.7529 187.959 27.7529C188.043 27.7529 188.109 27.7739 188.157 27.8159C188.211 27.8519 188.265 27.9119 188.319 27.9959L189.165 29.3189C188.805 29.5889 188.4 29.7929 187.95 29.9309C187.5 30.0629 187.035 30.1289 186.555 30.1289ZM195.842 24.1979C195.842 23.9759 195.812 23.7599 195.752 23.5499C195.698 23.3399 195.605 23.1539 195.473 22.9919C195.347 22.8239 195.179 22.6889 194.969 22.5869C194.759 22.4849 194.504 22.4339 194.204 22.4339C193.676 22.4339 193.262 22.5869 192.962 22.8929C192.662 23.1929 192.464 23.6279 192.368 24.1979H195.842ZM192.332 25.8179C192.422 26.5979 192.659 27.1649 193.043 27.5189C193.427 27.8669 193.922 28.0409 194.528 28.0409C194.852 28.0409 195.131 28.0019 195.365 27.9239C195.599 27.8459 195.806 27.7589 195.986 27.6629C196.172 27.5669 196.34 27.4799 196.49 27.4019C196.646 27.3239 196.808 27.2849 196.976 27.2849C197.198 27.2849 197.366 27.3659 197.48 27.5279L198.29 28.5269C198.002 28.8569 197.69 29.1269 197.354 29.3369C197.024 29.5409 196.682 29.7029 196.328 29.8229C195.98 29.9369 195.629 30.0149 195.275 30.0569C194.927 30.1049 194.594 30.1289 194.276 30.1289C193.622 30.1289 193.007 30.0239 192.431 29.8139C191.861 29.5979 191.36 29.2799 190.928 28.8599C190.502 28.4399 190.163 27.9179 189.911 27.2939C189.665 26.6699 189.542 25.9439 189.542 25.1159C189.542 24.4919 189.647 23.9009 189.857 23.3429C190.073 22.7849 190.379 22.2959 190.775 21.8759C191.177 21.4559 191.66 21.1229 192.224 20.8769C192.794 20.6309 193.436 20.5079 194.15 20.5079C194.768 20.5079 195.332 20.6039 195.842 20.7959C196.358 20.9879 196.799 21.2669 197.165 21.6329C197.537 21.9989 197.825 22.4489 198.029 22.9829C198.239 23.5109 198.344 24.1109 198.344 24.7829C198.344 24.9929 198.335 25.1639 198.317 25.2959C198.299 25.4279 198.266 25.5329 198.218 25.6109C198.17 25.6889 198.104 25.7429 198.02 25.7729C197.942 25.8029 197.84 25.8179 197.714 25.8179H192.332ZM199.74 29.9849V20.6519H201.468C201.816 20.6519 202.044 20.8079 202.152 21.1199L202.305 21.6239C202.461 21.4619 202.623 21.3149 202.791 21.1829C202.959 21.0449 203.139 20.9279 203.331 20.8319C203.529 20.7299 203.739 20.6519 203.961 20.5979C204.189 20.5379 204.438 20.5079 204.708 20.5079C205.272 20.5079 205.737 20.6549 206.103 20.9489C206.475 21.2369 206.757 21.6239 206.949 22.1099C207.105 21.8219 207.294 21.5759 207.516 21.3719C207.744 21.1679 207.987 21.0029 208.245 20.8769C208.509 20.7509 208.785 20.6579 209.073 20.5979C209.367 20.5379 209.658 20.5079 209.946 20.5079C210.48 20.5079 210.954 20.5889 211.368 20.7509C211.782 20.9069 212.127 21.1379 212.403 21.4439C212.685 21.7439 212.898 22.1159 213.042 22.5599C213.186 22.9979 213.258 23.4959 213.258 24.0539V29.9849H210.468V24.0539C210.468 23.0879 210.054 22.6049 209.226 22.6049C208.848 22.6049 208.533 22.7309 208.281 22.9829C208.035 23.2289 207.912 23.5859 207.912 24.0539V29.9849H205.122V24.0539C205.122 23.5199 205.017 23.1449 204.807 22.9289C204.597 22.7129 204.288 22.6049 203.88 22.6049C203.628 22.6049 203.388 22.6619 203.16 22.7759C202.938 22.8899 202.728 23.0429 202.53 23.2349V29.9849H199.74Z" fill="white"/>
<defs>
<clipPath id="clip0_20108_92800">
<rect width="44" height="18" fill="white" transform="translate(0 6.98486)"/>
</clipPath>
</defs>
</svg>
