<svg width="179" height="35" viewBox="0 0 179 35" fill="none" xmlns="http://www.w3.org/2000/svg">
<path d="M6.398 11.79C4.676 11.79 3.794 11.482 3.794 10.81C3.794 10.124 4.676 9.83 6.398 9.83C8.12 9.83 9.002 10.124 9.002 10.81C9.002 11.482 8.12 11.79 6.398 11.79ZM6.398 8.416C3.612 8.416 1.932 9.284 1.932 10.81C1.932 12.336 3.612 13.204 6.398 13.204C9.184 13.204 10.878 12.336 10.878 10.81C10.878 9.284 9.184 8.416 6.398 8.416ZM7.364 6.274V4.986H10.976V3.516H3.92V0.533999H2.072V4.986H5.516V6.274H0.616V7.73H12.278V6.274H7.364ZM20.5929 1.402H18.0729V0.211999H16.2249V1.402H13.5229V2.858H20.5929V1.402ZM15.8469 5.574C15.8469 4.93 16.3649 4.594 17.1489 4.594C17.9189 4.594 18.4509 4.93 18.4509 5.574C18.4509 6.232 17.9189 6.568 17.1489 6.568C16.3649 6.568 15.8469 6.232 15.8469 5.574ZM20.1589 5.574C20.1589 4.188 18.9129 3.236 17.1489 3.236C15.3709 3.236 14.1249 4.188 14.1249 5.574C14.1249 6.974 15.3709 7.926 17.1489 7.926C18.9129 7.926 20.1589 6.974 20.1589 5.574ZM22.4409 11.636H17.4569V10.768H22.4409V11.636ZM22.4409 9.41H17.4569V8.472H15.6369V13.05H24.2609V8.472H22.4409V9.41ZM22.4129 0.309999V3.054H20.7609V4.524H22.4129V5.602H20.7329V7.072H22.4129V7.996H24.2609V0.309999H22.4129ZM28.6698 1.542H26.8638V10.124H27.7598C29.3838 10.124 30.7838 10.068 32.3238 9.746L32.0998 8.206C30.9098 8.43 29.8318 8.514 28.6698 8.542V1.542ZM32.9678 4.37H30.4338V5.868H32.9678V12.63H34.6898V0.519999H32.9678V4.37ZM35.6978 0.296V13.19H37.4478V0.296H35.6978ZM49.6687 6.96H42.4867V5.518H49.2767V4.09H42.4867V2.732H49.5707V1.248H40.6107V8.416H49.6687V6.96ZM39.2387 10.222V11.72H50.9147V10.222H39.2387ZM56.2196 1.906C57.1436 1.906 57.7176 2.2 57.7176 2.746C57.7176 3.306 57.1436 3.6 56.2196 3.6C55.2956 3.6 54.7076 3.306 54.7076 2.746C54.7076 2.2 55.2956 1.906 56.2196 1.906ZM56.2196 4.888C58.1236 4.888 59.4396 4.034 59.4396 2.746C59.4396 1.472 58.1236 0.618 56.2196 0.618C54.3156 0.618 52.9996 1.472 52.9996 2.746C52.9996 4.034 54.3156 4.888 56.2196 4.888ZM55.1276 8.78H56.9756V6.75C58.1096 6.652 59.2576 6.54 60.3776 6.33L60.2516 5.07C57.5496 5.434 54.3716 5.476 52.0616 5.476L52.2856 6.904C53.1396 6.904 54.1056 6.89 55.1276 6.848V8.78ZM53.8116 10.754H61.1196V13.218H62.9676V9.298H53.8116V10.754ZM61.1196 0.323999V7.1H58.5716V8.36H61.1196V8.836H62.9676V0.323999H61.1196ZM76.2665 6.372C73.3545 5.882 71.7585 3.88 71.7585 1.99V1.066H69.7845V1.99C69.7845 3.838 68.1745 5.882 65.2765 6.372L66.0605 7.926C68.3005 7.492 69.9385 6.232 70.7645 4.594C71.5905 6.232 73.2425 7.478 75.4825 7.926L76.2665 6.372ZM64.9965 10.138V11.636H76.6725V10.138H64.9965ZM13.167 24.439C13.167 25.387 13.002 26.263 12.672 27.067C12.348 27.865 11.889 28.558 11.295 29.146C10.701 29.728 9.984 30.184 9.144 30.514C8.31 30.838 7.383 31 6.363 31H1.269V17.887H6.363C7.383 17.887 8.31 18.052 9.144 18.382C9.984 18.712 10.701 19.168 11.295 19.75C11.889 20.332 12.348 21.025 12.672 21.829C13.002 22.627 13.167 23.497 13.167 24.439ZM10.053 24.439C10.053 23.791 9.969 23.206 9.801 22.684C9.633 22.162 9.39 21.721 9.072 21.361C8.76 20.995 8.376 20.716 7.92 20.524C7.464 20.326 6.945 20.227 6.363 20.227H4.329V28.66H6.363C6.945 28.66 7.464 28.564 7.92 28.372C8.376 28.174 8.76 27.895 9.072 27.535C9.39 27.169 9.633 26.725 9.801 26.203C9.969 25.681 10.053 25.093 10.053 24.439ZM17.3507 21.667V31H14.5607V21.667H17.3507ZM17.6387 19.111C17.6387 19.333 17.5937 19.543 17.5037 19.741C17.4137 19.933 17.2907 20.104 17.1347 20.254C16.9787 20.398 16.7957 20.515 16.5857 20.605C16.3817 20.689 16.1627 20.731 15.9287 20.731C15.7007 20.731 15.4877 20.689 15.2897 20.605C15.0917 20.515 14.9147 20.398 14.7587 20.254C14.6087 20.104 14.4887 19.933 14.3987 19.741C14.3147 19.543 14.2727 19.333 14.2727 19.111C14.2727 18.883 14.3147 18.67 14.3987 18.472C14.4887 18.274 14.6087 18.1 14.7587 17.95C14.9147 17.8 15.0917 17.683 15.2897 17.599C15.4877 17.515 15.7007 17.473 15.9287 17.473C16.1627 17.473 16.3817 17.515 16.5857 17.599C16.7957 17.683 16.9787 17.8 17.1347 17.95C17.2907 18.1 17.4137 18.274 17.5037 18.472C17.5937 18.67 17.6387 18.883 17.6387 19.111ZM22.8516 25.843C23.3136 25.843 23.6466 25.729 23.8506 25.501C24.0606 25.267 24.1656 24.967 24.1656 24.601C24.1656 24.223 24.0606 23.926 23.8506 23.71C23.6466 23.494 23.3136 23.386 22.8516 23.386C22.3896 23.386 22.0536 23.494 21.8436 23.71C21.6396 23.926 21.5376 24.223 21.5376 24.601C21.5376 24.781 21.5616 24.946 21.6096 25.096C21.6636 25.246 21.7446 25.378 21.8526 25.492C21.9606 25.6 22.0956 25.687 22.2576 25.753C22.4256 25.813 22.6236 25.843 22.8516 25.843ZM25.0116 31.342C25.0116 31.12 24.9126 30.961 24.7146 30.865C24.5166 30.763 24.2586 30.691 23.9406 30.649C23.6226 30.607 23.2656 30.583 22.8696 30.577C22.4796 30.565 22.0896 30.541 21.6996 30.505C21.5256 30.625 21.3816 30.76 21.2676 30.91C21.1596 31.054 21.1056 31.219 21.1056 31.405C21.1056 31.537 21.1326 31.657 21.1866 31.765C21.2466 31.873 21.3486 31.966 21.4926 32.044C21.6366 32.122 21.8286 32.182 22.0686 32.224C22.3146 32.272 22.6236 32.296 22.9956 32.296C23.3976 32.296 23.7276 32.272 23.9856 32.224C24.2436 32.176 24.4476 32.11 24.5976 32.026C24.7536 31.942 24.8616 31.84 24.9216 31.72C24.9816 31.606 25.0116 31.48 25.0116 31.342ZM27.7656 21.955V22.972C27.7656 23.128 27.7206 23.251 27.6306 23.341C27.5466 23.431 27.3996 23.5 27.1896 23.548L26.5146 23.701C26.5506 23.833 26.5776 23.968 26.5956 24.106C26.6196 24.244 26.6316 24.388 26.6316 24.538C26.6316 25.006 26.5326 25.426 26.3346 25.798C26.1426 26.17 25.8756 26.488 25.5336 26.752C25.1976 27.01 24.7986 27.211 24.3366 27.355C23.8746 27.493 23.3796 27.562 22.8516 27.562C22.7076 27.562 22.5666 27.559 22.4286 27.553C22.2906 27.541 22.1556 27.523 22.0236 27.499C21.8196 27.625 21.7176 27.766 21.7176 27.922C21.7176 28.078 21.8016 28.192 21.9696 28.264C22.1376 28.33 22.3596 28.378 22.6356 28.408C22.9116 28.432 23.2236 28.45 23.5716 28.462C23.9256 28.468 24.2856 28.489 24.6516 28.525C25.0176 28.555 25.3746 28.609 25.7226 28.687C26.0766 28.765 26.3916 28.891 26.6676 29.065C26.9436 29.239 27.1656 29.473 27.3336 29.767C27.5016 30.055 27.5856 30.424 27.5856 30.874C27.5856 31.294 27.4836 31.705 27.2796 32.107C27.0756 32.509 26.7756 32.866 26.3796 33.178C25.9836 33.49 25.4976 33.739 24.9216 33.925C24.3456 34.117 23.6856 34.213 22.9416 34.213C22.2096 34.213 21.5766 34.144 21.0426 34.006C20.5146 33.868 20.0736 33.685 19.7196 33.457C19.3716 33.235 19.1136 32.977 18.9456 32.683C18.7776 32.389 18.6936 32.083 18.6936 31.765C18.6936 31.351 18.8136 31.006 19.0536 30.73C19.2936 30.454 19.6296 30.232 20.0616 30.064C19.8336 29.926 19.6536 29.749 19.5216 29.533C19.3896 29.317 19.3236 29.038 19.3236 28.696C19.3236 28.558 19.3476 28.414 19.3956 28.264C19.4436 28.108 19.5186 27.958 19.6206 27.814C19.7286 27.664 19.8606 27.523 20.0166 27.391C20.1726 27.259 20.3586 27.142 20.5746 27.04C20.0886 26.782 19.7046 26.443 19.4226 26.023C19.1406 25.597 18.9996 25.102 18.9996 24.538C18.9996 24.07 19.0986 23.65 19.2966 23.278C19.4946 22.9 19.7646 22.582 20.1066 22.324C20.4546 22.06 20.8626 21.859 21.3306 21.721C21.7986 21.577 22.3056 21.505 22.8516 21.505C23.6436 21.505 24.3456 21.655 24.9576 21.955H27.7656ZM31.7824 21.667V31H28.9924V21.667H31.7824ZM32.0704 19.111C32.0704 19.333 32.0254 19.543 31.9354 19.741C31.8454 19.933 31.7224 20.104 31.5664 20.254C31.4104 20.398 31.2274 20.515 31.0174 20.605C30.8134 20.689 30.5944 20.731 30.3604 20.731C30.1324 20.731 29.9194 20.689 29.7214 20.605C29.5234 20.515 29.3464 20.398 29.1904 20.254C29.0404 20.104 28.9204 19.933 28.8304 19.741C28.7464 19.543 28.7044 19.333 28.7044 19.111C28.7044 18.883 28.7464 18.67 28.8304 18.472C28.9204 18.274 29.0404 18.1 29.1904 17.95C29.3464 17.8 29.5234 17.683 29.7214 17.599C29.9194 17.515 30.1324 17.473 30.3604 17.473C30.5944 17.473 30.8134 17.515 31.0174 17.599C31.2274 17.683 31.4104 17.8 31.5664 17.95C31.7224 18.1 31.8454 18.274 31.9354 18.472C32.0254 18.67 32.0704 18.883 32.0704 19.111ZM37.0672 31.144C36.6232 31.144 36.2302 31.081 35.8882 30.955C35.5522 30.823 35.2672 30.64 35.0332 30.406C34.8052 30.166 34.6312 29.878 34.5112 29.542C34.3912 29.206 34.3312 28.831 34.3312 28.417V23.593H33.5392C33.3952 23.593 33.2722 23.548 33.1702 23.458C33.0682 23.362 33.0172 23.224 33.0172 23.044V21.955L34.5022 21.667L35.0512 19.39C35.1232 19.102 35.3272 18.958 35.6632 18.958H37.1212V21.685H39.4342V23.593H37.1212V28.228C37.1212 28.444 37.1722 28.624 37.2742 28.768C37.3822 28.906 37.5352 28.975 37.7332 28.975C37.8352 28.975 37.9192 28.966 37.9852 28.948C38.0572 28.924 38.1172 28.9 38.1652 28.876C38.2192 28.846 38.2672 28.822 38.3092 28.804C38.3572 28.78 38.4112 28.768 38.4712 28.768C38.5552 28.768 38.6212 28.789 38.6692 28.831C38.7232 28.867 38.7772 28.927 38.8312 29.011L39.6772 30.334C39.3172 30.604 38.9122 30.808 38.4622 30.946C38.0122 31.078 37.5472 31.144 37.0672 31.144ZM45.4514 27.202C44.8934 27.226 44.4344 27.274 44.0744 27.346C43.7144 27.418 43.4294 27.508 43.2194 27.616C43.0094 27.724 42.8624 27.847 42.7784 27.985C42.7004 28.123 42.6614 28.273 42.6614 28.435C42.6614 28.753 42.7484 28.978 42.9224 29.11C43.0964 29.236 43.3514 29.299 43.6874 29.299C44.0474 29.299 44.3624 29.236 44.6324 29.11C44.9024 28.984 45.1754 28.78 45.4514 28.498V27.202ZM40.4294 22.963C40.9934 22.465 41.6174 22.096 42.3014 21.856C42.9914 21.61 43.7294 21.487 44.5154 21.487C45.0794 21.487 45.5864 21.58 46.0364 21.766C46.4924 21.946 46.8764 22.201 47.1884 22.531C47.5064 22.855 47.7494 23.242 47.9174 23.692C48.0854 24.142 48.1694 24.634 48.1694 25.168V31H46.8914C46.6274 31 46.4264 30.964 46.2884 30.892C46.1564 30.82 46.0454 30.67 45.9554 30.442L45.7574 29.929C45.5234 30.127 45.2984 30.301 45.0824 30.451C44.8664 30.601 44.6414 30.73 44.4074 30.838C44.1794 30.94 43.9334 31.015 43.6694 31.063C43.4114 31.117 43.1234 31.144 42.8054 31.144C42.3794 31.144 41.9924 31.09 41.6444 30.982C41.2964 30.868 40.9994 30.703 40.7534 30.487C40.5134 30.271 40.3274 30.004 40.1954 29.686C40.0634 29.362 39.9974 28.99 39.9974 28.57C39.9974 28.234 40.0814 27.895 40.2494 27.553C40.4174 27.205 40.7084 26.89 41.1224 26.608C41.5364 26.32 42.0944 26.08 42.7964 25.888C43.4984 25.696 44.3834 25.588 45.4514 25.564V25.168C45.4514 24.622 45.3374 24.229 45.1094 23.989C44.8874 23.743 44.5694 23.62 44.1554 23.62C43.8254 23.62 43.5554 23.656 43.3454 23.728C43.1354 23.8 42.9464 23.881 42.7784 23.971C42.6164 24.061 42.4574 24.142 42.3014 24.214C42.1454 24.286 41.9594 24.322 41.7434 24.322C41.5514 24.322 41.3894 24.274 41.2574 24.178C41.1254 24.082 41.0174 23.968 40.9334 23.836L40.4294 22.963ZM52.7428 17.527V31H49.9528V17.527H52.7428ZM66.3636 20.551C66.2736 20.695 66.1776 20.803 66.0756 20.875C65.9796 20.947 65.8536 20.983 65.6976 20.983C65.5596 20.983 65.4096 20.941 65.2476 20.857C65.0916 20.767 64.9116 20.668 64.7076 20.56C64.5096 20.452 64.2816 20.356 64.0236 20.272C63.7656 20.182 63.4716 20.137 63.1416 20.137C62.5716 20.137 62.1456 20.26 61.8636 20.506C61.5876 20.746 61.4496 21.073 61.4496 21.487C61.4496 21.751 61.5336 21.97 61.7016 22.144C61.8696 22.318 62.0886 22.468 62.3586 22.594C62.6346 22.72 62.9466 22.837 63.2946 22.945C63.6486 23.047 64.0086 23.164 64.3746 23.296C64.7406 23.422 65.0976 23.572 65.4456 23.746C65.7996 23.92 66.1116 24.142 66.3816 24.412C66.6576 24.682 66.8796 25.012 67.0476 25.402C67.2156 25.786 67.2996 26.251 67.2996 26.797C67.2996 27.403 67.1946 27.97 66.9846 28.498C66.7746 29.026 66.4686 29.488 66.0666 29.884C65.6706 30.274 65.1786 30.583 64.5906 30.811C64.0086 31.033 63.3456 31.144 62.6016 31.144C62.1936 31.144 61.7766 31.102 61.3506 31.018C60.9306 30.934 60.5226 30.817 60.1266 30.667C59.7306 30.511 59.3586 30.328 59.0106 30.118C58.6626 29.908 58.3596 29.674 58.1016 29.416L59.0016 27.994C59.0736 27.892 59.1666 27.808 59.2806 27.742C59.4006 27.67 59.5296 27.634 59.6676 27.634C59.8476 27.634 60.0276 27.691 60.2076 27.805C60.3936 27.919 60.6006 28.045 60.8286 28.183C61.0626 28.321 61.3296 28.447 61.6296 28.561C61.9296 28.675 62.2836 28.732 62.6916 28.732C63.2436 28.732 63.6726 28.612 63.9786 28.372C64.2846 28.126 64.4376 27.739 64.4376 27.211C64.4376 26.905 64.3536 26.656 64.1856 26.464C64.0176 26.272 63.7956 26.113 63.5196 25.987C63.2496 25.861 62.9406 25.75 62.5926 25.654C62.2446 25.558 61.8876 25.453 61.5216 25.339C61.1556 25.219 60.7986 25.075 60.4506 24.907C60.1026 24.733 59.7906 24.508 59.5146 24.232C59.2446 23.95 59.0256 23.602 58.8576 23.188C58.6896 22.768 58.6056 22.252 58.6056 21.64C58.6056 21.148 58.7046 20.668 58.9026 20.2C59.1006 19.732 59.3916 19.315 59.7756 18.949C60.1596 18.583 60.6306 18.292 61.1886 18.076C61.7466 17.854 62.3856 17.743 63.1056 17.743C63.5076 17.743 63.8976 17.776 64.2756 17.842C64.6596 17.902 65.0226 17.995 65.3646 18.121C65.7066 18.241 66.0246 18.388 66.3186 18.562C66.6186 18.73 66.8856 18.922 67.1196 19.138L66.3636 20.551ZM80.5334 17.887V31H77.4734V25.456H72.1454V31H69.0854V17.887H72.1454V23.368H77.4734V17.887H80.5334ZM97.8196 17.887V31H95.1376V23.458C95.1376 23.284 95.1406 23.095 95.1466 22.891C95.1586 22.687 95.1766 22.48 95.2006 22.27L91.7176 29.011C91.6096 29.221 91.4626 29.38 91.2766 29.488C91.0966 29.596 90.8896 29.65 90.6556 29.65H90.2416C90.0076 29.65 89.7976 29.596 89.6116 29.488C89.4316 29.38 89.2876 29.221 89.1796 29.011L85.6966 22.252C85.7146 22.468 85.7296 22.681 85.7416 22.891C85.7536 23.095 85.7596 23.284 85.7596 23.458V31H83.0776V17.887H85.3996C85.5316 17.887 85.6456 17.89 85.7416 17.896C85.8436 17.902 85.9336 17.92 86.0116 17.95C86.0896 17.98 86.1586 18.028 86.2186 18.094C86.2846 18.154 86.3476 18.241 86.4076 18.355L89.7826 25.006C89.9026 25.234 90.0166 25.471 90.1246 25.717C90.2386 25.963 90.3466 26.215 90.4486 26.473C90.5506 26.209 90.6556 25.951 90.7636 25.699C90.8776 25.447 90.9976 25.207 91.1236 24.979L94.4896 18.355C94.5496 18.241 94.6096 18.154 94.6696 18.094C94.7356 18.028 94.8076 17.98 94.8856 17.95C94.9636 17.92 95.0506 17.902 95.1466 17.896C95.2486 17.89 95.3656 17.887 95.4976 17.887H97.8196ZM111.768 20.551C111.678 20.695 111.582 20.803 111.48 20.875C111.384 20.947 111.258 20.983 111.102 20.983C110.964 20.983 110.814 20.941 110.652 20.857C110.496 20.767 110.316 20.668 110.112 20.56C109.914 20.452 109.686 20.356 109.428 20.272C109.17 20.182 108.876 20.137 108.546 20.137C107.976 20.137 107.55 20.26 107.268 20.506C106.992 20.746 106.854 21.073 106.854 21.487C106.854 21.751 106.938 21.97 107.106 22.144C107.274 22.318 107.493 22.468 107.763 22.594C108.039 22.72 108.351 22.837 108.699 22.945C109.053 23.047 109.413 23.164 109.779 23.296C110.145 23.422 110.502 23.572 110.85 23.746C111.204 23.92 111.516 24.142 111.786 24.412C112.062 24.682 112.284 25.012 112.452 25.402C112.62 25.786 112.704 26.251 112.704 26.797C112.704 27.403 112.599 27.97 112.389 28.498C112.179 29.026 111.873 29.488 111.471 29.884C111.075 30.274 110.583 30.583 109.995 30.811C109.413 31.033 108.75 31.144 108.006 31.144C107.598 31.144 107.181 31.102 106.755 31.018C106.335 30.934 105.927 30.817 105.531 30.667C105.135 30.511 104.763 30.328 104.415 30.118C104.067 29.908 103.764 29.674 103.506 29.416L104.406 27.994C104.478 27.892 104.571 27.808 104.685 27.742C104.805 27.67 104.934 27.634 105.072 27.634C105.252 27.634 105.432 27.691 105.612 27.805C105.798 27.919 106.005 28.045 106.233 28.183C106.467 28.321 106.734 28.447 107.034 28.561C107.334 28.675 107.688 28.732 108.096 28.732C108.648 28.732 109.077 28.612 109.383 28.372C109.689 28.126 109.842 27.739 109.842 27.211C109.842 26.905 109.758 26.656 109.59 26.464C109.422 26.272 109.2 26.113 108.924 25.987C108.654 25.861 108.345 25.75 107.997 25.654C107.649 25.558 107.292 25.453 106.926 25.339C106.56 25.219 106.203 25.075 105.855 24.907C105.507 24.733 105.195 24.508 104.919 24.232C104.649 23.95 104.43 23.602 104.262 23.188C104.094 22.768 104.01 22.252 104.01 21.64C104.01 21.148 104.109 20.668 104.307 20.2C104.505 19.732 104.796 19.315 105.18 18.949C105.564 18.583 106.035 18.292 106.593 18.076C107.151 17.854 107.79 17.743 108.51 17.743C108.912 17.743 109.302 17.776 109.68 17.842C110.064 17.902 110.427 17.995 110.769 18.121C111.111 18.241 111.429 18.388 111.723 18.562C112.023 18.73 112.29 18.922 112.524 19.138L111.768 20.551ZM122.591 21.667L117.605 33.421C117.521 33.607 117.419 33.742 117.299 33.826C117.179 33.916 116.987 33.961 116.723 33.961H114.635L116.435 30.181L112.709 21.667H115.175C115.391 21.667 115.556 21.715 115.67 21.811C115.79 21.907 115.877 22.021 115.931 22.153L117.461 26.176C117.605 26.542 117.722 26.917 117.812 27.301C117.878 27.109 117.944 26.917 118.01 26.725C118.076 26.533 118.145 26.344 118.217 26.158L119.603 22.153C119.657 22.015 119.753 21.901 119.891 21.811C120.029 21.715 120.179 21.667 120.341 21.667H122.591ZM129.132 23.71C129.06 23.824 128.982 23.905 128.898 23.953C128.82 24.001 128.718 24.025 128.592 24.025C128.46 24.025 128.328 23.998 128.196 23.944C128.064 23.884 127.92 23.821 127.764 23.755C127.614 23.689 127.443 23.629 127.251 23.575C127.059 23.515 126.84 23.485 126.594 23.485C126.24 23.485 125.967 23.554 125.775 23.692C125.589 23.824 125.496 24.01 125.496 24.25C125.496 24.424 125.556 24.568 125.676 24.682C125.802 24.796 125.967 24.898 126.171 24.988C126.375 25.072 126.606 25.153 126.864 25.231C127.122 25.309 127.386 25.396 127.656 25.492C127.926 25.588 128.19 25.702 128.448 25.834C128.706 25.96 128.937 26.119 129.141 26.311C129.345 26.497 129.507 26.725 129.627 26.995C129.753 27.265 129.816 27.589 129.816 27.967C129.816 28.429 129.732 28.855 129.564 29.245C129.396 29.635 129.144 29.971 128.808 30.253C128.478 30.535 128.067 30.754 127.575 30.91C127.089 31.066 126.528 31.144 125.892 31.144C125.574 31.144 125.256 31.114 124.938 31.054C124.62 30.994 124.311 30.913 124.011 30.811C123.717 30.709 123.444 30.589 123.192 30.451C122.94 30.307 122.724 30.154 122.544 29.992L123.192 28.966C123.264 28.846 123.354 28.753 123.462 28.687C123.576 28.615 123.72 28.579 123.894 28.579C124.056 28.579 124.2 28.615 124.326 28.687C124.458 28.759 124.599 28.837 124.749 28.921C124.899 29.005 125.073 29.083 125.271 29.155C125.475 29.227 125.73 29.263 126.036 29.263C126.252 29.263 126.435 29.242 126.585 29.2C126.735 29.152 126.855 29.089 126.945 29.011C127.035 28.933 127.101 28.846 127.143 28.75C127.185 28.654 127.206 28.555 127.206 28.453C127.206 28.267 127.143 28.114 127.017 27.994C126.891 27.874 126.726 27.772 126.522 27.688C126.318 27.598 126.084 27.517 125.82 27.445C125.562 27.367 125.298 27.28 125.028 27.184C124.758 27.088 124.491 26.974 124.227 26.842C123.969 26.704 123.738 26.533 123.534 26.329C123.33 26.119 123.165 25.864 123.039 25.564C122.913 25.264 122.85 24.901 122.85 24.475C122.85 24.079 122.925 23.704 123.075 23.35C123.231 22.99 123.462 22.675 123.768 22.405C124.074 22.135 124.458 21.922 124.92 21.766C125.382 21.604 125.922 21.523 126.54 21.523C126.876 21.523 127.2 21.553 127.512 21.613C127.83 21.673 128.127 21.757 128.403 21.865C128.679 21.973 128.931 22.102 129.159 22.252C129.387 22.396 129.588 22.555 129.762 22.729L129.132 23.71ZM134.555 31.144C134.111 31.144 133.718 31.081 133.376 30.955C133.04 30.823 132.755 30.64 132.521 30.406C132.293 30.166 132.119 29.878 131.999 29.542C131.879 29.206 131.819 28.831 131.819 28.417V23.593H131.027C130.883 23.593 130.76 23.548 130.658 23.458C130.556 23.362 130.505 23.224 130.505 23.044V21.955L131.99 21.667L132.539 19.39C132.611 19.102 132.815 18.958 133.151 18.958H134.609V21.685H136.922V23.593H134.609V28.228C134.609 28.444 134.66 28.624 134.762 28.768C134.87 28.906 135.023 28.975 135.221 28.975C135.323 28.975 135.407 28.966 135.473 28.948C135.545 28.924 135.605 28.9 135.653 28.876C135.707 28.846 135.755 28.822 135.797 28.804C135.845 28.78 135.899 28.768 135.959 28.768C136.043 28.768 136.109 28.789 136.157 28.831C136.211 28.867 136.265 28.927 136.319 29.011L137.165 30.334C136.805 30.604 136.4 30.808 135.95 30.946C135.5 31.078 135.035 31.144 134.555 31.144ZM143.842 25.213C143.842 24.991 143.812 24.775 143.752 24.565C143.698 24.355 143.605 24.169 143.473 24.007C143.347 23.839 143.179 23.704 142.969 23.602C142.759 23.5 142.504 23.449 142.204 23.449C141.676 23.449 141.262 23.602 140.962 23.908C140.662 24.208 140.464 24.643 140.368 25.213H143.842ZM140.332 26.833C140.422 27.613 140.659 28.18 141.043 28.534C141.427 28.882 141.922 29.056 142.528 29.056C142.852 29.056 143.131 29.017 143.365 28.939C143.599 28.861 143.806 28.774 143.986 28.678C144.172 28.582 144.34 28.495 144.49 28.417C144.646 28.339 144.808 28.3 144.976 28.3C145.198 28.3 145.366 28.381 145.48 28.543L146.29 29.542C146.002 29.872 145.69 30.142 145.354 30.352C145.024 30.556 144.682 30.718 144.328 30.838C143.98 30.952 143.629 31.03 143.275 31.072C142.927 31.12 142.594 31.144 142.276 31.144C141.622 31.144 141.007 31.039 140.431 30.829C139.861 30.613 139.36 30.295 138.928 29.875C138.502 29.455 138.163 28.933 137.911 28.309C137.665 27.685 137.542 26.959 137.542 26.131C137.542 25.507 137.647 24.916 137.857 24.358C138.073 23.8 138.379 23.311 138.775 22.891C139.177 22.471 139.66 22.138 140.224 21.892C140.794 21.646 141.436 21.523 142.15 21.523C142.768 21.523 143.332 21.619 143.842 21.811C144.358 22.003 144.799 22.282 145.165 22.648C145.537 23.014 145.825 23.464 146.029 23.998C146.239 24.526 146.344 25.126 146.344 25.798C146.344 26.008 146.335 26.179 146.317 26.311C146.299 26.443 146.266 26.548 146.218 26.626C146.17 26.704 146.104 26.758 146.02 26.788C145.942 26.818 145.84 26.833 145.714 26.833H140.332ZM147.74 31V21.667H149.468C149.816 21.667 150.044 21.823 150.152 22.135L150.305 22.639C150.461 22.477 150.623 22.33 150.791 22.198C150.959 22.06 151.139 21.943 151.331 21.847C151.529 21.745 151.739 21.667 151.961 21.613C152.189 21.553 152.438 21.523 152.708 21.523C153.272 21.523 153.737 21.67 154.103 21.964C154.475 22.252 154.757 22.639 154.949 23.125C155.105 22.837 155.294 22.591 155.516 22.387C155.744 22.183 155.987 22.018 156.245 21.892C156.509 21.766 156.785 21.673 157.073 21.613C157.367 21.553 157.658 21.523 157.946 21.523C158.48 21.523 158.954 21.604 159.368 21.766C159.782 21.922 160.127 22.153 160.403 22.459C160.685 22.759 160.898 23.131 161.042 23.575C161.186 24.013 161.258 24.511 161.258 25.069V31H158.468V25.069C158.468 24.103 158.054 23.62 157.226 23.62C156.848 23.62 156.533 23.746 156.281 23.998C156.035 24.244 155.912 24.601 155.912 25.069V31H153.122V25.069C153.122 24.535 153.017 24.16 152.807 23.944C152.597 23.728 152.288 23.62 151.88 23.62C151.628 23.62 151.388 23.677 151.16 23.791C150.938 23.905 150.728 24.058 150.53 24.25V31H147.74Z" fill="white"/>
</svg>
