<svg width="550" height="499" viewBox="0 0 550 499" fill="none" xmlns="http://www.w3.org/2000/svg">
<mask id="mask0_3089_67075" style="mask-type:alpha" maskUnits="userSpaceOnUse" x="0" y="0" width="550" height="499">
<path d="M550 0H0V499H550V0Z" fill="#F0F3FF"/>
</mask>
<g mask="url(#mask0_3089_67075)">
<path d="M550 0H0V499H550V0Z" fill="#F0F3FF"/>
<path d="M361.9 262.8H174.8V380.8H361.9V262.8Z" fill="#F0F3FF"/>
<path d="M452.6 282.7H491.4V280.5H99V282.7H115.5V318.4L99 302.9V305.9L113.9 319.9H99V322.1H116.4C116.5 322.1 116.6 322.1 116.6 322.1C116.7 322.1 116.8 322.1 116.8 322.1H158.1C158.2 322.1 158.3 322.1 158.3 322.1C158.4 322.1 158.5 322.1 158.5 322.1H199.8C199.9 322.1 200 322.1 200 322.1C200.1 322.1 200.2 322.1 200.2 322.1H241.3C241.4 322.1 241.5 322.1 241.5 322.1C241.6 322.1 241.7 322.1 241.7 322.1H283C283.1 322.1 283.2 322.1 283.2 322.1C283.3 322.1 283.4 322.1 283.4 322.1H324.7C324.8 322.1 324.9 322.1 324.9 322.1C325 322.1 325.1 322.1 325.1 322.1H366.4C366.5 322.1 366.6 322.1 366.6 322.1C366.7 322.1 366.8 322.1 366.8 322.1H407.8C407.9 322.1 408 322.1 408 322.1C408.1 322.1 408.2 322.1 408.2 322.1H449.5C449.6 322.1 449.7 322.1 449.7 322.1C449.8 322.1 449.9 322.1 449.9 322.1H491.4V321.4L492.5 320.2L452.6 282.7ZM117.8 319.9V284.3L155.7 319.9H117.8ZM157.3 318.4L119.3 282.7H157.3V318.4ZM159.5 319.9V284.3L197.4 319.9H159.5ZM199 318.4L161 282.7H199V318.4ZM201.2 319.9V284.5L238.9 319.9H201.2ZM240.6 318.4L202.6 282.7H240.6V318.4ZM242.8 319.9V284.3L280.7 319.9H242.8ZM282.3 318.4L244.3 282.7H282.3V318.4ZM284.5 319.9V284.3L322.4 319.9H284.5ZM324 318.4L286 282.7H324V318.4ZM326.2 319.9V284.3L364.1 319.9H326.2ZM365.8 318.4L327.8 282.7H365.8V318.4ZM368 319.9V284.6L405.6 319.9H368ZM407.2 318.4L369.2 282.7H407.2V318.4ZM409.4 319.9V284.3L447.3 319.9H409.4ZM448.9 318.4L410.9 282.7H448.9V318.4ZM451.1 319.9V284.3L489 319.9H451.1Z" fill="#CCF3FF"/>
<path d="M2.40001 306.5C2.10001 305.2 1.5 304.1 0.800001 303.1L1.10002 302.9L1.7 302.4C0.799995 301.3 -0.19998 300.3 -1.39998 299.6L-1.99999 300.6C-3.09999 300 -4.29999 299.5 -5.59999 299.4L-5.39998 298.2C-6.69998 298 -8.19999 298.1 -9.59999 298.4L-9.3 299.5C-10.6 299.8 -11.7 300.4 -12.7 301.1L-13.4 300.2C-14.5 301.1 -15.5 302.1 -16.2 303.3L-15.2 303.9C-15.8 305 -16.3 306.2 -16.4 307.5L-17.6 307.3C-17.8 308.6 -17.7 310.1 -17.4 311.5L-16.3 311.2C-16 312.5 -15.4 313.6 -14.7 314.6L-15.4 315.1L-15.7 315.3C-14.8 316.4 -13.8 317.4 -12.6 318.1L-12 317.1C-10.9 317.7 -9.69998 318.2 -8.39998 318.3L-8.59999 319.5C-7.29999 319.7 -5.79998 319.6 -4.39998 319.3L-4.7 318.2C-3.4 317.9 -2.3 317.3 -1.3 316.6L-0.699999 317.3L-0.499987 317.5C0.600014 316.6 1.6 315.6 2.3 314.4L1.3 313.8C1.9 312.7 2.40001 311.5 2.50001 310.2L3.7 310.4C3.9 309.1 3.80001 307.6 3.50001 306.2L2.40001 306.5ZM-5.59999 313.9C-8.39999 314.6 -11.2 313 -11.9 310.2C-12.6 307.4 -11 304.6 -8.2 303.9C-5.4 303.2 -2.59998 304.8 -1.89998 307.6C-1.09998 310.4 -2.79999 313.2 -5.59999 313.9Z" fill="#AAE0FF"/>
<path d="M187.5 284.6C191.09 284.6 194 281.69 194 278.1C194 274.51 191.09 271.6 187.5 271.6C183.91 271.6 181 274.51 181 278.1C181 281.69 183.91 284.6 187.5 284.6Z" fill="#5B4E99"/>
<path d="M187.6 281.5C188.152 281.5 188.6 281.052 188.6 280.5C188.6 279.948 188.152 279.5 187.6 279.5C187.048 279.5 186.6 279.948 186.6 280.5C186.6 281.052 187.048 281.5 187.6 281.5Z" fill="white"/>
<path d="M191.5 277C191.6 276.9 191.6 276.7 191.5 276.5C189.1 274.4 185.6 274.4 183.3 276.7C183.2 276.8 183.2 277 183.3 277.2C183.4 277.3 183.6 277.3 183.8 277.2C185.8 275.2 188.9 275.2 191.1 277C191.1 277.2 191.3 277.1 191.5 277Z" fill="white"/>
<path d="M190.5 278C190.6 277.9 190.6 277.7 190.5 277.5C188.7 275.9 186 276 184.2 277.6C184.1 277.7 184.1 277.9 184.2 278.1C184.3 278.2 184.5 278.2 184.7 278.1C186.2 276.7 188.5 276.6 190.1 278C190.2 278.2 190.4 278.2 190.5 278Z" fill="white"/>
<path d="M189.7 279C189.8 278.9 189.8 278.6 189.7 278.5C188.4 277.4 186.5 277.5 185.2 278.6C185.1 278.7 185.1 278.9 185.2 279.1C185.3 279.2 185.5 279.2 185.7 279.1C186.7 278.2 188.2 278.2 189.3 279C189.3 279.2 189.5 279.2 189.7 279Z" fill="white"/>
<path d="M532.7 258C531.6 259.7 530.9 261.5 530.5 263.3L532.1 263.6C531.8 265.3 531.8 267.1 532.1 268.8L530.5 269.1C530.9 271 531.6 272.8 532.7 274.4L533 274.2L534 273.5C534.9 274.9 536.2 276.2 537.7 277.1L536.8 278.5C538.5 279.6 540.3 280.3 542.1 280.6L542.4 279C544.1 279.3 545.9 279.3 547.6 279L547.9 280.6C549.8 280.2 551.6 279.5 553.2 278.4L552.9 278L552.3 277.1C553.7 276.2 554.9 274.9 555.9 273.4L557.3 274.3C558.4 272.6 559.1 270.8 559.5 269L557.9 268.7C558.2 267 558.2 265.2 557.9 263.5L559.5 263.2C559.1 261.3 558.4 259.5 557.3 257.9L556 258.8C555.1 257.4 553.8 256.2 552.3 255.2L553.2 253.8C551.5 252.7 549.7 252 547.9 251.6L547.6 253.2C545.9 252.9 544.1 252.9 542.4 253.2L542.1 251.6C540.2 252 538.4 252.7 536.8 253.8L537.4 254.7L537.7 255.1C536.3 256 535 257.3 534.1 258.8L532.7 258ZM539.1 262.2C541.3 258.9 545.7 258 549 260.1C552.3 262.3 553.2 266.7 551.1 270C548.9 273.3 544.5 274.2 541.2 272.1C537.8 269.9 536.9 265.5 539.1 262.2Z" fill="#668ACB"/>
<path d="M85.2 374.7C84.3 374.7 83.6 374 83.6 373.1V118.8C83.6 117.9 84.3 117.2 85.2 117.2C86.1 117.2 86.8 117.9 86.8 118.8V373.2C86.8 374 86.1 374.7 85.2 374.7Z" fill="#AAE0FF"/>
<path d="M52.9 374.7C52 374.7 51.3 374 51.3 373.1V118.8C51.3 117.9 52 117.2 52.9 117.2C53.8 117.2 54.5 117.9 54.5 118.8V373.2C54.5 374 53.8 374.7 52.9 374.7Z" fill="#AAE0FF"/>
<path d="M53.1 373.9C52.7 373.9 52.3 373.7 52 373.4C51.4 372.8 51.4 371.8 52 371.2L81.6 342.4H52.8L51.7 339.7L81.5 310.7H52.7L51.6 308L81.4 279.1H52.8L51.7 276.4L81.2 247.7H52.6L51.5 245L81.3 216.1H52.7L51.6 213.4L81.2 184.7H52.6L51.5 182L81.3 153.1H52.7L51.6 150.4L81.3 121.6H52.8C51.9 121.6 51.3 120.9 51.3 120.1C51.3 119.3 52 118.6 52.8 118.6H85.4L86.5 121.3L56.8 150.1H85.4L86.5 152.8L56.7 181.7H85.3L86.4 184.4L56.8 213.1H85.4L86.5 215.8L56.7 244.7H85.3L86.4 247.4L56.9 276.1H85.4L86.5 278.8L56.7 307.7H85.5L86.6 310.4L56.8 339.4H85.6L86.7 342.1L54.3 373.5C53.9 373.7 53.5 373.9 53.1 373.9Z" fill="#AAE0FF"/>
<path d="M112.3 144.2C112.1 144.2 111.9 144.1 111.7 144C111.3 143.8 111.1 143.4 111.1 142.9V125.1L81.4 143.9C81 144.1 80.6 144.1 80.2 143.9C79.8 143.7 79.6 143.3 79.6 142.8V125.1C78.6 125.7 77.6 126.3 76.6 126.9C67.4 132.5 58.8 137.8 50.2 143.7C49.8 144 49.3 144 48.9 143.8C48.5 143.6 48.3 143.2 48.3 142.7V125.1C39.9 130.5 30.4 136.5 18.4 144C18 144.2 17.6 144.2 17.2 144C16.8 143.8 16.6 143.4 16.6 142.9V125.4C12.4 128.3 7.99998 130.8 3.79998 133.2C-1.80002 136.4 -7.50002 139.8 -12.8 143.8C-13.2 144.1 -13.7 144.1 -14.1 143.9C-14.5 143.7 -14.8 143.3 -14.8 142.8V125.2C-18.1 127.3 -21.4 129.3 -24.7 131.3C-31.3 135.4 -38.2 139.5 -44.5 143.9C-44.9 144.2 -45.4 144.2 -45.8 144C-46.2 143.8 -46.5 143.4 -46.5 142.9V125.2C-49.8 127.3 -53.2 129.4 -56.5 131.4C-62.9 135.4 -69.6 139.5 -76.2 143.9C-76.8 144.3 -77.5 144.1 -77.9 143.6C-78.3 143 -78.1 142.3 -77.6 141.9C-71 137.5 -64.3 133.4 -57.9 129.4C-54 127 -50 124.5 -46.1 122C-45.7 121.8 -45.3 121.7 -44.9 122C-44.5 122.2 -44.3 122.6 -44.3 123.1V140.7C-38.5 136.7 -32.3 133 -26.3 129.3C-22.4 126.9 -18.4 124.5 -14.6 122.1C-14.2 121.9 -13.8 121.8 -13.4 122.1C-13 122.3 -12.8 122.7 -12.8 123.2V140.6C-8.00002 137.1 -2.8 134.1 2.1 131.3C6.9 128.5 12 125.6 16.6 122.2C17 121.9 17.5 121.9 17.9 122.1C18.3 122.3 18.6 122.7 18.6 123.2V140.9C30.6 133.5 40.1 127.5 48.3 122.1C48.7 121.9 49.2 121.8 49.5 122.1C49.9 122.3 50.1 122.7 50.1 123.2V140.8C58.1 135.4 66.2 130.5 74.7 125.2C76.3 124.2 77.9 123.2 79.5 122.2C79.9 122 80.3 122 80.7 122.2C81.1 122.4 81.3 122.8 81.3 123.3V140.9L111 122.1C111.4 121.9 111.8 121.8 112.2 122.1C112.6 122.3 112.8 122.7 112.8 123.2V141.1C120.8 136.3 129.6 130.8 139.4 124.2C140 123.8 140.7 124 141.1 124.5C141.5 125.1 141.3 125.8 140.8 126.2C130.2 133.3 120.9 139.2 112.3 144.2C112.5 144.2 112.7 144.1 112.3 144.2Z" fill="#AAE0FF"/>
<path d="M32.1 144.1C-4.20003 144.1 -40.6 144.1 -76.7 144C-77.4 144 -77.9 143.4 -77.9 142.8C-77.9 142.1 -77.3 141.6 -76.7 141.6C-4.80004 141.7 67.9 141.7 139.4 141.6V124.3C78.3 124.6 16.2 124.6 -45.2 124.3C-45.9 124.3 -46.4 123.7 -46.4 123.1C-46.4 122.4 -45.8 121.9 -45.2 121.9C16.6 122.2 79.2 122.2 140.6 121.9C140.9 121.9 141.2 122 141.5 122.3C141.7 122.5 141.9 122.8 141.9 123.2V143C141.9 143.7 141.3 144.2 140.7 144.2C104.7 144.1 68.4 144.1 32.1 144.1Z" fill="#AAE0FF"/>
<path d="M96.1 110.3H42.2V157.5H96.1V110.3Z" fill="#AAE0FF"/>
<path d="M85.4 121.5C84.9 121.5 84.5 121.2 84.3 120.7L55 44.9V117.3C55 118 54.5 118.5 53.8 118.5C53.1 118.5 52.6 118 52.6 117.3V38.4L54.9 38L86.5 119.9C86.7 120.5 86.4 121.2 85.8 121.5C85.7 121.5 85.5 121.5 85.4 121.5Z" fill="#AAE0FF"/>
<path d="M54.1 109.4C53.9 109.4 53.6 109.3 53.4 109.2C52.9 108.8 52.7 108.1 53.1 107.5L68.7 85.5001H54.1C53.4 85.5001 52.9 85.0001 52.9 84.3001C52.9 83.6001 53.4 83.1001 54.1 83.1001H71.1L72.1 85.0001L55.1 108.9C54.8 109.2 54.5 109.4 54.1 109.4Z" fill="#AAE0FF"/>
<path d="M122.8 413.1V325.9L83.7 359.1V413.1H122.8Z" fill="#AAE0FF"/>
<path d="M17.7 413.1V397L5.00003 361V339.8H-21.9V361L-34.6 397V413.1H17.7Z" fill="#AAE0FF"/>
<path d="M6.20001 339.7H-23.6V340.9H6.20001V339.7Z" fill="#AAE0FF"/>
<path d="M109.1 413.1V361.8L81.5 341L55.1 361.8H-0.5V413.1H109.1Z" fill="#AAE0FF"/>
<path d="M17.1 376.4H5.40002V387.4H17.1V376.4Z" fill="#AAE0FF"/>
<path d="M31.5 376.4H19.8V387.4H31.5V376.4Z" fill="#75CDFF"/>
<path d="M17.1 394.2H5.40002V413.1H17.1V394.2Z" fill="#AAE0FF"/>
<path d="M29.4 394.2H17.7V413.1H29.4V394.2Z" fill="#AAE0FF"/>
<path d="M46.1 394.2H34.4V413.1H46.1V394.2Z" fill="#75CDFF"/>
<path d="M31.8 394.2H20.1V413.1H31.8V394.2Z" fill="#75CDFF"/>
<path d="M60.5 394.2H48.8V413.1H60.5V394.2Z" fill="#75CDFF"/>
<path d="M73.2 394.2H61.5V413.1H73.2V394.2Z" fill="#AAE0FF"/>
<path d="M85.6 394.2H73.9V413.1H85.6V394.2Z" fill="#AAE0FF"/>
<path d="M103.5 394.2H91.8V413.1H103.5V394.2Z" fill="#AAE0FF"/>
<path d="M45.9 376.4H34.2V387.4H45.9V376.4Z" fill="#75CDFF"/>
<path d="M60.3 376.4H48.6V387.4H60.3V376.4Z" fill="#75CDFF"/>
<path d="M74.7 376.4H63V387.4H74.7V376.4Z" fill="#AAE0FF"/>
<path d="M89.1 376.4H77.4V387.4H89.1V376.4Z" fill="#AAE0FF"/>
<path d="M103.5 376.4H91.8V387.4H103.5V376.4Z" fill="#AAE0FF"/>
<path d="M29.9 364H11.2L12.3 341.6L12.9 330.2L13.8 312.7H27.4L28.2 330.2L28.8 341.6L29.9 364Z" fill="#AAE0FF"/>
<path d="M29.2 312.5H12.3V313.6H29.2V312.5Z" fill="#AAE0FF"/>
<path d="M28.2 330.2L28.8 341.6H12.3L12.9 330.2H28.2Z" fill="#AAE0FF"/>
<path d="M57 364H34.9L36 341.6L36.5 330.2L37.9 303.2H54L55.4 330.2L55.9 341.6L57 364Z" fill="#AAE0FF"/>
<path d="M55.8 303.1H36.4V304.2H55.8V303.1Z" fill="#AAE0FF"/>
<path d="M55.9 341.6H36L36.5 330.2H55.4L55.9 341.6Z" fill="#AAE0FF"/>
<path d="M344.5 343.8H319.6V365.6H344.5V343.8Z" fill="#E68D45"/>
<path d="M337 343.8H312.1V365.6H337V343.8Z" fill="#FDB477"/>
<path d="M326.6 343.8H323.9V348.2H326.6V343.8Z" fill="white"/>
<path d="M319.5 361.6H316.9V364.1H319.5V361.6Z" fill="#E68D45"/>
<path d="M315.9 361.6H313.3V364.1H315.9V361.6Z" fill="#E68D45"/>
<path d="M323.1 361.6H320.5V364.1H323.1V361.6Z" fill="#E68D45"/>
<path d="M395 343.8H370.1V365.6H395V343.8Z" fill="#E68D45"/>
<path d="M387.5 343.8H362.6V365.6H387.5V343.8Z" fill="#FDB477"/>
<path d="M377.1 343.8H374.4V348.2H377.1V343.8Z" fill="white"/>
<path d="M370 361.6H367.4V364.1H370V361.6Z" fill="#E68D45"/>
<path d="M366.4 361.6H363.8V364.1H366.4V361.6Z" fill="#E68D45"/>
<path d="M373.6 361.6H371V364.1H373.6V361.6Z" fill="#E68D45"/>
<path d="M236.2 343.8H211.3V365.6H236.2V343.8Z" fill="#E68D45"/>
<path d="M228.7 343.8H203.8V365.6H228.7V343.8Z" fill="#FDB477"/>
<path d="M218.3 343.8H215.6V348.2H218.3V343.8Z" fill="white"/>
<path d="M211.2 361.6H208.6V364.1H211.2V361.6Z" fill="#E68D45"/>
<path d="M207.6 361.6H205V364.1H207.6V361.6Z" fill="#E68D45"/>
<path d="M214.8 361.6H212.2V364.1H214.8V361.6Z" fill="#E68D45"/>
<path d="M184.6 343.8H159.7V365.6H184.6V343.8Z" fill="#E68D45"/>
<path d="M177.1 343.8H152.2V365.6H177.1V343.8Z" fill="#FDB477"/>
<path d="M166.7 343.8H164V348.2H166.7V343.8Z" fill="white"/>
<path d="M159.6 361.6H157V364.1H159.6V361.6Z" fill="#E68D45"/>
<path d="M156 361.6H153.4V364.1H156V361.6Z" fill="#E68D45"/>
<path d="M163.2 361.6H160.6V364.1H163.2V361.6Z" fill="#E68D45"/>
<path d="M611.7 412.3H511.7V312.1C511.7 309.2 514 306.9 516.9 306.9H606.6C609.5 306.9 611.8 309.2 611.8 312.1V412.3H611.7Z" fill="#5B4E99"/>
<path d="M473.368 408.482H512.268V319.682H473.368V408.482Z" fill="#AAE0FF"/>
<path d="M512.4 332.4H473.5V332.8H512.4V332.4Z" fill="#61C6FF"/>
<path d="M512.4 372.7H473.5V373.1H512.4V372.7Z" fill="#61C6FF"/>
<path d="M476.6 336.1C476.1 336.1 475.7 336.5 475.7 337V368.2C475.7 368.7 476.1 369.1 476.6 369.1H508.8C509.3 369.1 509.7 368.7 509.7 368.2V337C509.7 336.5 509.3 336.1 508.8 336.1H476.6Z" fill="#E6F9FF"/>
<path d="M488.7 341H497.9C498.5 341 498.9 340.5 498.9 340C498.9 339.4 498.4 339 497.9 339H488.7C488.1 339 487.7 339.5 487.7 340C487.7 340.5 488.2 341 488.7 341Z" fill="#42377A"/>
<path d="M475.2 319.6L475.5 408.2H473.4V319.6H475.2Z" fill="#332C57"/>
<path d="M133.5 373.4C133.5 375.3 134.3 377.1 135.5 378.3C136.8 379.6 138.5 380.4 140.4 380.4H444.8C448.7 380.4 451.8 377.3 451.8 373.4C451.8 371.5 451 369.7 449.8 368.5C448.5 367.2 446.8 366.5 444.9 366.5H140.5C136.6 366.4 133.5 369.5 133.5 373.4Z" fill="#668ACB"/>
<path d="M142 380.2H143.5V381.4H142V380.2ZM145.1 380.2H146.6V381.4H145.1V380.2ZM148.2 380.2H149.7V381.4H148.2V380.2ZM151.3 380.2H152.8V381.4H151.3V380.2ZM154.4 380.2H155.9V381.4H154.4V380.2ZM157.4 380.2H158.9V381.4H157.4V380.2ZM160.5 380.2H162V381.4H160.5V380.2ZM163.6 380.2H165.1V381.4H163.6V380.2ZM166.7 380.2H168.2V381.4H166.7V380.2ZM169.8 380.2H171.3V381.4H169.8V380.2ZM172.9 380.2H174.4V381.4H172.9V380.2ZM176 380.2H177.5V381.4H176V380.2ZM179.1 380.2H180.6V381.4H179.1V380.2ZM182.2 380.2H183.7V381.4H182.2V380.2ZM185.3 380.2H186.8V381.4H185.3V380.2ZM188.3 380.2H189.8V381.4H188.3V380.2ZM191.4 380.2H192.9V381.4H191.4V380.2ZM194.5 380.2H196V381.4H194.5V380.2ZM197.6 380.2H199.1V381.4H197.6V380.2ZM200.7 380.2H202.2V381.4H200.7V380.2ZM203.8 380.2H205.3V381.4H203.8V380.2ZM206.9 380.2H208.4V381.4H206.9V380.2ZM210 380.2H211.5V381.4H210V380.2ZM213.1 380.2H214.6V381.4H213.1V380.2ZM216.2 380.2H217.7V381.4H216.2V380.2ZM219.2 380.2H220.7V381.4H219.2V380.2ZM222.3 380.2H223.8V381.4H222.3V380.2ZM225.4 380.2H226.9V381.4H225.4V380.2ZM228.5 380.2H230V381.4H228.5V380.2ZM231.6 380.2H233.1V381.4H231.6V380.2ZM234.7 380.2H236.2V381.4H234.7V380.2ZM237.8 380.2H239.3V381.4H237.8V380.2ZM240.9 380.2H242.4V381.4H240.9V380.2ZM244 380.2H245.5V381.4H244V380.2ZM247.1 380.2H248.6V381.4H247.1V380.2ZM250.1 380.2H251.6V381.4H250.1V380.2ZM253.2 380.2H254.7V381.4H253.2V380.2ZM256.3 380.2H257.8V381.4H256.3V380.2ZM259.4 380.2H260.9V381.4H259.4V380.2ZM262.5 380.2H264V381.4H262.5V380.2ZM265.6 380.2H267.1V381.4H265.6V380.2ZM268.7 380.2H270.2V381.4H268.7V380.2ZM271.8 380.2H273.3V381.4H271.8V380.2ZM274.9 380.2H276.4V381.4H274.9V380.2ZM278 380.2H279.5V381.4H278V380.2ZM281 380.2H282.5V381.4H281V380.2ZM284.1 380.2H285.6V381.4H284.1V380.2ZM287.2 380.2H288.7V381.4H287.2V380.2ZM290.3 380.2H291.8V381.4H290.3V380.2ZM293.4 380.2H294.9V381.4H293.4V380.2ZM296.5 380.2H298V381.4H296.5V380.2ZM299.6 380.2H301.1V381.4H299.6V380.2ZM302.7 380.2H304.2V381.4H302.7V380.2ZM305.8 380.2H307.3V381.4H305.8V380.2ZM308.9 380.2H310.4V381.4H308.9V380.2ZM311.9 380.2H313.4V381.4H311.9V380.2ZM315 380.2H316.5V381.4H315V380.2ZM318.1 380.2H319.6V381.4H318.1V380.2ZM321.2 380.2H322.7V381.4H321.2V380.2ZM324.3 380.2H325.8V381.4H324.3V380.2ZM327.4 380.2H328.9V381.4H327.4V380.2ZM330.5 380.2H332V381.4H330.5V380.2ZM333.6 380.2H335.1V381.4H333.6V380.2ZM336.7 380.2H338.2V381.4H336.7V380.2ZM339.8 380.2H341.3V381.4H339.8V380.2ZM342.8 380.2H344.3V381.4H342.8V380.2ZM345.9 380.2H347.4V381.4H345.9V380.2ZM349 380.2H350.5V381.4H349V380.2ZM352.1 380.2H353.6V381.4H352.1V380.2ZM355.2 380.2H356.7V381.4H355.2V380.2ZM358.3 380.2H359.8V381.4H358.3V380.2ZM361.4 380.2H362.9V381.4H361.4V380.2ZM364.5 380.2H366V381.4H364.5V380.2ZM367.6 380.2H369.1V381.4H367.6V380.2ZM370.7 380.2H372.2V381.4H370.7V380.2ZM373.7 380.2H375.2V381.4H373.7V380.2ZM376.8 380.2H378.3V381.4H376.8V380.2ZM379.9 380.2H381.4V381.4H379.9V380.2ZM383 380.2H384.5V381.4H383V380.2ZM386.1 380.2H387.6V381.4H386.1V380.2ZM389.2 380.2H390.7V381.4H389.2V380.2ZM392.3 380.2H393.8V381.4H392.3V380.2ZM395.4 380.2H396.9V381.4H395.4V380.2ZM398.5 380.2H400V381.4H398.5V380.2ZM401.5 380.2H403V381.4H401.5V380.2ZM404.6 380.2H406.1V381.4H404.6V380.2ZM407.7 380.2H409.2V381.4H407.7V380.2ZM410.8 380.2H412.3V381.4H410.8V380.2ZM413.9 380.2H415.4V381.4H413.9V380.2ZM417 380.2H418.5V381.4H417V380.2ZM420.1 380.2H421.6V381.4H420.1V380.2ZM423.2 380.2H424.7V381.4H423.2V380.2ZM426.3 380.2H427.8V381.4H426.3V380.2ZM429.4 380.2H430.9V381.4H429.4V380.2ZM432.4 380.2H433.9V381.4H432.4V380.2ZM435.5 380.2H437V381.4H435.5V380.2ZM438.6 380.2H440.1V381.4H438.6V380.2ZM441.7 380.2H443.2V381.4H441.7V380.2ZM444.8 380.2C445.3 380.2 445.8 380.2 446.2 380.1L446.5 381.3C446 381.4 445.4 381.5 444.8 381.5V380.2ZM138.8 381.2L139.1 380C139.6 380.1 140 380.2 140.5 380.2V381.4C139.9 381.4 139.3 381.4 138.8 381.2ZM447.6 379.6C448 379.4 448.4 379.2 448.8 378.9L449.5 379.9C449 380.2 448.6 380.5 448.1 380.7L447.6 379.6ZM135.8 379.9L136.5 378.9C136.9 379.2 137.3 379.4 137.7 379.6L137.2 380.7C136.7 380.5 136.2 380.2 135.8 379.9ZM449.9 377.9C450.2 377.5 450.5 377.2 450.7 376.8L451.8 377.4C451.5 377.9 451.2 378.3 450.8 378.7L449.9 377.9ZM133.5 377.4L134.6 376.8C134.8 377.2 135.1 377.6 135.4 377.9L134.5 378.7C134.1 378.3 133.8 377.9 133.5 377.4ZM451.3 375.5C451.4 375.1 451.5 374.6 451.6 374.1L452.8 374.2C452.7 374.8 452.6 375.3 452.5 375.8L451.3 375.5ZM132.5 374.2L133.7 374.1C133.7 374.6 133.8 375 134 375.5L132.8 375.9C132.7 375.3 132.6 374.8 132.5 374.2ZM451.3 371.3L452.5 370.9C452.7 371.4 452.8 372 452.8 372.5L451.6 372.6C451.5 372.2 451.4 371.8 451.3 371.3ZM132.5 372.5C132.6 371.9 132.7 371.4 132.9 370.9L134.1 371.3C134 371.7 133.9 372.2 133.8 372.7L132.5 372.5ZM449.9 368.9L450.8 368.1C451.2 368.5 451.5 369 451.8 369.5L450.7 370.1C450.5 369.6 450.2 369.3 449.9 368.9ZM133.6 369.4C133.9 368.9 134.2 368.5 134.6 368.1L135.5 368.9C135.2 369.3 134.9 369.6 134.7 370L133.6 369.4ZM447.6 367.2L448.1 366.1C448.6 366.3 449.1 366.6 449.5 366.9L448.8 367.9C448.4 367.7 448 367.4 447.6 367.2ZM135.8 366.9C136.3 366.6 136.7 366.3 137.2 366.1L137.7 367.2C137.3 367.4 136.9 367.6 136.5 367.9L135.8 366.9ZM444.9 366.6V365.4C445.5 365.4 446 365.5 446.6 365.6L446.3 366.8C445.8 366.7 445.3 366.6 444.9 366.6ZM138.8 365.6C139.3 365.5 139.9 365.4 140.4 365.4V366.6C139.9 366.6 139.5 366.6 139 366.7L138.8 365.6ZM142 365.4H143.5V366.6H142V365.4ZM145.1 365.4H146.6V366.6H145.1V365.4ZM148.2 365.4H149.7V366.6H148.2V365.4ZM151.3 365.4H152.8V366.6H151.3V365.4ZM154.4 365.4H155.9V366.6H154.4V365.4ZM157.5 365.4H159V366.6H157.5V365.4ZM160.6 365.4H162.1V366.6H160.6V365.4ZM163.7 365.4H165.2V366.6H163.7V365.4ZM166.8 365.4H168.3V366.6H166.8V365.4ZM169.9 365.4H171.4V366.6H169.9V365.4ZM172.9 365.4H174.4V366.6H172.9V365.4ZM176 365.4H177.5V366.6H176V365.4ZM179.1 365.4H180.6V366.6H179.1V365.4ZM182.2 365.4H183.7V366.6H182.2V365.4ZM185.3 365.4H186.8V366.6H185.3V365.4ZM188.4 365.4H189.9V366.6H188.4V365.4ZM191.5 365.4H193V366.6H191.5V365.4ZM194.6 365.4H196.1V366.6H194.6V365.4ZM197.7 365.4H199.2V366.6H197.7V365.4ZM200.8 365.4H202.3V366.6H200.8V365.4ZM203.8 365.4H205.3V366.6H203.8V365.4ZM206.9 365.4H208.4V366.6H206.9V365.4ZM210 365.4H211.5V366.6H210V365.4ZM213.1 365.4H214.6V366.6H213.1V365.4ZM216.2 365.4H217.7V366.6H216.2V365.4ZM219.3 365.4H220.8V366.6H219.3V365.4ZM222.4 365.4H223.9V366.6H222.4V365.4ZM225.5 365.4H227V366.6H225.5V365.4ZM228.6 365.4H230.1V366.6H228.6V365.4ZM231.7 365.4H233.2V366.6H231.7V365.4ZM234.7 365.4H236.2V366.6H234.7V365.4ZM237.8 365.4H239.3V366.6H237.8V365.4ZM240.9 365.4H242.4V366.6H240.9V365.4ZM244 365.4H245.5V366.6H244V365.4ZM247.1 365.4H248.6V366.6H247.1V365.4ZM250.2 365.4H251.7V366.6H250.2V365.4ZM253.3 365.4H254.8V366.6H253.3V365.4ZM256.4 365.4H257.9V366.6H256.4V365.4ZM259.5 365.4H261V366.6H259.5V365.4ZM262.6 365.4H264.1V366.6H262.6V365.4ZM265.6 365.4H267.1V366.6H265.6V365.4ZM268.7 365.4H270.2V366.6H268.7V365.4ZM271.8 365.4H273.3V366.6H271.8V365.4ZM274.9 365.4H276.4V366.6H274.9V365.4ZM278 365.4H279.5V366.6H278V365.4ZM281.1 365.4H282.6V366.6H281.1V365.4ZM284.2 365.4H285.7V366.6H284.2V365.4ZM287.3 365.4H288.8V366.6H287.3V365.4ZM290.4 365.4H291.9V366.6H290.4V365.4ZM293.5 365.4H295V366.6H293.5V365.4ZM296.5 365.4H298V366.6H296.5V365.4ZM299.6 365.4H301.1V366.6H299.6V365.4ZM302.7 365.4H304.2V366.6H302.7V365.4ZM305.8 365.4H307.3V366.6H305.8V365.4ZM308.9 365.4H310.4V366.6H308.9V365.4ZM312 365.4H313.5V366.6H312V365.4ZM315.1 365.4H316.6V366.6H315.1V365.4ZM318.2 365.4H319.7V366.6H318.2V365.4ZM321.3 365.4H322.8V366.6H321.3V365.4ZM324.4 365.4H325.9V366.6H324.4V365.4ZM327.4 365.4H328.9V366.6H327.4V365.4ZM330.5 365.4H332V366.6H330.5V365.4ZM333.6 365.4H335.1V366.6H333.6V365.4ZM336.7 365.4H338.2V366.6H336.7V365.4ZM339.8 365.4H341.3V366.6H339.8V365.4ZM342.9 365.4H344.4V366.6H342.9V365.4ZM346 365.4H347.5V366.6H346V365.4ZM349.1 365.4H350.6V366.6H349.1V365.4ZM352.2 365.4H353.7V366.6H352.2V365.4ZM355.3 365.4H356.8V366.6H355.3V365.4ZM358.3 365.4H359.8V366.6H358.3V365.4ZM361.4 365.4H362.9V366.6H361.4V365.4ZM364.5 365.4H366V366.6H364.5V365.4ZM367.6 365.4H369.1V366.6H367.6V365.4ZM370.7 365.4H372.2V366.6H370.7V365.4ZM373.8 365.4H375.3V366.6H373.8V365.4ZM376.9 365.4H378.4V366.6H376.9V365.4ZM380 365.4H381.5V366.6H380V365.4ZM383.1 365.4H384.6V366.6H383.1V365.4ZM386.2 365.4H387.7V366.6H386.2V365.4ZM389.2 365.4H390.7V366.6H389.2V365.4ZM392.3 365.4H393.8V366.6H392.3V365.4ZM395.4 365.4H396.9V366.6H395.4V365.4ZM398.5 365.4H400V366.6H398.5V365.4ZM401.6 365.4H403.1V366.6H401.6V365.4ZM404.7 365.4H406.2V366.6H404.7V365.4ZM407.8 365.4H409.3V366.6H407.8V365.4ZM410.9 365.4H412.4V366.6H410.9V365.4ZM414 365.4H415.5V366.6H414V365.4ZM417.1 365.4H418.6V366.6H417.1V365.4ZM420.1 365.4H421.6V366.6H420.1V365.4ZM423.2 365.4H424.7V366.6H423.2V365.4ZM426.3 365.4H427.8V366.6H426.3V365.4ZM429.4 365.4H430.9V366.6H429.4V365.4ZM432.5 365.4H434V366.6H432.5V365.4ZM435.6 365.4H437.1V366.6H435.6V365.4ZM438.7 365.4H440.2V366.6H438.7V365.4ZM441.8 365.4H443.3V366.6H441.8V365.4Z" fill="#241F3C"/>
<path d="M132.9 373.4C132.9 369.2 136.3 365.8 140.5 365.8H444.9C449.1 365.8 452.5 369.2 452.5 373.4C452.5 377.6 449.1 381 444.9 381H140.5C136.3 381 132.9 377.6 132.9 373.4ZM140.5 367C137 367 134.1 369.9 134.1 373.4C134.1 376.9 137 379.8 140.5 379.8H444.9C448.4 379.8 451.3 376.9 451.3 373.4C451.3 369.9 448.4 367 444.9 367H140.5Z" fill="#241F3C"/>
<path d="M441.7 370.9C440.4 372.4 440.5 374.7 442.1 376C443.6 377.3 445.9 377.2 447.2 375.6C448.5 374.1 448.4 371.8 446.8 370.5C445.3 369.2 443 369.4 441.7 370.9ZM442.8 371.8C443.6 370.9 445 370.8 445.9 371.6C446.8 372.4 446.9 373.8 446.1 374.7C445.3 375.6 443.9 375.7 443 374.9C442.1 374.1 442 372.8 442.8 371.8Z" fill="#312A52"/>
<path d="M403.8 370.9C402.5 372.4 402.6 374.7 404.2 376C405.7 377.3 408 377.2 409.3 375.6C410.6 374.1 410.5 371.8 408.9 370.5C407.4 369.2 405.1 369.4 403.8 370.9ZM404.9 371.8C405.7 370.9 407.1 370.8 408 371.6C408.9 372.4 409 373.8 408.2 374.7C407.4 375.6 406 375.7 405.1 374.9C404.2 374.1 404.1 372.8 404.9 371.8Z" fill="#312A52"/>
<path d="M365.9 370.9C364.6 372.4 364.7 374.7 366.3 376C367.8 377.3 370.1 377.2 371.4 375.6C372.7 374.1 372.6 371.8 371 370.5C369.5 369.2 367.2 369.4 365.9 370.9ZM367 371.8C367.8 370.9 369.2 370.8 370.1 371.6C371 372.4 371.1 373.8 370.3 374.7C369.5 375.6 368.1 375.7 367.2 374.9C366.3 374.1 366.2 372.8 367 371.8Z" fill="#312A52"/>
<path d="M328 370.9C326.7 372.4 326.8 374.7 328.4 376C329.9 377.3 332.2 377.2 333.5 375.6C334.8 374 334.7 371.8 333.1 370.5C331.6 369.2 329.3 369.4 328 370.9ZM329.1 371.8C329.9 370.9 331.3 370.8 332.2 371.6C333.1 372.4 333.2 373.8 332.4 374.7C331.6 375.6 330.2 375.7 329.3 374.9C328.4 374.1 328.3 372.8 329.1 371.8Z" fill="#312A52"/>
<path d="M290.1 370.9C288.8 372.4 288.9 374.7 290.5 376C292 377.3 294.3 377.2 295.6 375.6C296.9 374 296.8 371.8 295.2 370.5C293.7 369.2 291.4 369.4 290.1 370.9ZM291.2 371.8C292 370.9 293.4 370.8 294.3 371.6C295.2 372.4 295.3 373.8 294.5 374.7C293.7 375.6 292.3 375.7 291.4 374.9C290.5 374.1 290.4 372.8 291.2 371.8Z" fill="#312A52"/>
<path d="M252.2 370.9C250.9 372.4 251 374.7 252.6 376C254.1 377.3 256.4 377.2 257.7 375.6C259 374.1 258.9 371.8 257.3 370.5C255.8 369.2 253.5 369.4 252.2 370.9ZM253.3 371.8C254.1 370.9 255.5 370.8 256.4 371.6C257.3 372.4 257.4 373.8 256.6 374.7C255.8 375.6 254.4 375.7 253.5 374.9C252.6 374.1 252.5 372.8 253.3 371.8Z" fill="#312A52"/>
<path d="M214.3 370.9C213 372.4 213.1 374.7 214.7 376C216.2 377.3 218.5 377.2 219.8 375.6C221.1 374.1 221 371.8 219.4 370.5C217.9 369.2 215.6 369.4 214.3 370.9ZM215.4 371.8C216.2 370.9 217.6 370.8 218.5 371.6C219.4 372.4 219.5 373.8 218.7 374.7C217.9 375.6 216.5 375.7 215.6 374.9C214.7 374.1 214.6 372.8 215.4 371.8Z" fill="#312A52"/>
<path d="M176.4 370.9C175.1 372.4 175.2 374.7 176.8 376C178.3 377.3 180.6 377.2 181.9 375.6C183.2 374.1 183.1 371.8 181.5 370.5C180 369.2 177.7 369.4 176.4 370.9ZM177.5 371.8C178.3 370.9 179.7 370.8 180.6 371.6C181.5 372.4 181.6 373.8 180.8 374.7C180 375.6 178.6 375.7 177.7 374.9C176.8 374.1 176.7 372.8 177.5 371.8Z" fill="#312A52"/>
<path d="M138.5 370.9C137.2 372.4 137.3 374.7 138.9 376C140.4 377.3 142.7 377.2 144 375.6C145.3 374 145.2 371.8 143.6 370.5C142.1 369.2 139.8 369.4 138.5 370.9ZM139.6 371.8C140.4 370.9 141.8 370.8 142.7 371.6C143.6 372.4 143.7 373.8 142.9 374.7C142.1 375.6 140.7 375.7 139.8 374.9C138.9 374.1 138.8 372.8 139.6 371.8Z" fill="#312A52"/>
<path d="M432.2 321.5H399.3V412.2H432.2V321.5Z" fill="#5B4E99"/>
<path d="M407.9 412.1H473.4V311.6C473.4 310 472.1 308.7 470.5 308.7H410.8C409.2 308.7 407.9 310 407.9 311.6V412.1Z" fill="#668ACB"/>
<path d="M462.487 404.875H464.687V387.075H462.487V404.875Z" fill="#312A52"/>
<path d="M458.052 404.875H460.252V387.075H458.052V404.875Z" fill="#312A52"/>
<path d="M453.717 404.875H455.917V387.075H453.717V404.875Z" fill="#312A52"/>
<path d="M449.382 404.875H451.582V387.075H449.382V404.875Z" fill="#312A52"/>
<path d="M445.047 404.875H447.247V387.075H445.047V404.875Z" fill="#312A52"/>
<path d="M440.612 404.875H442.812V387.075H440.612V404.875Z" fill="#312A52"/>
<path d="M436.277 404.875H438.477V387.075H436.277V404.875Z" fill="#312A52"/>
<path d="M470.8 307.3H411.1V308.7H470.8V307.3Z" fill="#5B6F99"/>
<path d="M418.2 374.2H463.3C466.6 374.2 469.3 371.5 469.3 368.2V319.4C469.3 316.1 466.6 313.4 463.3 313.4H418.2C414.9 313.4 412.2 316.1 412.2 319.4V368.2C412.2 371.5 414.9 374.2 418.2 374.2Z" fill="#99CFFF"/>
<path d="M421.2 337.1H460.7C461.4 337.1 462 336.5 462 335.8V322.5C462 321.8 461.4 321.2 460.7 321.2H421.2C420.5 321.2 419.9 321.8 419.9 322.5V335.8C419.9 336.6 420.5 337.1 421.2 337.1Z" fill="#5B6F99"/>
<path d="M430.019 357.633C433.835 356.732 436.198 352.908 435.297 349.092C434.396 345.276 430.572 342.913 426.756 343.814C422.939 344.715 420.576 348.539 421.477 352.355C422.378 356.171 426.203 358.535 430.019 357.633Z" fill="#BFE1FF"/>
<path d="M448.9 332.6H445.5V334.8H448.9V332.6Z" fill="#99CFFF"/>
<path d="M448.9 329.9H445.5V332.1H448.9V329.9Z" fill="#99CFFF"/>
<path d="M448.9 327.3H445.5V329.5H448.9V327.3Z" fill="#99CFFF"/>
<path d="M448.9 324.7H445.5V326.9H448.9V324.7Z" fill="#99CFFF"/>
<path d="M445 332.6H441.6V334.8H445V332.6Z" fill="#99CFFF"/>
<path d="M445 329.9H441.6V332.1H445V329.9Z" fill="#99CFFF"/>
<path d="M445 327.3H441.6V329.5H445V327.3Z" fill="#99CFFF"/>
<path d="M433 332.6H429.6V334.8H433V332.6Z" fill="#99CFFF"/>
<path d="M433 329.9H429.6V332.1H433V329.9Z" fill="#99CFFF"/>
<path d="M433 327.3H429.6V329.5H433V327.3Z" fill="#99CFFF"/>
<path d="M441 332.6H437.6V334.8H441V332.6Z" fill="#99CFFF"/>
<path d="M441 329.9H437.6V332.1H441V329.9Z" fill="#99CFFF"/>
<path d="M441 327.3H437.6V329.5H441V327.3Z" fill="#99CFFF"/>
<path d="M441 324.7H437.6V326.9H441V324.7Z" fill="#99CFFF"/>
<path d="M437 332.6H433.6V334.8H437V332.6Z" fill="#99CFFF"/>
<path d="M456.8 332.6H453.4V334.8H456.8V332.6Z" fill="#99CFFF"/>
<path d="M437 329.9H433.6V332.1H437V329.9Z" fill="#99CFFF"/>
<path d="M452.8 332.6H449.4V334.8H452.8V332.6Z" fill="#99CFFF"/>
<path d="M452.8 329.9H449.4V332.1H452.8V329.9Z" fill="#99CFFF"/>
<path d="M429.2 332.6H425.8V334.8H429.2V332.6Z" fill="#99CFFF"/>
<path d="M429.2 329.9H425.8V332.1H429.2V329.9Z" fill="#99CFFF"/>
<path d="M433.2 346.7L430.8 349C431.2 349.5 431.5 350.2 431.5 350.9H434.8C434.8 349.3 434.2 347.8 433.2 346.7Z" fill="#5B6F99"/>
<path d="M432.7 346.1C431.6 345.1 430.1 344.5 428.5 344.4V347.7C429.1 347.7 429.7 348 430.2 348.3L432.7 346.1Z" fill="#5B6F99"/>
<path d="M424 346.2L426.4 348.5C426.8 348.2 427.3 347.9 427.8 347.8V344.5C426.3 344.7 425 345.3 424 346.2Z" fill="#5B6F99"/>
<path d="M422 350.9H425.3C425.3 350.2 425.5 349.6 425.9 349.1L423.5 346.8C422.5 347.9 422 349.3 422 350.9Z" fill="#5B6F99"/>
<path d="M428.7 351C428.8 350.8 428.7 350.6 428.5 350.5L424.7 349.2C424.5 349.1 424.3 349.2 424.2 349.4C424.1 349.6 424.2 349.8 424.4 349.9L428.2 351.2C428.4 351.3 428.6 351.2 428.7 351Z" fill="#312A52"/>
<path d="M452.7 357.9C456.621 357.9 459.8 354.721 459.8 350.8C459.8 346.879 456.621 343.7 452.7 343.7C448.779 343.7 445.6 346.879 445.6 350.8C445.6 354.721 448.779 357.9 452.7 357.9Z" fill="#BFE1FF"/>
<path d="M457.5 346.7L455.1 349C455.5 349.5 455.8 350.2 455.8 350.9H459.1C459.1 349.3 458.5 347.8 457.5 346.7Z" fill="#5B6F99"/>
<path d="M457 346.1C455.9 345.1 454.4 344.5 452.8 344.4V347.7C453.4 347.7 454 348 454.5 348.3L457 346.1Z" fill="#5B6F99"/>
<path d="M448.3 346.2L450.7 348.5C451.1 348.2 451.6 347.9 452.1 347.8V344.5C450.6 344.7 449.3 345.3 448.3 346.2Z" fill="#5B6F99"/>
<path d="M446.3 350.9H449.6C449.6 350.2 449.8 349.6 450.2 349.1L447.8 346.8C446.9 347.9 446.3 349.3 446.3 350.9Z" fill="#5B6F99"/>
<path d="M452.6 351.1C452.8 351.2 453 351.1 453.1 350.9L454.5 347.2C454.6 347 454.5 346.8 454.3 346.7C454.1 346.6 453.9 346.7 453.8 346.9L452.4 350.6C452.3 350.8 452.4 351 452.6 351.1Z" fill="#312A52"/>
<path d="M439.7 346.3C439.7 346.8 440.1 347.2 440.6 347.2C441.1 347.2 441.5 346.8 441.5 346.3C441.5 345.8 441.1 345.4 440.6 345.4C440.1 345.4 439.7 345.8 439.7 346.3Z" fill="#668ACB"/>
<path d="M439.7 349.3C439.7 349.8 440.1 350.2 440.6 350.2C441.1 350.2 441.5 349.8 441.5 349.3C441.5 348.8 441.1 348.4 440.6 348.4C440.1 348.4 439.7 348.8 439.7 349.3Z" fill="#668ACB"/>
<path d="M439.7 352.3C439.7 352.8 440.1 353.2 440.6 353.2C441.1 353.2 441.5 352.8 441.5 352.3C441.5 351.8 441.1 351.4 440.6 351.4C440.1 351.4 439.7 351.8 439.7 352.3Z" fill="#668ACB"/>
<path d="M439.7 355.2C439.7 355.7 440.1 356.1 440.6 356.1C441.1 356.1 441.5 355.7 441.5 355.2C441.5 354.7 441.1 354.3 440.6 354.3C440.1 354.3 439.7 354.8 439.7 355.2Z" fill="#668ACB"/>
<path d="M456.9 366.8C458.1 366.8 459.1 365.8 459.1 364.6C459.1 363.4 458.1 362.4 456.9 362.4C455.7 362.4 454.7 363.4 454.7 364.6C454.8 365.8 455.7 366.8 456.9 366.8Z" fill="#668ACB"/>
<path d="M450.4 366.8C451.6 366.8 452.6 365.8 452.6 364.6C452.6 363.4 451.6 362.4 450.4 362.4C449.2 362.4 448.2 363.4 448.2 364.6C448.2 365.8 449.2 366.8 450.4 366.8Z" fill="#70A6CB"/>
<path d="M443.8 366.8C445 366.8 446 365.8 446 364.6C446 363.4 445 362.4 443.8 362.4C442.6 362.4 441.6 363.4 441.6 364.6C441.7 365.8 442.6 366.8 443.8 366.8Z" fill="#5B6F99"/>
<path d="M437.3 366.8C438.5 366.8 439.5 365.8 439.5 364.6C439.5 363.4 438.5 362.4 437.3 362.4C436.1 362.4 435.1 363.4 435.1 364.6C435.1 365.8 436.1 366.8 437.3 366.8Z" fill="#668ACB"/>
<path d="M430.7 366.8C431.9 366.8 432.9 365.8 432.9 364.6C432.9 363.4 431.9 362.4 430.7 362.4C429.5 362.4 428.5 363.4 428.5 364.6C428.5 365.8 429.5 366.8 430.7 366.8Z" fill="#70A6CB"/>
<path d="M424.2 366.8C425.4 366.8 426.4 365.8 426.4 364.6C426.4 363.4 425.4 362.4 424.2 362.4C423 362.4 422 363.4 422 364.6C422 365.8 423 366.8 424.2 366.8Z" fill="#5B6F99"/>
<path d="M512.3 408.3H393.3V412.1H512.3V408.3Z" fill="#312A52"/>
<path d="M120.1 334.6L119.4 334C125.9 326 128.6 319.3 127.5 313.5C126.1 305.7 117.8 300.9 110.6 296.7C106.5 294.3 102.7 292.1 100.5 289.6C98.9 287.7 98.2 285.7 98.5 283.5C99.2 278.6 104.6 275 104.8 274.9L105.3 275.7C105.2 275.7 100 279.2 99.4 283.7C99.1 285.6 99.7 287.4 101.2 289C103.3 291.4 107.1 293.6 111.1 295.9C118.5 300.2 127 305.1 128.5 313.3C129.5 319.4 126.8 326.3 120.1 334.6Z" fill="#453B73"/>
<path d="M142.4 360.9L139.2 358.8C144.5 350.5 144.5 343 139.2 337C130.4 327.1 112.5 334.9 112.3 335L110.7 331.5C110.9 331.4 115.8 329.2 122.1 328.4C130.7 327.3 137.6 329.4 142 334.4C148.5 341.7 148.7 351.1 142.4 360.9Z" fill="#453B73"/>
<path d="M62.9 281.1C62.8 280.9 60 274.9 59.3 267.6C58.4 257.5 62.1 249.7 69.8 244.9C75.5 241.4 81.7 240.4 87.8 242C94.9 243.8 100.5 248.8 102.1 251.7L98.8 253.6C97.7 251.7 93 247.4 86.9 245.8C81.7 244.5 76.7 245.3 71.9 248.3C65.4 252.3 62.4 258.8 63.2 267.4C63.8 274.1 66.4 279.5 66.4 279.6L62.9 281.1Z" fill="#453B73"/>
<path d="M104.326 248.617L95.0594 253.967L96.5095 256.478L105.776 251.128L104.326 248.617Z" fill="#453B73"/>
<path d="M174.7 242H168.4V271.2H174.7V242Z" fill="#453B73"/>
<path d="M175.4 262.3H168C166.7 263.4 165.8 265 165.9 266.8V272.1H177.6V266.8C177.5 265 176.7 263.4 175.4 262.3Z" fill="#668ACB"/>
<path d="M178.6 272.1H164.8V273.8H178.6V272.1Z" fill="#453B73"/>
<path d="M162 302.6L159.6 303L152.9 285.6L159.4 284.7L162 302.6Z" fill="#453B73"/>
<path d="M186.6 302.5L189 302.4L192.4 284.1L185.9 284.4L186.6 302.5Z" fill="#453B73"/>
<path d="M179.1 280.1H165.2C163.5 280.1 162.1 278.7 162.1 277C162.1 275.3 163.5 273.9 165.2 273.9H179.1C180.8 273.9 182.2 275.3 182.2 277C182.2 278.7 180.8 280.1 179.1 280.1Z" fill="#668ACB"/>
<path d="M166.8 274.9C165.8 273.8 164.2 273.7 163.1 274.7L154 282.5C151.9 284.3 151.9 287.5 154.1 289.3C156.1 290.9 159.2 290.5 160.6 288.3L167.1 278.2C167.7 277.1 167.6 275.8 166.8 274.9Z" fill="#668ACB"/>
<path d="M155.7 284.7C155 285.6 155.4 287 156.5 287.4C157.2 287.6 157.9 287.4 158.4 286.9C159.1 286 158.7 284.6 157.6 284.2C156.9 284 156.2 284.2 155.7 284.7Z" fill="#453B73"/>
<path d="M163.7 276.1C163.1 276.8 163.4 277.8 164.3 278.1C164.8 278.3 165.4 278.1 165.7 277.7C166.3 277 166 276 165.1 275.7C164.6 275.5 164 275.7 163.7 276.1Z" fill="#453B73"/>
<path d="M177.1 275.1C177.9 273.9 179.5 273.6 180.7 274.4L190.7 281C193 282.5 193.4 285.7 191.5 287.7C189.7 289.6 186.6 289.5 185 287.5L177.2 278.3C176.5 277.4 176.5 276 177.1 275.1Z" fill="#668ACB"/>
<path d="M178.2 276.5C178 277.4 178.8 278.2 179.7 278C180.2 277.9 180.7 277.5 180.8 277C181 276.1 180.2 275.3 179.3 275.5C178.7 275.6 178.3 276 178.2 276.5Z" fill="#453B73"/>
<path d="M186.6 284.2C186.4 285.3 187.3 286.4 188.5 286.2C189.2 286.1 189.8 285.6 189.9 284.9C190.1 283.8 189.2 282.7 188 282.9C187.3 283 186.7 283.5 186.6 284.2Z" fill="#453B73"/>
<path d="M172.7 240.4H149.5V247.9H172.7V240.4Z" fill="#453B73"/>
<path d="M152.4 252.4H137.3C132.8 252.4 129.1 248.7 129.1 244.2C129.1 239.7 132.8 236 137.3 236H152.4V252.4Z" fill="#668ACB"/>
<path d="M171.9 252.4H161.3V236H171.9C176.4 236 180.1 239.7 180.1 244.2C180.1 248.7 176.4 252.4 171.9 252.4Z" fill="#668ACB"/>
<path d="M173.8 248.1C171.6 249 169.1 248 168.2 245.8C167.3 243.6 168.3 241.1 170.5 240.2C172.7 239.3 175.2 240.3 176.1 242.5C177 244.6 176 247.2 173.8 248.1ZM171.2 241.8C169.9 242.3 169.3 243.8 169.9 245.1C170.4 246.4 171.9 247 173.2 246.4C174.5 245.9 175.1 244.4 174.5 243.1C173.9 241.8 172.4 241.3 171.2 241.8Z" fill="#453B73"/>
<path d="M107.245 278.549L94.2741 258.473L90.0741 261.187L103.045 281.263L107.245 278.549Z" fill="#453B73"/>
<path d="M66 290.9C64.1 287.9 64.9 283.8 68 281.9L101.5 260.3L108.6 271.3L75.1 292.9C72 294.8 68 293.9 66 290.9Z" fill="#453B73"/>
<path d="M105.7 281.6L142 254.7C146.7 251.2 147.8 244.8 144.7 239.9C141.5 235 135.1 233.5 130.1 236.3L90.9 258.5L105.7 281.6Z" fill="#668ACB"/>
<path d="M139.2 251.9C135.9 254 131.6 253.1 129.5 249.8C127.4 246.5 128.3 242.2 131.6 240.1C134.9 238 139.2 238.9 141.3 242.2C143.4 245.4 142.5 249.7 139.2 251.9ZM133.2 242.5C131.3 243.7 130.8 246.3 132 248.1C133.2 250 135.8 250.5 137.6 249.3C139.5 248.1 140 245.5 138.8 243.7C137.6 241.8 135 241.3 133.2 242.5Z" fill="#453B73"/>
<path d="M119.8 347.1C111 354.8 97.6 353.8 90 345L55.1999 304.9C47.4999 296.1 48.4999 282.7 57.2999 275.1C66.0999 267.4 79.5 268.4 87.1 277.2L121.9 317.3C129.6 326.1 128.6 339.5 119.8 347.1Z" fill="#668ACB"/>
<path d="M63.1 281.7C58.5 285.7 58 292.8 62 297.4C66 302 73.1 302.5 77.7 298.5C82.3 294.5 82.8 287.4 78.8 282.8C74.8 278.2 67.7 277.7 63.1 281.7ZM74.7 295.2C71.9 297.6 67.7 297.3 65.3 294.5C62.9 291.7 63.2 287.5 66 285.1C68.8 282.7 73 283 75.4 285.8C77.8 288.5 77.5 292.8 74.7 295.2Z" fill="#453B73"/>
<path d="M127.4 351H88.9V332.8C88.9 323.1 96.7 315.3 106.4 315.3H109.8C119.5 315.3 127.3 323.1 127.3 332.8V351H127.4Z" fill="#453B73"/>
<path d="M102.7 327.6C99.1 330.8 98.7 336.3 101.8 339.9C105 343.5 110.5 343.9 114.1 340.8C117.7 337.6 118.1 332.1 115 328.5C111.8 324.9 106.3 324.5 102.7 327.6ZM111.8 338.2C109.6 340.1 106.3 339.9 104.4 337.7C102.5 335.5 102.7 332.2 104.9 330.3C107.1 328.4 110.4 328.6 112.3 330.8C114.2 333 114 336.3 111.8 338.2Z" fill="#668ACB"/>
<path d="M133.8 349.1H84.6V363.5H133.8V349.1Z" fill="#453B73"/>
<path d="M150.7 369.2H63.4C63.4 369.6 63.3 370 63.3 370.4V412.3H150.8V370.4C150.8 370 150.8 369.6 150.7 369.2Z" fill="#668ACB"/>
<path d="M131.6 356H82.4C71.9 358.9 64.2 363.8 63.3 370.8H150.7C149.9 363.8 142.2 358.9 131.6 356Z" fill="#668ACB"/>
<path d="M153.4 399.6H61.3V412.4H153.4V399.6Z" fill="#453B73"/>
<path d="M98.7 381.3C97.4 381.3 96.3 380.2 96.3 378.9C96.3 377.6 97.4 376.5 98.7 376.5C100 376.5 101.1 377.6 101.1 378.9C101 380.3 100 381.3 98.7 381.3Z" fill="#453B73"/>
<path d="M106.7 381.3C105.4 381.3 104.3 380.2 104.3 378.9C104.3 377.6 105.4 376.5 106.7 376.5C108 376.5 109.1 377.6 109.1 378.9C109 380.3 108 381.3 106.7 381.3Z" fill="#453B73"/>
<path d="M114.6 381.3C113.3 381.3 112.2 380.2 112.2 378.9C112.2 377.6 113.3 376.5 114.6 376.5C115.9 376.5 117 377.6 117 378.9C117 380.3 115.9 381.3 114.6 381.3Z" fill="#453B73"/>
<path d="M122.6 381.3C121.3 381.3 120.2 380.2 120.2 378.9C120.2 377.6 121.3 376.5 122.6 376.5C123.9 376.5 125 377.6 125 378.9C125 380.3 123.9 381.3 122.6 381.3Z" fill="#453B73"/>
<path d="M87.2 397.6H73.1V384.6H87.2V397.6ZM73.3 397.4H87V384.9H73.3V397.4Z" fill="#453B73"/>
<path d="M77.4 363.6C78.8 361.5 81 360.1 83.1 358.8H82.1C80 360.1 77.8 361.5 76.4 363.6H77.4Z" fill="#453B73"/>
<path d="M79.9 363.6C81.3 361.5 83.5 360.1 85.6 358.8H84.6C82.5 360.1 80.3 361.5 78.9 363.6H79.9Z" fill="#453B73"/>
<path d="M82.3 363.6C83.7 361.5 85.9 360.1 88 358.8H87C84.9 360.1 82.7 361.5 81.3 363.6H82.3Z" fill="#453B73"/>
<path d="M84.8 363.6C86.2 361.5 88.4 360.1 90.5 358.8H89.5C87.4 360.1 85.2 361.5 83.8 363.6H84.8Z" fill="#453B73"/>
<path d="M87.3 363.6C88.7 361.5 90.9 360.1 93 358.8H92C89.9 360.1 87.7 361.5 86.3 363.6H87.3Z" fill="#453B73"/>
<path d="M89.7 363.6C91.1 361.5 93.3 360.1 95.4 358.8H94.4C92.3 360.1 90.1 361.5 88.7 363.6H89.7Z" fill="#453B73"/>
<path d="M92.2 363.6C93.6 361.5 95.8 360.1 97.9 358.8H96.9C94.8 360.1 92.6 361.5 91.2 363.6H92.2Z" fill="#453B73"/>
<path d="M118.716 229.188C119.527 228.283 119.45 226.892 118.545 226.082C117.64 225.271 116.249 225.348 115.438 226.253C114.628 227.158 114.705 228.549 115.61 229.359C116.515 230.17 117.905 230.093 118.716 229.188Z" fill="#5B4E99"/>
<path d="M106.1 228.9C105.7 228.9 105.4 228.6 105.4 228.2C105.4 221.4 110.5 215.9 117.3 215.5C117.7 215.5 118 215.8 118 216.2C118 216.6 117.7 216.9 117.3 217C111.3 217.4 106.8 222.2 106.7 228.3C106.8 228.6 106.5 228.9 106.1 228.9Z" fill="#5B4E99"/>
<path d="M109 228.9C108.6 228.9 108.3 228.6 108.3 228.2C108.4 223 112.3 218.9 117.5 218.4C117.9 218.4 118.2 218.7 118.3 219C118.3 219.4 118 219.7 117.7 219.8C113.3 220.2 110 223.7 109.8 228.2C109.7 228.6 109.4 229 109 228.9Z" fill="#5B4E99"/>
<path d="M111.9 229C111.5 229 111.2 228.7 111.2 228.3C111.4 224.7 114.1 221.8 117.7 221.4C118.1 221.4 118.4 221.7 118.5 222C118.5 222.4 118.3 222.7 117.9 222.8C115 223.2 112.9 225.5 112.7 228.4C112.6 228.7 112.3 229 111.9 229Z" fill="#5B4E99"/>
<path d="M533.6 369.1H526.3V411.8H533.6V369.1Z" fill="#99CFFF"/>
<path d="M554.6 370.6H532.4V411.8H554.6V370.6Z" fill="#70A6CB"/>
<path d="M534.3 402.6V409.2H537.6L538.1 408.4H548.1L548.6 409.2H552.7V402.6H534.3Z" fill="#99CFFF"/>
<path d="M534.3 393.1V399.7H537.6L538.1 398.9H548.1L548.6 399.7H552.7V393.1H534.3Z" fill="#99CFFF"/>
<path d="M534.3 383.5V390.1H537.6L538.1 389.3H548.1L548.6 390.1H552.7V383.5H534.3Z" fill="#99CFFF"/>
<path d="M534.3 374V380.6H537.6L538.1 379.8H548.1L548.6 380.6H552.7V374H534.3Z" fill="#99CFFF"/>
<path d="M608.6 369.1H532.4V370.8H608.6V369.1Z" fill="#70A6CB"/>
<path d="M502.3 319.8H495.2V295.5C495.2 289.9 499.8 285.3 505.4 285.3H536.1C541.7 285.3 546.3 289.9 546.3 295.5V306.9H539.2V295.5C539.2 293.8 537.8 292.4 536.1 292.4H505.4C503.7 292.4 502.3 293.8 502.3 295.5V319.8Z" fill="#6369CC"/>
<path d="M493.7 305.1H478.9V307H493.7V305.1Z" fill="#6369CC"/>
<path d="M506.1 318H491.3V319.9H506.1V318Z" fill="#6369CC"/>
<path d="M443.2 356.1C443.2 356.6 443.6 356.9 444 356.9C444.4 356.9 444.8 356.5 444.8 356.1C444.8 355.7 444.4 355.3 444 355.3C443.6 355.3 443.2 355.6 443.2 356.1Z" fill="#3F366B"/>
<path d="M440.6 356.1C440.6 356.6 441 356.9 441.4 356.9C441.9 356.9 442.2 356.5 442.2 356.1C442.2 355.7 441.8 355.3 441.4 355.3C441 355.3 440.6 355.6 440.6 356.1Z" fill="#3F366B"/>
<path d="M438 356.1C438 356.6 438.4 356.9 438.8 356.9C439.2 356.9 439.6 356.5 439.6 356.1C439.6 355.7 439.2 355.3 438.8 355.3C438.4 355.3 438 355.6 438 356.1Z" fill="#3F366B"/>
<path d="M435.4 356.1C435.4 356.6 435.8 356.9 436.2 356.9C436.6 356.9 437 356.5 437 356.1C437 355.7 436.6 355.3 436.2 355.3C435.8 355.3 435.4 355.6 435.4 356.1Z" fill="#3F366B"/>
<path d="M432.8 356.1C432.8 356.6 433.2 356.9 433.6 356.9C434.1 356.9 434.4 356.5 434.4 356.1C434.4 355.7 434 355.3 433.6 355.3C433.2 355.3 432.8 355.6 432.8 356.1Z" fill="#3F366B"/>
<path d="M430.2 356.1C430.2 356.6 430.6 356.9 431 356.9C431.4 356.9 431.8 356.5 431.8 356.1C431.8 355.7 431.4 355.3 431 355.3C430.6 355.3 430.2 355.6 430.2 356.1Z" fill="#3F366B"/>
<path d="M427.6 356.1C427.6 356.6 428 356.9 428.4 356.9C428.9 356.9 429.2 356.5 429.2 356.1C429.2 355.7 428.8 355.3 428.4 355.3C428 355.3 427.6 355.6 427.6 356.1Z" fill="#3F366B"/>
<path d="M523.4 351.3H555.1C556.4 351.3 557.4 350.3 557.4 349V318.8C557.4 317.5 556.4 316.5 555.1 316.5H523.4C522.1 316.5 521.1 317.5 521.1 318.8V349C521.1 350.2 522.1 351.3 523.4 351.3Z" fill="#99CFFF"/>
<path d="M550.9 335.4H547.5V345.5H550.9V335.4Z" fill="#FDFDFF"/>
<path d="M546.1 333.9H542.7V345.5H546.1V333.9Z" fill="#FDFDFF"/>
<path d="M541.3 330.8H537.9V345.5H541.3V330.8Z" fill="#FDFDFF"/>
<path d="M536.5 328.6H533.1V345.4H536.5V328.6Z" fill="#FDFDFF"/>
<path d="M531.7 324H528.3V345.5H531.7V324Z" fill="#FDFDFF"/>
<path d="M272 335.8C275.203 335.8 277.8 333.203 277.8 330C277.8 326.797 275.203 324.2 272 324.2C268.797 324.2 266.2 326.797 266.2 330C266.2 333.203 268.797 335.8 272 335.8Z" fill="#48C6AA"/>
<path d="M270.7 333.1C270.5 333.1 270.3 333 270.1 332.9L268.3 331.1C268 330.8 268 330.2 268.3 329.9C268.6 329.6 269.2 329.6 269.5 329.9L270.7 331.1L274.4 327.4C274.7 327.1 275.3 327.1 275.6 327.4C275.9 327.7 275.9 328.3 275.6 328.6L271.3 332.9C271.1 333 270.9 333.1 270.7 333.1Z" fill="white"/>
<path d="M272 336.6C275.203 336.6 277.8 334.003 277.8 330.8C277.8 327.597 275.203 325 272 325C268.797 325 266.2 327.597 266.2 330.8C266.2 334.003 268.797 336.6 272 336.6Z" fill="#48C6AA"/>
<path d="M270.7 333.8C270.5 333.8 270.3 333.7 270.1 333.6L268.3 331.8C268 331.5 268 330.9 268.3 330.6C268.6 330.3 269.2 330.3 269.5 330.6L270.7 331.8L274.4 328.1C274.7 327.8 275.3 327.8 275.6 328.1C275.9 328.4 275.9 329 275.6 329.3L271.3 333.6C271.1 333.7 270.9 333.8 270.7 333.8Z" fill="white"/>
<path d="M320.8 336.6C324.003 336.6 326.6 334.003 326.6 330.8C326.6 327.597 324.003 325 320.8 325C317.597 325 315 327.597 315 330.8C315 334.003 317.597 336.6 320.8 336.6Z" fill="#48C6AA"/>
<path d="M319.5 333.8C319.3 333.8 319.1 333.7 318.9 333.6L317.1 331.8C316.8 331.5 316.8 330.9 317.1 330.6C317.4 330.3 318 330.3 318.3 330.6L319.5 331.8L323.2 328.1C323.5 327.8 324.1 327.8 324.4 328.1C324.7 328.4 324.7 329 324.4 329.3L320.1 333.6C319.9 333.7 319.7 333.8 319.5 333.8Z" fill="white"/>
<path d="M441.415 254.086C441.479 252.706 440.413 251.536 439.033 251.472C437.654 251.408 436.484 252.474 436.42 253.853C436.356 255.233 437.422 256.403 438.801 256.467C440.18 256.531 441.35 255.465 441.415 254.086Z" fill="#AAE0FF"/>
<path d="M448.8 245.9C449.1 245.6 449.1 245.1 448.8 244.8C443.2 239.3 434.6 239.1 428.8 244.3C428.5 244.6 428.5 245.1 428.7 245.4C429 245.7 429.5 245.8 429.8 245.5C435 240.9 442.6 241.1 447.6 245.9C448 246.2 448.5 246.2 448.8 245.9Z" fill="#AAE0FF"/>
<path d="M446.5 248.3C446.8 248 446.8 247.5 446.5 247.2C442.2 243.1 435.6 242.9 431.1 246.8C430.8 247.1 430.7 247.6 431 247.9C431.3 248.2 431.8 248.3 432.1 248C436 244.7 441.6 244.8 445.3 248.3C445.7 248.6 446.2 248.6 446.5 248.3Z" fill="#AAE0FF"/>
<path d="M444.2 250.6C444.5 250.3 444.5 249.7 444.2 249.4C441.1 246.6 436.5 246.5 433.3 249.1C432.9 249.4 432.9 249.9 433.2 250.3C433.5 250.6 434 250.7 434.3 250.4C436.9 248.4 440.5 248.4 443.1 250.6C443.4 251 443.9 251 444.2 250.6Z" fill="#AAE0FF"/>
<path d="M426.312 265.666L426.036 279.863L430.735 279.954L431.011 265.757L426.312 265.666Z" fill="#493F7A"/>
<path d="M426.241 289.47L430.941 289.51L430.958 287.51L426.258 287.47L426.241 289.47Z" fill="#493F7A"/>
<path d="M427.109 291.511L429.909 291.535L429.934 288.635L427.134 288.611L427.109 291.511Z" fill="#493F7A"/>
<path d="M426.241 289.47L430.941 289.51L430.958 287.51L426.258 287.47L426.241 289.47Z" fill="#493F7A"/>
<path d="M426.1 292.2L426.5 291.9C427 291.4 427.7 291.1 428.5 291.1C429.2 291.1 429.9 291.4 430.5 291.9L430.8 292.2V294.5L430.4 294.8C429.9 295.3 429.2 295.6 428.4 295.6C427.7 295.6 427 295.3 426.4 294.8L426 294.5L426.1 292.2Z" fill="#493F7A"/>
<path d="M426.966 296.104L429.666 296.127L429.683 294.227L426.982 294.204L426.966 296.104Z" fill="#493F7A"/>
<path d="M429 292.9L428.9 301L428.4 301.5L427.8 300.9L427.9 292.9H429Z" fill="#493F7A"/>
<path d="M425.8 288.5H431.4L434.4 285.4L422.9 285.3L425.8 288.5Z" fill="#668ACB"/>
<path d="M431.7 276.4L425.7 276.3L422.5 278.4L434.8 278.5L431.7 276.4Z" fill="#668ACB"/>
<path d="M422.032 285.489L435.132 285.602L435.196 278.102L422.096 277.989L422.032 285.489Z" fill="#493F7A"/>
<path d="M395.213 265.378L395.079 270.076L416.27 270.683L416.405 265.984L395.213 265.378Z" fill="#493F7A"/>
<path d="M410.4 273.2L428.3 273.8C431 273.9 433.3 271.7 433.4 269C433.5 266.3 431.3 264 428.6 263.9L410.7 263.3C408 263.2 405.7 265.4 405.6 268.1C405.5 270.8 407.7 273.1 410.4 273.2Z" fill="#668ACB"/>
<path d="M426.6 267.9C426.1 268.9 426.6 270.1 427.6 270.6C428.6 271.1 429.8 270.6 430.3 269.6C430.8 268.6 430.3 267.4 429.3 266.9C428.2 266.4 427 266.9 426.6 267.9Z" fill="#493F7A"/>
<path d="M408.3 267.5C407.8 268.5 408.3 269.7 409.3 270.2C410.3 270.7 411.5 270.2 412 269.2C412.5 268.2 412 267 411 266.5C410 266 408.8 266.5 408.3 267.5Z" fill="#493F7A"/>
<path d="M415.2 215.3H410.5V236.5H415.2V215.3Z" fill="#493F7A"/>
<path d="M408.1 209.8V216.2C408.1 218.8 410.2 220.9 412.8 220.9C415.4 220.9 417.5 218.8 417.5 216.2V209.8H408.1Z" fill="#668ACB"/>
<path d="M410.3 215.1C409.7 216.5 410.3 218.1 411.7 218.7C413.1 219.3 414.7 218.7 415.3 217.3C415.9 215.9 415.3 214.3 413.9 213.7C412.5 213.1 410.9 213.7 410.3 215.1Z" fill="#493F7A"/>
<path d="M402.5 270.9L418.4 241.9C420.8 237.4 419.2 231.9 414.7 229.4C410.2 227 404.7 228.6 402.2 233.1L386.3 262.1C383.9 266.6 385.5 272.1 390 274.6C394.5 277 400.1 275.4 402.5 270.9Z" fill="#668ACB"/>
<path d="M406.5 240.3C408.1 242.3 411.1 242.7 413.1 241C415.1 239.3 415.5 236.4 413.8 234.4C412.2 232.4 409.2 232 407.2 233.7C405.2 235.3 404.9 238.3 406.5 240.3Z" fill="#493F7A"/>
<path d="M390.8 269.4C392.4 271.4 395.4 271.8 397.4 270.2C399.4 268.6 399.8 265.6 398.2 263.6C396.6 261.6 393.6 261.2 391.6 262.8C389.5 264.4 389.2 267.4 390.8 269.4Z" fill="#493F7A"/>
<path d="M390.8 182.7C390.7 181.8 390.6 180.9 390.6 180C390.6 169.1 399.4 160.3 410.3 160.3C418.5 160.3 425.5 165.3 428.5 172.4C430.9 170.2 434.1 168.9 437.7 168.9C445.3 168.9 451.5 175.1 451.5 182.7H455C461.8 182.7 467.4 188.3 467.4 195.1V196.9C467.4 203.7 461.8 209.3 455 209.3H390.9C384.1 209.3 378.5 203.7 378.5 196.9V196C378.4 189 383.9 183.3 390.8 182.7Z" fill="white"/>
<path d="M389.8 183.1L389.7 182.6C390 182.6 390.2 182.5 390.5 182.5C390.5 182.2 390.4 182 390.4 181.7H390.9C390.9 182 391 182.4 391 182.7V183H390.7C390.4 183 390.1 183.1 389.8 183.1Z" fill="#6CD2FF"/>
<path d="M390.8 179.5H390.3C390.3 178.8 390.4 178 390.5 177.3L391 177.4C390.9 178.1 390.9 178.8 390.8 179.5ZM391.4 175.2L390.9 175.1C391.1 174.4 391.3 173.7 391.6 173L392.1 173.2C391.8 173.9 391.6 174.6 391.4 175.2ZM393 171.2L392.5 171C392.8 170.3 393.2 169.7 393.6 169.1L394 169.4C393.7 170 393.3 170.6 393 171.2ZM426.8 169.7C426.4 169.1 426 168.5 425.5 167.9L425.9 167.6C426.4 168.2 426.8 168.8 427.2 169.4L426.8 169.7ZM395.3 167.6L394.9 167.3C395.4 166.7 395.9 166.2 396.4 165.7L396.8 166.1C396.3 166.5 395.8 167.1 395.3 167.6ZM424.1 166.3C423.6 165.8 423.1 165.3 422.5 164.9L422.8 164.5C423.4 165 423.9 165.5 424.5 166L424.1 166.3ZM398.4 164.6L398.1 164.2C398.7 163.8 399.3 163.3 399.9 162.9L400.2 163.4C399.6 163.8 399 164.2 398.4 164.6ZM420.7 163.6C420.1 163.2 419.5 162.9 418.8 162.6L419 162.1C419.7 162.4 420.3 162.8 420.9 163.2L420.7 163.6ZM402.1 162.4L401.9 161.9C402.6 161.6 403.3 161.3 404 161.1L404.2 161.6C403.4 161.8 402.8 162.1 402.1 162.4ZM416.8 161.7C416.1 161.5 415.4 161.3 414.7 161.1L414.8 160.6C415.5 160.8 416.2 161 416.9 161.2L416.8 161.7ZM406.2 161L406.1 160.5C406.8 160.3 407.6 160.2 408.3 160.2L408.4 160.7C407.6 160.8 406.9 160.9 406.2 161ZM412.6 160.7C411.9 160.6 411.2 160.6 410.4 160.6V160.1C411.1 160.1 411.9 160.2 412.6 160.2V160.7Z" fill="#6CD2FF"/>
<path d="M428.4 172.8L428.3 172.5C428.2 172.2 428 171.9 427.9 171.5L428.4 171.3C428.5 171.5 428.6 171.7 428.7 171.9C428.9 171.7 429.1 171.6 429.3 171.4L429.6 171.8C429.3 172 429.1 172.2 428.8 172.5L428.4 172.8Z" fill="#6CD2FF"/>
<path d="M450.8 179.4C450.6 178.7 450.4 178 450.1 177.3L450.6 177.1C450.9 177.8 451.2 178.5 451.3 179.3L450.8 179.4ZM449 175.4C448.6 174.8 448.1 174.2 447.6 173.6L448 173.2C448.5 173.8 449 174.4 449.4 175L449 175.4ZM446 172.1C445.4 171.6 444.8 171.2 444.1 170.9L444.4 170.4C445.1 170.8 445.7 171.2 446.3 171.7L446 172.1ZM431.4 170.7L431.2 170.2C431.9 169.8 432.6 169.5 433.3 169.3L433.5 169.8C432.7 170.1 432 170.4 431.4 170.7ZM442.2 169.9C441.5 169.7 440.8 169.5 440 169.3L440.1 168.8C440.9 168.9 441.6 169.1 442.3 169.4L442.2 169.9ZM435.6 169.3L435.5 168.8C436.2 168.7 436.9 168.6 437.7 168.6H437.8V169.1H437.7C437 169.2 436.3 169.2 435.6 169.3Z" fill="#6CD2FF"/>
<path d="M452.5 183H451.2V182.7C451.2 182.4 451.2 182 451.2 181.7H451.7C451.7 182 451.7 182.2 451.7 182.5H452.5V183Z" fill="#6CD2FF"/>
<path d="M453.5 209.6H451.4V209.1H453.5V209.6ZM449.3 209.6H447.2V209.1H449.3V209.6ZM445.1 209.6H443V209.1H445.1V209.6ZM440.8 209.6H438.7V209.1H440.8V209.6ZM436.6 209.6H434.4V209.1H436.5V209.6H436.6ZM432.3 209.6H430.2V209.1H432.3V209.6ZM428.1 209.6H426V209.1H428.1V209.6ZM423.8 209.6H421.7V209.1H423.8V209.6ZM419.6 209.6H417.5V209.1H419.6V209.6ZM415.3 209.6H413.2V209.1H415.3V209.6ZM411.1 209.6H409V209.1H411.1V209.6ZM406.8 209.6H404.7V209.1H406.8V209.6ZM402.6 209.6H400.5V209.1H402.6V209.6ZM398.3 209.6H396.2V209.1H398.3V209.6ZM394.1 209.6H392V209.1H394.1V209.6ZM455.7 209.6V209.1C456.4 209.1 457.1 209 457.8 208.8L457.9 209.3C457.1 209.4 456.4 209.5 455.7 209.6ZM389.8 209.6C389.1 209.5 388.4 209.4 387.7 209.2L387.8 208.7C388.5 208.9 389.2 209 389.8 209V209.6ZM459.9 208.6L459.7 208.1C460.3 207.8 460.9 207.5 461.5 207.1L461.8 207.5C461.2 208 460.5 208.3 459.9 208.6ZM385.6 208.5C384.9 208.2 384.3 207.8 383.7 207.4L384 207C384.6 207.4 385.2 207.7 385.8 208L385.6 208.5ZM463.5 206.2L463.1 205.8C463.6 205.3 464.1 204.8 464.5 204.3L464.9 204.6C464.5 205.2 464 205.7 463.5 206.2ZM382.1 206.1C381.6 205.6 381.1 205.1 380.7 204.5L381.1 204.2C381.5 204.8 382 205.3 382.5 205.8L382.1 206.1ZM466.1 202.8L465.6 202.6C465.9 202 466.2 201.3 466.4 200.7L466.9 200.9C466.8 201.5 466.5 202.2 466.1 202.8ZM379.5 202.6C379.2 202 378.9 201.3 378.7 200.6L379.2 200.4C379.4 201.1 379.7 201.7 380 202.3L379.5 202.6ZM467.5 198.7L467 198.6C467.1 198 467.1 197.5 467.1 196.9V196.5H467.6V196.9C467.6 197.5 467.6 198.1 467.5 198.7ZM378.3 198.4C378.2 197.9 378.2 197.4 378.2 196.9V196.3H378.7V196.9C378.7 197.4 378.7 197.9 378.8 198.4H378.3ZM467.1 194.4C467.1 193.7 467 193 466.8 192.3L467.3 192.2C467.5 192.9 467.6 193.6 467.6 194.3L467.1 194.4ZM378.8 194.2L378.3 194.1C378.4 193.4 378.6 192.7 378.8 192L379.3 192.2C379.1 192.8 378.9 193.5 378.8 194.2ZM466.1 190.4C465.8 189.8 465.5 189.1 465.1 188.6L465.5 188.3C465.9 188.9 466.2 189.6 466.5 190.2L466.1 190.4ZM380.1 190.3L379.6 190.1C379.9 189.5 380.3 188.8 380.7 188.2L381.1 188.5C380.7 189 380.4 189.6 380.1 190.3ZM463.9 186.9C463.4 186.4 462.9 185.9 462.4 185.5L462.7 185.1C463.3 185.5 463.8 186 464.3 186.6L463.9 186.9ZM382.5 186.9L382.1 186.5C382.6 186 383.2 185.5 383.7 185.1L384 185.5C383.5 185.9 382.9 186.4 382.5 186.9ZM385.8 184.4L385.6 183.9C386.2 183.6 386.9 183.3 387.6 183.1L387.8 183.6C387.1 183.8 386.4 184.1 385.8 184.4ZM460.6 184.4C460 184.1 459.3 183.8 458.7 183.6L458.9 183.1C459.6 183.3 460.3 183.6 460.9 184L460.6 184.4ZM456.7 183.1C456.1 183 455.5 183 454.9 183H454.6V182.5H454.9C455.5 182.5 456.1 182.5 456.8 182.6L456.7 183.1Z" fill="#6CD2FF"/>
<path d="M419.433 204.287H446.533V179.687H419.433V204.287Z" fill="#66C9ED"/>
<path d="M418.233 187.145H447.633V179.745H418.233V187.145Z" fill="#AAE0FF"/>
<path d="M443.466 185.539H446.366V181.639H443.466V185.539Z" fill="#66C9ED"/>
<path d="M439.133 185.539H442.033V181.639H439.133V185.539Z" fill="#66C9ED"/>
<path d="M434.799 185.539H437.699V181.639H434.799V185.539Z" fill="#66C9ED"/>
<path d="M418.233 195.947H447.633V188.547H418.233V195.947Z" fill="#AAE0FF"/>
<path d="M443.466 194.341H446.366V190.441H443.466V194.341Z" fill="#66C9ED"/>
<path d="M439.133 194.341H442.033V190.441H439.133V194.341Z" fill="#66C9ED"/>
<path d="M434.799 194.341H437.699V190.441H434.799V194.341Z" fill="#66C9ED"/>
<path d="M418.233 204.749H447.633V197.349H418.233V204.749Z" fill="#AAE0FF"/>
<path d="M443.466 203.144H446.366V199.244H443.466V203.144Z" fill="#66C9ED"/>
<path d="M439.133 203.144H442.033V199.244H439.133V203.144Z" fill="#66C9ED"/>
<path d="M434.799 203.144H437.699V199.244H434.799V203.144Z" fill="#66C9ED"/>
<path d="M148.6 201.5C148.5 200.8 148.4 200.2 148.4 199.5C148.4 191.2 155.1 184.5 163.4 184.5C169.6 184.5 174.9 188.3 177.2 193.6C179 192 181.5 190.9 184.1 190.9C189.9 190.9 194.6 195.6 194.6 201.4H197.2C202.4 201.4 206.6 205.6 206.6 210.8V212.2C206.6 217.4 202.4 221.6 197.2 221.6H148.6C143.4 221.6 139.2 217.4 139.2 212.2V211.5C139.3 206.2 143.4 201.9 148.6 201.5Z" fill="white"/>
<path d="M147.8 201.8L147.7 201.4C147.9 201.4 148.1 201.3 148.3 201.3C148.3 201.1 148.3 200.9 148.2 200.7H148.6C148.6 200.9 148.7 201.2 148.7 201.5V201.7H148.5C148.4 201.7 148.1 201.7 147.8 201.8Z" fill="#6CD2FF"/>
<path d="M148.7 199H148.3C148.3 198.4 148.4 197.9 148.4 197.3L148.8 197.4C148.7 197.9 148.7 198.5 148.7 199ZM149.1 195.8L148.7 195.7C148.8 195.2 149 194.6 149.2 194.1L149.6 194.2C149.4 194.7 149.3 195.3 149.1 195.8ZM150.3 192.7L149.9 192.5C150.2 192 150.4 191.5 150.7 191L151 191.2C150.8 191.8 150.5 192.2 150.3 192.7ZM175.9 191.5C175.6 191 175.3 190.6 174.9 190.2L175.2 189.9C175.5 190.3 175.9 190.8 176.2 191.3L175.9 191.5ZM152.1 190L151.8 189.7C152.2 189.3 152.5 188.9 152.9 188.5L153.2 188.8C152.8 189.2 152.4 189.6 152.1 190ZM173.9 189C173.5 188.6 173.1 188.2 172.7 187.9L173 187.6C173.4 187.9 173.9 188.3 174.3 188.7L173.9 189ZM154.4 187.7L154.2 187.4C154.6 187.1 155.1 186.7 155.6 186.5L155.8 186.8C155.3 187.1 154.9 187.4 154.4 187.7ZM171.3 187C170.8 186.7 170.4 186.4 169.9 186.2L170.1 185.8C170.6 186 171.1 186.3 171.6 186.6L171.3 187ZM157.2 186.1L157 185.7C157.5 185.5 158 185.3 158.6 185.1L158.7 185.5C158.2 185.6 157.7 185.8 157.2 186.1ZM168.4 185.5C167.9 185.3 167.4 185.2 166.8 185L166.9 184.6C167.4 184.7 168 184.9 168.5 185.1L168.4 185.5ZM160.3 185L160.2 184.6C160.7 184.5 161.3 184.4 161.9 184.3V184.7C161.4 184.8 160.8 184.9 160.3 185ZM165.2 184.8C164.7 184.7 164.1 184.7 163.6 184.7V184.3C164.2 184.3 164.7 184.3 165.3 184.4L165.2 184.8Z" fill="#6CD2FF"/>
<path d="M177.1 194L177 193.7C176.9 193.5 176.8 193.2 176.7 193L177.1 192.8C177.2 193 177.3 193.1 177.3 193.3C177.4 193.2 177.6 193.1 177.7 193L177.9 193.3C177.7 193.5 177.5 193.6 177.3 193.8L177.1 194Z" fill="#6CD2FF"/>
<path d="M194.1 199C194 198.5 193.8 197.9 193.6 197.4L194 197.2C194.2 197.7 194.4 198.3 194.6 198.9L194.1 199ZM192.8 195.9C192.5 195.4 192.1 195 191.8 194.6L192.1 194.3C192.5 194.7 192.9 195.2 193.2 195.7L192.8 195.9ZM190.5 193.4C190.1 193.1 189.6 192.7 189.1 192.5L189.3 192.1C189.8 192.4 190.3 192.7 190.8 193.1L190.5 193.4ZM179.4 192.4L179.2 192C179.7 191.7 180.3 191.5 180.8 191.3L180.9 191.7C180.4 191.9 179.9 192.1 179.4 192.4ZM187.6 191.8C187.1 191.6 186.5 191.5 186 191.4L186.1 191C186.7 191.1 187.2 191.3 187.8 191.4L187.6 191.8ZM182.6 191.3L182.5 190.9C183 190.8 183.6 190.8 184.1 190.8H184.2V191.2H184.1C183.6 191.2 183.1 191.2 182.6 191.3Z" fill="#6CD2FF"/>
<path d="M195.4 201.6H194.4V201.4C194.4 201.1 194.4 200.9 194.4 200.6H194.8C194.8 200.8 194.8 201 194.8 201.2H195.4V201.6Z" fill="#6CD2FF"/>
<path d="M196.2 221.8H194.6V221.4H196.2V221.8ZM193 221.8H191.4V221.4H193V221.8ZM189.8 221.8H188.2V221.4H189.8V221.8ZM186.5 221.8H184.9V221.4H186.5V221.8ZM183.3 221.8H181.7V221.4H183.3V221.8ZM180.1 221.8H178.5V221.4H180.1V221.8ZM176.9 221.8H175.3V221.4H176.9V221.8ZM173.7 221.8H172.1V221.4H173.7V221.8ZM170.4 221.8H168.8V221.4H170.4V221.8ZM167.2 221.8H165.6V221.4H167.2V221.8ZM164 221.8H162.4V221.4H164V221.8ZM160.8 221.8H159.2V221.4H160.8V221.8ZM157.6 221.8H156V221.4H157.6V221.8ZM154.4 221.8H152.8V221.4H154.4V221.8ZM151.1 221.8H149.5V221.4H151.1V221.8ZM197.8 221.8V221.4C198.3 221.4 198.8 221.3 199.4 221.2L199.5 221.6C198.9 221.7 198.4 221.8 197.8 221.8ZM147.9 221.8C147.4 221.8 146.8 221.7 146.3 221.5L146.4 221.1C146.9 221.2 147.4 221.3 148 221.4L147.9 221.8ZM201 221.1L200.8 220.7C201.3 220.5 201.7 220.2 202.2 220L202.4 220.3C202 220.6 201.5 220.8 201 221.1ZM144.7 221C144.2 220.8 143.7 220.5 143.3 220.2L143.5 219.9C143.9 220.2 144.4 220.5 144.9 220.7L144.7 221ZM203.8 219.3L203.5 219C203.9 218.6 204.2 218.3 204.6 217.8L204.9 218C204.5 218.5 204.2 218.9 203.8 219.3ZM142 219.1C141.6 218.7 141.2 218.3 140.9 217.9L141.2 217.7C141.5 218.1 141.9 218.5 142.2 218.9L142 219.1ZM205.8 216.7L205.4 216.5C205.6 216 205.9 215.5 206 215.1L206.4 215.2C206.2 215.7 206 216.2 205.8 216.7ZM140.1 216.5C139.9 216 139.6 215.5 139.5 215L139.9 214.9C140.1 215.4 140.2 215.9 140.5 216.4L140.1 216.5ZM206.8 213.6L206.4 213.5C206.5 213.1 206.5 212.6 206.5 212.2V211.9H206.9V212.2C206.9 212.7 206.8 213.1 206.8 213.6ZM139.1 213.4C139.1 213 139 212.6 139 212.2V211.7H139.4V212.2C139.4 212.6 139.4 212.9 139.5 213.3L139.1 213.4ZM206.4 210.3C206.4 209.8 206.3 209.3 206.2 208.7L206.6 208.6C206.7 209.1 206.8 209.7 206.8 210.2L206.4 210.3ZM139.6 210.2L139.2 210.1C139.3 209.6 139.4 209 139.6 208.5L140 208.6C139.7 209.1 139.6 209.6 139.6 210.2ZM205.7 207.3C205.5 206.8 205.3 206.4 205 205.9L205.3 205.7C205.6 206.2 205.9 206.6 206.1 207.2L205.7 207.3ZM140.5 207.2L140.1 207C140.3 206.5 140.6 206 140.9 205.6L141.2 205.8C141 206.2 140.7 206.7 140.5 207.2ZM204.1 204.6C203.7 204.2 203.4 203.9 202.9 203.5L203.1 203.2C203.5 203.5 203.9 203.9 204.3 204.3L204.1 204.6ZM142.3 204.6L142 204.3C142.4 203.9 142.8 203.5 143.2 203.2L143.4 203.5C143.1 203.9 142.7 204.2 142.3 204.6ZM144.8 202.7L144.6 202.3C145.1 202 145.6 201.8 146.1 201.7L146.2 202.1C145.8 202.3 145.3 202.5 144.8 202.7ZM201.6 202.7C201.1 202.5 200.7 202.2 200.2 202.1L200.3 201.7C200.8 201.9 201.3 202.1 201.8 202.3L201.6 202.7ZM198.6 201.7C198.2 201.6 197.7 201.6 197.3 201.6H197.1V201.2H197.3C197.8 201.2 198.2 201.2 198.7 201.3L198.6 201.7Z" fill="#6CD2FF"/>
<path d="M170.229 217.842H190.829V199.242H170.229V217.842Z" fill="#66C9ED"/>
<path d="M169.429 204.845H191.729V199.245H169.429V204.845Z" fill="#AAE0FF"/>
<path d="M188.55 203.668H190.75V200.668H188.55V203.668Z" fill="#66C9ED"/>
<path d="M185.229 203.668H187.429V200.668H185.229V203.668Z" fill="#66C9ED"/>
<path d="M181.907 203.668H184.107V200.668H181.907V203.668Z" fill="#66C9ED"/>
<path d="M169.429 211.49H191.729V205.89H169.429V211.49Z" fill="#AAE0FF"/>
<path d="M188.55 210.313H190.75V207.313H188.55V210.313Z" fill="#66C9ED"/>
<path d="M185.229 210.313H187.429V207.313H185.229V210.313Z" fill="#66C9ED"/>
<path d="M181.907 210.313H184.107V207.313H181.907V210.313Z" fill="#66C9ED"/>
<path d="M169.429 218.136H191.729V212.536H169.429V218.136Z" fill="#AAE0FF"/>
<path d="M188.55 216.958H190.75V213.958H188.55V216.958Z" fill="#66C9ED"/>
<path d="M185.229 216.958H187.429V213.958H185.229V216.958Z" fill="#66C9ED"/>
<path d="M181.907 216.958H184.107V213.958H181.907V216.958Z" fill="#66C9ED"/>
<path d="M-124.1 414.3H668C668.5 414.3 668.9 413.9 668.9 413.4C668.9 412.9 668.5 412.5 668 412.5H-124.1C-124.6 412.5 -125 412.9 -125 413.4C-125 413.9 -124.6 414.3 -124.1 414.3Z" fill="#312A52"/>
<path d="M221.2 406.8V203.6C221.2 200.5 223.7 198 226.8 198H361C364.1 198 366.6 200.5 366.6 203.6V406.8C366.6 409.9 364.1 412.4 361 412.4H226.8C223.7 412.4 221.2 409.9 221.2 406.8Z" fill="#668ACB"/>
<path d="M229.1 200.9H358.7C361.5 200.9 363.7 203.2 363.7 205.9V403.7C363.7 406.5 361.4 408.7 358.7 408.7H229.1C226.3 408.7 224.1 406.4 224.1 403.7V206C224 203.2 226.3 200.9 229.1 200.9Z" fill="black"/>
<path d="M314.8 405H272.9C272.2 405 271.6 404.4 271.6 403.7C271.6 403 272.2 402.4 272.9 402.4H314.8C315.5 402.4 316.1 403 316.1 403.7C316.1 404.4 315.5 405 314.8 405Z" fill="#668ACB"/>
<path d="M358.263 398.17L358.263 212.67L229.363 212.67L229.363 398.17H358.263Z" fill="white"/>
<path d="M289.5 285H239.9C238.2 285 236.9 283.7 236.9 282V243.5C236.9 241.8 238.2 240.5 239.9 240.5H289.5C291.2 240.5 292.5 241.8 292.5 243.5V282.1C292.5 283.7 291.2 285 289.5 285Z" fill="#99CFFF"/>
<path d="M289.9 275.6H242.3V242.8C242.3 242.7 242.4 242.5 242.6 242.5C242.7 242.5 242.9 242.6 242.9 242.8V275.1H290C290.1 275.1 290.3 275.2 290.3 275.4C290.3 275.6 290.1 275.6 289.9 275.6Z" fill="#FDFDFF"/>
<path d="M252.3 265.2H247V275.3H252.3V265.2Z" fill="#FDFDFF"/>
<path d="M259.7 262.9H254.4V275.3H259.7V262.9Z" fill="#FDFDFF"/>
<path d="M267 258.3H261.7V275.3H267V258.3Z" fill="#FDFDFF"/>
<path d="M274.3 255.1H269V275.3H274.3V255.1Z" fill="#FDFDFF"/>
<path d="M281.6 248H276.3V275.2H281.6V248Z" fill="#FDFDFF"/>
<path d="M349.2 285H299.6C297.9 285 296.6 283.7 296.6 282V243.5C296.6 241.8 297.9 240.5 299.6 240.5H349.2C350.9 240.5 352.2 241.8 352.2 243.5V282.1C352.2 283.7 350.9 285 349.2 285Z" fill="#99CFFF"/>
<path d="M349.7 275.6H302.1V244.5C302.1 244.4 302.2 244.2 302.4 244.2C302.5 244.2 302.7 244.3 302.7 244.5V275.1H349.8C349.9 275.1 350.1 275.2 350.1 275.4C350.1 275.6 349.8 275.6 349.7 275.6Z" fill="#FDFDFF"/>
<path d="M302.3 275.3C310.3 274.6 311.4 242.5 323.2 256.9C334.4 270.6 335 245.2 347.3 245.2V275L302.3 275.3Z" fill="#FDFDFF"/>
<path d="M352.3 232.4H236.9V222.6H352.2V232.4H352.3ZM237.2 232.1H352V222.8H237.2V232.1Z" fill="#4AC4D9"/>
<path d="M284.1 225.8H265V229.1H284.1V225.8Z" fill="#99CFFF"/>
<path d="M295.9 225.8H286V229.1H295.9V225.8Z" fill="#99CFFF"/>
<path d="M262.5 225.8H239.1V229.1H262.5V225.8Z" fill="#99CFFF"/>
<path d="M276.5 291.2H236.8V294.3H276.5V291.2Z" fill="#CCF3FF"/>
<path d="M276.2 309.5H236.5V312.6H276.2V309.5Z" fill="#CCF3FF"/>
<path d="M271.5 302.7H236.8V305.8H271.5V302.7Z" fill="#CCF3FF"/>
<path d="M271.5 315.4H236.8V318.5H271.5V315.4Z" fill="#CCF3FF"/>
<path d="M297 296.9H236.8V300H297V296.9Z" fill="#CCF3FF"/>
<path d="M348.6 385.4H238.7C237 385.4 235.7 384.1 235.7 382.4V328.3C235.7 326.6 237 325.3 238.7 325.3H348.6C350.3 325.3 351.6 326.6 351.6 328.3V382.4C351.6 384 350.3 385.4 348.6 385.4Z" fill="#99CFFF"/>
<path d="M340.2 342.4H245.1C245 342.4 245 342.3 245 342.3L245.1 342.2H340.2C340.3 342.2 340.3 342.3 340.3 342.3L340.2 342.4Z" fill="white"/>
<path d="M340.2 362.6H245.1C245 362.6 245 362.5 245 362.5L245.1 362.4H340.2C340.3 362.4 340.3 362.5 340.3 362.5L340.2 362.6Z" fill="white"/>
<path d="M340.2 352.8H245.1C245 352.8 245 352.7 245 352.7L245.1 352.6H340.2C340.3 352.6 340.3 352.7 340.3 352.7L340.2 352.8Z" fill="white"/>
<path d="M340.2 372.8H244.8L244.7 336.8C244.7 336.6 244.8 336.5 245 336.5C245.2 336.5 245.3 336.6 245.3 336.8L245.4 372.2H340.2C340.4 372.2 340.5 372.3 340.5 372.5C340.5 372.7 340.3 372.8 340.2 372.8Z" fill="white"/>
<path d="M294.1 346L272.5 366.8L261.3 356.9L244.8 372.3C244.7 372.4 244.7 372.6 244.8 372.7C244.9 372.8 244.9 372.8 245 372.8C245.1 372.8 245.1 372.8 245.2 372.7L261.3 357.6L272.5 367.5L294.1 346.7V346Z" fill="white"/>
<path d="M262.751 357.789C262.941 356.983 262.442 356.175 261.636 355.984C260.83 355.794 260.022 356.293 259.832 357.1C259.641 357.906 260.14 358.714 260.947 358.904C261.753 359.094 262.561 358.595 262.751 357.789Z" fill="white"/>
<path d="M272.7 368.5C273.528 368.5 274.2 367.828 274.2 367C274.2 366.172 273.528 365.5 272.7 365.5C271.872 365.5 271.2 366.172 271.2 367C271.2 367.828 271.872 368.5 272.7 368.5Z" fill="white"/>
<path d="M295.808 346.582C295.999 345.775 295.5 344.968 294.693 344.777C293.887 344.587 293.079 345.086 292.889 345.892C292.699 346.698 293.198 347.506 294.004 347.697C294.81 347.887 295.618 347.388 295.808 346.582Z" fill="white"/>
<path d="M318.5 290.9C318.5 290.9 318.4 290.9 318.5 290.9C311.3 290.9 305.5 296.7 305.5 303.9C305.5 311.1 311.3 316.9 318.5 316.9C320.7 316.9 322.7 316.4 324.5 315.4L318.5 303.9V290.9Z" fill="#668ACB"/>
<path d="M324.5 315.5C328.6 313.3 331.5 309 331.5 304H318.5L324.5 315.5Z" fill="#5B4E99"/>
<path d="M318.5 290.9V303.9H331.5C331.5 296.7 325.6 290.9 318.5 290.9Z" fill="#CCF3FF"/>
<path d="M350.9 297H339.9V298.7H350.9V297Z" fill="#99CFFF"/>
<path d="M350.9 300.9H339.9V302.6H350.9V300.9Z" fill="#99CFFF"/>
<path d="M350.9 304.7H339.9V306.4H350.9V304.7Z" fill="#99CFFF"/>
<path d="M350.9 308.5H339.9V310.2H350.9V308.5Z" fill="#99CFFF"/>
<path d="M5.49997 371H3.19995V395.1H5.49997V371Z" fill="#668ACB"/>
<path d="M0.399963 371H-1.90002V395.1H0.399963V371Z" fill="#668ACB"/>
<path d="M-60.6 403.1H-30.5H-27.4C-26.2 400.7 -23.9 399 -21.2 399C-19.4 398.9 -17.6 399.6 -16.2 400.9C-15.5 401.5 -15 402.3 -14.6 403.1H-13.2H-11.4H-9.99997C-8.79997 400.7 -6.49999 399 -3.79999 399C-1.99999 398.9 -0.199989 399.6 1.20001 400.9C1.90001 401.5 2.40002 402.3 2.80002 403.1H5.90002H10.2V398.3H2.60004H-9.69998H-14.6H-26.9H-60.4L-60.6 403.1Z" fill="#312A52"/>
<path d="M-3.80005 412.7C-0.210197 412.7 2.69995 409.79 2.69995 406.2C2.69995 402.61 -0.210197 399.7 -3.80005 399.7C-7.3899 399.7 -10.3 402.61 -10.3 406.2C-10.3 409.79 -7.3899 412.7 -3.80005 412.7Z" fill="#312A52"/>
<path d="M-13.7 406.4C-13.7 406.6 -13.7 406.7 -13.7 406.9L-10.8 406.8C-10.8 405.5 -10.5 404.2 -10 403.1C-8.8 400.7 -6.50002 399 -3.80002 399C-2.00002 398.9 -0.200018 399.6 1.19998 400.9C1.89998 401.5 2.39999 402.3 2.79999 403.1C3.29999 404.1 3.50001 405.2 3.60001 406.3L6.5 406.2C6.5 405.1 6.3 404 6 403C5.5 401.4 4.49999 399.9 3.29999 398.7C3.09999 398.5 2.89998 398.3 2.69998 398.2C0.899981 396.7 -1.40001 395.9 -3.70001 396C-5.90001 396.1 -7.90001 396.9 -9.60001 398.2C-10.6 399 -11.4 400 -12.1 401.1C-12.5 401.7 -12.8 402.4 -13 403.1C-13.5 404.2 -13.7 405.3 -13.7 406.4Z" fill="#312A52"/>
<path d="M8.09998 368.2H-59.9V398.5H8.09998V368.2Z" fill="#668ACB"/>
<path d="M38.5 329.3L48 334.4L52.8 322.5L55.3 323.1C55.3 323.1 53.7 336.9 51.1 339.4C48.5 341.9 35.4 336.4 35.4 336.4C32.1 334.4 35 327.9 38.5 329.3Z" fill="#F7A594"/>
<path d="M52.8 324.2C52.8 324.2 51.1 322 51 321.3C50.9 320.6 53.2 319 53.4 319.3C53.6 319.6 54.1 320.2 52.6 321.1C53.9 321.8 55.7 323.5 52.8 324.2Z" fill="#F7A594"/>
<path d="M52.7 324.4C52.7 324.4 51.9 322.2 52 321.2C52.1 319.9 53.3 318.7 53.3 318.7C53.3 318.7 56.4 319.9 56.6 320.3C56.8 320.7 55.3 323.4 55.3 323.4C55.3 323.4 54.1 325.3 52.7 324.4Z" fill="#F7A594"/>
<path d="M52.1 321.4C52.1 321.4 51.1 315.7 52 315.6C52.4 315.6 53.4 321 53.4 321L52.1 321.4Z" fill="#F7A594"/>
<path d="M52.3 323.6C51.9 322.9 51.1 321.7 51 321.3C50.9 320.8 52.4 319.6 53.1 319.3C53.3 319.2 53.3 319.3 53.4 319.3C53.5 319.5 53.7 319.7 53.6 320C53.5 320.4 53.2 320.7 52.6 321.1C53.2 321.4 53.9 321.9 54.2 322.4C53.9 321.9 53.2 321.4 52.6 321.1C53.2 320.7 53.5 320.3 53.6 320C53.7 319.6 53.5 319.4 53.4 319.3C53.4 319.2 53.2 319.2 53.1 319.3C52.4 319.6 51 320.7 51 321.3C51 321.8 51.8 322.9 52.3 323.6Z" fill="#E6836F"/>
<path d="M55 321.7C55.2 321 56 320.5 56 320.5C56 320.5 55.2 320.9 55 321.7C55 321.6 55 321.6 55 321.7C54.4 321.6 53.3 320.6 53.3 320.6C53.3 320.6 54.4 321.7 55 321.7Z" fill="#E6836F"/>
<path d="M36.7 328.7C36.7 328.7 38.7 329 43.4 332C42.9 334 41.3 339.4 41.3 339.4C41.3 339.4 34 337.2 33.1 334.7C32.2 332.2 33.2 327.7 36.7 328.7Z" fill="#002E73"/>
<path d="M13.5 411.9H21C21.2 411.8 21.3 411.7 21.3 411.6C21.7 406 22.2 403.3 22.2 403.3L17 403.1L15.8 407.3C14.2 408.4 12.1 411 13.5 411.9Z" fill="#231F20"/>
<path d="M21.6 412H12.7C12.5 412 12.6 410.8 12.8 410.8H21.6C21.9 410.8 21.8 412 21.6 412Z" fill="#231F20"/>
<path d="M24.7 352.5C22.1 356.5 20.2 375.9 16.6 405.2L21.9 405.5C23.5 397.7 25.3 393.8 27.1 382.5C31.5 372.6 33.8 363.2 34.9 353.5C36.1 346.2 27.2 342.4 24.7 352.5Z" fill="#231F20"/>
<path d="M31 353.8C31.4 368 33.9 380.1 33.9 380.1C34.5 392 35.3 391.6 36.4 405.5L41.2 405.4C41.6 399.5 44.8 371.7 42.3 353.9C41.1 346 30.2 343.3 31 353.8Z" fill="#231F20"/>
<path d="M36.4 405.6C36 407.9 35.7 409.7 35.8 411.8L47.5 412C47.5 412 48.7 410.9 47.2 409.2C45.7 407.5 43 408.5 41.2 405.5L36.4 405.6Z" fill="#231F20"/>
<path d="M48 412H35.6C35.4 412 35.3999 410.8 35.6999 410.8H48C48.3 410.8 48.2 412 48 412Z" fill="#231F20"/>
<path d="M42 353.2C42 355.7 24.5 354.9 24.5 352.5C23.5 331 18.3 333.2 19.6 331.1C21.9 327.4 33.4 327.6 37.6 329.2C39.3 329.8 41.5 332.4 42.2 336.6C42.6 338.7 41 341.2 40.8 342.9C40.2 346.8 41.8 352.6 42 353.2Z" fill="#002E73"/>
<path d="M31.1 330.8C28.2 331.2 26.3 329.2 25.9 328.3L26.1 322.3L29.5 322C30.5 322.1 31.5 322.3 32.3 322.6L33.1 326.5L33.3 327.4C33.6 328.3 34 330.4 31.1 330.8Z" fill="#F7A594"/>
<path d="M27.2 323.7C27.7 324.5 30 326.6 33 326.6L32.3 323.2L27.2 323.7Z" fill="#E6836F"/>
<path d="M34.7 315.8C35 317 35.5 319.6 35.4 320.7C35.3 322.5 33.6 324.5 32.1 324.8C30.4 325 28.1 324.5 26.8 323.4C26.1 322.6 24.8 320.7 24.1 319C22.8 315.5 25.3 312.4 28.5 311.7C31.7 311 33.9 312.2 34.7 315.8Z" fill="#F7A594"/>
<path d="M25.3 321.4C24.6 320.2 25.5 319.8 26.5 320.7C26.3 319.8 25.3 317.3 26.2 316.4C27.2 315.4 31.6 315.8 34 313.4C34 313.4 32.2 309.5 26.5 311.8C19.8 315.2 25.3 321.4 25.3 321.4Z" fill="#73382A"/>
<path d="M26.0644 321.963C26.5317 321.574 26.5099 320.778 26.0157 320.183C25.5216 319.588 24.7422 319.421 24.2749 319.809C23.8077 320.197 23.8296 320.994 24.3237 321.589C24.8179 322.184 25.5972 322.351 26.0644 321.963Z" fill="#F7A594"/>
<path d="M20.8 329.8C22.8 329.6 24.7 339 23.3 341.6C23.3 341.8 23.3 342 23.3 342.2C23.3 342.9 23.3 343.7 23.2 344.5C23.2 344.8 23.2 345.2 23.2 345.5C23.2 346.3 23.1 347 23.1 347.8C22.9 353.7 22.5 359.1 22.5 359.1H43C42.8 355.1 42.3 351 41.8 347.8C41.7 347 41.6 346.2 41.5 345.5C41.5 345.1 41.4 344.8 41.4 344.5C41.3 343.7 41.3 343.1 41.4 342.7C41.4 342.6 41.4 342.4 41.4 342.2C41.5 339.2 39.5 330.8 38 329.2C36 328.3 33.7 328.2 33.7 328.2C33.8 332.5 32.1 336.3 32.1 336.3C32.1 336.3 27.8 332.6 25.4 328.2C23.6 328.6 21.8 329 20.8 329.8Z" fill="#FFB655"/>
<path d="M41.5 344.5C41.4 343.7 41.4 343.1 41.5 342.7C41.5 342.6 41.5 342.4 41.5 342.2H23.4C23.4 342.9 23.4 343.7 23.3 344.5H41.5Z" fill="white"/>
<path d="M23.2 347.8H41.9C41.8 347 41.7 346.2 41.6 345.5H23.2C23.2 346.3 23.2 347.1 23.2 347.8Z" fill="white"/>
<path d="M23.2 318.1C22.9 316.3 22.7 311.5 26.9 310.3C30.6 309.2 33.3 311.5 34.6 312.9C35.1 313 36.6 312.6 36.9 312.9C37 313.1 36.9 313.4 35.4 314C30 315.2 25.4 316.7 23.4 319.3C23.4 319.3 23 319.5 22.8 319.5C22.6 319.5 23 318.8 23.2 318.1Z" fill="#FFEE73"/>
<path d="M30.7 314.1C30.7 314.1 29 310.1 25 311.2L24.9 311C24.9 311 25.9 310.4 27.1 310C28.4 309.8 31.3 310.3 33 313.4C32.1 313.9 30.7 314.1 30.7 314.1Z" fill="#FFDD59"/>
<path d="M23.2 340.5L20.3 346.8L31.9 352.6L31.7 355C31.7 355 16.4 353 15 349.7C13.7 346.3 19.1 331.9 19.1 331.9C20.7 328.3 22.7 337.4 23.2 340.5Z" fill="#F7C4B9"/>
<path d="M31.9 352.8L37.6 352.9C37.6 352.9 35.9 355.7 31.9 355.2C26.6 354.6 28.7 352.6 31.9 352.8Z" fill="#F7C4B9"/>
<path d="M51.1 352.9V353.2C51.1 353.4 50.8 353.5 50.6 353.5H26.3C26 353.5 25.8 353.4 25.8 353.2V352.9H51.1Z" fill="#5D4F99"/>
<path d="M51.1 353.2C51.1 353.4 50.8 353.5 50.6 353.5H26.3C26 353.5 25.8 353.4 25.8 353.2H51.1Z" fill="#241F3C"/>
<path d="M53.9 336.3L54.1 336.4L54 336.5L53.8 336.2L53.9 336.3Z" fill="#241F3C"/>
<path d="M50.8 352.8H31.1C30.8 352.8 30.5 352.5 30.6 352.2L33.2 336.7C33.3 336.4 33.6 336.1 33.9 336.1H53.6C53.9 336.1 54.2 336.4 54.1 336.7L51.5 352.2C51.4 352.5 51.1 352.8 50.8 352.8Z" fill="#5D4F99"/>
<path d="M50.9 353H31.2C30.9 353 30.6 352.7 30.7 352.4L33.3 336.9C33.4 336.6 33.7 336.3 34 336.3H53.7C54 336.3 54.3 336.6 54.2 336.9L51.6 352.4C51.6 352.7 51.2 353 50.9 353Z" fill="#241F3C"/>
<path d="M45.2012 345.287C45.3718 343.806 44.3537 342.472 42.9273 342.308C41.5008 342.143 40.2062 343.211 40.0356 344.692C39.865 346.174 40.883 347.508 42.3095 347.672C43.736 347.836 45.0306 346.769 45.2012 345.287Z" fill="#668ACB"/>
<path d="M23.2 341.5L16.6 338.1C16.6 338.1 18.5 331.2 20.7 329.9C21.8 330.5 22.3 332 22.9 334.7C23.4 337 23.6 339.4 23.2 341.5Z" fill="#002E73"/>
<path d="M176 323.4C177.988 323.4 179.6 321.788 179.6 319.8C179.6 317.812 177.988 316.2 176 316.2C174.012 316.2 172.4 317.812 172.4 319.8C172.4 321.788 174.012 323.4 176 323.4Z" fill="#0E0E0E"/>
<path d="M205.4 322.8C205.5 323 205.8 323.1 206 323L207.2 322.1C208.1 321.4 207.7 321.1 206.8 321.6L205.5 322.4C205.3 322.3 205.3 322.6 205.4 322.8Z" fill="#FFA88F"/>
<path d="M202.8 326.5C202.8 326.5 206.7 326.2 206.1 322.5C205.9 320.9 201.6 322.9 201.6 322.9C201.6 322.9 202.2 320.4 201.2 320.6C200.8 322.3 200.4 324 200.1 325.5C200.1 326.1 201.7 327 202.8 326.5Z" fill="#FFA88F"/>
<path d="M183.7 328.5C182.1 325.5 185.2 322 188.4 324.9L195 332.4L200.3 325.2C200.9 326.1 201.4 326.5 202.3 326.5C202.3 326.5 198.7 336.7 195.9 337.3C192.6 338.1 184.9 330.5 183.7 328.5Z" fill="#FFA88F"/>
<path d="M206.9 319.6C206.9 319.2 206.4 318.8 206.3 319.1L203.4 318.4C203.2 318.3 203 318.5 202.9 318.7L200.9 326.3C200.8 326.5 201 326.8 201.2 326.8L204.1 327.6C204.1 327.6 204.1 327.7 204.2 327.7C204.5 327.8 204.7 327.7 204.8 327.5C204.8 327.5 204.9 327.4 204.9 327.3C205 327.2 206.9 319.7 206.9 319.6Z" fill="black"/>
<path d="M204.2 327.6L200.8 326.7C200.6 326.6 200.5 326.4 200.5 326.2L202.5 318.4C202.6 318.2 202.8 318 203 318.1L206.3 318.9C206.5 319 206.6 319.2 206.6 319.4L204.6 327.2C204.7 327.5 204.4 327.7 204.2 327.6Z" fill="black"/>
<path d="M204.3 327.6L200.9 326.7C200.7 326.7 200.6 326.4 200.7 326.2L202.7 318.4C202.8 318.2 202.9 318.1 203.1 318.1L206.4 318.9C206.5 318.9 206.6 319 206.6 319.1C206.6 319.2 206.7 319.3 206.6 319.4L204.6 327.3C204.6 327.5 204.5 327.6 204.3 327.6Z" fill="black"/>
<path d="M206.5 319.5L204.5 327.3L200.7 326.3L202.8 318.5L206.5 319.5Z" fill="#AAE0FF"/>
<path d="M204.6 324.2C204.7 324.4 205 324.5 205.2 324.3L206.9 323.3C207.1 323.2 207.2 322.9 207 322.7C206.9 322.5 206.6 322.4 206.4 322.6L204.7 323.6C204.5 323.8 204.5 324 204.6 324.2Z" fill="#FFA88F"/>
<path d="M204.2 325.2C204.3 325.4 204.6 325.5 204.8 325.3L206.5 324.3C206.7 324.2 206.8 323.9 206.6 323.7C206.5 323.5 206.2 323.4 206 323.6L204.3 324.6C204.2 324.8 204.1 325 204.2 325.2Z" fill="#FFA88F"/>
<path d="M204.6 325.8C204.7 326 204.9 326 205.1 325.9L206.4 325.1C206.6 325 206.6 324.8 206.5 324.6C206.4 324.4 206.2 324.4 206 324.5L204.7 325.3C204.6 325.4 204.5 325.6 204.6 325.8Z" fill="#FFA88F"/>
<path d="M173.9 335.8C174.4 337.5 175 339.2 175.6 340.8C176.5 343.1 177.3 346.9 177.5 347.8L190.6 348.1C190.8 341.5 190.8 341.5 190.9 339.3C191 337.9 191.1 336.4 191.1 335C191.2 332.8 191.1 330.9 190.9 330.3C190.2 328.5 188 326.1 186.1 324.3C184.2 322.5 172.7 325.3 173.2 328.6C172.6 330.4 173.1 333.1 173.9 335.8Z" fill="#002E73"/>
<path d="M183.4 323.6C183.4 323.6 186.1 326.4 184.2 329.1C179.2 328.5 176.9 325.2 176.8 325.1C179.6 322.2 183.4 323.6 183.4 323.6Z" fill="#FFA88F"/>
<path d="M183.7 354.4C181 371.3 175.1 404.6 175.1 404.6L170.7 404.4L172.8 355.4C173.6 348.4 183.8 344.3 183.7 354.4Z" fill="#0D0D0D"/>
<path d="M168.2 412.7C167.2 411.9 169.4 410.9 169.4 410.9L170.3 403.7V403.5H174.9L175.2 406.4L172.5 412.7H168.2Z" fill="#0D0D0D"/>
<path d="M174.3 412.7L172.4 406.1L175.3 406.4L175 412.7H174.3Z" fill="#0D0D0D"/>
<path d="M182 354.2C182.8 371.3 186.8 405.1 186.8 405.1L191.2 404.9L193.1 356.7C193 347.8 183.1 344.2 182 354.2Z" fill="#0D0D0D"/>
<path d="M193.6 413.1C194.6 412.3 192.4 411.3 192.4 411.3L191.5 404.1V403.9H186.9L186.6 406.8L189.3 413.1H193.6Z" fill="#0D0D0D"/>
<path d="M187.5 413.1L189.4 406.5L186.6 406.8L186.9 413.1H187.5Z" fill="#0D0D0D"/>
<path d="M177.1 345.7C177.1 345.7 172.9 348.5 172.7 356.7C178.1 357.7 192.8 358.3 192.8 358.3C193.1 353.3 192.3 348.8 190.3 345.9C179.5 345.4 177.1 345.7 177.1 345.7Z" fill="#0D0D0D"/>
<path d="M181.5 318L181.7 319.2L182.5 323.5L182.8 325C182.7 326.6 178.6 326.8 177.4 325.7C177.4 325.4 177.3 324.8 177.3 324C177.2 322.5 177.1 320.5 177 319.7V319.5L178.8 319C179.8 318.5 180.8 318.2 181.5 318Z" fill="#FFA88F"/>
<path d="M181.7 319.2L182.5 323.7C178.6 323.9 177.1 320.6 177.1 320.6V320.3C177.1 320.3 179 319.6 180.7 319.3C181 319.1 181.4 319.1 181.7 319.2Z" fill="#FC8968"/>
<path d="M185.4 313.9C186.7 317.3 185.4 320.7 183.8 321.5C181.1 322.7 176.8 321.3 175.5 317.9C174.2 314.5 175.3 310.9 178.1 309.8C180.8 308.7 184.1 310.5 185.4 313.9Z" fill="#FFA88F"/>
<path d="M182.5 310C182.5 310 177.4 313 177.1 321.3C172.9 317.9 171.8 314.4 174 311.2C175.9 308.3 180 308.1 182.5 310Z" fill="#0E0E0E"/>
<path d="M182.1 310.3C182.1 310.3 183.9 310.6 185.4 313.8C184.6 311 181.4 306 175.8 309.5C170.3 312.9 182.1 310.3 182.1 310.3Z" fill="#0E0E0E"/>
<path d="M178.5 317.3C178.8 317.9 178.6 318.7 178 319C177.4 319.3 176.6 319.1 176.3 318.5C176 317.9 176.2 317.1 176.8 316.8C177.4 316.4 178.2 316.6 178.5 317.3Z" fill="#FFA88F"/>
<path d="M172.6 317C172 315.1 170.8 310.1 175 308.1C178.7 306.3 182 308.1 183.6 309.5C184.2 309.5 185.7 308.8 186 309.1C186.1 309.3 186.1 309.7 184.6 310.6C179.1 312.9 174.5 315.3 172.9 318.4C172.9 318.4 172.6 318.6 172.3 318.7C172.2 318.6 172.6 317.7 172.6 317Z" fill="#FFEE73"/>
<path d="M179.8 311.4C179.8 311.4 177.3 307.5 173.2 309.4L173.1 309.2C173.1 309.2 174.1 308.3 175.2 307.8C176.5 307.3 179.7 307.3 182.1 310.3C181.2 310.9 179.8 311.4 179.8 311.4Z" fill="#FFDD59"/>
<path d="M182.8 339.3C185.1 340.2 192.1 328 193.2 325.7C194.5 322.4 183.7 333.6 183.5 333.3C182.5 331.8 178.6 328.9 177.5 327.8C175.5 325.9 172.8 328.1 173.7 330C173.8 330 179.1 338.3 182.8 339.3Z" fill="#FFA88F"/>
<path d="M192.2 327.4L190.9 327.1L192 323.5C192 323.5 192.4 323.3 193 323.3C193.6 323.3 194.2 323.6 194.2 323.6C194.2 323.6 194.6 324.9 194.6 325.1C194.8 326.7 192.2 327.4 192.2 327.4Z" fill="#FFA88F"/>
<path d="M191.6 324.7C191.6 324.6 192.8 320.5 192.8 320.5C192.8 320.5 193.2 320.7 193.2 321.3C193.2 322 192.9 324.7 192.9 324.6L191.6 324.7Z" fill="#FFA88F"/>
<path d="M194.3 324.1C193.8 323.9 193.3 323.9 193.3 323.9V323.8C193.3 323.8 193.7 323.8 194.3 324.1Z" fill="#E6836F"/>
<path d="M194.4 324.6C193.9 324.4 193.4 324.4 193.4 324.4V324.3C193.5 324.3 193.9 324.3 194.4 324.6Z" fill="#E6836F"/>
<path d="M194.6 325.2C194.1 325 193.6 325 193.6 325V324.9C193.6 324.9 194 324.9 194.6 325.2Z" fill="#E6836F"/>
<path d="M205.4 312.7C204.7 313.3 203.6 313.3 203 312.6C202.4 311.9 202.4 310.8 203.1 310.2C203.8 309.6 204.9 309.6 205.5 310.3C206.2 311 206.1 312.1 205.4 312.7Z" fill="#668ACB"/>
<path d="M211 306C211.2 305.8 211.2 305.4 211 305.2C207.2 301.4 201.4 301.2 197.4 304.8C197.2 305 197.2 305.3 197.4 305.6C197.6 305.8 198 305.9 198.2 305.7C201.8 302.6 207 302.8 210.3 306.1C210.5 306.3 210.8 306.3 211 306Z" fill="#668ACB"/>
<path d="M209.4 307.7C209.6 307.5 209.6 307.1 209.4 306.9C206.5 304.1 202 303.9 198.9 306.6C198.7 306.8 198.6 307.1 198.8 307.4C199 307.6 199.3 307.7 199.6 307.5C202.3 305.3 206.1 305.4 208.6 307.8C208.9 307.9 209.2 307.9 209.4 307.7Z" fill="#668ACB"/>
<path d="M207.8 309.3C208 309.1 208 308.7 207.8 308.5C205.7 306.6 202.6 306.5 200.4 308.3C200.2 308.5 200.1 308.9 200.3 309.1C200.5 309.3 200.8 309.4 201.1 309.2C202.9 307.8 205.4 307.9 207.1 309.4C207.3 309.5 207.6 309.5 207.8 309.3Z" fill="#668ACB"/>
<path d="M405.9 372.6C403.5 375 401.5 377.3 399.5 381.7C399 380.3 399.1 380.6 397.8 377.5C397.2 376 393.3 376.9 393.2 378.2C393.2 378.2 392.5 387.2 396.6 390.7C400.7 394.2 412.5 379.5 412.5 379.5C416.2 374.3 409.9 369.4 405.9 372.6Z" fill="#FFB655"/>
<path d="M436.1 404.3C431.7 412.9 399.5 409.8 393.9 405.2C389.8 399.2 404.6 396.2 405 396.2C412.3 396 422.3 396.6 426 396.6C434.6 398 437 401 436.1 404.3Z" fill="#092E66"/>
<path d="M404.9 400.7C410.9 402.1 416.2 402.6 422.7 401.6C422.7 401.6 412.7 406 412.6 406.2C412.6 406.3 404.9 400.7 404.9 400.7Z" fill="#051733"/>
<path d="M435.3 405.3C428.8 412.4 401.3 411.8 406.6 405.3C411.4 404.7 424.6 401.5 425.8 400.9C429.8 397.6 437.9 401.5 435.3 405.3Z" fill="#092E66"/>
<path d="M431.2 410.4C430.9 409 429.2 408 427.5 407.5C426.6 408.5 425.5 410.5 425.4 413.5C429.2 414.3 431.7 412.9 431.2 410.4Z" fill="#73CCFF"/>
<path d="M422.4 406.9C422.4 406.9 420.8 406.6 420.3 408.6C420.1 409.3 419.7 410.6 421.3 411.7C422.9 412.6 424 413.3 425.3 413.6C425.4 410.6 426.5 408.6 427.4 407.6C425.1 406.7 422.4 406.9 422.4 406.9Z" fill="#AAE0FF"/>
<path d="M421.9 407.1C425 407.9 423.4 411.7 421.8 411.5C423.6 411.7 390.6 411.8 393.8 401.8C395 399.7 398.9 397.9 402 399.3C409.3 403 416.1 405.7 421.9 407.1Z" fill="#092E66"/>
<path d="M423.1 411.3C423.1 411.3 420.3 411.1 421.3 408.8C422.3 406.5 424.2 407.9 424.2 407.9C424.2 407.9 425.3 410.2 423.1 411.3Z" fill="#AAE0FF"/>
<path d="M423.2 411.5C423.1 411.5 423.1 411.4 423.1 411.4C423 409.3 424.3 408 424.3 408C424.3 407.9 424.4 407.9 424.5 408C424.6 408 424.6 408.1 424.5 408.2C424.5 408.2 423.3 409.5 423.3 411.5C423.4 411.4 423.3 411.5 423.2 411.5Z" fill="white"/>
<path d="M424 411.8C423.9 411.8 423.9 411.7 423.9 411.7C423.8 409.6 425.1 408.3 425.1 408.3C425.1 408.2 425.2 408.2 425.3 408.3C425.4 408.3 425.4 408.4 425.3 408.5C425.3 408.5 424.1 409.8 424.1 411.8C424.2 411.7 424.1 411.8 424 411.8Z" fill="white"/>
<path d="M424.9 412C424.8 412 424.8 411.9 424.8 411.9C424.7 409.8 426 408.5 426 408.5C426 408.4 426.1 408.4 426.2 408.5C426.3 408.5 426.3 408.6 426.2 408.7C426.2 408.7 425 410 425 412C425 411.9 424.9 412 424.9 412Z" fill="white"/>
<path d="M422.3 411.3C421.6 411.7 404.6 412.5 395.2 406.4C392.1 404.4 393.7 401.6 393.7 401.6C393.7 401.6 395.9 409.8 422.3 411.3Z" fill="#051733"/>
<path d="M420.4 407C420.3 407 420.3 407 420.4 407C408.1 403.4 402.5 399.6 402.4 399.6C402.3 399.5 402.3 399.4 402.3 399.3C402.4 399.2 402.5 399.2 402.6 399.2C402.7 399.2 408.3 403 420.4 406.6C420.5 406.6 420.6 406.7 420.5 406.8C420.5 406.9 420.4 407 420.4 407Z" fill="#051733"/>
<path d="M412.6 404.3C412.5 404.3 412.4 404.2 412.4 404.1C412.4 404 412.5 403.9 412.6 403.9C412.7 403.9 420.4 402.5 423.4 401.2C423.5 401.2 423.6 401.2 423.7 401.3C423.8 401.4 423.7 401.5 423.6 401.6C420.5 402.8 413 404.2 412.6 404.3Z" fill="#051733"/>
<path d="M426.5 396.7C426.8 398.8 412.1 399.3 404.6 396.3C403.5 391.7 399.6 370.5 411.2 370.6C423.6 370.6 425.3 391 426.5 396.7Z" fill="white"/>
<path d="M393.6 378L393.4 375.4L396.2 375L397.2 377.4C397.4 378 393.7 378.7 393.6 378Z" fill="#F7A594"/>
<path d="M396.3 375.4L397 371.2C397 371.2 396 370.9 395.9 372.1C395.8 373.3 393.9 374 394.4 375.1C394.9 376.1 396.3 375.4 396.3 375.4Z" fill="#F7A594"/>
<path d="M393.5 375.5C393.5 375.5 391.4 372.3 391.3 370.6C391.3 369.9 391.6 369.8 391.6 369.8L396.3 374.4C396.3 374.4 396.6 375.3 396.2 375.7C395.8 376.1 394.5 376.6 393.5 375.5Z" fill="#F7A594"/>
<path d="M396.4 374.4C396.4 374.4 396.4 375.1 396 375C394.7 374.6 394.7 372.8 394.7 372.8L396.4 374.4Z" fill="#CC7767"/>
<path d="M398.3 375.3L389.6 367.2C389.6 367.2 389.3 367.2 389.1 367.3L398.3 375.8C398.3 375.6 398.3 375.3 398.3 375.3Z" fill="#404040"/>
<path d="M389 367.3C388.9 367.4 388.8 367.6 388.9 367.9C389.1 368.6 396.9 375.8 397.6 376C398 376.1 398.1 376 398.2 375.8L389 367.3Z" fill="black"/>
<path d="M391.3 370.1C391.3 370.1 391.4 369.4 392.7 370.3C394.3 371.4 395.4 373.3 395 373.8C394.6 374.5 391 371.6 391.3 370.1Z" fill="#F7A594"/>
<path d="M408.8 370.8C400.5 372.6 402.7 392.4 403.3 396.7C404.9 397.3 409.9 398.6 411.9 398.9C408 389.5 405.9 371.7 408.8 370.8Z" fill="#FFB655"/>
<path d="M413.7 371.1C412.8 375.6 407.8 375.5 407.8 373C407.8 372.9 407.8 372.9 407.8 372.8L407.4 367.3L407.3 366.6L407.7 366.5L411.6 365.7H411.7L411.8 366L412.3 367.4L413.7 371.1Z" fill="#F7A594"/>
<path d="M413.5 370.8C411.9 374.5 414 393.6 415.4 399.4C419.3 400.7 425.1 398.8 426.7 396.8C425.6 391.5 423.9 373.3 413.5 370.8Z" fill="#FFB655"/>
<path d="M413.2 377.4C412.6 380.7 413.7 386.4 414.6 389.4C417 391.1 420.7 390.2 420.7 387.6C420.8 385.2 420.6 382.5 420 379.4C419.4 372.5 413.5 372.6 413.2 377.4Z" fill="#FFB655"/>
<path d="M409.5 381.9C407.1 381 405.8 384.5 407.6 385.7C411.8 388.6 418.4 392.4 419.6 389.9C421.3 386.4 415.1 383.6 409.5 381.9Z" fill="#FFB655"/>
<path d="M407.3 384.6L405.5 383.6C404.4 382.7 406.4 380.9 407.2 381.2L408.6 382.1C409.3 382.8 408.3 384.6 407.3 384.6Z" fill="#F7A594"/>
<path d="M405.6 383.7C404.1 383.4 404.6 381.9 405 380.2C403.8 375.1 410.3 383.9 405.6 383.7Z" fill="#F7A594"/>
<path d="M406.3 379.6C406.3 379.6 405.8 378.8 404.8 377.2C404.3 377.3 404.1 378.1 404.7 378.9C405.2 379.4 406 379.9 406.3 379.6Z" fill="#F7A594"/>
<path d="M404.8 379.1C403.7 378.5 403 380.3 403.3 381.6C403.7 383.7 405.3 382.7 405.8 382.1C406.6 381.1 406.1 379.9 404.8 379.1Z" fill="#F7A594"/>
<path d="M413.3 383.4C413.2 383.4 413.2 383.4 413.2 383.3C413.2 383.3 412.4 378.6 413.4 375.4C413.4 375.3 413.5 375.3 413.6 375.3C413.7 375.3 413.7 375.4 413.7 375.5C412.8 378.6 413.5 383.2 413.5 383.2C413.4 383.3 413.4 383.3 413.3 383.4Z" fill="white"/>
<path d="M417.7 390.6C415.6 390.6 413.1 389.3 412.9 389.2C412.8 389.2 412.8 389.1 412.8 389C412.8 388.9 412.9 388.9 413 388.9C413 388.9 417.9 391.5 419.6 389.5C421.1 387.8 420 380.5 420 380.4C420 380.3 420 380.3 420.1 380.3C420.2 380.3 420.2 380.3 420.2 380.4C420.2 380.7 421.4 387.9 419.8 389.7C419.4 390.3 418.6 390.6 417.7 390.6Z" fill="white"/>
<path d="M416 384.5C412.9 383.1 409 381.9 409 381.9C408.9 381.9 408.9 381.8 408.9 381.7C408.9 381.6 409 381.6 409.1 381.6C409.1 381.6 413 382.9 416.1 384.2C416.2 384.2 416.2 384.3 416.2 384.4C416.1 384.4 416.1 384.5 416 384.5Z" fill="white"/>
<path d="M407.7 372.9C407.6 371.7 406.9 367.2 407.7 366.6L411.6 365.8C412.5 370.7 409.2 373.2 407.7 372.9Z" fill="#D97661"/>
<path d="M413.1 364.9C412.9 368.9 409.3 372.1 406.6 371.9C403.9 371.8 400.6 368.3 400.8 364.3C401 360.3 403.9 357.1 407.3 357.3C410.7 357.4 413.3 360.8 413.1 364.9Z" fill="#F7A594"/>
<path d="M409.5 357.8C406.1 355 403.8 357 401.7 359.1C400.2 360.6 399.2 361.6 397.5 361.7C400.1 366 406.6 364.2 409 360.5C408.9 362.7 411.3 364.9 413.1 364.9C414 362.5 412.9 357.3 409.5 357.8Z" fill="#0E0E0E"/>
<path d="M413.9 365.2C413.8 366 413.1 366.5 412.3 366.4C411.5 366.3 411 365.6 411.1 364.8C411.2 364 411.9 363.5 412.7 363.6C413.4 363.8 413.9 364.5 413.9 365.2Z" fill="#F7A594"/>
<path d="M353.2 358.6L350.6 360L349.9 358.8L345.3 350.4L342.9 347.9L338.3 343C335.9 339.9 340 336.1 342.7 338.8C345.5 341.6 348.1 345.7 349.3 347.9C350.2 349.6 352.1 355.2 352.9 357.5V357.6C353.1 358.3 353.2 358.6 353.2 358.6Z" fill="#FFB900"/>
<path d="M354 360.8L352.9 357.4C352.4 358.3 350.5 359 350 358.9C350 358.9 351.4 361.5 351.7 361.9C352 362.4 353.8 361.9 354 360.8Z" fill="#CF6D53"/>
<path d="M351.3 361.4C351.4 361.4 351.3 361.4 351.3 361.4C351.2 362.6 352 363.3 352.3 363.5C352.3 363.5 352.3 363.5 352.4 363.5C351.6 363.2 351.2 364.3 351.6 364.6C352.7 365.6 354.6 364.7 354.9 364C355.1 363.3 354 360.8 354 360.8C353.3 360.1 351.5 360 351.3 361.4Z" fill="#CF6D53"/>
<path d="M351.3 361.4C351.2 362.7 352.3 363.4 352.3 363.4C353 363.5 353.2 363.5 353.9 363.5C353.5 363.2 352.7 362.6 353.2 361.5C352.6 361 351.5 361.3 351.3 361.4Z" fill="#9E533F"/>
<path d="M351.3 361.3C351 362.4 350.9 363.9 351 364.6C351 364.6 351.7 364.7 351.8 363.5C351.8 363.2 352 362.5 352.3 362.3C353.4 361.8 353.6 361.2 353.3 360.7C353 359.9 351.5 360.4 351.3 361.3Z" fill="#CF6D53"/>
<path d="M354 364.6C353.4 364.9 351.9 365.4 351.7 365.2C351.5 365 352.8 363.9 353.5 363.9C354.3 363.9 354.3 364.5 354 364.6Z" fill="#CF6D53"/>
<path d="M345.3 350.5L342.9 348L343.4 342.9C343.8 345.9 344.4 348.4 345.3 350.5Z" fill="#A85900"/>
<path d="M332.3 334.1L333.3 338L333.5 338.7C333.7 339.6 339.7 339.2 339.3 338.2L338.9 337.4L337 333.3L332.3 334.1Z" fill="#CF6D53"/>
<path d="M328.8 328.4C328.3 332.7 329.7 336 333.3 335.5C336.3 335.1 339.7 333.4 339.8 328.4C339.9 325.2 337.3 322.6 334.3 322.6C331.2 322.5 329.2 324.6 328.8 328.4Z" fill="#CF6D53"/>
<path d="M330.7 407.5C330.3 407.1 328.7 407.1 328.5 407.7C328.3 408.3 328.6 408.7 327.9 409.5C328.3 409.6 329.8 409.6 330.2 409.5C330.7 409.4 331 407.9 330.7 407.5Z" fill="#E6F9FF"/>
<path d="M333 409.2H329.7C329.4 395.4 329.5 380.4 329.6 369C329.6 364.9 329.8 362.9 330.5 360.5C332 355.6 339 357.1 339.5 361.6C339.7 364.1 341.1 368.9 336.6 385.3C336.5 396.2 333.8 401.1 333 409.2Z" fill="#7D73AB"/>
<path d="M327.1 409.7C327.7 409.7 329.1 409.1 329.4 408.7C329.8 409.1 330.6 409.3 331.6 409.1C332.8 408.9 332.9 408.4 333.8 408.5C334.2 409.5 335 411.7 334.2 412.2C334.2 412.2 329.3 412.2 325.6 412.2C324.7 411.4 324.7 409.9 327.1 409.7Z" fill="#E6F9FF"/>
<path d="M346.9 407.6C346.6 407.3 345 407.3 344.9 407.8C344.8 408.3 345 408.7 344.4 409.5C344.8 409.6 346.1 409.6 346.5 409.5C346.9 409.4 347.2 407.9 346.9 407.6Z" fill="#E6F9FF"/>
<path d="M336.7 361.5C337.4 356.4 346.4 356.9 347 361.4C347.2 363.8 348.2 366.6 346.5 384.4C350.1 391.2 348.8 401.7 349.9 408.9C350 410 346.9 410.3 346.7 409.3C343.4 396 338.8 381.1 337.1 370C336.4 365.9 336.3 364 336.7 361.5Z" fill="#7D73AB"/>
<path d="M343.5 409.2C344.2 409.2 345.1 408.3 345.4 407.9C345.8 408.4 346.6 409 347.7 408.9C349 408.7 349.1 408.1 350 408.2C350.4 409.3 351.3 411.6 350.4 412.2C350.4 412.2 345.4 412.2 341.3 412.2C340.6 411.4 341 409.4 343.5 409.2Z" fill="#E6F9FF"/>
<path d="M311.1 336.1L312.1 334.7C312.9 335.1 314.2 335.6 315.6 336.3L314.1 338.7C312.9 337.7 311.8 336.8 311.1 336.1Z" fill="#CF6D53"/>
<path d="M315.1 336.1L323.7 338.5L334.1 338C336.8 337.8 338.1 347.3 332.4 346L324.8 343.6C324.8 343.6 317 341.2 314.1 338.7L315.1 336.1Z" fill="#FFB900"/>
<path d="M309.3 336.1C308.8 335 309.8 333.6 309.9 333.5L312.1 334.7C313.2 335.3 312.6 336.7 311.4 336.8C311.4 336.8 309.9 337.1 309.3 336.1Z" fill="#CF6D53"/>
<path d="M309.8 334.4C307.5 332.7 308.1 332.4 308.1 332.4C308.1 332.4 308.9 332.9 310.4 333.8C311.2 334.4 310.4 334.7 309.8 334.4Z" fill="#CF6D53"/>
<path d="M329.7 346.3C329.1 343.5 328.8 340.8 331.7 339C332.5 336.3 339.9 334.8 341.4 338.1C344 339.3 343.4 344.3 343.9 352.2C345.7 356.2 346.4 357.5 347 361.3C347 361.3 346 364.2 339.4 364.2C336.4 364.2 331.9 363.9 329.8 362.4C330 359.8 331.1 357.2 331.6 353.5C331.6 353.5 329.7 346.6 329.7 346.3Z" fill="#FFB900"/>
<path d="M328.9 329.5C328.9 329.5 327.6 330.4 328.3 331C329 331.6 329.5 331.1 329.5 331.1L328.9 329.5Z" fill="#CF6D53"/>
<path d="M329.1 326.3C329.1 326.3 330.9 334.9 337.5 334.5C340.9 330.9 341.9 323.6 336.6 322.1C330.8 320.4 329 325.1 329.1 326.3Z" fill="#0D192B"/>
<path d="M328.5 326.9L328.1 329.8H328.3L328.8 327L328.5 326.9Z" fill="#0D192B"/>
<path d="M331.7 331.5C331.6 331.5 331.6 331.5 331.7 331.5C331.6 331.4 331.6 331.3 331.7 331.3C332 331.3 332.3 330.9 332.4 330.5C332.5 330.2 332.4 329.7 332 329.5C331.5 329.2 328.6 328.5 328.5 328.5L328.4 328.4L328.5 328.3C328.6 328.3 331.5 329 332 329.3C332.5 329.6 332.6 330.1 332.5 330.5C332.4 331.1 332.1 331.4 331.7 331.5Z" fill="#0D192B"/>
<path d="M330.4 329.7C330.1 330.2 330.2 330.9 330.5 331.1C330.8 331.3 331.4 331.1 331.7 330.5C332 329.9 331.9 329.3 331.6 329.1C331.3 329 330.7 329.2 330.4 329.7Z" fill="#CF6D53"/>
<path d="M338 325.8C338 325.8 337.1 325.4 337.5 324.2C337.9 323 340.1 323.2 340.2 324.4C340.4 325.6 339.9 325.5 339.9 325.5L338 325.8Z" fill="#ED5A24"/>
<path d="M337.9 325C337.9 325 340.4 336.7 339.5 351.7C339.6 354.7 346.7 354.5 346.6 351.5C346.6 351.5 346 332.4 339.6 324.3C339.5 324.3 338.4 323.7 337.9 325Z" fill="#0D192B"/>
<path d="M262.8 408.1H264.8L288.7 277.2H286.7L262.8 408.1Z" fill="black"/>
<path d="M233.1 408.1H235.1L258.9 277.2H256.9L233.1 408.1Z" fill="black"/>
<path d="M254.7 290H286L286.4 287.8H255.1L254.7 290Z" fill="black"/>
<path d="M252.2 303.8H283.4L283.8 301.7H252.6L252.2 303.8Z" fill="black"/>
<path d="M249.7 317.7H280.9L281.3 315.6H250.1L249.7 317.7Z" fill="black"/>
<path d="M247.2 331.6H278.4L278.8 329.4H247.6L247.2 331.6Z" fill="black"/>
<path d="M244.7 345.4H275.9L276.3 343.3H245L244.7 345.4Z" fill="black"/>
<path d="M242.1 359.3H273.4L273.7 357.2H242.5L242.1 359.3Z" fill="black"/>
<path d="M239.6 373.1H270.8L271.2 371H240L239.6 373.1Z" fill="black"/>
<path d="M237.1 387H268.3L268.7 384.9H237.5L237.1 387Z" fill="black"/>
<path d="M234.6 400.9H265.8L266.2 398.7H235L234.6 400.9Z" fill="black"/>
<path d="M245.4 357.1C245.2 356 245.1 354.8 245.5 352.9H251.6C251.6 352.9 258 353.2 257.1 357.1H245.4Z" fill="white"/>
<path d="M249.5 357.1C249.3 356 249.2 354.8 249.6 352.9H255.7C255.7 352.9 262.1 353.2 261.2 357.1H249.5Z" fill="white"/>
<path d="M245.6 353.1H252.2C253 348 258.1 313.6 258.6 303.4H246.3L249.2 324.4C247.9 333.7 246.2 345 245.6 353.1Z" fill="black"/>
<path d="M269.2 269.6C269.4 269.3 270.3 268.5 271.2 268.3C272 268.1 272.8 269.8 272.8 270.2C272.7 270.5 272.3 271.5 271.1 271.2C270 270.9 268.9 270.5 269.2 269.6Z" fill="#F77854"/>
<path d="M268.9 273C268.9 273 268.9 269.9 269.2 269.5C269.5 269.1 270.3 268.4 270.9 269C271 271.7 272.4 270 273.1 271.4C273 272 271.7 273.8 270.6 274C269.6 274.2 268.9 273 268.9 273Z" fill="#F7A58E"/>
<path d="M269.7 270.1C269.7 270.1 269.9 266.1 270.3 265.6C270.7 265.1 271.1 269.1 270.8 269.8C270.5 270.5 270 270.5 269.7 270.1Z" fill="#F7A58E"/>
<path d="M271.4 271L272.4 270.3C272.4 270.3 271.9 269.8 271.9 269.2C271.9 268.6 272.4 268.6 272.4 268.6C272.4 268.6 273.4 269.9 273.4 270.6C273.4 271.3 272.8 272.3 272.2 272.9C271.8 273.1 270.5 272.1 271.4 271Z" fill="#F7A58E"/>
<path d="M271.9 273.9C271.9 273.9 270.4 287.3 265.8 286.9C265 286.8 264.2 286.7 263.4 286.6C262.3 286.4 261.3 286.3 260.3 286.1C257.6 285.6 255.4 285.1 255.4 285.1C255.4 285.1 249.6 283.7 251.1 279.2C252.6 274.7 257.7 276.9 257.7 276.9L265.4 279.8L268.8 273.1L271.9 273.9Z" fill="#FFB900"/>
<path d="M268.1 274.5L268.9 273C270.1 273.1 271.2 273.4 272.2 273.9V275.8C270.7 274.9 269.3 274.4 268.1 274.5Z" fill="#FFB900"/>
<path d="M257.6 280.5L250.8 278.1L254.7 269.5L259.7 271.6L257.6 280.5Z" fill="#F7A58E"/>
<path d="M263.5 265.4C264.5 269.1 263.3 273.4 260.9 273.8C257.6 274.3 253 272.3 251.9 268.6C250.9 264.9 252.6 261.2 255.8 260.3C259 259.4 262.5 261.8 263.5 265.4Z" fill="#F7A58E"/>
<path d="M253.4 272.4C253.4 272.4 250.4 269.3 250.4 265C250.5 260.7 253.1 259.1 256.5 258.8C260 258.4 262.4 261 266.4 260.4C266.4 261.8 264.8 264.4 262.7 264.1C260.4 264.7 259.9 266.2 259.7 269.5C259.7 269.5 259.2 267.4 258.2 267.8C257.1 268.2 257.3 269.7 257.9 270.2C257.5 271.1 254.2 272 253.4 272.4Z" fill="black"/>
<path d="M249.8 353.1H256.4C257.2 347.9 262.4 312 262.8 302.7H250.4L252.7 326.4C251.4 335.7 250.4 345 249.8 353.1Z" fill="black"/>
<path d="M263.4 304.6L246 304.4C246 304.4 246.6 283.9 247.4 281C248.1 278.1 251.3 274.9 251.3 274.9L258.4 276.6C259.8 279.1 261.4 285.9 262.4 291.6C262.4 291.9 262.5 292.2 262.5 292.5C262.8 294.6 263.2 297.8 263.3 299.5C263.3 300.1 263.4 300.5 263.3 300.6C262.9 302 263.4 304.6 263.4 304.6Z" fill="#FFB900"/>
<path d="M263.3 299.6C262.4 299.7 261.3 299.7 260 299.5C255.5 298.8 249.7 285.7 249.7 285.7L259 292.7H262.5C262.8 294.8 263.1 298 263.3 299.6Z" fill="#E89A00"/>
<path d="M251.2 275L251.7 273.7C254.6 274.3 257 275.4 259.3 276.7L259.9 280C257 277.7 254.2 275.7 251.2 275Z" fill="#FFB900"/>
<path d="M271.5 293.7C271.5 293.7 274.4 293.2 275 291.4C275.6 289.6 268.6 290.1 269.2 292.4C269.6 293.8 271.5 293.7 271.5 293.7Z" fill="#F7B28A"/>
<path d="M270.5 293L268.8 287.1L280.8 283.5L282.5 289.4L270.5 293Z" fill="#4D4D4D"/>
<path d="M270.3 292.8L268.6 286.9L280.5 283.3L282.2 289.2L270.3 292.8Z" fill="white"/>
<path d="M280.4 285.4L281.3 285.2L281.9 287.3L281 287.6L280.4 285.4Z" fill="#CCCCCC"/>
<path d="M270.8 291.2L261.5 290.2L257.7 283C257.7 283 255.8 277.8 251.5 279.7C247.2 281.6 250.1 286.9 250.1 286.9C250.1 286.9 253.9 293.5 257.6 296.1C261.3 298.7 271 293.7 271 293.7C272 293.7 271.8 291.2 270.8 291.2Z" fill="#FFB900"/>
<path d="M270.2 291.3L261.5 290.4V290.3C259.7 286.3 258.1 283.2 256.2 280.7V280.6H256.3C258.2 283.1 259.8 286.1 261.6 290.1L270.2 291C270.3 291.1 270.3 291.1 270.2 291.3C270.3 291.2 270.3 291.3 270.2 291.3Z" fill="#E89A00"/>
<path d="M271.4 292.6C271.4 292.6 273.2 289.9 273.7 290.3C274.3 290.7 273.3 292.6 272.6 293C271.9 293.4 271.4 293.2 271.4 292.6Z" fill="#F7B28A"/>
<path d="M269.7 290.8C269.7 290.8 270.6 291.4 270.9 292.4C271.1 293.4 270.6 294.1 270.6 294.1L271.5 293.8C271.5 293.8 271.9 293.1 271.9 292.5C271.8 291.6 271.3 291.1 271.3 291.1L269.7 290.8Z" fill="#FFB900"/>
</g>
</svg>
