<svg width="451" height="63" viewBox="0 0 451 63" fill="none" xmlns="http://www.w3.org/2000/svg">
<path d="M97.5063 33.2673C97.7863 33.7993 98.0523 34.3523 98.3043 34.9263C98.5703 35.5003 98.8223 36.0883 99.0603 36.6903C99.2983 36.0743 99.5503 35.4793 99.8163 34.9053C100.082 34.3173 100.355 33.7503 100.635 33.2043L108.489 17.7483C108.629 17.4823 108.769 17.2793 108.909 17.1393C109.063 16.9853 109.231 16.8733 109.413 16.8033C109.595 16.7333 109.798 16.6913 110.022 16.6773C110.26 16.6633 110.533 16.6563 110.841 16.6563H116.259V47.2533H110.001V29.6553C110.001 28.8013 110.043 27.8773 110.127 26.8833L102.021 42.6123C101.769 43.1023 101.426 43.4733 100.992 43.7253C100.572 43.9773 100.089 44.1033 99.5433 44.1033H98.5773C98.0313 44.1033 97.5413 43.9773 97.1073 43.7253C96.6873 43.4733 96.3513 43.1023 96.0993 42.6123L87.9513 26.8623C88.0073 27.3523 88.0493 27.8423 88.0773 28.3323C88.1053 28.8083 88.1193 29.2493 88.1193 29.6553V47.2533H81.8613V16.6563H87.2793C87.5873 16.6563 87.8533 16.6633 88.0773 16.6773C88.3153 16.6913 88.5253 16.7333 88.7073 16.8033C88.8893 16.8733 89.0503 16.9853 89.1903 17.1393C89.3443 17.2793 89.4913 17.4823 89.6313 17.7483L97.5063 33.2673Z" fill="#1E0D61"/>
<path d="M150.669 47.2533H145.167C144.551 47.2533 144.04 47.1133 143.634 46.8333C143.242 46.5393 142.969 46.1683 142.815 45.7203L141.009 40.3863H129.375L127.569 45.7203C127.429 46.1123 127.156 46.4693 126.75 46.7913C126.344 47.0993 125.847 47.2533 125.259 47.2533H119.715L131.559 16.6563H138.825L150.669 47.2533ZM131.013 35.5563H139.371L136.557 27.1773C136.375 26.6453 136.158 26.0223 135.906 25.3083C135.668 24.5803 135.43 23.7963 135.192 22.9563C134.968 23.8103 134.737 24.6013 134.499 25.3293C134.261 26.0573 134.037 26.6873 133.827 27.2193L131.013 35.5563Z" fill="#1E0D61"/>
<path d="M182.962 31.9443C182.962 34.1563 182.577 36.2143 181.807 38.1183C181.051 40.0223 179.98 41.6813 178.594 43.0953C177.208 44.4953 175.535 45.5943 173.575 46.3923C171.629 47.1903 169.466 47.5893 167.086 47.5893C164.706 47.5893 162.536 47.1903 160.576 46.3923C158.616 45.5943 156.936 44.4953 155.536 43.0953C154.15 41.6813 153.072 40.0223 152.302 38.1183C151.546 36.2143 151.168 34.1563 151.168 31.9443C151.168 29.7323 151.546 27.6743 152.302 25.7703C153.072 23.8663 154.15 22.2143 155.536 20.8143C156.936 19.4143 158.616 18.3153 160.576 17.5173C162.536 16.7193 164.706 16.3203 167.086 16.3203C169.466 16.3203 171.629 16.7263 173.575 17.5383C175.535 18.3363 177.208 19.4353 178.594 20.8353C179.98 22.2353 181.051 23.8873 181.807 25.7913C182.577 27.6953 182.962 29.7463 182.962 31.9443ZM175.696 31.9443C175.696 30.4323 175.5 29.0743 175.108 27.8703C174.716 26.6523 174.149 25.6233 173.407 24.7833C172.679 23.9433 171.783 23.2993 170.719 22.8513C169.655 22.4033 168.444 22.1793 167.086 22.1793C165.714 22.1793 164.489 22.4033 163.411 22.8513C162.347 23.2993 161.444 23.9433 160.702 24.7833C159.974 25.6233 159.414 26.6523 159.022 27.8703C158.63 29.0743 158.434 30.4323 158.434 31.9443C158.434 33.4703 158.63 34.8423 159.022 36.0603C159.414 37.2643 159.974 38.2863 160.702 39.1263C161.444 39.9663 162.347 40.6103 163.411 41.0583C164.489 41.4923 165.714 41.7093 167.086 41.7093C168.444 41.7093 169.655 41.4923 170.719 41.0583C171.783 40.6103 172.679 39.9663 173.407 39.1263C174.149 38.2863 174.716 37.2643 175.108 36.0603C175.5 34.8423 175.696 33.4703 175.696 31.9443Z" fill="#1E0D61"/>
<path d="M208.177 16.6563V22.2843H199.567V47.2533H192.469V22.2843H183.859V16.6563H208.177Z" fill="#1E0D61"/>
<path d="M247.685 47.2533H240.545V34.3173H228.113V47.2533H220.973V16.6563H228.113V29.4453H240.545V16.6563H247.685V47.2533Z" fill="#1E0D61"/>
<path d="M270.646 22.8723C270.436 23.2083 270.212 23.4603 269.974 23.6283C269.75 23.7963 269.456 23.8803 269.092 23.8803C268.77 23.8803 268.42 23.7823 268.042 23.5863C267.678 23.3763 267.258 23.1453 266.782 22.8933C266.32 22.6413 265.788 22.4173 265.186 22.2213C264.584 22.0113 263.898 21.9063 263.128 21.9063C261.798 21.9063 260.804 22.1933 260.146 22.7673C259.502 23.3273 259.18 24.0903 259.18 25.0563C259.18 25.6723 259.376 26.1833 259.768 26.5893C260.16 26.9953 260.671 27.3453 261.301 27.6393C261.945 27.9333 262.673 28.2063 263.485 28.4583C264.311 28.6963 265.151 28.9693 266.005 29.2773C266.859 29.5713 267.692 29.9213 268.504 30.3273C269.33 30.7333 270.058 31.2513 270.688 31.8813C271.332 32.5113 271.85 33.2813 272.242 34.1913C272.634 35.0873 272.83 36.1723 272.83 37.4463C272.83 38.8603 272.585 40.1833 272.095 41.4153C271.605 42.6473 270.891 43.7253 269.953 44.6493C269.029 45.5593 267.881 46.2803 266.509 46.8123C265.151 47.3303 263.604 47.5893 261.868 47.5893C260.916 47.5893 259.943 47.4913 258.949 47.2953C257.969 47.0993 257.017 46.8263 256.093 46.4763C255.169 46.1123 254.301 45.6853 253.489 45.1953C252.677 44.7053 251.97 44.1593 251.368 43.5573L253.468 40.2393C253.622 39.9873 253.839 39.7843 254.119 39.6303C254.399 39.4763 254.7 39.3993 255.022 39.3993C255.442 39.3993 255.862 39.5323 256.282 39.7983C256.716 40.0643 257.199 40.3583 257.731 40.6803C258.277 41.0023 258.9 41.2963 259.6 41.5623C260.3 41.8283 261.126 41.9613 262.078 41.9613C263.366 41.9613 264.367 41.6813 265.081 41.1213C265.795 40.5473 266.152 39.6443 266.152 38.4123C266.152 37.6983 265.956 37.1173 265.564 36.6693C265.172 36.2213 264.654 35.8503 264.01 35.5563C263.38 35.2623 262.659 35.0033 261.847 34.7793C261.035 34.5553 260.202 34.3103 259.348 34.0443C258.494 33.7643 257.661 33.4283 256.849 33.0363C256.037 32.6303 255.309 32.1053 254.665 31.4613C254.035 30.8033 253.524 29.9913 253.132 29.0253C252.74 28.0453 252.544 26.8413 252.544 25.4133C252.544 24.2653 252.775 23.1453 253.237 22.0533C253.699 20.9613 254.378 19.9883 255.274 19.1343C256.17 18.2803 257.269 17.6013 258.571 17.0973C259.873 16.5793 261.364 16.3203 263.044 16.3203C263.982 16.3203 264.892 16.3973 265.774 16.5513C266.67 16.6913 267.517 16.9083 268.315 17.2023C269.113 17.4823 269.855 17.8253 270.541 18.2313C271.241 18.6233 271.864 19.0713 272.41 19.5753L270.646 22.8723Z" fill="#1E0D61"/>
<path d="M296.93 16.6563V22.1163H284.372V29.2563H293.99V34.5063H284.372V41.7933H296.93V47.2533H277.232V16.6563H296.93Z" fill="#1E0D61"/>
<path d="M327.904 22.8723C327.694 23.2083 327.47 23.4603 327.232 23.6283C327.008 23.7963 326.714 23.8803 326.35 23.8803C326.028 23.8803 325.678 23.7823 325.3 23.5863C324.936 23.3763 324.516 23.1453 324.04 22.8933C323.578 22.6413 323.046 22.4173 322.444 22.2213C321.842 22.0113 321.156 21.9063 320.386 21.9063C319.056 21.9063 318.062 22.1933 317.404 22.7673C316.76 23.3273 316.438 24.0903 316.438 25.0563C316.438 25.6723 316.634 26.1833 317.026 26.5893C317.418 26.9953 317.929 27.3453 318.559 27.6393C319.203 27.9333 319.931 28.2063 320.743 28.4583C321.569 28.6963 322.409 28.9693 323.263 29.2773C324.117 29.5713 324.95 29.9213 325.762 30.3273C326.588 30.7333 327.316 31.2513 327.946 31.8813C328.59 32.5113 329.108 33.2813 329.5 34.1913C329.892 35.0873 330.088 36.1723 330.088 37.4463C330.088 38.8603 329.843 40.1833 329.353 41.4153C328.863 42.6473 328.149 43.7253 327.211 44.6493C326.287 45.5593 325.139 46.2803 323.767 46.8123C322.409 47.3303 320.862 47.5893 319.126 47.5893C318.174 47.5893 317.201 47.4913 316.207 47.2953C315.227 47.0993 314.275 46.8263 313.351 46.4763C312.427 46.1123 311.559 45.6853 310.747 45.1953C309.935 44.7053 309.228 44.1593 308.626 43.5573L310.726 40.2393C310.88 39.9873 311.097 39.7843 311.377 39.6303C311.657 39.4763 311.958 39.3993 312.28 39.3993C312.7 39.3993 313.12 39.5323 313.54 39.7983C313.974 40.0643 314.457 40.3583 314.989 40.6803C315.535 41.0023 316.158 41.2963 316.858 41.5623C317.558 41.8283 318.384 41.9613 319.336 41.9613C320.624 41.9613 321.625 41.6813 322.339 41.1213C323.053 40.5473 323.41 39.6443 323.41 38.4123C323.41 37.6983 323.214 37.1173 322.822 36.6693C322.43 36.2213 321.912 35.8503 321.268 35.5563C320.638 35.2623 319.917 35.0033 319.105 34.7793C318.293 34.5553 317.46 34.3103 316.606 34.0443C315.752 33.7643 314.919 33.4283 314.107 33.0363C313.295 32.6303 312.567 32.1053 311.923 31.4613C311.293 30.8033 310.782 29.9913 310.39 29.0253C309.998 28.0453 309.802 26.8413 309.802 25.4133C309.802 24.2653 310.033 23.1453 310.495 22.0533C310.957 20.9613 311.636 19.9883 312.532 19.1343C313.428 18.2803 314.527 17.6013 315.829 17.0973C317.131 16.5793 318.622 16.3203 320.302 16.3203C321.24 16.3203 322.15 16.3973 323.032 16.5513C323.928 16.6913 324.775 16.9083 325.573 17.2023C326.371 17.4823 327.113 17.8253 327.799 18.2313C328.499 18.6233 329.122 19.0713 329.668 19.5753L327.904 22.8723Z" fill="#1E0D61"/>
<path d="M343.394 52.9023C343.198 53.3363 342.96 53.6513 342.68 53.8473C342.4 54.0573 341.952 54.1623 341.336 54.1623H336.464L340.664 45.3423L331.97 25.4763H337.724C338.228 25.4763 338.62 25.5883 338.9 25.8123C339.18 26.0363 339.376 26.3023 339.488 26.6103L343.058 35.9973C343.394 36.8653 343.667 37.7333 343.877 38.6013C344.017 38.1533 344.171 37.7123 344.339 37.2783C344.507 36.8443 344.668 36.4033 344.822 35.9553L348.056 26.6103C348.168 26.2883 348.385 26.0223 348.707 25.8123C349.043 25.5883 349.4 25.4763 349.778 25.4763H355.028L343.394 52.9023Z" fill="#1E0D61"/>
<path d="M371.894 30.2433C371.726 30.5093 371.544 30.6983 371.348 30.8103C371.166 30.9223 370.928 30.9783 370.634 30.9783C370.326 30.9783 370.018 30.9153 369.71 30.7893C369.402 30.6493 369.066 30.5023 368.702 30.3483C368.352 30.1943 367.953 30.0543 367.505 29.9283C367.057 29.7883 366.546 29.7183 365.972 29.7183C365.146 29.7183 364.509 29.8793 364.061 30.2013C363.627 30.5093 363.41 30.9433 363.41 31.5033C363.41 31.9093 363.55 32.2453 363.83 32.5113C364.124 32.7773 364.509 33.0153 364.985 33.2253C365.461 33.4213 366 33.6103 366.602 33.7923C367.204 33.9743 367.82 34.1773 368.45 34.4013C369.08 34.6253 369.696 34.8913 370.298 35.1993C370.9 35.4933 371.439 35.8643 371.915 36.3123C372.391 36.7463 372.769 37.2783 373.049 37.9083C373.343 38.5383 373.49 39.2943 373.49 40.1763C373.49 41.2543 373.294 42.2483 372.902 43.1583C372.51 44.0683 371.922 44.8523 371.138 45.5103C370.368 46.1683 369.409 46.6793 368.261 47.0433C367.127 47.4073 365.818 47.5893 364.334 47.5893C363.592 47.5893 362.85 47.5193 362.108 47.3793C361.366 47.2393 360.645 47.0503 359.945 46.8123C359.259 46.5743 358.622 46.2943 358.034 45.9723C357.446 45.6363 356.942 45.2793 356.522 44.9013L358.034 42.5073C358.216 42.2273 358.433 42.0103 358.685 41.8563C358.937 41.6883 359.266 41.6043 359.672 41.6043C360.05 41.6043 360.386 41.6883 360.68 41.8563C360.988 42.0243 361.317 42.2063 361.667 42.4023C362.017 42.5983 362.423 42.7803 362.885 42.9483C363.361 43.1163 363.956 43.2003 364.67 43.2003C365.174 43.2003 365.601 43.1513 365.951 43.0533C366.301 42.9413 366.581 42.7943 366.791 42.6123C367.001 42.4303 367.155 42.2273 367.253 42.0033C367.351 41.7793 367.4 41.5483 367.4 41.3103C367.4 40.8763 367.253 40.5193 366.959 40.2393C366.665 39.9593 366.28 39.7213 365.804 39.5253C365.328 39.3153 364.782 39.1263 364.166 38.9583C363.564 38.7763 362.948 38.5733 362.318 38.3493C361.688 38.1253 361.065 37.8593 360.449 37.5513C359.847 37.2293 359.308 36.8303 358.832 36.3543C358.356 35.8643 357.971 35.2693 357.677 34.5693C357.383 33.8693 357.236 33.0223 357.236 32.0283C357.236 31.1043 357.411 30.2293 357.761 29.4033C358.125 28.5633 358.664 27.8283 359.378 27.1983C360.092 26.5683 360.988 26.0713 362.066 25.7073C363.144 25.3293 364.404 25.1403 365.846 25.1403C366.63 25.1403 367.386 25.2103 368.114 25.3503C368.856 25.4903 369.549 25.6863 370.193 25.9383C370.837 26.1903 371.425 26.4913 371.957 26.8413C372.489 27.1773 372.958 27.5483 373.364 27.9543L371.894 30.2433Z" fill="#1E0D61"/>
<path d="M385.597 47.5893C384.561 47.5893 383.644 47.4423 382.846 47.1483C382.062 46.8403 381.397 46.4133 380.851 45.8673C380.319 45.3073 379.913 44.6353 379.633 43.8513C379.353 43.0673 379.213 42.1923 379.213 41.2263V29.9703H377.365C377.029 29.9703 376.742 29.8653 376.504 29.6553C376.266 29.4313 376.147 29.1093 376.147 28.6893V26.1483L379.612 25.4763L380.893 20.1633C381.061 19.4913 381.537 19.1553 382.321 19.1553H385.723V25.5183H391.015V29.9703H385.723V40.7853C385.723 41.2893 385.842 41.7093 386.08 42.0453C386.332 42.3673 386.689 42.5283 387.151 42.5283C387.389 42.5283 387.585 42.5073 387.739 42.4653C387.907 42.4093 388.047 42.3533 388.159 42.2973C388.285 42.2273 388.397 42.1713 388.495 42.1293C388.607 42.0733 388.733 42.0453 388.873 42.0453C389.069 42.0453 389.223 42.0943 389.335 42.1923C389.461 42.2763 389.587 42.4163 389.713 42.6123L391.687 45.6993C390.847 46.3293 389.902 46.8053 388.852 47.1273C387.802 47.4353 386.717 47.5893 385.597 47.5893Z" fill="#1E0D61"/>
<path d="M404.969 25.1403C406.411 25.1403 407.727 25.3643 408.917 25.8123C410.121 26.2603 411.15 26.9113 412.004 27.7653C412.872 28.6193 413.544 29.6693 414.02 30.9153C414.51 32.1473 414.755 33.5473 414.755 35.1153C414.755 35.6053 414.734 36.0043 414.692 36.3123C414.65 36.6203 414.573 36.8653 414.461 37.0473C414.349 37.2293 414.195 37.3553 413.999 37.4253C413.817 37.4953 413.579 37.5303 413.285 37.5303H400.727C400.937 39.3503 401.49 40.6733 402.386 41.4993C403.282 42.3113 404.437 42.7173 405.851 42.7173C406.607 42.7173 407.258 42.6263 407.804 42.4443C408.35 42.2623 408.833 42.0593 409.253 41.8353C409.687 41.6113 410.079 41.4083 410.429 41.2263C410.793 41.0443 411.171 40.9533 411.563 40.9533C412.081 40.9533 412.473 41.1423 412.739 41.5203L414.629 43.8513C413.957 44.6213 413.229 45.2513 412.445 45.7413C411.675 46.2173 410.877 46.5953 410.051 46.8753C409.239 47.1413 408.42 47.3233 407.594 47.4213C406.782 47.5333 406.005 47.5893 405.263 47.5893C403.737 47.5893 402.302 47.3443 400.958 46.8543C399.628 46.3503 398.459 45.6083 397.451 44.6283C396.457 43.6483 395.666 42.4303 395.078 40.9743C394.504 39.5183 394.217 37.8243 394.217 35.8923C394.217 34.4363 394.462 33.0573 394.952 31.7553C395.456 30.4533 396.17 29.3123 397.094 28.3323C398.032 27.3523 399.159 26.5753 400.475 26.0013C401.805 25.4273 403.303 25.1403 404.969 25.1403ZM405.095 29.6343C403.849 29.6343 402.876 29.9913 402.176 30.7053C401.476 31.4053 401.014 32.4203 400.79 33.7503H408.917C408.917 33.2323 408.847 32.7283 408.707 32.2383C408.581 31.7483 408.364 31.3143 408.056 30.9363C407.762 30.5443 407.37 30.2293 406.88 29.9913C406.39 29.7533 405.795 29.6343 405.095 29.6343Z" fill="#1E0D61"/>
<path d="M419.365 47.2533V25.4763H423.397C423.803 25.4763 424.139 25.5673 424.405 25.7493C424.685 25.9313 424.881 26.2043 424.993 26.5683L425.35 27.7443C425.714 27.3663 426.092 27.0233 426.484 26.7153C426.876 26.3933 427.296 26.1203 427.744 25.8963C428.206 25.6583 428.696 25.4763 429.214 25.3503C429.746 25.2103 430.327 25.1403 430.957 25.1403C432.273 25.1403 433.358 25.4833 434.212 26.1693C435.08 26.8413 435.738 27.7443 436.186 28.8783C436.55 28.2063 436.991 27.6323 437.509 27.1563C438.041 26.6803 438.608 26.2953 439.21 26.0013C439.826 25.7073 440.47 25.4903 441.142 25.3503C441.828 25.2103 442.507 25.1403 443.179 25.1403C444.425 25.1403 445.531 25.3293 446.497 25.7073C447.463 26.0713 448.268 26.6103 448.912 27.3243C449.57 28.0243 450.067 28.8923 450.403 29.9283C450.739 30.9503 450.907 32.1123 450.907 33.4143V47.2533H444.397V33.4143C444.397 31.1603 443.431 30.0333 441.499 30.0333C440.617 30.0333 439.882 30.3273 439.294 30.9153C438.72 31.4893 438.433 32.3223 438.433 33.4143V47.2533H431.923V33.4143C431.923 32.1683 431.678 31.2933 431.188 30.7893C430.698 30.2853 429.977 30.0333 429.025 30.0333C428.437 30.0333 427.877 30.1663 427.345 30.4323C426.827 30.6983 426.337 31.0553 425.875 31.5033V47.2533H419.365Z" fill="#1E0D61"/>
<path fill-rule="evenodd" clip-rule="evenodd" d="M63.5918 31.5C63.5918 48.897 49.4888 63 32.0918 63C14.6948 63 0.591797 48.897 0.591797 31.5C0.591797 14.103 14.6948 0 32.0918 0C49.4888 0 63.5918 14.103 63.5918 31.5ZM28.4364 13.9463L24.353 13.2127H24.3513C22.8353 12.9406 21.2752 13.2932 20.0143 14.1931C18.7533 15.093 17.8948 16.4664 17.6274 18.0113L13.7413 40.4827C13.6646 40.9241 13.7631 41.3783 14.015 41.7457C14.2669 42.1131 14.6517 42.3634 15.0848 42.4417L21.6196 43.6147C22.486 43.7705 23.3775 43.5691 24.0982 43.055C24.8189 42.5409 25.3097 41.756 25.4625 40.8732L29.7815 15.9053C29.8195 15.6866 29.8148 15.4625 29.7677 15.2457C29.7206 15.0289 29.6321 14.8237 29.5072 14.6418C29.3823 14.4599 29.2234 14.3048 29.0397 14.1855C28.856 14.0661 28.651 13.9849 28.4364 13.9463ZM49.0941 21.0925L36.0278 18.7431C35.5987 18.666 35.1589 18.6758 34.7335 18.772C34.3081 18.8681 33.9055 19.0487 33.5486 19.3035C33.1918 19.5582 32.8876 19.8821 32.6536 20.2567C32.4196 20.6312 32.2603 21.0491 32.1848 21.4864L27.8642 46.4526C27.826 46.6715 27.8306 46.8959 27.8776 47.113C27.9247 47.33 28.0133 47.5355 28.1384 47.7177C28.2635 47.8998 28.4226 48.055 28.6067 48.1743C28.7907 48.2937 28.9961 48.3749 29.211 48.4132L36.5602 49.7316C37.7399 49.9437 38.9491 49.917 40.1187 49.6528C41.2884 49.3887 42.3955 48.8924 43.3768 48.1922C44.3582 47.4921 45.1947 46.6017 45.8384 45.5722C46.4822 44.5426 46.9206 43.3938 47.1287 42.1915L50.4409 23.0498C50.4786 22.8312 50.4736 22.6071 50.4264 22.3904C50.3791 22.1737 50.2904 21.9687 50.1653 21.7869C50.0403 21.6052 49.8813 21.4503 49.6975 21.3311C49.5137 21.212 49.3087 21.1309 49.0941 21.0925Z" fill="#1E0D61"/>
</svg>
