<svg width="451" height="77" viewBox="0 0 451 77" fill="none" xmlns="http://www.w3.org/2000/svg">
<path d="M0 23.5825V43.5077C16.3016 43.5077 24.3738 51.3117 24.3738 67.0908C24.3738 56.5608 28.2396 46.912 34.6738 39.3807C26.4181 29.7319 13.956 23.5825 0 23.5825Z" fill="#1E0D61"/>
<path d="M34.6671 39.3877C28.2329 46.9127 24.3672 56.5679 24.3672 67.0979H44.9605C44.967 56.5615 41.1013 46.9127 34.6671 39.3877Z" fill="#40449F"/>
<path d="M0 23.5831V43.5083C13.956 43.5083 26.4181 37.359 34.6672 27.7102C28.233 20.1851 24.3673 10.53 24.3673 0C24.3739 15.7791 16.3017 23.5831 0 23.5831Z" fill="#6670CB"/>
<path d="M69.3349 23.5831C53.0332 23.5831 44.9611 15.7791 44.9611 0C44.9611 10.53 41.0953 20.1851 34.6611 27.7102C36.4826 29.8403 38.5072 31.7992 40.7022 33.5552C48.4926 27.3361 58.4584 23.5831 69.3349 23.5831Z" fill="#1E0D61"/>
<path d="M44.9663 0.00634766H24.373C24.373 10.5363 28.2388 20.1914 34.673 27.7165C41.1006 20.1851 44.9663 10.53 44.9663 0.00634766Z" fill="#40449F"/>
<path d="M69.3342 23.5825C58.4512 23.5825 48.4854 27.3355 40.708 33.5546C38.5131 35.3107 36.4819 37.2569 34.667 39.3807C41.1012 46.9057 44.9669 56.5608 44.9669 67.0908C44.9669 51.318 53.0326 43.5077 69.3408 43.5077L69.3342 23.5825Z" fill="#6670CB"/>
<path d="M104.922 25.9024C101.073 25.9024 99.1021 25.214 99.1021 23.7119C99.1021 22.1785 101.073 21.5214 104.922 21.5214C108.77 21.5214 110.741 22.1785 110.741 23.7119C110.741 25.214 108.77 25.9024 104.922 25.9024ZM104.922 18.3608C98.6954 18.3608 94.941 20.3009 94.941 23.7119C94.941 27.1229 98.6954 29.063 104.922 29.063C111.148 29.063 114.933 27.1229 114.933 23.7119C114.933 20.3009 111.148 18.3608 104.922 18.3608ZM107.08 13.5729V10.6939H115.152V7.40814H99.3837V0.742693H95.2538V10.6939H102.95V13.5729H92V16.8274H118.062V13.5729H107.08Z" fill="#1E0D61"/>
<path d="M136.644 2.68287H131.012V0.0229492H126.883V2.68287H120.844V5.93736H136.644V2.68287ZM126.038 12.0082C126.038 10.5688 127.195 9.81772 128.947 9.81772C130.668 9.81772 131.857 10.5688 131.857 12.0082C131.857 13.479 130.668 14.2301 128.947 14.2301C127.195 14.2301 126.038 13.479 126.038 12.0082ZM135.674 12.0082C135.674 8.91022 132.89 6.78228 128.947 6.78228C124.974 6.78228 122.189 8.91022 122.189 12.0082C122.189 15.1376 124.974 17.2655 128.947 17.2655C132.89 17.2655 135.674 15.1376 135.674 12.0082ZM140.774 25.5582H129.636V23.618H140.774V25.5582ZM140.774 20.5826H129.636V18.4859H125.568V28.7188H144.841V18.4859H140.774V20.5826ZM140.711 0.242002V6.37547H137.02V9.66125H140.711V12.0708H136.957V15.3566H140.711V17.422H144.841V0.242002H140.711Z" fill="#1E0D61"/>
<path d="M154.694 2.9958H150.658V22.1785H152.661C156.29 22.1785 159.419 22.0534 162.86 21.3336L162.36 17.8914C159.7 18.3921 157.291 18.5798 154.694 18.6424V2.9958ZM164.299 9.31703H158.636V12.6654H164.299V27.78H168.148V0.7114H164.299V9.31703ZM170.4 0.21071V29.0317H174.311V0.21071H170.4Z" fill="#1E0D61"/>
<path d="M201.622 15.1063H185.572V11.8831H200.746V8.69117H185.572V5.65572H201.403V2.33865H181.38V18.3608H201.622V15.1063ZM178.313 22.3976V25.746H204.407V22.3976H178.313Z" fill="#1E0D61"/>
<path d="M216.262 3.80943C218.327 3.80943 219.61 4.46658 219.61 5.68702C219.61 6.93875 218.327 7.5959 216.262 7.5959C214.197 7.5959 212.883 6.93875 212.883 5.68702C212.883 4.46658 214.197 3.80943 216.262 3.80943ZM216.262 10.4749C220.517 10.4749 223.458 8.56599 223.458 5.68702C223.458 2.83934 220.517 0.930453 216.262 0.930453C212.007 0.930453 209.066 2.83934 209.066 5.68702C209.066 8.56599 212.007 10.4749 216.262 10.4749ZM213.822 19.1744H217.952V14.6369C220.486 14.4178 223.051 14.1675 225.554 13.6981L225.273 10.8817C219.234 11.6953 212.132 11.7892 206.97 11.7892L207.47 14.9811C209.379 14.9811 211.538 14.9498 213.822 14.8559V19.1744ZM210.881 23.5867H227.213V29.0943H231.342V20.3322H210.881V23.5867ZM227.213 0.273295V15.4192H221.518V18.2356H227.213V19.2996H231.342V0.273295H227.213Z" fill="#1E0D61"/>
<path d="M261.063 13.792C254.555 12.6967 250.988 8.22177 250.988 3.99719V1.93184H246.577V3.99719C246.577 8.12789 242.979 12.6967 236.502 13.792L238.254 17.2655C243.26 16.2954 246.921 13.479 248.767 9.81772C250.613 13.479 254.305 16.2641 259.311 17.2655L261.063 13.792ZM235.877 22.2098V25.5582H261.97V22.2098H235.877Z" fill="#1E0D61"/>
<path d="M120.049 54.1758C120.049 56.2948 119.68 58.2529 118.943 60.05C118.218 61.8337 117.193 63.3827 115.865 64.697C114.538 65.9979 112.935 67.0172 111.058 67.7548C109.194 68.479 107.123 68.8411 104.843 68.8411H93.4593V39.5306H104.843C107.123 39.5306 109.194 39.8994 111.058 40.637C112.935 41.3747 114.538 42.3939 115.865 43.6948C117.193 44.9957 118.218 46.5447 118.943 48.3419C119.68 50.1256 120.049 52.0702 120.049 54.1758ZM113.09 54.1758C113.09 52.7274 112.902 51.4198 112.526 50.253C112.151 49.0862 111.608 48.1005 110.897 47.2958C110.2 46.4777 109.342 45.8541 108.323 45.4249C107.304 44.9823 106.144 44.761 104.843 44.761H100.298V63.6107H104.843C106.144 63.6107 107.304 63.3961 108.323 62.967C109.342 62.5244 110.2 61.9008 110.897 61.0961C111.608 60.278 112.151 59.2855 112.526 58.1188C112.902 56.952 113.09 55.6377 113.09 54.1758Z" fill="#1E0D61"/>
<path d="M129.399 47.9798V68.8411H123.163V47.9798H129.399ZM130.042 42.2665C130.042 42.7627 129.942 43.2321 129.74 43.6747C129.539 44.1039 129.264 44.4861 128.916 44.8214C128.567 45.1433 128.158 45.4048 127.689 45.606C127.233 45.7937 126.744 45.8876 126.221 45.8876C125.711 45.8876 125.235 45.7937 124.793 45.606C124.35 45.4048 123.955 45.1433 123.606 44.8214C123.271 44.4861 123.003 44.1039 122.801 43.6747C122.614 43.2321 122.52 42.7627 122.52 42.2665C122.52 41.7569 122.614 41.2808 122.801 40.8382C123.003 40.3956 123.271 40.0067 123.606 39.6714C123.955 39.3361 124.35 39.0746 124.793 38.8869C125.235 38.6991 125.711 38.6052 126.221 38.6052C126.744 38.6052 127.233 38.6991 127.689 38.8869C128.158 39.0746 128.567 39.3361 128.916 39.6714C129.264 40.0067 129.539 40.3956 129.74 40.8382C129.942 41.2808 130.042 41.7569 130.042 42.2665Z" fill="#1E0D61"/>
<path d="M141.692 57.3141C142.724 57.3141 143.468 57.0593 143.924 56.5496C144.394 56.0266 144.628 55.356 144.628 54.5379C144.628 53.693 144.394 53.0291 143.924 52.5463C143.468 52.0635 142.724 51.8221 141.692 51.8221C140.659 51.8221 139.908 52.0635 139.439 52.5463C138.983 53.0291 138.755 53.693 138.755 54.5379C138.755 54.9403 138.809 55.3091 138.916 55.6444C139.037 55.9797 139.218 56.2747 139.459 56.5295C139.7 56.7709 140.002 56.9654 140.364 57.1129C140.74 57.247 141.182 57.3141 141.692 57.3141ZM146.519 69.6056C146.519 69.1094 146.298 68.754 145.855 68.5394C145.413 68.3114 144.836 68.1505 144.125 68.0566C143.415 67.9627 142.617 67.9091 141.732 67.8956C140.86 67.8688 139.989 67.8152 139.117 67.7347C138.728 68.0029 138.407 68.3047 138.152 68.64C137.91 68.9618 137.79 69.3307 137.79 69.7464C137.79 70.0415 137.85 70.3097 137.971 70.5511C138.105 70.7925 138.333 71.0004 138.655 71.1747C138.976 71.3491 139.406 71.4832 139.942 71.5771C140.492 71.6844 141.182 71.738 142.013 71.738C142.912 71.738 143.649 71.6844 144.226 71.5771C144.803 71.4698 145.258 71.3223 145.594 71.1345C145.942 70.9467 146.184 70.7187 146.318 70.4505C146.452 70.1957 146.519 69.9141 146.519 69.6056ZM152.673 48.6235V50.8967C152.673 51.2454 152.573 51.5204 152.372 51.7215C152.184 51.9227 151.855 52.0769 151.386 52.1842L149.878 52.5262C149.958 52.8213 150.018 53.123 150.059 53.4315C150.112 53.7399 150.139 54.0618 150.139 54.3971C150.139 55.4432 149.918 56.382 149.475 57.2135C149.046 58.045 148.45 58.7558 147.685 59.3459C146.934 59.9226 146.043 60.3719 145.01 60.6937C143.978 61.0022 142.872 61.1564 141.692 61.1564C141.37 61.1564 141.055 61.1497 140.746 61.1363C140.438 61.1095 140.136 61.0693 139.841 61.0156C139.385 61.2973 139.157 61.6124 139.157 61.9611C139.157 62.3098 139.345 62.5646 139.721 62.7256C140.096 62.8731 140.592 62.9804 141.209 63.0474C141.826 63.1011 142.523 63.1413 143.301 63.1681C144.092 63.1816 144.896 63.2285 145.714 63.309C146.532 63.376 147.33 63.4967 148.108 63.6711C148.899 63.8454 149.603 64.1271 150.22 64.516C150.836 64.9049 151.333 65.428 151.708 66.0851C152.083 66.7289 152.271 67.5537 152.271 68.5595C152.271 69.4983 152.043 70.417 151.587 71.3155C151.131 72.2141 150.461 73.0121 149.576 73.7095C148.691 74.4069 147.605 74.9634 146.318 75.3792C145.03 75.8084 143.555 76.0229 141.893 76.0229C140.257 76.0229 138.842 75.8687 137.649 75.5602C136.469 75.2518 135.483 74.8427 134.692 74.3331C133.915 73.8369 133.338 73.2602 132.963 72.603C132.587 71.9459 132.399 71.2619 132.399 70.5511C132.399 69.6257 132.668 68.8546 133.204 68.2376C133.74 67.6207 134.491 67.1245 135.457 66.749C134.947 66.4405 134.545 66.0449 134.25 65.5621C133.955 65.0793 133.807 64.4556 133.807 63.6912C133.807 63.3827 133.861 63.0609 133.968 62.7256C134.076 62.3769 134.243 62.0416 134.471 61.7197C134.712 61.3844 135.007 61.0693 135.356 60.7742C135.705 60.4792 136.12 60.2176 136.603 59.9896C135.517 59.413 134.659 58.6552 134.029 57.7164C133.398 56.7642 133.083 55.6578 133.083 54.3971C133.083 53.351 133.305 52.4122 133.747 51.5807C134.19 50.7358 134.793 50.025 135.557 49.4483C136.335 48.8582 137.247 48.4089 138.293 48.1005C139.338 47.7786 140.471 47.6177 141.692 47.6177C143.462 47.6177 145.03 47.9529 146.398 48.6235H152.673Z" fill="#1E0D61"/>
<path d="M161.65 47.9798V68.8411H155.415V47.9798H161.65ZM162.294 42.2665C162.294 42.7627 162.193 43.2321 161.992 43.6747C161.791 44.1039 161.516 44.4861 161.167 44.8214C160.819 45.1433 160.41 45.4048 159.941 45.606C159.485 45.7937 158.995 45.8876 158.472 45.8876C157.963 45.8876 157.487 45.7937 157.044 45.606C156.602 45.4048 156.206 45.1433 155.858 44.8214C155.522 44.4861 155.254 44.1039 155.053 43.6747C154.865 43.2321 154.771 42.7627 154.771 42.2665C154.771 41.7569 154.865 41.2808 155.053 40.8382C155.254 40.3956 155.522 40.0067 155.858 39.6714C156.206 39.3361 156.602 39.0746 157.044 38.8869C157.487 38.6991 157.963 38.6052 158.472 38.6052C158.995 38.6052 159.485 38.6991 159.941 38.8869C160.41 39.0746 160.819 39.3361 161.167 39.6714C161.516 40.0067 161.791 40.3956 161.992 40.8382C162.193 41.2808 162.294 41.7569 162.294 42.2665Z" fill="#1E0D61"/>
<path d="M173.461 69.163C172.468 69.163 171.59 69.0222 170.826 68.7406C170.075 68.4455 169.438 68.0365 168.915 67.5134C168.405 66.977 168.017 66.3332 167.748 65.5822C167.48 64.8312 167.346 63.9929 167.346 63.0676V52.2848H165.576C165.254 52.2848 164.98 52.1842 164.752 51.9831C164.524 51.7685 164.41 51.46 164.41 51.0577V48.6235L167.728 47.9798L168.955 42.8902C169.116 42.2464 169.572 41.9245 170.323 41.9245H173.581V48.02H178.75V52.2848H173.581V62.6451C173.581 63.1279 173.695 63.5302 173.923 63.8521C174.165 64.1606 174.506 64.3148 174.949 64.3148C175.177 64.3148 175.365 64.2947 175.512 64.2545C175.673 64.2008 175.807 64.1472 175.914 64.0935C176.035 64.0265 176.142 63.9728 176.236 63.9326C176.343 63.8789 176.464 63.8521 176.598 63.8521C176.786 63.8521 176.933 63.8991 177.041 63.9929C177.161 64.0734 177.282 64.2075 177.403 64.3953L179.293 67.3525C178.489 67.956 177.584 68.412 176.578 68.7204C175.572 69.0155 174.533 69.163 173.461 69.163Z" fill="#1E0D61"/>
<path d="M192.197 60.3518C190.95 60.4054 189.925 60.5127 189.12 60.6736C188.316 60.8346 187.679 61.0357 187.209 61.2771C186.74 61.5185 186.412 61.7935 186.224 62.1019C186.05 62.4104 185.962 62.7457 185.962 63.1078C185.962 63.8186 186.157 64.3215 186.546 64.6166C186.935 64.8982 187.504 65.039 188.255 65.039C189.06 65.039 189.764 64.8982 190.367 64.6166C190.971 64.3349 191.581 63.8789 192.197 63.2486V60.3518ZM180.974 50.8766C182.235 49.7635 183.629 48.9387 185.158 48.4022C186.7 47.8524 188.349 47.5774 190.106 47.5774C191.366 47.5774 192.499 47.7853 193.505 48.2011C194.524 48.6034 195.382 49.1734 196.079 49.911C196.79 50.6352 197.333 51.5003 197.708 52.5061C198.084 53.512 198.272 54.6117 198.272 55.8053V68.8411H195.416C194.826 68.8411 194.376 68.7607 194.068 68.5997C193.773 68.4388 193.525 68.1035 193.324 67.5939L192.881 66.4472C192.358 66.8898 191.856 67.2787 191.373 67.614C190.89 67.9493 190.387 68.2376 189.864 68.479C189.355 68.707 188.805 68.8747 188.215 68.982C187.638 69.1027 186.995 69.163 186.284 69.163C185.332 69.163 184.467 69.0423 183.69 68.8009C182.912 68.5461 182.248 68.1773 181.698 67.6945C181.162 67.2117 180.746 66.6149 180.451 65.9041C180.156 65.1798 180.009 64.3483 180.009 63.4095C180.009 62.6585 180.197 61.9008 180.572 61.1363C180.948 60.3585 181.598 59.6544 182.523 59.024C183.448 58.3803 184.695 57.8438 186.264 57.4147C187.833 56.9855 189.811 56.7441 192.197 56.6904V55.8053C192.197 54.5849 191.943 53.7064 191.433 53.17C190.937 52.6201 190.226 52.3452 189.301 52.3452C188.564 52.3452 187.96 52.4256 187.491 52.5866C187.022 52.7475 186.599 52.9286 186.224 53.1297C185.862 53.3309 185.507 53.512 185.158 53.6729C184.809 53.8338 184.394 53.9143 183.911 53.9143C183.482 53.9143 183.12 53.807 182.825 53.5924C182.53 53.3778 182.288 53.123 182.101 52.828L180.974 50.8766Z" fill="#1E0D61"/>
<path d="M208.492 38.7259V68.8411H202.257V38.7259H208.492Z" fill="#1E0D61"/>
<path d="M238.932 45.4853C238.731 45.8071 238.516 46.0485 238.288 46.2095C238.074 46.3704 237.792 46.4509 237.443 46.4509C237.135 46.4509 236.8 46.357 236.438 46.1692C236.089 45.9681 235.687 45.7468 235.231 45.5054C234.788 45.264 234.279 45.0494 233.702 44.8616C233.126 44.6605 232.469 44.5599 231.731 44.5599C230.457 44.5599 229.505 44.8348 228.875 45.3847C228.258 45.9211 227.95 46.652 227.95 47.5774C227.95 48.1675 228.138 48.657 228.513 49.046C228.889 49.4349 229.378 49.7702 229.981 50.0518C230.598 50.3335 231.295 50.595 232.073 50.8364C232.864 51.0644 233.669 51.3259 234.487 51.621C235.305 51.9026 236.102 52.2379 236.88 52.6268C237.671 53.0157 238.369 53.512 238.972 54.1155C239.589 54.719 240.085 55.4566 240.46 56.3283C240.836 57.1867 241.023 58.2261 241.023 59.4465C241.023 60.801 240.789 62.0684 240.32 63.2486C239.85 64.4288 239.166 65.4615 238.268 66.3466C237.383 67.2184 236.283 67.9091 234.969 68.4187C233.669 68.9149 232.187 69.163 230.524 69.163C229.613 69.163 228.681 69.0691 227.729 68.8814C226.79 68.6936 225.878 68.4321 224.993 68.0968C224.108 67.7481 223.277 67.3391 222.499 66.8697C221.722 66.4003 221.045 65.8772 220.468 65.3006L222.479 62.1221C222.64 61.8941 222.848 61.7063 223.103 61.5588C223.371 61.3978 223.659 61.3174 223.968 61.3174C224.37 61.3174 224.772 61.4448 225.174 61.6996C225.59 61.9544 226.053 62.2361 226.562 62.5445C227.085 62.853 227.682 63.1346 228.352 63.3894C229.023 63.6442 229.814 63.7717 230.726 63.7717C231.959 63.7717 232.918 63.5034 233.602 62.967C234.286 62.4171 234.628 61.5521 234.628 60.3719C234.628 59.6879 234.44 59.1313 234.064 58.7022C233.689 58.273 233.193 57.9176 232.576 57.636C231.973 57.3543 231.282 57.1062 230.504 56.8916C229.727 56.677 228.929 56.4423 228.111 56.1875C227.293 55.9193 226.495 55.5974 225.717 55.2219C224.94 54.833 224.242 54.3301 223.626 53.7131C223.022 53.0828 222.533 52.3049 222.157 51.3795C221.782 50.4408 221.594 49.2874 221.594 47.9194C221.594 46.8197 221.816 45.7468 222.258 44.7007C222.7 43.6546 223.351 42.7225 224.209 41.9044C225.067 41.0863 226.12 40.4359 227.367 39.9531C228.614 39.4568 230.042 39.2087 231.651 39.2087C232.549 39.2087 233.421 39.2825 234.265 39.43C235.124 39.5641 235.935 39.772 236.699 40.0536C237.463 40.3219 238.174 40.6505 238.831 41.0394C239.502 41.4149 240.098 41.8441 240.621 42.3269L238.932 45.4853Z" fill="#1E0D61"/>
<path d="M270.598 39.5306V68.8411H263.76V56.449H251.853V68.8411H245.014V39.5306H251.853V51.7819H263.76V39.5306H270.598Z" fill="#1E0D61"/>
<path d="M309.229 39.5306V68.8411H303.235V51.9831C303.235 51.5941 303.242 51.1717 303.255 50.7157C303.282 50.2597 303.323 49.797 303.376 49.3276L295.592 64.3953C295.351 64.8647 295.023 65.2201 294.607 65.4615C294.205 65.7029 293.742 65.8236 293.219 65.8236H292.294C291.771 65.8236 291.302 65.7029 290.886 65.4615C290.484 65.2201 290.162 64.8647 289.921 64.3953L282.137 49.2874C282.177 49.7702 282.211 50.2463 282.237 50.7157C282.264 51.1717 282.278 51.5941 282.278 51.9831V68.8411H276.284V39.5306H281.473C281.768 39.5306 282.023 39.5373 282.237 39.5507C282.465 39.5641 282.666 39.6044 282.841 39.6714C283.015 39.7385 283.169 39.8458 283.303 39.9933C283.451 40.1274 283.592 40.3219 283.726 40.5767L291.268 55.4432C291.536 55.9528 291.791 56.4826 292.032 57.0324C292.287 57.5823 292.529 58.1456 292.756 58.7223C292.984 58.1322 293.219 57.5555 293.46 56.9922C293.715 56.4289 293.983 55.8925 294.265 55.3828L301.787 40.5767C301.921 40.3219 302.055 40.1274 302.189 39.9933C302.337 39.8458 302.498 39.7385 302.672 39.6714C302.847 39.6044 303.041 39.5641 303.255 39.5507C303.483 39.5373 303.745 39.5306 304.04 39.5306H309.229Z" fill="#1E0D61"/>
<path d="M340.401 45.4853C340.199 45.8071 339.985 46.0485 339.757 46.2095C339.542 46.3704 339.261 46.4509 338.912 46.4509C338.604 46.4509 338.269 46.357 337.907 46.1692C337.558 45.9681 337.156 45.7468 336.7 45.5054C336.257 45.264 335.748 45.0494 335.171 44.8616C334.595 44.6605 333.938 44.5599 333.2 44.5599C331.926 44.5599 330.974 44.8348 330.344 45.3847C329.727 45.9211 329.419 46.652 329.419 47.5774C329.419 48.1675 329.607 48.657 329.982 49.046C330.357 49.4349 330.847 49.7702 331.45 50.0518C332.067 50.3335 332.764 50.595 333.542 50.8364C334.333 51.0644 335.138 51.3259 335.956 51.621C336.773 51.9026 337.571 52.2379 338.349 52.6268C339.14 53.0157 339.837 53.512 340.441 54.1155C341.058 54.719 341.554 55.4566 341.929 56.3283C342.305 57.1867 342.492 58.2261 342.492 59.4465C342.492 60.801 342.258 62.0684 341.788 63.2486C341.319 64.4288 340.635 65.4615 339.737 66.3466C338.852 67.2184 337.752 67.9091 336.438 68.4187C335.138 68.9149 333.656 69.163 331.993 69.163C331.081 69.163 330.15 69.0691 329.198 68.8814C328.259 68.6936 327.347 68.4321 326.462 68.0968C325.577 67.7481 324.746 67.3391 323.968 66.8697C323.19 66.4003 322.513 65.8772 321.937 65.3006L323.948 62.1221C324.109 61.8941 324.317 61.7063 324.572 61.5588C324.84 61.3978 325.128 61.3174 325.436 61.3174C325.839 61.3174 326.241 61.4448 326.643 61.6996C327.059 61.9544 327.521 62.2361 328.031 62.5445C328.554 62.853 329.151 63.1346 329.821 63.3894C330.491 63.6442 331.283 63.7717 332.194 63.7717C333.428 63.7717 334.387 63.5034 335.071 62.967C335.754 62.4171 336.096 61.5521 336.096 60.3719C336.096 59.6879 335.909 59.1313 335.533 58.7022C335.158 58.273 334.662 57.9176 334.045 57.636C333.441 57.3543 332.751 57.1062 331.973 56.8916C331.195 56.677 330.398 56.4423 329.58 56.1875C328.762 55.9193 327.964 55.5974 327.186 55.2219C326.409 54.833 325.711 54.3301 325.094 53.7131C324.491 53.0828 324.002 52.3049 323.626 51.3795C323.251 50.4408 323.063 49.2874 323.063 47.9194C323.063 46.8197 323.284 45.7468 323.727 44.7007C324.169 43.6546 324.82 42.7225 325.678 41.9044C326.536 41.0863 327.589 40.4359 328.836 39.9531C330.083 39.4568 331.511 39.2087 333.12 39.2087C334.018 39.2087 334.89 39.2825 335.734 39.43C336.592 39.5641 337.404 39.772 338.168 40.0536C338.932 40.3219 339.643 40.6505 340.3 41.0394C340.97 41.4149 341.567 41.8441 342.09 42.3269L340.401 45.4853Z" fill="#1E0D61"/>
<path d="M364.588 47.9798L353.446 74.2526C353.258 74.6684 353.03 74.9702 352.762 75.1579C352.494 75.3591 352.065 75.4597 351.475 75.4597H346.808L350.831 67.0105L342.504 47.9798H348.015C348.498 47.9798 348.867 48.0871 349.121 48.3016C349.39 48.5162 349.584 48.771 349.705 49.0661L353.124 58.0584C353.446 58.8765 353.707 59.7147 353.908 60.573C354.056 60.1439 354.203 59.7147 354.351 59.2856C354.498 58.8564 354.653 58.4339 354.813 58.0182L357.911 49.0661C358.032 48.7576 358.246 48.5028 358.554 48.3016C358.863 48.0871 359.198 47.9798 359.56 47.9798H364.588Z" fill="#1E0D61"/>
<path d="M379.205 52.5463C379.044 52.8012 378.87 52.9822 378.682 53.0895C378.508 53.1968 378.28 53.2504 377.998 53.2504C377.703 53.2504 377.408 53.1901 377.113 53.0694C376.818 52.9353 376.497 52.7944 376.148 52.6469C375.813 52.4994 375.431 52.3653 375.002 52.2446C374.573 52.1105 374.083 52.0434 373.533 52.0434C372.742 52.0434 372.132 52.1976 371.703 52.5061C371.287 52.8012 371.08 53.2169 371.08 53.7534C371.08 54.1423 371.214 54.4642 371.482 54.719C371.763 54.9738 372.132 55.2018 372.588 55.403C373.044 55.5907 373.56 55.7718 374.137 55.9461C374.713 56.1205 375.303 56.3149 375.907 56.5295C376.51 56.7441 377.1 56.9989 377.677 57.294C378.253 57.5756 378.769 57.931 379.225 58.3602C379.681 58.7759 380.043 59.2855 380.311 59.8891C380.593 60.4926 380.734 61.2168 380.734 62.0617C380.734 63.0944 380.546 64.0466 380.171 64.9183C379.795 65.7901 379.232 66.5411 378.481 67.1714C377.744 67.8018 376.825 68.2913 375.726 68.64C374.64 68.9887 373.386 69.163 371.965 69.163C371.254 69.163 370.543 69.096 369.833 68.9619C369.122 68.8277 368.431 68.6467 367.761 68.4187C367.104 68.1907 366.494 67.9225 365.931 67.614C365.367 67.2921 364.885 66.9502 364.482 66.588L365.931 64.2947C366.091 64.0265 366.293 63.8186 366.534 63.6711C366.789 63.5101 367.111 63.4297 367.499 63.4297C367.861 63.4297 368.183 63.5101 368.465 63.6711C368.76 63.832 369.075 64.0063 369.41 64.1941C369.745 64.3819 370.134 64.5562 370.577 64.7172C371.033 64.8781 371.602 64.9586 372.286 64.9586C372.769 64.9586 373.178 64.9116 373.513 64.8177C373.848 64.7105 374.117 64.5696 374.318 64.3953C374.519 64.2209 374.666 64.0265 374.76 63.8119C374.854 63.5973 374.901 63.376 374.901 63.148C374.901 62.7323 374.76 62.3903 374.479 62.1221C374.197 61.8538 373.828 61.6258 373.372 61.4381C372.917 61.2369 372.394 61.0558 371.804 60.8949C371.227 60.7206 370.637 60.5261 370.034 60.3115C369.43 60.0969 368.834 59.8421 368.244 59.5471C367.667 59.2386 367.151 58.8564 366.695 58.4004C366.239 57.931 365.87 57.361 365.589 56.6904C365.307 56.0199 365.166 55.2085 365.166 54.2563C365.166 53.3711 365.334 52.5329 365.669 51.7417C366.018 50.937 366.534 50.2329 367.218 49.6294C367.902 49.0259 368.76 48.5497 369.792 48.2011C370.825 47.8389 372.032 47.6579 373.413 47.6579C374.164 47.6579 374.888 47.7249 375.585 47.8591C376.295 47.9932 376.959 48.1809 377.576 48.4223C378.193 48.6637 378.756 48.9521 379.266 49.2874C379.775 49.6092 380.224 49.9647 380.613 50.3536L379.205 52.5463Z" fill="#1E0D61"/>
<path d="M391.326 69.163C390.334 69.163 389.455 69.0222 388.691 68.7406C387.94 68.4455 387.303 68.0365 386.78 67.5134C386.271 66.977 385.882 66.3332 385.614 65.5822C385.346 64.8312 385.211 63.9929 385.211 63.0676V52.2848H383.442C383.12 52.2848 382.845 52.1842 382.617 51.9831C382.389 51.7685 382.275 51.46 382.275 51.0577V48.6235L385.594 47.9798L386.821 42.8902C386.981 42.2464 387.437 41.9245 388.188 41.9245H391.447V48.02H396.616V52.2848H391.447V62.6451C391.447 63.1279 391.56 63.5302 391.788 63.8521C392.03 64.1606 392.372 64.3148 392.814 64.3148C393.042 64.3148 393.23 64.2947 393.377 64.2545C393.538 64.2008 393.672 64.1472 393.78 64.0935C393.9 64.0265 394.008 63.9728 394.101 63.9326C394.209 63.8789 394.329 63.8521 394.463 63.8521C394.651 63.8521 394.799 63.8991 394.906 63.9929C395.027 64.0734 395.147 64.2075 395.268 64.3953L397.159 67.3525C396.354 67.956 395.449 68.412 394.443 68.7204C393.438 69.0155 392.399 69.163 391.326 69.163Z" fill="#1E0D61"/>
<path d="M412.079 55.9059C412.079 55.4097 412.012 54.9269 411.878 54.4575C411.757 53.9881 411.549 53.5723 411.254 53.2102C410.973 52.8347 410.597 52.5329 410.128 52.3049C409.658 52.0769 409.089 51.9629 408.418 51.9629C407.238 51.9629 406.313 52.3049 405.643 52.9889C404.972 53.6595 404.53 54.6318 404.315 55.9059H412.079ZM404.235 59.527C404.436 61.2704 404.965 62.5378 405.824 63.3291C406.682 64.1069 407.788 64.4959 409.142 64.4959C409.866 64.4959 410.49 64.4087 411.013 64.2343C411.536 64.06 411.998 63.8655 412.401 63.651C412.816 63.4364 413.192 63.2419 413.527 63.0676C413.876 62.8932 414.238 62.806 414.613 62.806C415.109 62.806 415.485 62.9871 415.739 63.3492L417.549 65.5822C416.906 66.3198 416.209 66.9233 415.458 67.3927C414.72 67.8487 413.956 68.2108 413.165 68.479C412.387 68.7339 411.603 68.9082 410.812 69.0021C410.034 69.1094 409.29 69.163 408.579 69.163C407.118 69.163 405.743 68.9283 404.456 68.4589C403.182 67.9761 402.062 67.2653 401.097 66.3265C400.145 65.3877 399.387 64.2209 398.824 62.8262C398.274 61.4314 398 59.8086 398 57.9578C398 56.563 398.234 55.242 398.704 53.9948C399.186 52.7475 399.87 51.6545 400.755 50.7157C401.653 49.7769 402.733 49.0326 403.993 48.4827C405.267 47.9328 406.702 47.6579 408.297 47.6579C409.679 47.6579 410.939 47.8725 412.079 48.3016C413.232 48.7308 414.217 49.3544 415.035 50.1725C415.867 50.9906 416.51 51.9965 416.966 53.1901C417.436 54.3703 417.67 55.7114 417.67 57.2135C417.67 57.6829 417.65 58.0651 417.61 58.3602C417.57 58.6552 417.496 58.8899 417.389 59.0643C417.281 59.2386 417.134 59.3593 416.946 59.4264C416.772 59.4934 416.544 59.527 416.262 59.527H404.235Z" fill="#1E0D61"/>
<path d="M420.79 68.8411V47.9798H424.652C425.43 47.9798 425.939 48.3285 426.181 49.0259L426.522 50.1524C426.871 49.7903 427.233 49.4617 427.609 49.1667C427.984 48.8582 428.386 48.5967 428.815 48.3821C429.258 48.1541 429.727 47.9798 430.223 47.8591C430.733 47.7249 431.289 47.6579 431.893 47.6579C433.153 47.6579 434.192 47.9865 435.01 48.6436C435.841 49.2874 436.472 50.1524 436.901 51.2387C437.249 50.595 437.672 50.0451 438.168 49.5891C438.677 49.1331 439.22 48.7643 439.797 48.4827C440.387 48.2011 441.004 47.9932 441.647 47.8591C442.304 47.7249 442.955 47.6579 443.598 47.6579C444.792 47.6579 445.851 47.8389 446.776 48.2011C447.701 48.5497 448.472 49.0661 449.089 49.7501C449.72 50.4206 450.195 51.2521 450.517 52.2446C450.839 53.2236 451 54.3368 451 55.584V68.8411H444.765V55.584C444.765 53.4248 443.84 52.3452 441.989 52.3452C441.145 52.3452 440.441 52.6268 439.878 53.1901C439.328 53.7399 439.053 54.5379 439.053 55.584V68.8411H432.818V55.584C432.818 54.3904 432.583 53.5522 432.114 53.0694C431.645 52.5866 430.954 52.3452 430.042 52.3452C429.479 52.3452 428.943 52.4726 428.433 52.7274C427.937 52.9822 427.468 53.3242 427.025 53.7534V68.8411H420.79Z" fill="#1E0D61"/>
</svg>
