<svg width="221" height="35" viewBox="0 0 221 35" fill="none" xmlns="http://www.w3.org/2000/svg">
<path d="M0 10.5439V19.4526C7.28855 19.4526 10.8977 22.9418 10.8977 29.9967C10.8977 25.2887 12.6261 20.9747 15.5028 17.6074C11.8117 13.2934 6.2398 10.5439 0 10.5439Z" fill="#E7E7EF"/>
<path d="M15.4997 17.6104C12.6229 20.9748 10.8945 25.2917 10.8945 29.9997H20.1019C20.1048 25.2889 18.3764 20.9748 15.4997 17.6104Z" fill="#F0F0F5"/>
<path d="M0 10.5441V19.4528C6.2398 19.4528 11.8117 16.7034 15.4999 12.3894C12.6231 9.02488 10.8948 4.70801 10.8948 0C10.8977 7.05494 7.28856 10.5441 0 10.5441Z" fill="white"/>
<path d="M30.9999 10.5441C23.7113 10.5441 20.1022 7.05494 20.1022 0C20.1022 4.70802 18.3738 9.02489 15.4971 12.3894C16.3115 13.3418 17.2167 14.2176 18.1981 15.0027C21.6812 12.2221 26.137 10.5441 30.9999 10.5441Z" fill="#E7E7EF"/>
<path d="M20.1048 0.00292969H10.8975C10.8975 4.71093 12.6259 9.02779 15.5026 12.3923C18.3764 9.02496 20.1048 4.7081 20.1048 0.00292969Z" fill="#F0F0F5"/>
<path d="M30.9999 10.5439C26.134 10.5439 21.6783 12.2219 18.201 15.0025C17.2196 15.7877 16.3115 16.6578 15.5 17.6074C18.3768 20.9719 20.1051 25.2887 20.1051 29.9967C20.1051 22.9446 23.7113 19.4526 31.0028 19.4526L30.9999 10.5439Z" fill="white"/>
<path d="M47.4009 11.79C45.6789 11.79 44.7969 11.482 44.7969 10.81C44.7969 10.124 45.6789 9.83 47.4009 9.83C49.1229 9.83 50.0049 10.124 50.0049 10.81C50.0049 11.482 49.1229 11.79 47.4009 11.79ZM47.4009 8.416C44.6149 8.416 42.9349 9.284 42.9349 10.81C42.9349 12.336 44.6149 13.204 47.4009 13.204C50.1869 13.204 51.8809 12.336 51.8809 10.81C51.8809 9.284 50.1869 8.416 47.4009 8.416ZM48.3669 6.274V4.986H51.9789V3.516H44.9229V0.533999H43.0749V4.986H46.5189V6.274H41.6189V7.73H53.2809V6.274H48.3669ZM61.5958 1.402H59.0758V0.211999H57.2278V1.402H54.5258V2.858H61.5958V1.402ZM56.8498 5.574C56.8498 4.93 57.3678 4.594 58.1518 4.594C58.9218 4.594 59.4538 4.93 59.4538 5.574C59.4538 6.232 58.9218 6.568 58.1518 6.568C57.3678 6.568 56.8498 6.232 56.8498 5.574ZM61.1618 5.574C61.1618 4.188 59.9158 3.236 58.1518 3.236C56.3738 3.236 55.1278 4.188 55.1278 5.574C55.1278 6.974 56.3738 7.926 58.1518 7.926C59.9158 7.926 61.1618 6.974 61.1618 5.574ZM63.4438 11.636H58.4598V10.768H63.4438V11.636ZM63.4438 9.41H58.4598V8.472H56.6398V13.05H65.2638V8.472H63.4438V9.41ZM63.4158 0.309999V3.054H61.7638V4.524H63.4158V5.602H61.7358V7.072H63.4158V7.996H65.2638V0.309999H63.4158ZM69.6727 1.542H67.8667V10.124H68.7627C70.3867 10.124 71.7867 10.068 73.3267 9.746L73.1027 8.206C71.9127 8.43 70.8347 8.514 69.6727 8.542V1.542ZM73.9707 4.37H71.4367V5.868H73.9707V12.63H75.6927V0.519999H73.9707V4.37ZM76.7007 0.296V13.19H78.4507V0.296H76.7007ZM90.6716 6.96H83.4896V5.518H90.2796V4.09H83.4896V2.732H90.5736V1.248H81.6136V8.416H90.6716V6.96ZM80.2416 10.222V11.72H91.9176V10.222H80.2416ZM97.2226 1.906C98.1466 1.906 98.7206 2.2 98.7206 2.746C98.7206 3.306 98.1466 3.6 97.2226 3.6C96.2986 3.6 95.7106 3.306 95.7106 2.746C95.7106 2.2 96.2986 1.906 97.2226 1.906ZM97.2226 4.888C99.1266 4.888 100.443 4.034 100.443 2.746C100.443 1.472 99.1266 0.618 97.2226 0.618C95.3186 0.618 94.0026 1.472 94.0026 2.746C94.0026 4.034 95.3186 4.888 97.2226 4.888ZM96.1306 8.78H97.9786V6.75C99.1126 6.652 100.261 6.54 101.381 6.33L101.255 5.07C98.5526 5.434 95.3746 5.476 93.0646 5.476L93.2886 6.904C94.1426 6.904 95.1086 6.89 96.1306 6.848V8.78ZM94.8146 10.754H102.123V13.218H103.971V9.298H94.8146V10.754ZM102.123 0.323999V7.1H99.5746V8.36H102.123V8.836H103.971V0.323999H102.123ZM117.269 6.372C114.357 5.882 112.761 3.88 112.761 1.99V1.066H110.787V1.99C110.787 3.838 109.177 5.882 106.279 6.372L107.063 7.926C109.303 7.492 110.941 6.232 111.767 4.594C112.593 6.232 114.245 7.478 116.485 7.926L117.269 6.372ZM105.999 10.138V11.636H117.675V10.138H105.999ZM54.1699 24.439C54.1699 25.387 54.0049 26.263 53.6749 27.067C53.3509 27.865 52.8919 28.558 52.2979 29.146C51.7039 29.728 50.9869 30.184 50.1469 30.514C49.3129 30.838 48.3859 31 47.3659 31H42.2719V17.887H47.3659C48.3859 17.887 49.3129 18.052 50.1469 18.382C50.9869 18.712 51.7039 19.168 52.2979 19.75C52.8919 20.332 53.3509 21.025 53.6749 21.829C54.0049 22.627 54.1699 23.497 54.1699 24.439ZM51.0559 24.439C51.0559 23.791 50.9719 23.206 50.8039 22.684C50.6359 22.162 50.3929 21.721 50.0749 21.361C49.7629 20.995 49.3789 20.716 48.9229 20.524C48.4669 20.326 47.9479 20.227 47.3659 20.227H45.3319V28.66H47.3659C47.9479 28.66 48.4669 28.564 48.9229 28.372C49.3789 28.174 49.7629 27.895 50.0749 27.535C50.3929 27.169 50.6359 26.725 50.8039 26.203C50.9719 25.681 51.0559 25.093 51.0559 24.439ZM58.3537 21.667V31H55.5637V21.667H58.3537ZM58.6417 19.111C58.6417 19.333 58.5967 19.543 58.5067 19.741C58.4167 19.933 58.2937 20.104 58.1377 20.254C57.9817 20.398 57.7987 20.515 57.5887 20.605C57.3847 20.689 57.1657 20.731 56.9317 20.731C56.7037 20.731 56.4907 20.689 56.2927 20.605C56.0947 20.515 55.9177 20.398 55.7617 20.254C55.6117 20.104 55.4917 19.933 55.4017 19.741C55.3177 19.543 55.2757 19.333 55.2757 19.111C55.2757 18.883 55.3177 18.67 55.4017 18.472C55.4917 18.274 55.6117 18.1 55.7617 17.95C55.9177 17.8 56.0947 17.683 56.2927 17.599C56.4907 17.515 56.7037 17.473 56.9317 17.473C57.1657 17.473 57.3847 17.515 57.5887 17.599C57.7987 17.683 57.9817 17.8 58.1377 17.95C58.2937 18.1 58.4167 18.274 58.5067 18.472C58.5967 18.67 58.6417 18.883 58.6417 19.111ZM63.8545 25.843C64.3165 25.843 64.6495 25.729 64.8535 25.501C65.0635 25.267 65.1685 24.967 65.1685 24.601C65.1685 24.223 65.0635 23.926 64.8535 23.71C64.6495 23.494 64.3165 23.386 63.8545 23.386C63.3925 23.386 63.0565 23.494 62.8465 23.71C62.6425 23.926 62.5405 24.223 62.5405 24.601C62.5405 24.781 62.5645 24.946 62.6125 25.096C62.6665 25.246 62.7475 25.378 62.8555 25.492C62.9635 25.6 63.0985 25.687 63.2605 25.753C63.4285 25.813 63.6265 25.843 63.8545 25.843ZM66.0145 31.342C66.0145 31.12 65.9155 30.961 65.7175 30.865C65.5195 30.763 65.2615 30.691 64.9435 30.649C64.6255 30.607 64.2685 30.583 63.8725 30.577C63.4825 30.565 63.0925 30.541 62.7025 30.505C62.5285 30.625 62.3845 30.76 62.2705 30.91C62.1625 31.054 62.1085 31.219 62.1085 31.405C62.1085 31.537 62.1355 31.657 62.1895 31.765C62.2495 31.873 62.3515 31.966 62.4955 32.044C62.6395 32.122 62.8315 32.182 63.0715 32.224C63.3175 32.272 63.6265 32.296 63.9985 32.296C64.4005 32.296 64.7305 32.272 64.9885 32.224C65.2465 32.176 65.4505 32.11 65.6005 32.026C65.7565 31.942 65.8645 31.84 65.9245 31.72C65.9845 31.606 66.0145 31.48 66.0145 31.342ZM68.7685 21.955V22.972C68.7685 23.128 68.7235 23.251 68.6335 23.341C68.5495 23.431 68.4025 23.5 68.1925 23.548L67.5175 23.701C67.5535 23.833 67.5805 23.968 67.5985 24.106C67.6225 24.244 67.6345 24.388 67.6345 24.538C67.6345 25.006 67.5355 25.426 67.3375 25.798C67.1455 26.17 66.8785 26.488 66.5365 26.752C66.2005 27.01 65.8015 27.211 65.3395 27.355C64.8775 27.493 64.3825 27.562 63.8545 27.562C63.7105 27.562 63.5695 27.559 63.4315 27.553C63.2935 27.541 63.1585 27.523 63.0265 27.499C62.8225 27.625 62.7205 27.766 62.7205 27.922C62.7205 28.078 62.8045 28.192 62.9725 28.264C63.1405 28.33 63.3625 28.378 63.6385 28.408C63.9145 28.432 64.2265 28.45 64.5745 28.462C64.9285 28.468 65.2885 28.489 65.6545 28.525C66.0205 28.555 66.3775 28.609 66.7255 28.687C67.0795 28.765 67.3945 28.891 67.6705 29.065C67.9465 29.239 68.1685 29.473 68.3365 29.767C68.5045 30.055 68.5885 30.424 68.5885 30.874C68.5885 31.294 68.4865 31.705 68.2825 32.107C68.0785 32.509 67.7785 32.866 67.3825 33.178C66.9865 33.49 66.5005 33.739 65.9245 33.925C65.3485 34.117 64.6885 34.213 63.9445 34.213C63.2125 34.213 62.5795 34.144 62.0455 34.006C61.5175 33.868 61.0765 33.685 60.7225 33.457C60.3745 33.235 60.1165 32.977 59.9485 32.683C59.7805 32.389 59.6965 32.083 59.6965 31.765C59.6965 31.351 59.8165 31.006 60.0565 30.73C60.2965 30.454 60.6325 30.232 61.0645 30.064C60.8365 29.926 60.6565 29.749 60.5245 29.533C60.3925 29.317 60.3265 29.038 60.3265 28.696C60.3265 28.558 60.3505 28.414 60.3985 28.264C60.4465 28.108 60.5215 27.958 60.6235 27.814C60.7315 27.664 60.8635 27.523 61.0195 27.391C61.1755 27.259 61.3615 27.142 61.5775 27.04C61.0915 26.782 60.7075 26.443 60.4255 26.023C60.1435 25.597 60.0025 25.102 60.0025 24.538C60.0025 24.07 60.1015 23.65 60.2995 23.278C60.4975 22.9 60.7675 22.582 61.1095 22.324C61.4575 22.06 61.8655 21.859 62.3335 21.721C62.8015 21.577 63.3085 21.505 63.8545 21.505C64.6465 21.505 65.3485 21.655 65.9605 21.955H68.7685ZM72.7853 21.667V31H69.9953V21.667H72.7853ZM73.0733 19.111C73.0733 19.333 73.0283 19.543 72.9383 19.741C72.8483 19.933 72.7253 20.104 72.5693 20.254C72.4133 20.398 72.2303 20.515 72.0203 20.605C71.8163 20.689 71.5973 20.731 71.3633 20.731C71.1353 20.731 70.9223 20.689 70.7243 20.605C70.5263 20.515 70.3493 20.398 70.1933 20.254C70.0433 20.104 69.9233 19.933 69.8333 19.741C69.7493 19.543 69.7073 19.333 69.7073 19.111C69.7073 18.883 69.7493 18.67 69.8333 18.472C69.9233 18.274 70.0433 18.1 70.1933 17.95C70.3493 17.8 70.5263 17.683 70.7243 17.599C70.9223 17.515 71.1353 17.473 71.3633 17.473C71.5973 17.473 71.8163 17.515 72.0203 17.599C72.2303 17.683 72.4133 17.8 72.5693 17.95C72.7253 18.1 72.8483 18.274 72.9383 18.472C73.0283 18.67 73.0733 18.883 73.0733 19.111ZM78.0701 31.144C77.6261 31.144 77.2331 31.081 76.8911 30.955C76.5551 30.823 76.2701 30.64 76.0361 30.406C75.8081 30.166 75.6341 29.878 75.5141 29.542C75.3941 29.206 75.3341 28.831 75.3341 28.417V23.593H74.5421C74.3981 23.593 74.2751 23.548 74.1731 23.458C74.0711 23.362 74.0201 23.224 74.0201 23.044V21.955L75.5051 21.667L76.0541 19.39C76.1261 19.102 76.3301 18.958 76.6661 18.958H78.1241V21.685H80.4371V23.593H78.1241V28.228C78.1241 28.444 78.1751 28.624 78.2771 28.768C78.3851 28.906 78.5381 28.975 78.7361 28.975C78.8381 28.975 78.9221 28.966 78.9881 28.948C79.0601 28.924 79.1201 28.9 79.1681 28.876C79.2221 28.846 79.2701 28.822 79.3121 28.804C79.3601 28.78 79.4141 28.768 79.4741 28.768C79.5581 28.768 79.6241 28.789 79.6721 28.831C79.7261 28.867 79.7801 28.927 79.8341 29.011L80.6801 30.334C80.3201 30.604 79.9151 30.808 79.4651 30.946C79.0151 31.078 78.5501 31.144 78.0701 31.144ZM86.4543 27.202C85.8963 27.226 85.4373 27.274 85.0773 27.346C84.7173 27.418 84.4323 27.508 84.2223 27.616C84.0123 27.724 83.8653 27.847 83.7813 27.985C83.7033 28.123 83.6643 28.273 83.6643 28.435C83.6643 28.753 83.7513 28.978 83.9253 29.11C84.0993 29.236 84.3543 29.299 84.6903 29.299C85.0503 29.299 85.3653 29.236 85.6353 29.11C85.9053 28.984 86.1783 28.78 86.4543 28.498V27.202ZM81.4323 22.963C81.9963 22.465 82.6203 22.096 83.3043 21.856C83.9943 21.61 84.7323 21.487 85.5183 21.487C86.0823 21.487 86.5893 21.58 87.0393 21.766C87.4953 21.946 87.8793 22.201 88.1913 22.531C88.5093 22.855 88.7523 23.242 88.9203 23.692C89.0883 24.142 89.1723 24.634 89.1723 25.168V31H87.8943C87.6303 31 87.4293 30.964 87.2913 30.892C87.1593 30.82 87.0483 30.67 86.9583 30.442L86.7603 29.929C86.5263 30.127 86.3013 30.301 86.0853 30.451C85.8693 30.601 85.6443 30.73 85.4103 30.838C85.1823 30.94 84.9363 31.015 84.6723 31.063C84.4143 31.117 84.1263 31.144 83.8083 31.144C83.3823 31.144 82.9953 31.09 82.6473 30.982C82.2993 30.868 82.0023 30.703 81.7563 30.487C81.5163 30.271 81.3303 30.004 81.1983 29.686C81.0663 29.362 81.0003 28.99 81.0003 28.57C81.0003 28.234 81.0843 27.895 81.2523 27.553C81.4203 27.205 81.7113 26.89 82.1253 26.608C82.5393 26.32 83.0973 26.08 83.7993 25.888C84.5013 25.696 85.3863 25.588 86.4543 25.564V25.168C86.4543 24.622 86.3403 24.229 86.1123 23.989C85.8903 23.743 85.5723 23.62 85.1583 23.62C84.8283 23.62 84.5583 23.656 84.3483 23.728C84.1383 23.8 83.9493 23.881 83.7813 23.971C83.6193 24.061 83.4603 24.142 83.3043 24.214C83.1483 24.286 82.9623 24.322 82.7463 24.322C82.5543 24.322 82.3923 24.274 82.2603 24.178C82.1283 24.082 82.0203 23.968 81.9363 23.836L81.4323 22.963ZM93.7457 17.527V31H90.9557V17.527H93.7457ZM107.367 20.551C107.277 20.695 107.181 20.803 107.079 20.875C106.983 20.947 106.857 20.983 106.701 20.983C106.563 20.983 106.413 20.941 106.251 20.857C106.095 20.767 105.915 20.668 105.711 20.56C105.513 20.452 105.285 20.356 105.027 20.272C104.769 20.182 104.475 20.137 104.145 20.137C103.575 20.137 103.149 20.26 102.867 20.506C102.591 20.746 102.453 21.073 102.453 21.487C102.453 21.751 102.537 21.97 102.705 22.144C102.873 22.318 103.092 22.468 103.362 22.594C103.638 22.72 103.95 22.837 104.298 22.945C104.652 23.047 105.012 23.164 105.378 23.296C105.744 23.422 106.101 23.572 106.449 23.746C106.803 23.92 107.115 24.142 107.385 24.412C107.661 24.682 107.883 25.012 108.051 25.402C108.219 25.786 108.303 26.251 108.303 26.797C108.303 27.403 108.198 27.97 107.988 28.498C107.778 29.026 107.472 29.488 107.07 29.884C106.674 30.274 106.182 30.583 105.594 30.811C105.012 31.033 104.349 31.144 103.605 31.144C103.197 31.144 102.78 31.102 102.354 31.018C101.934 30.934 101.526 30.817 101.13 30.667C100.734 30.511 100.362 30.328 100.014 30.118C99.6655 29.908 99.3625 29.674 99.1045 29.416L100.005 27.994C100.077 27.892 100.17 27.808 100.284 27.742C100.404 27.67 100.533 27.634 100.671 27.634C100.851 27.634 101.031 27.691 101.211 27.805C101.397 27.919 101.604 28.045 101.832 28.183C102.066 28.321 102.333 28.447 102.633 28.561C102.933 28.675 103.287 28.732 103.695 28.732C104.247 28.732 104.676 28.612 104.982 28.372C105.288 28.126 105.441 27.739 105.441 27.211C105.441 26.905 105.357 26.656 105.189 26.464C105.021 26.272 104.799 26.113 104.523 25.987C104.253 25.861 103.944 25.75 103.596 25.654C103.248 25.558 102.891 25.453 102.525 25.339C102.159 25.219 101.802 25.075 101.454 24.907C101.106 24.733 100.794 24.508 100.518 24.232C100.248 23.95 100.029 23.602 99.8605 23.188C99.6925 22.768 99.6085 22.252 99.6085 21.64C99.6085 21.148 99.7075 20.668 99.9055 20.2C100.104 19.732 100.395 19.315 100.779 18.949C101.163 18.583 101.634 18.292 102.192 18.076C102.75 17.854 103.389 17.743 104.109 17.743C104.511 17.743 104.901 17.776 105.279 17.842C105.663 17.902 106.026 17.995 106.368 18.121C106.71 18.241 107.028 18.388 107.322 18.562C107.622 18.73 107.889 18.922 108.123 19.138L107.367 20.551ZM121.536 17.887V31H118.476V25.456H113.148V31H110.088V17.887H113.148V23.368H118.476V17.887H121.536ZM138.823 17.887V31H136.141V23.458C136.141 23.284 136.144 23.095 136.15 22.891C136.162 22.687 136.18 22.48 136.204 22.27L132.721 29.011C132.613 29.221 132.466 29.38 132.28 29.488C132.1 29.596 131.893 29.65 131.659 29.65H131.245C131.011 29.65 130.801 29.596 130.615 29.488C130.435 29.38 130.291 29.221 130.183 29.011L126.7 22.252C126.718 22.468 126.733 22.681 126.745 22.891C126.757 23.095 126.763 23.284 126.763 23.458V31H124.081V17.887H126.403C126.535 17.887 126.649 17.89 126.745 17.896C126.847 17.902 126.937 17.92 127.015 17.95C127.093 17.98 127.162 18.028 127.222 18.094C127.288 18.154 127.351 18.241 127.411 18.355L130.786 25.006C130.906 25.234 131.02 25.471 131.128 25.717C131.242 25.963 131.35 26.215 131.452 26.473C131.554 26.209 131.659 25.951 131.767 25.699C131.881 25.447 132.001 25.207 132.127 24.979L135.493 18.355C135.553 18.241 135.613 18.154 135.673 18.094C135.739 18.028 135.811 17.98 135.889 17.95C135.967 17.92 136.054 17.902 136.15 17.896C136.252 17.89 136.369 17.887 136.501 17.887H138.823ZM152.771 20.551C152.681 20.695 152.585 20.803 152.483 20.875C152.387 20.947 152.261 20.983 152.105 20.983C151.967 20.983 151.817 20.941 151.655 20.857C151.499 20.767 151.319 20.668 151.115 20.56C150.917 20.452 150.689 20.356 150.431 20.272C150.173 20.182 149.879 20.137 149.549 20.137C148.979 20.137 148.553 20.26 148.271 20.506C147.995 20.746 147.857 21.073 147.857 21.487C147.857 21.751 147.941 21.97 148.109 22.144C148.277 22.318 148.496 22.468 148.766 22.594C149.042 22.72 149.354 22.837 149.702 22.945C150.056 23.047 150.416 23.164 150.782 23.296C151.148 23.422 151.505 23.572 151.853 23.746C152.207 23.92 152.519 24.142 152.789 24.412C153.065 24.682 153.287 25.012 153.455 25.402C153.623 25.786 153.707 26.251 153.707 26.797C153.707 27.403 153.602 27.97 153.392 28.498C153.182 29.026 152.876 29.488 152.474 29.884C152.078 30.274 151.586 30.583 150.998 30.811C150.416 31.033 149.753 31.144 149.009 31.144C148.601 31.144 148.184 31.102 147.758 31.018C147.338 30.934 146.93 30.817 146.534 30.667C146.138 30.511 145.766 30.328 145.418 30.118C145.07 29.908 144.767 29.674 144.509 29.416L145.409 27.994C145.481 27.892 145.574 27.808 145.688 27.742C145.808 27.67 145.937 27.634 146.075 27.634C146.255 27.634 146.435 27.691 146.615 27.805C146.801 27.919 147.008 28.045 147.236 28.183C147.47 28.321 147.737 28.447 148.037 28.561C148.337 28.675 148.691 28.732 149.099 28.732C149.651 28.732 150.08 28.612 150.386 28.372C150.692 28.126 150.845 27.739 150.845 27.211C150.845 26.905 150.761 26.656 150.593 26.464C150.425 26.272 150.203 26.113 149.927 25.987C149.657 25.861 149.348 25.75 149 25.654C148.652 25.558 148.295 25.453 147.929 25.339C147.563 25.219 147.206 25.075 146.858 24.907C146.51 24.733 146.198 24.508 145.922 24.232C145.652 23.95 145.433 23.602 145.265 23.188C145.097 22.768 145.013 22.252 145.013 21.64C145.013 21.148 145.112 20.668 145.31 20.2C145.508 19.732 145.799 19.315 146.183 18.949C146.567 18.583 147.038 18.292 147.596 18.076C148.154 17.854 148.793 17.743 149.513 17.743C149.915 17.743 150.305 17.776 150.683 17.842C151.067 17.902 151.43 17.995 151.772 18.121C152.114 18.241 152.432 18.388 152.726 18.562C153.026 18.73 153.293 18.922 153.527 19.138L152.771 20.551ZM163.594 21.667L158.608 33.421C158.524 33.607 158.422 33.742 158.302 33.826C158.182 33.916 157.99 33.961 157.726 33.961H155.638L157.438 30.181L153.712 21.667H156.178C156.394 21.667 156.559 21.715 156.673 21.811C156.793 21.907 156.88 22.021 156.934 22.153L158.464 26.176C158.608 26.542 158.725 26.917 158.815 27.301C158.881 27.109 158.947 26.917 159.013 26.725C159.079 26.533 159.148 26.344 159.22 26.158L160.606 22.153C160.66 22.015 160.756 21.901 160.894 21.811C161.032 21.715 161.182 21.667 161.344 21.667H163.594ZM170.135 23.71C170.063 23.824 169.985 23.905 169.901 23.953C169.823 24.001 169.721 24.025 169.595 24.025C169.463 24.025 169.331 23.998 169.199 23.944C169.067 23.884 168.923 23.821 168.767 23.755C168.617 23.689 168.446 23.629 168.254 23.575C168.062 23.515 167.843 23.485 167.597 23.485C167.243 23.485 166.97 23.554 166.778 23.692C166.592 23.824 166.499 24.01 166.499 24.25C166.499 24.424 166.559 24.568 166.679 24.682C166.805 24.796 166.97 24.898 167.174 24.988C167.378 25.072 167.609 25.153 167.867 25.231C168.125 25.309 168.389 25.396 168.659 25.492C168.929 25.588 169.193 25.702 169.451 25.834C169.709 25.96 169.94 26.119 170.144 26.311C170.348 26.497 170.51 26.725 170.63 26.995C170.756 27.265 170.819 27.589 170.819 27.967C170.819 28.429 170.735 28.855 170.567 29.245C170.399 29.635 170.147 29.971 169.811 30.253C169.481 30.535 169.07 30.754 168.578 30.91C168.092 31.066 167.531 31.144 166.895 31.144C166.577 31.144 166.259 31.114 165.941 31.054C165.623 30.994 165.314 30.913 165.014 30.811C164.72 30.709 164.447 30.589 164.195 30.451C163.943 30.307 163.727 30.154 163.547 29.992L164.195 28.966C164.267 28.846 164.357 28.753 164.465 28.687C164.579 28.615 164.723 28.579 164.897 28.579C165.059 28.579 165.203 28.615 165.329 28.687C165.461 28.759 165.602 28.837 165.752 28.921C165.902 29.005 166.076 29.083 166.274 29.155C166.478 29.227 166.733 29.263 167.039 29.263C167.255 29.263 167.438 29.242 167.588 29.2C167.738 29.152 167.858 29.089 167.948 29.011C168.038 28.933 168.104 28.846 168.146 28.75C168.188 28.654 168.209 28.555 168.209 28.453C168.209 28.267 168.146 28.114 168.02 27.994C167.894 27.874 167.729 27.772 167.525 27.688C167.321 27.598 167.087 27.517 166.823 27.445C166.565 27.367 166.301 27.28 166.031 27.184C165.761 27.088 165.494 26.974 165.23 26.842C164.972 26.704 164.741 26.533 164.537 26.329C164.333 26.119 164.168 25.864 164.042 25.564C163.916 25.264 163.853 24.901 163.853 24.475C163.853 24.079 163.928 23.704 164.078 23.35C164.234 22.99 164.465 22.675 164.771 22.405C165.077 22.135 165.461 21.922 165.923 21.766C166.385 21.604 166.925 21.523 167.543 21.523C167.879 21.523 168.203 21.553 168.515 21.613C168.833 21.673 169.13 21.757 169.406 21.865C169.682 21.973 169.934 22.102 170.162 22.252C170.39 22.396 170.591 22.555 170.765 22.729L170.135 23.71ZM175.558 31.144C175.114 31.144 174.721 31.081 174.379 30.955C174.043 30.823 173.758 30.64 173.524 30.406C173.296 30.166 173.122 29.878 173.002 29.542C172.882 29.206 172.822 28.831 172.822 28.417V23.593H172.03C171.886 23.593 171.763 23.548 171.661 23.458C171.559 23.362 171.508 23.224 171.508 23.044V21.955L172.993 21.667L173.542 19.39C173.614 19.102 173.818 18.958 174.154 18.958H175.612V21.685H177.925V23.593H175.612V28.228C175.612 28.444 175.663 28.624 175.765 28.768C175.873 28.906 176.026 28.975 176.224 28.975C176.326 28.975 176.41 28.966 176.476 28.948C176.548 28.924 176.608 28.9 176.656 28.876C176.71 28.846 176.758 28.822 176.8 28.804C176.848 28.78 176.902 28.768 176.962 28.768C177.046 28.768 177.112 28.789 177.16 28.831C177.214 28.867 177.268 28.927 177.322 29.011L178.168 30.334C177.808 30.604 177.403 30.808 176.953 30.946C176.503 31.078 176.038 31.144 175.558 31.144ZM184.845 25.213C184.845 24.991 184.815 24.775 184.755 24.565C184.701 24.355 184.608 24.169 184.476 24.007C184.35 23.839 184.182 23.704 183.972 23.602C183.762 23.5 183.507 23.449 183.207 23.449C182.679 23.449 182.265 23.602 181.965 23.908C181.665 24.208 181.467 24.643 181.371 25.213H184.845ZM181.335 26.833C181.425 27.613 181.662 28.18 182.046 28.534C182.43 28.882 182.925 29.056 183.531 29.056C183.855 29.056 184.134 29.017 184.368 28.939C184.602 28.861 184.809 28.774 184.989 28.678C185.175 28.582 185.343 28.495 185.493 28.417C185.649 28.339 185.811 28.3 185.979 28.3C186.201 28.3 186.369 28.381 186.483 28.543L187.293 29.542C187.005 29.872 186.693 30.142 186.357 30.352C186.027 30.556 185.685 30.718 185.331 30.838C184.983 30.952 184.632 31.03 184.278 31.072C183.93 31.12 183.597 31.144 183.279 31.144C182.625 31.144 182.01 31.039 181.434 30.829C180.864 30.613 180.363 30.295 179.931 29.875C179.505 29.455 179.166 28.933 178.914 28.309C178.668 27.685 178.545 26.959 178.545 26.131C178.545 25.507 178.65 24.916 178.86 24.358C179.076 23.8 179.382 23.311 179.778 22.891C180.18 22.471 180.663 22.138 181.227 21.892C181.797 21.646 182.439 21.523 183.153 21.523C183.771 21.523 184.335 21.619 184.845 21.811C185.361 22.003 185.802 22.282 186.168 22.648C186.54 23.014 186.828 23.464 187.032 23.998C187.242 24.526 187.347 25.126 187.347 25.798C187.347 26.008 187.338 26.179 187.32 26.311C187.302 26.443 187.269 26.548 187.221 26.626C187.173 26.704 187.107 26.758 187.023 26.788C186.945 26.818 186.843 26.833 186.717 26.833H181.335ZM188.743 31V21.667H190.471C190.819 21.667 191.047 21.823 191.155 22.135L191.308 22.639C191.464 22.477 191.626 22.33 191.794 22.198C191.962 22.06 192.142 21.943 192.334 21.847C192.532 21.745 192.742 21.667 192.964 21.613C193.192 21.553 193.441 21.523 193.711 21.523C194.275 21.523 194.74 21.67 195.106 21.964C195.478 22.252 195.76 22.639 195.952 23.125C196.108 22.837 196.297 22.591 196.519 22.387C196.747 22.183 196.99 22.018 197.248 21.892C197.512 21.766 197.788 21.673 198.076 21.613C198.37 21.553 198.661 21.523 198.949 21.523C199.483 21.523 199.957 21.604 200.371 21.766C200.785 21.922 201.13 22.153 201.406 22.459C201.688 22.759 201.901 23.131 202.045 23.575C202.189 24.013 202.261 24.511 202.261 25.069V31H199.471V25.069C199.471 24.103 199.057 23.62 198.229 23.62C197.851 23.62 197.536 23.746 197.284 23.998C197.038 24.244 196.915 24.601 196.915 25.069V31H194.125V25.069C194.125 24.535 194.02 24.16 193.81 23.944C193.6 23.728 193.291 23.62 192.883 23.62C192.631 23.62 192.391 23.677 192.163 23.791C191.941 23.905 191.731 24.058 191.533 24.25V31H188.743Z" fill="white"/>
</svg>
