<svg width="60" height="60" viewBox="0 0 29 30" fill="#1E0D61" xmlns="http://www.w3.org/2000/svg">
<path fill-rule="evenodd" clip-rule="evenodd" d="M28.3974 15C28.3974 22.8417 22.0404 29.1987 14.1987 29.1987C6.35697 29.1987 0 22.8417 0 15C0 7.15824 6.35697 0.80127 14.1987 0.80127C22.0404 0.80127 28.3974 7.15824 28.3974 15ZM12.5514 7.08852L10.7108 6.75787H10.7101C10.0267 6.6352 9.3235 6.79415 8.75513 7.19977C8.18676 7.60539 7.79976 8.22446 7.67923 8.92082L5.92758 19.0499C5.89301 19.2488 5.93739 19.4536 6.05095 19.6192C6.16451 19.7848 6.33795 19.8976 6.53315 19.9329L9.47874 20.4616C9.86925 20.5318 10.2711 20.4411 10.596 20.2093C10.9208 19.9776 11.142 19.6238 11.211 19.2259L13.1577 7.97153C13.1748 7.87298 13.1727 7.77196 13.1515 7.67424C13.1303 7.57652 13.0904 7.48402 13.0341 7.40202C12.9778 7.32002 12.9062 7.25012 12.8234 7.19633C12.7405 7.14254 12.6481 7.10591 12.5514 7.08852ZM21.8629 10.3097L15.9732 9.25071C15.7798 9.21596 15.5816 9.22038 15.3899 9.26372C15.1981 9.30706 15.0166 9.38846 14.8558 9.50329C14.6949 9.61812 14.5578 9.76411 14.4524 9.93294C14.3469 10.1018 14.2751 10.2901 14.241 10.4872L12.2935 21.7408C12.2763 21.8395 12.2783 21.9406 12.2996 22.0385C12.3208 22.1363 12.3607 22.229 12.4171 22.311C12.4735 22.3931 12.5452 22.4631 12.6282 22.5169C12.7111 22.5707 12.8037 22.6073 12.9006 22.6246L16.2132 23.2188C16.745 23.3145 17.2901 23.3024 17.8173 23.1833C18.3445 23.0643 18.8435 22.8406 19.2859 22.525C19.7282 22.2094 20.1052 21.808 20.3954 21.344C20.6856 20.8799 20.8832 20.3621 20.977 19.8201L22.47 11.192C22.487 11.0934 22.4848 10.9924 22.4634 10.8947C22.4421 10.7971 22.4021 10.7046 22.3458 10.6227C22.2894 10.5408 22.2177 10.471 22.1349 10.4173C22.0521 10.3636 21.9596 10.327 21.8629 10.3097Z" fill="#1E0D61"/>
</svg>
