<svg width="1584" height="387" viewBox="0 0 1584 387" fill="none" xmlns="http://www.w3.org/2000/svg">
<g filter="url(#filter0_d)">
<rect x="8" y="6" width="1568" height="88" rx="8" fill="white"/>
</g>
<g filter="url(#filter1_d)">
<rect x="82" y="30" width="299" height="40" rx="8" fill="white"/>
</g>
<path d="M359 48L364 53L369 48" stroke="#606060" stroke-width="2" stroke-linecap="round" stroke-linejoin="round"/>
<path d="M41.31 50.294H35.528V48.684H41.31V50.294ZM42.752 45.926H41.31V47.522H35.528V45.926H34.086V51.456H42.752V45.926ZM44.166 52.828H32.7V53.99H37.67V58.092H39.112V53.99H44.166V52.828ZM54.1469 49.412H48.4489V47.144H54.1469V49.412ZM55.5609 45.996H47.0349V50.56H55.5609V45.996ZM48.4209 54.186H46.9789V57.84H55.7709V56.664H48.4209V54.186ZM45.5789 51.806V52.968H50.7029V55.334H52.1449V52.968H57.0449V51.806H45.5789Z" fill="black"/>
<rect x="1462" y="30" width="90" height="40" rx="8" fill="#6670CB"/>
<path d="M1495.63 45.276V46.214H1500.09C1499.85 48.342 1497.99 49.98 1495 50.834L1495.48 51.73C1499.08 50.708 1501.3 48.454 1501.3 45.276H1495.63ZM1498.22 53.088H1504.08V55.93H1498.22V53.088ZM1497.09 56.854H1505.21V52.178H1497.09V56.854ZM1504.05 44.478V47.712H1501.32V48.65H1504.05V51.646H1505.21V44.478H1504.05ZM1514.03 50.428C1512.4 49.784 1511.48 48.328 1511.48 46.914V45.22H1510.37V46.914C1510.37 48.342 1509.39 49.994 1507.76 50.736L1508.37 51.618C1509.59 51.072 1510.49 50.008 1510.93 48.818C1511.38 49.896 1512.25 50.82 1513.41 51.296L1514.03 50.428ZM1509.9 53.69H1517.19V57.036H1518.34V52.766H1509.9V53.69ZM1517.23 44.492V47.754H1515.64V44.702H1514.55V51.996H1515.64V48.692H1517.23V52.08H1518.34V44.492H1517.23Z" fill="white"/>
<path d="M950.792 49.56C952.85 49.322 954.726 48.412 955.426 47.04C956.126 48.412 958.002 49.322 960.074 49.56L960.48 48.65C958.282 48.426 956.266 47.362 956.168 45.976H960.074V45.052H950.792V45.976H954.684C954.586 47.362 952.584 48.426 950.372 48.65L950.792 49.56ZM955.412 56.14C953.424 56.14 952.276 55.678 952.276 54.852C952.276 54.04 953.424 53.578 955.412 53.578C957.386 53.578 958.548 54.04 958.548 54.852C958.548 55.678 957.386 56.14 955.412 56.14ZM955.412 52.696C952.724 52.696 951.114 53.466 951.114 54.852C951.114 56.252 952.724 57.022 955.412 57.022C958.1 57.022 959.71 56.252 959.71 54.852C959.71 53.466 958.1 52.696 955.412 52.696ZM955.986 50.736V48.93H954.838V50.736H949.742V51.66H961.096V50.736H955.986ZM966.933 52.164H969.803V54.544H966.933V52.164ZM970.937 54.544V52.164H972.897V51.226H965.169V49.21H972.603V45.402H964.007V46.34H971.483V48.286H964.035V52.164H965.799V54.544H962.607V55.482H974.017V54.544H970.937ZM982.556 47.824V48.762H984.67V50.456H982.556V51.394H984.67V54.054H985.832V44.492H984.67V47.824H982.556ZM982.556 46.018H979.672V44.464H978.524V46.018H975.528V46.942H982.556V46.018ZM977.334 50.022C977.334 49.14 978.048 48.538 979.084 48.538C980.12 48.538 980.834 49.14 980.834 50.022C980.834 50.918 980.12 51.534 979.084 51.534C978.048 51.534 977.334 50.918 977.334 50.022ZM981.926 50.022C981.926 48.594 980.75 47.642 979.084 47.642C977.418 47.642 976.242 48.594 976.242 50.022C976.242 51.464 977.418 52.43 979.084 52.43C980.75 52.43 981.926 51.464 981.926 50.022ZM978.916 55.818V53.242H977.768V56.756H986.126V55.818H978.916ZM995.659 50.554C993.811 49.938 992.621 48.468 992.621 46.83V46.34H995.393V45.416H988.659V46.34H991.473V46.83C991.473 48.636 990.213 50.26 988.323 50.918L988.911 51.828C990.409 51.296 991.543 50.176 992.075 48.748C992.607 49.994 993.685 50.988 995.113 51.45L995.659 50.554ZM994.133 56.112C992.257 56.112 991.137 55.594 991.137 54.698C991.137 53.816 992.257 53.298 994.133 53.298C995.981 53.298 997.115 53.816 997.115 54.698C997.115 55.594 995.981 56.112 994.133 56.112ZM994.133 52.388C991.557 52.388 989.989 53.242 989.989 54.698C989.989 56.168 991.557 57.022 994.133 57.022C996.681 57.022 998.263 56.168 998.263 54.698C998.263 53.242 996.681 52.388 994.133 52.388ZM998.123 47.656V44.492H996.975V52.066H998.123V48.622H999.985V47.656H998.123ZM1008.49 46.606H1011.61V50.722H1008.49V46.606ZM1010.63 54.53V51.646H1014.68V50.722H1012.76V46.606H1014.71V45.682H1005.4V46.606H1007.34V50.722H1005.42V51.646H1009.47V54.53H1004.39V55.468H1015.77V54.53H1010.63ZM1024.72 45.808H1021.58V44.366H1020.43V45.808H1017.31V46.732H1024.72V45.808ZM1019.1 49.602C1019.1 48.776 1019.86 48.23 1021.01 48.23C1022.15 48.23 1022.92 48.776 1022.92 49.602C1022.92 50.428 1022.15 50.974 1021.01 50.974C1019.86 50.974 1019.1 50.428 1019.1 49.602ZM1024.02 49.602C1024.02 48.23 1022.8 47.362 1021.01 47.362C1019.21 47.362 1018.01 48.23 1018.01 49.602C1018.01 50.96 1019.21 51.828 1021.01 51.828C1022.8 51.828 1024.02 50.96 1024.02 49.602ZM1020.25 53.662H1025.88V55.944H1020.25V53.662ZM1019.13 56.868H1027.01V52.752H1019.13V56.868ZM1028.87 47.824H1027.01V44.492H1025.86V52.038H1027.01V48.776H1028.87V47.824Z" fill="black"/>
<rect x="926" y="42" width="15" height="15" rx="2" stroke="#606060" stroke-width="2" stroke-linecap="round" stroke-linejoin="round"/>
<g filter="url(#filter2_d)">
<rect x="495" y="30" width="280" height="40" rx="8" fill="white"/>
</g>
<path d="M462.744 54.082H464.186V44.436H462.744V47.698H460.812V48.874H462.744V50.386H460.812V51.548H462.744V54.082ZM460.756 45.878H458.026V44.422H456.584V45.878H453.742V47.026H460.756V45.878ZM455.758 50.064C455.758 49.252 456.388 48.734 457.298 48.734C458.222 48.734 458.852 49.252 458.852 50.064C458.852 50.89 458.222 51.38 457.298 51.38C456.388 51.38 455.758 50.89 455.758 50.064ZM460.21 50.064C460.21 48.594 459.02 47.614 457.298 47.614C455.59 47.614 454.4 48.594 454.4 50.064C454.4 51.52 455.59 52.514 457.298 52.514C459.02 52.514 460.21 51.52 460.21 50.064ZM457.41 55.664V53.27H455.954V56.84H464.48V55.664H457.41ZM474.013 50.386C472.081 49.77 471.031 48.3 471.031 46.732V46.494H473.677V45.332H466.887V46.494H469.575V46.746C469.575 48.468 468.469 50.092 466.481 50.778L467.209 51.912C468.721 51.394 469.785 50.316 470.345 48.972C470.891 50.148 471.899 51.058 473.313 51.506L474.013 50.386ZM472.389 55.944C470.625 55.944 469.603 55.496 469.603 54.684C469.603 53.858 470.625 53.424 472.389 53.424C474.153 53.424 475.175 53.858 475.175 54.684C475.175 55.496 474.153 55.944 472.389 55.944ZM472.389 52.29C469.785 52.29 468.175 53.172 468.175 54.684C468.175 56.182 469.785 57.078 472.389 57.078C474.993 57.078 476.603 56.182 476.603 54.684C476.603 53.172 474.993 52.29 472.389 52.29ZM476.463 47.516V44.436H475.021V51.996H476.463V48.706H478.255V47.516H476.463Z" fill="black"/>
<g filter="url(#filter3_d)">
<rect x="785" y="30" width="90" height="40" rx="8" fill="white" stroke="#B3B3B3"/>
<path d="M812.236 50.386C810.43 49.77 809.198 48.202 809.198 46.508V45.122H808.05V46.41C808.05 48.328 806.832 50.036 804.928 50.722L805.53 51.632C807 51.072 808.12 49.924 808.638 48.454C809.198 49.742 810.276 50.778 811.634 51.282L812.236 50.386ZM810.738 56.126C808.876 56.126 807.742 55.608 807.742 54.74C807.742 53.858 808.876 53.34 810.738 53.34C812.586 53.34 813.72 53.858 813.72 54.74C813.72 55.608 812.586 56.126 810.738 56.126ZM810.738 52.444C808.176 52.444 806.594 53.27 806.594 54.74C806.594 56.196 808.176 57.022 810.738 57.022C813.286 57.022 814.868 56.196 814.868 54.74C814.868 53.27 813.286 52.444 810.738 52.444ZM814.728 47.726V44.492H813.58V52.094H814.728V48.678H816.59V47.726H814.728ZM821.587 45.668H820.481V48.062C820.481 50.218 819.445 52.472 817.723 53.48L818.437 54.334C819.683 53.564 820.593 52.15 821.041 50.484C821.489 52.01 822.329 53.34 823.519 54.068L824.177 53.172C822.525 52.164 821.587 50.036 821.587 48.02V45.668ZM824.891 48.986H822.819V49.938H824.891V56.42H825.969V44.758H824.891V48.986ZM827.439 44.478V57.036H828.531V44.478H827.439ZM831.512 45.276V46.214H835.964C835.726 48.342 833.864 49.98 830.882 50.834L831.358 51.73C834.956 50.708 837.182 48.454 837.182 45.276H831.512ZM834.102 53.088H839.954V55.93H834.102V53.088ZM832.968 56.854H841.088V52.178H832.968V56.854ZM839.926 44.478V47.712H837.196V48.65H839.926V51.646H841.088V44.478H839.926ZM849.907 50.428C848.283 49.784 847.359 48.328 847.359 46.914V45.22H846.253V46.914C846.253 48.342 845.273 49.994 843.635 50.736L844.251 51.618C845.469 51.072 846.365 50.008 846.813 48.818C847.261 49.896 848.129 50.82 849.291 51.296L849.907 50.428ZM845.777 53.69H853.071V57.036H854.219V52.766H845.777V53.69ZM853.113 44.492V47.754H851.517V44.702H850.425V51.996H851.517V48.692H853.113V52.08H854.219V44.492H853.113Z" fill="#2C2C2C"/>
</g>
<g filter="url(#filter4_d)">
<rect x="1157" y="30" width="150" height="42" rx="8" fill="white"/>
</g>
<path d="M1169.62 56H1176.07V54.894H1173.23C1172.71 54.894 1172.08 54.95 1171.55 54.992C1173.96 52.71 1175.57 50.624 1175.57 48.58C1175.57 46.746 1174.42 45.542 1172.58 45.542C1171.28 45.542 1170.4 46.144 1169.56 47.054L1170.3 47.782C1170.86 47.11 1171.59 46.592 1172.43 46.592C1173.7 46.592 1174.32 47.446 1174.32 48.622C1174.32 50.386 1172.84 52.43 1169.62 55.244V56ZM1180.66 56.182C1182.6 56.182 1183.85 54.404 1183.85 50.834C1183.85 47.278 1182.6 45.542 1180.66 45.542C1178.7 45.542 1177.45 47.264 1177.45 50.834C1177.45 54.404 1178.7 56.182 1180.66 56.182ZM1180.66 55.16C1179.48 55.16 1178.7 53.858 1178.7 50.834C1178.7 47.838 1179.48 46.564 1180.66 46.564C1181.82 46.564 1182.6 47.838 1182.6 50.834C1182.6 53.858 1181.82 55.16 1180.66 55.16ZM1185.15 56H1191.6V54.894H1188.76C1188.24 54.894 1187.61 54.95 1187.08 54.992C1189.49 52.71 1191.1 50.624 1191.1 48.58C1191.1 46.746 1189.95 45.542 1188.12 45.542C1186.81 45.542 1185.93 46.144 1185.09 47.054L1185.83 47.782C1186.39 47.11 1187.12 46.592 1187.96 46.592C1189.24 46.592 1189.85 47.446 1189.85 48.622C1189.85 50.386 1188.37 52.43 1185.15 55.244V56ZM1196.19 56.182C1198.13 56.182 1199.38 54.404 1199.38 50.834C1199.38 47.278 1198.13 45.542 1196.19 45.542C1194.23 45.542 1192.98 47.264 1192.98 50.834C1192.98 54.404 1194.23 56.182 1196.19 56.182ZM1196.19 55.16C1195.01 55.16 1194.23 53.858 1194.23 50.834C1194.23 47.838 1195.01 46.564 1196.19 46.564C1197.35 46.564 1198.13 47.838 1198.13 50.834C1198.13 53.858 1197.35 55.16 1196.19 55.16ZM1203.95 56.182C1205.9 56.182 1207.15 54.404 1207.15 50.834C1207.15 47.278 1205.9 45.542 1203.95 45.542C1201.99 45.542 1200.75 47.264 1200.75 50.834C1200.75 54.404 1201.99 56.182 1203.95 56.182ZM1203.95 55.16C1202.78 55.16 1201.99 53.858 1201.99 50.834C1201.99 47.838 1202.78 46.564 1203.95 46.564C1205.12 46.564 1205.9 47.838 1205.9 50.834C1205.9 53.858 1205.12 55.16 1203.95 55.16ZM1209.65 48.874C1209.65 47.474 1210.4 46.55 1211.38 46.55C1212.7 46.55 1213.48 47.67 1213.62 49.784C1212.97 50.75 1212.18 51.156 1211.48 51.156C1210.26 51.156 1209.65 50.26 1209.65 48.874ZM1211.1 56.182C1213.04 56.182 1214.83 54.586 1214.83 50.428C1214.83 47.166 1213.36 45.542 1211.38 45.542C1209.79 45.542 1208.44 46.886 1208.44 48.874C1208.44 51.002 1209.56 52.108 1211.27 52.108C1212.13 52.108 1213.01 51.618 1213.64 50.848C1213.54 54.026 1212.39 55.118 1211.06 55.118C1210.4 55.118 1209.77 54.824 1209.35 54.334L1208.64 55.132C1209.21 55.734 1210 56.182 1211.1 56.182ZM1219.49 56.182C1221.43 56.182 1222.68 54.404 1222.68 50.834C1222.68 47.278 1221.43 45.542 1219.49 45.542C1217.53 45.542 1216.28 47.264 1216.28 50.834C1216.28 54.404 1217.53 56.182 1219.49 56.182ZM1219.49 55.16C1218.31 55.16 1217.53 53.858 1217.53 50.834C1217.53 47.838 1218.31 46.564 1219.49 46.564C1220.65 46.564 1221.43 47.838 1221.43 50.834C1221.43 53.858 1220.65 55.16 1219.49 55.16ZM1225.18 48.874C1225.18 47.474 1225.94 46.55 1226.92 46.55C1228.23 46.55 1229.02 47.67 1229.16 49.784C1228.5 50.75 1227.71 51.156 1227.01 51.156C1225.8 51.156 1225.18 50.26 1225.18 48.874ZM1226.64 56.182C1228.57 56.182 1230.36 54.586 1230.36 50.428C1230.36 47.166 1228.89 45.542 1226.92 45.542C1225.32 45.542 1223.98 46.886 1223.98 48.874C1223.98 51.002 1225.1 52.108 1226.8 52.108C1227.66 52.108 1228.54 51.618 1229.17 50.848C1229.07 54.026 1227.92 55.118 1226.59 55.118C1225.94 55.118 1225.31 54.824 1224.89 54.334L1224.17 55.132C1224.75 55.734 1225.53 56.182 1226.64 56.182Z" fill="#2C2C2C"/>
<path d="M1103.79 46.766V47.942H1108.3C1108.05 50.854 1106.48 53.08 1103.16 54.676L1103.93 55.824C1108.27 53.724 1109.78 50.532 1109.78 46.766H1103.79ZM1112.07 45.436V58.078H1113.51V45.436H1112.07ZM1117.1 51.078C1119.29 50.798 1120.98 49.79 1121.65 48.39C1122.34 49.79 1124.05 50.798 1126.25 51.078L1126.78 49.93C1124.41 49.65 1122.75 48.474 1122.63 47.186H1126.34V46.024H1117.01V47.186H1120.69C1120.58 48.474 1118.94 49.65 1116.56 49.93L1117.1 51.078ZM1118.78 54.228H1117.34V57.84H1126.13V56.664H1118.78V54.228ZM1115.94 51.848V53.01H1121.07V55.39H1122.51V53.01H1127.41V51.848H1115.94ZM1139.25 45.422H1137.81V51.848H1139.25V45.422ZM1130.47 48.698C1130.47 47.69 1131.29 47.032 1132.38 47.032C1133.48 47.032 1134.31 47.69 1134.31 48.698C1134.31 49.706 1133.48 50.364 1132.38 50.364C1131.29 50.364 1130.47 49.706 1130.47 48.698ZM1135.71 48.698C1135.71 47.032 1134.3 45.842 1132.38 45.842C1130.47 45.842 1129.07 47.032 1129.07 48.698C1129.07 50.364 1130.47 51.54 1132.38 51.54C1134.3 51.54 1135.71 50.364 1135.71 48.698ZM1132.41 56.79V55.67H1139.25V52.422H1130.96V53.556H1137.82V54.606H1130.99V57.924H1139.63V56.79H1132.41Z" fill="black"/>
<path d="M1280 49H1278V51H1280V49ZM1284 49H1282V51H1284V49ZM1288 49H1286V51H1288V49ZM1290 42H1289V40H1287V42H1279V40H1277V42H1276C1274.89 42 1274.01 42.9 1274.01 44L1274 58C1274 59.1 1274.89 60 1276 60H1290C1291.1 60 1292 59.1 1292 58V44C1292 42.9 1291.1 42 1290 42ZM1290 58H1276V47H1290V58Z" fill="#757575"/>
<rect x="8.5" y="182.5" width="450" height="102" fill="#F9F9F9" stroke="#CDCDCD"/>
<path d="M458.5 182.5H1575.5V284.5H458.5V182.5Z" fill="#F9F9F9" stroke="#CDCDCD"/>
<rect x="8.5" y="284.5" width="1567" height="51" fill="white" stroke="#CDCDCD"/>
<rect x="8.5" y="335.5" width="1567" height="51" fill="white" stroke="#CDCDCD"/>
<path d="M223.716 237.138H225.564V227.31H223.716V230.516H222.036V231.986H223.716V233.274H222.036V234.744H223.716V237.138ZM221.896 228.668H219.376V227.268H217.528V228.668H214.826V230.11H221.896V228.668ZM217.164 233.092C217.164 232.392 217.696 231.986 218.452 231.986C219.194 231.986 219.726 232.392 219.726 233.092C219.726 233.82 219.194 234.212 218.452 234.212C217.696 234.212 217.164 233.82 217.164 233.092ZM221.462 233.092C221.462 231.608 220.202 230.572 218.452 230.572C216.688 230.572 215.428 231.608 215.428 233.092C215.428 234.59 216.688 235.64 218.452 235.64C220.202 235.64 221.462 234.59 221.462 233.092ZM218.9 238.51V236.34H217.052V239.98H225.844V238.51H218.9ZM235.349 233.162C233.319 232.56 232.437 231.118 232.409 229.648H234.929V228.164H227.957V229.648H230.519C230.491 231.258 229.567 232.896 227.481 233.596L228.405 235.038C229.917 234.548 230.939 233.526 231.513 232.252C232.073 233.316 233.053 234.17 234.467 234.59L235.349 233.162ZM233.599 238.79C231.947 238.79 231.065 238.44 231.065 237.712C231.065 236.97 231.947 236.62 233.599 236.62C235.237 236.62 236.119 236.97 236.119 237.712C236.119 238.44 235.237 238.79 233.599 238.79ZM233.599 235.192C230.911 235.192 229.231 236.13 229.231 237.712C229.231 239.28 230.911 240.204 233.599 240.204C236.273 240.204 237.953 239.28 237.953 237.712C237.953 236.13 236.273 235.192 233.599 235.192ZM237.813 230.278V227.31H235.965V234.968H237.813V231.79H239.521V230.278H237.813ZM245.343 232.714H242.893V229.704H245.343V232.714ZM249.473 230.642V231.748H247.149V230.642H249.473ZM247.149 233.218H249.473V234.87H251.321V227.31H249.473V229.172H247.149V228.234H241.073V234.17H247.149V233.218ZM246.953 238.79C245.273 238.79 244.391 238.44 244.391 237.698C244.391 236.956 245.273 236.606 246.953 236.606C248.647 236.606 249.529 236.956 249.529 237.698C249.529 238.44 248.647 238.79 246.953 238.79ZM246.953 235.192C244.223 235.192 242.543 236.116 242.543 237.698C242.543 239.28 244.223 240.204 246.953 240.204C249.697 240.204 251.377 239.28 251.377 237.698C251.377 236.116 249.697 235.192 246.953 235.192Z" fill="#2C2C2C"/>
<path d="M892.455 203.36H889.725V202.254H887.877V203.36H885.133V204.676H892.455V203.36ZM887.401 207.014C887.401 206.51 887.933 206.244 888.801 206.244C889.669 206.244 890.187 206.51 890.187 207.014C890.187 207.504 889.669 207.77 888.801 207.77C887.933 207.77 887.401 207.504 887.401 207.014ZM892.777 209.296C891.797 209.436 890.775 209.52 889.725 209.59V208.932C891.083 208.722 891.937 208.022 891.937 207.014C891.937 205.768 890.691 205.012 888.801 205.012C886.897 205.012 885.651 205.768 885.651 207.014C885.651 208.022 886.505 208.722 887.877 208.932V209.674C886.771 209.716 885.721 209.716 884.811 209.716L885.007 211.13C887.205 211.116 890.243 211.06 892.917 210.556L892.777 209.296ZM888.451 211.746H886.603V214.98H895.619V213.51H888.451V211.746ZM895.185 206.524V202.296H893.337V212.376H895.185V208.036H896.809V206.524H895.185ZM906.776 205.824V207.014H903.934V208.498H906.776V209.73H908.624V202.31H906.776V204.354H904.466C904.522 203.976 904.55 203.584 904.55 203.178H898.642V204.662H902.534C902.296 206.412 900.882 207.798 897.942 208.582L898.656 210.038C901.498 209.24 903.304 207.854 904.102 205.824H906.776ZM904.368 213.706C902.772 213.706 901.834 213.3 901.834 212.516C901.834 211.732 902.772 211.326 904.368 211.326C905.95 211.326 906.888 211.732 906.888 212.516C906.888 213.3 905.95 213.706 904.368 213.706ZM904.368 209.898C901.736 209.898 900.014 210.906 900.014 212.516C900.014 214.126 901.736 215.134 904.368 215.134C906.986 215.134 908.708 214.126 908.708 212.516C908.708 210.906 906.986 209.898 904.368 209.898ZM920.901 210.626C921.335 208.022 921.335 206.244 921.335 204.662V203.416H911.857V204.886H919.487C919.487 206.37 919.473 208.106 919.053 210.444L920.901 210.626ZM918.171 212.166V208.092H916.365V212.166H914.993V208.092H913.173V212.166H910.723V213.65H922.399V212.166H918.171ZM929.426 203.99C931.19 203.99 932.198 204.368 932.198 205.096C932.198 205.852 931.19 206.216 929.426 206.216C927.676 206.216 926.668 205.852 926.668 205.096C926.668 204.368 927.676 203.99 929.426 203.99ZM929.426 207.644C932.268 207.644 934.102 206.678 934.102 205.096C934.102 203.542 932.268 202.576 929.426 202.576C926.598 202.576 924.764 203.542 924.764 205.096C924.764 206.678 926.598 207.644 929.426 207.644ZM930.644 210.976H928.194V209.786H930.644V210.976ZM935.25 209.786V208.316H923.602V209.786H926.346V210.976H924.89V212.418H932.002V215.218H933.85V210.976H932.478V209.786H935.25ZM945.413 212.138H947.261V202.31H945.413V205.516H943.733V206.986H945.413V208.274H943.733V209.744H945.413V212.138ZM943.593 203.668H941.073V202.268H939.225V203.668H936.523V205.11H943.593V203.668ZM938.861 208.092C938.861 207.392 939.393 206.986 940.149 206.986C940.891 206.986 941.423 207.392 941.423 208.092C941.423 208.82 940.891 209.212 940.149 209.212C939.393 209.212 938.861 208.82 938.861 208.092ZM943.159 208.092C943.159 206.608 941.899 205.572 940.149 205.572C938.385 205.572 937.125 206.608 937.125 208.092C937.125 209.59 938.385 210.64 940.149 210.64C941.899 210.64 943.159 209.59 943.159 208.092ZM940.597 213.51V211.34H938.749V214.98H947.541V213.51H940.597ZM956.85 203.234H954.12V202.212H952.272V203.234H949.528V204.564H956.85V203.234ZM951.796 206.734C951.796 206.3 952.314 206.076 953.196 206.076C954.078 206.076 954.582 206.3 954.582 206.734C954.582 207.168 954.078 207.378 953.196 207.378C952.314 207.378 951.796 207.168 951.796 206.734ZM957.172 208.932C956.192 209.058 955.17 209.128 954.12 209.184V208.512C955.492 208.316 956.332 207.672 956.332 206.734C956.332 205.572 955.1 204.886 953.196 204.886C951.278 204.886 950.046 205.572 950.046 206.734C950.046 207.686 950.886 208.316 952.272 208.526V209.254C951.166 209.282 950.13 209.282 949.206 209.282L949.402 210.682C951.656 210.682 954.61 210.654 957.298 210.164L957.172 208.932ZM955.254 213.888C953.518 213.888 952.734 213.678 952.734 213.188C952.734 212.698 953.518 212.474 955.268 212.474C957.018 212.474 957.802 212.698 957.802 213.188C957.802 213.678 957.018 213.888 955.254 213.888ZM955.268 211.144C952.496 211.144 950.872 211.858 950.872 213.188C950.872 214.518 952.496 215.218 955.268 215.218C958.04 215.218 959.664 214.518 959.664 213.188C959.664 211.858 958.04 211.144 955.268 211.144ZM959.58 205.964V202.31H957.732V211.004H959.58V207.49H961.204V205.964H959.58Z" fill="#2C2C2C"/>
<path d="M1472.79 232.566H1478.31V234.372H1472.79V232.566ZM1476.47 238.208V235.842H1480.13V229.108H1478.31V231.11H1472.79V229.108H1470.96V235.842H1474.62V238.208H1469.72V239.706H1481.4V238.208H1476.47ZM1483.32 229.64V231.11H1487.61C1487.35 233.966 1485.92 235.982 1482.63 237.564L1483.6 239.02C1488.17 236.808 1489.5 233.588 1489.5 229.64H1483.32ZM1491.48 228.296V241.19H1493.34V228.296H1491.48Z" fill="#2C2C2C"/>
<path d="M523.143 261.626C523.577 259.022 523.577 257.244 523.577 255.662V254.416H514.099V255.886H521.729C521.729 257.37 521.715 259.106 521.295 261.444L523.143 261.626ZM520.413 263.166V259.092H518.607V263.166H517.235V259.092H515.415V263.166H512.965V264.65H524.641V263.166H520.413ZM531.668 254.99C533.432 254.99 534.44 255.368 534.44 256.096C534.44 256.852 533.432 257.216 531.668 257.216C529.918 257.216 528.91 256.852 528.91 256.096C528.91 255.368 529.918 254.99 531.668 254.99ZM531.668 258.644C534.51 258.644 536.344 257.678 536.344 256.096C536.344 254.542 534.51 253.576 531.668 253.576C528.84 253.576 527.006 254.542 527.006 256.096C527.006 257.678 528.84 258.644 531.668 258.644ZM532.886 261.976H530.436V260.786H532.886V261.976ZM537.492 260.786V259.316H525.844V260.786H528.588V261.976H527.132V263.418H534.244V266.218H536.092V261.976H534.72V260.786H537.492ZM547.557 253.296V266.232H549.405V253.296H547.557ZM542.475 254.206C540.529 254.206 539.087 255.97 539.087 258.798C539.087 261.64 540.529 263.418 542.475 263.418C544.421 263.418 545.863 261.64 545.863 258.798C545.863 255.97 544.421 254.206 542.475 254.206ZM542.475 255.872C543.427 255.872 544.085 256.894 544.085 258.798C544.085 260.716 543.427 261.738 542.475 261.738C541.523 261.738 540.865 260.716 540.865 258.798C540.865 256.894 541.523 255.872 542.475 255.872ZM559.89 257.986H560.842V261.374H562.592V253.31H560.842V256.488H559.89V253.548H558.168V260.968H559.89V257.986ZM557.804 254.626H555.578V253.45H553.758V254.626H551.532V256.054H557.804V254.626ZM553.548 258.714C553.548 258.112 554.01 257.79 554.696 257.79C555.382 257.79 555.83 258.112 555.83 258.714C555.83 259.316 555.382 259.652 554.696 259.652C554.01 259.652 553.548 259.316 553.548 258.714ZM557.468 258.714C557.468 257.384 556.32 256.474 554.696 256.474C553.058 256.474 551.91 257.384 551.91 258.714C551.91 260.044 553.058 260.968 554.696 260.968C556.32 260.968 557.468 260.044 557.468 258.714ZM558.224 264.832C556.502 264.832 555.634 264.538 555.634 263.866C555.634 263.194 556.502 262.9 558.224 262.9C559.946 262.9 560.814 263.194 560.814 263.866C560.814 264.538 559.946 264.832 558.224 264.832ZM558.224 261.514C555.452 261.514 553.786 262.368 553.786 263.866C553.786 265.364 555.452 266.204 558.224 266.204C560.996 266.204 562.662 265.364 562.662 263.866C562.662 262.368 560.996 261.514 558.224 261.514ZM571.257 259.946C571.313 259.596 571.341 259.204 571.341 258.798C571.341 258.308 571.299 257.846 571.215 257.426H573.455V259.946H571.257ZM568.009 261.738C567.071 261.738 566.427 260.716 566.427 258.798C566.427 256.894 567.071 255.872 568.009 255.872C568.961 255.872 569.605 256.894 569.605 258.798C569.605 260.716 568.961 261.738 568.009 261.738ZM573.455 253.296V255.942H570.711C570.137 254.836 569.171 254.206 568.009 254.206C566.091 254.206 564.677 255.97 564.677 258.798C564.677 261.64 566.091 263.418 568.009 263.418C569.255 263.432 570.249 262.704 570.823 261.444H573.455V266.232H575.303V253.296H573.455ZM585.83 258.042H580.524V256.712H585.83V258.042ZM587.65 253.8H585.83V255.27H580.524V253.8H578.69V259.512H587.65V253.8ZM589.036 260.73H577.36V262.2H582.232V266.218H584.08V262.2H589.036V260.73Z" fill="#2C2C2C"/>
<path d="M716.083 261.626C716.517 259.022 716.517 257.244 716.517 255.662V254.416H707.039V255.886H714.669C714.669 257.37 714.655 259.106 714.235 261.444L716.083 261.626ZM713.353 263.166V259.092H711.547V263.166H710.175V259.092H708.355V263.166H705.905V264.65H717.581V263.166H713.353ZM724.608 254.99C726.372 254.99 727.38 255.368 727.38 256.096C727.38 256.852 726.372 257.216 724.608 257.216C722.858 257.216 721.85 256.852 721.85 256.096C721.85 255.368 722.858 254.99 724.608 254.99ZM724.608 258.644C727.45 258.644 729.284 257.678 729.284 256.096C729.284 254.542 727.45 253.576 724.608 253.576C721.78 253.576 719.946 254.542 719.946 256.096C719.946 257.678 721.78 258.644 724.608 258.644ZM725.826 261.976H723.376V260.786H725.826V261.976ZM730.432 260.786V259.316H718.784V260.786H721.528V261.976H720.072V263.418H727.184V266.218H729.032V261.976H727.66V260.786H730.432ZM739.377 259.134C737.347 258.602 736.451 257.314 736.395 256.04H738.943V254.584H736.395V253.268H734.547V254.584H732.027V256.04H734.547C734.505 257.44 733.581 258.798 731.565 259.358L732.419 260.786C733.917 260.366 734.939 259.484 735.499 258.35C736.087 259.386 737.081 260.184 738.537 260.562L739.377 259.134ZM735.247 262.844H740.007V264.608H735.247V262.844ZM733.427 266.05H741.813V261.402H733.427V266.05ZM743.521 256.334H741.813V253.31H739.965V260.856H741.813V257.846H743.521V256.334ZM752.241 259.148C750.211 258.476 749.357 256.908 749.357 255.298V253.968H747.481V255.186C747.481 256.936 746.599 258.644 744.457 259.344L745.423 260.8C746.879 260.296 747.873 259.302 748.433 258.056C748.979 259.19 749.903 260.1 751.275 260.576L752.241 259.148ZM746.529 263.026H753.473V266.218H755.321V261.57H746.529V263.026ZM753.473 253.31V255.718H751.121V257.216H753.473V260.982H755.321V253.31H753.473ZM762.152 256.068H764.714V254.542H757.63V256.068H760.304V256.782C760.304 258.91 759.254 261.332 757.14 262.312L758.176 263.782C759.646 263.082 760.682 261.668 761.256 259.988C761.83 261.514 762.838 262.802 764.266 263.46L765.288 262.004C763.174 261.024 762.152 258.742 762.152 256.782V256.068ZM769.39 258.224H767.514V253.31H765.666V266.204H767.514V259.75H769.39V258.224Z" fill="#2C2C2C"/>
<path d="M908.022 261.626C908.456 259.022 908.456 257.244 908.456 255.662V254.416H898.978V255.886H906.608C906.608 257.37 906.594 259.106 906.174 261.444L908.022 261.626ZM905.292 263.166V259.092H903.486V263.166H902.114V259.092H900.294V263.166H897.844V264.65H909.52V263.166H905.292ZM916.547 254.99C918.311 254.99 919.319 255.368 919.319 256.096C919.319 256.852 918.311 257.216 916.547 257.216C914.797 257.216 913.789 256.852 913.789 256.096C913.789 255.368 914.797 254.99 916.547 254.99ZM916.547 258.644C919.389 258.644 921.223 257.678 921.223 256.096C921.223 254.542 919.389 253.576 916.547 253.576C913.719 253.576 911.885 254.542 911.885 256.096C911.885 257.678 913.719 258.644 916.547 258.644ZM917.765 261.976H915.315V260.786H917.765V261.976ZM922.371 260.786V259.316H910.723V260.786H913.467V261.976H912.011V263.418H919.123V266.218H920.971V261.976H919.599V260.786H922.371ZM933.78 261.626C934.214 259.022 934.214 257.244 934.214 255.662V254.416H924.736V255.886H932.366C932.366 257.37 932.352 259.106 931.932 261.444L933.78 261.626ZM931.05 263.166V259.092H929.244V263.166H927.872V259.092H926.052V263.166H923.602V264.65H935.278V263.166H931.05ZM945.889 253.296V258.238H944.839V253.506H943.117V261.85C941.213 260.856 940.569 258.714 940.569 256.46V256.11H942.501V254.612H936.663V256.11H938.777V256.46C938.777 258.938 938.161 261.22 936.243 262.34L937.349 263.74C938.553 263.012 939.309 261.808 939.729 260.324C940.177 261.612 940.933 262.648 942.081 263.264L943.117 261.878V265.616H944.839V259.75H945.889V266.19H947.639V253.296H945.889Z" fill="#2C2C2C"/>
<path d="M176.018 304.506H174.87V312.948H176.018V304.506ZM173.568 305.556H170.46V304.366H169.312V305.556H166.232V306.41H173.568V305.556ZM167.996 308.692C167.996 308.062 168.752 307.67 169.886 307.67C171.048 307.67 171.79 308.062 171.79 308.692C171.79 309.308 171.048 309.7 169.886 309.7C168.752 309.7 167.996 309.308 167.996 308.692ZM173.876 311.072C172.784 311.226 171.622 311.324 170.46 311.38V310.47C171.944 310.344 172.882 309.686 172.882 308.692C172.882 307.558 171.692 306.872 169.886 306.872C168.108 306.872 166.918 307.558 166.918 308.692C166.918 309.686 167.842 310.33 169.312 310.47V311.436C168.052 311.478 166.848 311.478 165.798 311.478L165.966 312.36C168.206 312.36 171.216 312.318 173.932 311.87L173.876 311.072ZM171.93 316.168C169.984 316.168 168.906 315.79 168.906 315.09C168.906 314.39 169.984 313.998 171.916 313.998C173.848 313.998 174.94 314.39 174.94 315.09C174.94 315.79 173.862 316.168 171.93 316.168ZM171.93 313.144C169.284 313.144 167.758 313.83 167.758 315.09C167.758 316.35 169.284 317.022 171.93 317.022C174.562 317.022 176.088 316.35 176.088 315.09C176.088 313.83 174.562 313.144 171.93 313.144ZM187.805 311.912H188.967V304.492H187.805V307.152H185.075V308.09H187.805V311.912ZM185.985 310.428C184.151 309.784 182.933 308.23 182.933 306.438V305.192H181.785V306.48C181.785 308.398 180.539 310.078 178.607 310.764L179.209 311.702C180.721 311.128 181.855 309.994 182.387 308.51C182.933 309.812 183.997 310.806 185.369 311.324L185.985 310.428ZM184.823 316.112C182.933 316.112 181.785 315.566 181.785 314.656C181.785 313.732 182.933 313.186 184.823 313.186C186.713 313.186 187.861 313.732 187.861 314.656C187.861 315.566 186.713 316.112 184.823 316.112ZM184.823 312.29C182.247 312.29 180.637 313.144 180.637 314.656C180.637 316.154 182.247 317.022 184.823 317.022C187.399 317.022 189.009 316.154 189.009 314.656C189.009 313.144 187.399 312.29 184.823 312.29ZM191.402 312.57H194.986V311.59H191.402V312.57ZM198.565 308.594C198.565 307.152 200.035 306.214 202.037 306.214C204.039 306.214 205.495 307.152 205.495 308.594C205.495 310.036 204.039 310.974 202.037 310.974C200.035 310.974 198.565 310.036 198.565 308.594ZM202.611 314.474V311.856C204.949 311.688 206.587 310.442 206.587 308.594C206.587 306.592 204.683 305.304 202.037 305.304C199.377 305.304 197.459 306.592 197.459 308.594C197.459 310.442 199.111 311.688 201.449 311.856V314.474H196.339V315.426H207.749V314.474H202.611ZM218.416 311.912H219.578V304.492H218.416V307.152H215.686V308.09H218.416V311.912ZM216.596 310.428C214.762 309.784 213.544 308.23 213.544 306.438V305.192H212.396V306.48C212.396 308.398 211.15 310.078 209.218 310.764L209.82 311.702C211.332 311.128 212.466 309.994 212.998 308.51C213.544 309.812 214.608 310.806 215.98 311.324L216.596 310.428ZM215.434 316.112C213.544 316.112 212.396 315.566 212.396 314.656C212.396 313.732 213.544 313.186 215.434 313.186C217.324 313.186 218.472 313.732 218.472 314.656C218.472 315.566 217.324 316.112 215.434 316.112ZM215.434 312.29C212.858 312.29 211.248 313.144 211.248 314.656C211.248 316.154 212.858 317.022 215.434 317.022C218.01 317.022 219.62 316.154 219.62 314.656C219.62 313.144 218.01 312.29 215.434 312.29ZM231.5 314.502V311.282H235.322V310.358H227.832V306.424H235.196V305.486H226.684V311.282H230.338V314.502H225.228V315.454H236.638V314.502H231.5ZM244.379 314.544V312.178H248.397V311.254H240.669V309.224H248.103V305.402H239.507V306.34H246.983V308.3H239.535V312.178H243.217V314.544H238.107V315.482H249.517V314.544H244.379ZM257.468 308.356V309.294H260.184V313.76H261.346V304.492H260.184V308.356H257.468ZM251.826 305.458V306.396H256.292C256.04 308.65 254.066 310.442 251.196 311.394L251.686 312.318C255.242 311.142 257.524 308.692 257.524 305.458H251.826ZM254.556 315.818V312.822H253.408V316.756H261.668V315.818H254.556ZM273.063 310.974H274.225V304.492H273.063V306.76H270.333V307.698H273.063V310.974ZM271.215 309.812C269.409 309.21 268.135 307.684 268.135 306.046V304.884H267.001V306.046C267.001 307.866 265.755 309.448 263.865 310.092L264.467 311.002C265.937 310.456 267.071 309.364 267.603 307.95C268.149 309.224 269.241 310.218 270.627 310.708L271.215 309.812ZM267.295 315.958V314.614H274.225V311.604H266.133V312.514H273.091V313.746H266.161V316.868H274.701V315.958H267.295ZM285.536 306.186C285.536 307.166 285.536 308.09 285.2 309.378L286.32 309.504C286.67 308.216 286.67 307.194 286.67 306.186V305.122H278.116V306.046H285.536V306.186ZM282.386 316.126C280.426 316.126 279.166 315.594 279.166 314.726C279.166 313.83 280.426 313.298 282.386 313.298C284.36 313.298 285.62 313.83 285.62 314.726C285.62 315.594 284.36 316.126 282.386 316.126ZM282.386 312.416C279.712 312.416 278.018 313.27 278.018 314.726C278.018 316.154 279.712 317.022 282.386 317.022C285.06 317.022 286.768 316.154 286.768 314.726C286.768 313.27 285.06 312.416 282.386 312.416ZM282.568 310.33V307.922H281.42V310.33H276.786V311.254H288.084V310.33H282.568ZM293.851 305.57H292.717V307.824C292.717 310.106 291.289 312.514 289.483 313.438L290.169 314.362C291.583 313.606 292.745 312.038 293.291 310.204C293.865 311.926 294.999 313.396 296.329 314.11L297.043 313.2C295.279 312.318 293.851 310.036 293.851 307.824V305.57ZM301.369 309.574H299.297V304.492H298.149V317.036H299.297V310.526H301.369V309.574Z" fill="#2C2C2C"/>
<path d="M116.138 356.556H114.99V358.81C114.99 361.134 113.562 363.556 111.742 364.466L112.442 365.376C113.856 364.62 115.018 363.038 115.564 361.176C116.138 362.94 117.286 364.438 118.714 365.152L119.386 364.242C117.566 363.374 116.138 361.092 116.138 358.81V356.556ZM120.94 355.478V359.734H118.028V360.672H120.94V368.05H122.088V355.478H120.94ZM130.291 356.486C132.349 356.486 133.525 356.962 133.525 357.802C133.525 358.642 132.349 359.118 130.291 359.118C128.233 359.118 127.057 358.642 127.057 357.802C127.057 356.962 128.233 356.486 130.291 356.486ZM130.291 359.972C133.063 359.972 134.701 359.216 134.701 357.802C134.701 356.388 133.063 355.618 130.291 355.618C127.533 355.618 125.881 356.388 125.881 357.802C125.881 359.216 127.533 359.972 130.291 359.972ZM135.961 361.722V360.798H124.621V361.722H129.717V362.898H125.993V363.766H133.385V364.886H126.021V367.896H134.897V367H127.141V365.726H134.519V362.898H130.865V361.722H135.961ZM141.98 357.718H144.934V356.766H137.92V357.718H140.832V359.314C140.832 361.484 139.306 363.85 137.5 364.704L138.172 365.628C139.6 364.9 140.832 363.318 141.406 361.484C142.008 363.206 143.24 364.648 144.696 365.32L145.34 364.396C143.492 363.612 141.98 361.442 141.98 359.314V357.718ZM146.628 355.492V368.036H147.776V355.492H146.628ZM154.061 364.284C152.927 364.284 152.101 363.472 152.101 362.352C152.101 361.218 152.927 360.406 154.061 360.406C155.209 360.406 156.035 361.218 156.035 362.352C156.035 363.472 155.209 364.284 154.061 364.284ZM154.061 359.454C152.297 359.454 151.023 360.658 151.023 362.352C151.023 364.06 152.297 365.236 154.061 365.236C155.853 365.236 157.127 364.06 157.127 362.352C157.127 360.658 155.853 359.454 154.061 359.454ZM154.621 355.632H153.473V357.494H150.309V358.418H157.715V357.494H154.621V355.632ZM162.111 360.644H160.053V355.492H158.905V368.036H160.053V361.61H162.111V360.644ZM169.95 358.6V359.538H172.442V362.072H173.59V355.492H172.442V358.6H169.95ZM170.748 360.952C168.9 360.518 167.542 359.342 167.542 357.942V357.648H170.314V356.724H167.542V355.422H166.394V356.724H163.608V357.648H166.394V357.942C166.394 359.426 165.078 360.7 163.216 361.19L163.734 362.086C165.246 361.666 166.436 360.756 166.982 359.538C167.584 360.644 168.76 361.456 170.258 361.834L170.748 360.952ZM166.66 367V365.642H173.59V362.674H165.498V363.57H172.456V364.788H165.526V367.896H174.066V367H166.66ZM180.345 359.874C180.345 358.474 181.101 357.55 182.081 357.55C183.397 357.55 184.181 358.67 184.321 360.784C183.663 361.75 182.879 362.156 182.179 362.156C180.961 362.156 180.345 361.26 180.345 359.874ZM181.801 367.182C183.733 367.182 185.525 365.586 185.525 361.428C185.525 358.166 184.055 356.542 182.081 356.542C180.485 356.542 179.141 357.886 179.141 359.874C179.141 362.002 180.261 363.108 181.969 363.108C182.823 363.108 183.705 362.618 184.335 361.848C184.237 365.026 183.089 366.118 181.759 366.118C181.101 366.118 180.471 365.824 180.051 365.334L179.337 366.132C179.911 366.734 180.695 367.182 181.801 367.182ZM197.785 357.312H193.291V355.674H192.143V357.312H187.593V358.25H197.785V357.312ZM189.749 361.484C189.749 360.56 190.883 360 192.717 360C194.523 360 195.643 360.56 195.643 361.484C195.643 362.422 194.523 362.982 192.717 362.982C190.883 362.982 189.749 362.422 189.749 361.484ZM193.291 365.628V363.864C195.475 363.724 196.805 362.884 196.805 361.484C196.805 359.972 195.223 359.104 192.717 359.104C190.169 359.104 188.587 359.972 188.587 361.484C188.587 362.884 189.931 363.738 192.143 363.864V365.628H187.033V366.566H198.415V365.628H193.291ZM209.096 364.872H210.258V355.492H209.096V358.432H206.352V359.384H209.096V364.872ZM207.248 361.904C205.442 361.232 204.21 359.58 204.21 357.83V356.234H203.062V357.788C203.062 359.706 201.802 361.484 199.926 362.17L200.528 363.08C201.998 362.492 203.118 361.302 203.65 359.804C204.182 361.162 205.26 362.24 206.646 362.786L207.248 361.904ZM203.328 366.818V363.836H202.18V367.756H210.552V366.818H203.328ZM218.876 367.182C220.696 367.182 222.166 366.09 222.166 364.256C222.166 362.856 221.2 361.932 219.996 361.652V361.596C221.074 361.19 221.816 360.364 221.816 359.118C221.816 357.494 220.556 356.542 218.834 356.542C217.644 356.542 216.734 357.06 215.964 357.774L216.65 358.586C217.224 357.998 217.952 357.592 218.778 357.592C219.842 357.592 220.514 358.236 220.514 359.216C220.514 360.322 219.786 361.176 217.672 361.176V362.156C220.038 362.156 220.864 362.982 220.864 364.2C220.864 365.39 219.996 366.118 218.778 366.118C217.616 366.118 216.832 365.572 216.23 364.942L215.586 365.782C216.258 366.51 217.266 367.182 218.876 367.182ZM230.953 360.98C229.315 361.302 227.887 361.4 225.409 361.4V357.494H229.819V356.57H224.261V362.338H225.241C227.873 362.338 229.357 362.254 231.079 361.904L230.953 360.98ZM226.767 363.654H225.619V367.756H233.991V366.818H226.767V363.654ZM233.431 359.202V355.478H232.283V364.564H233.431V360.154H235.293V359.202H233.431ZM243.622 358.978H241.76C241.872 358.348 241.928 357.718 241.928 357.074H237.112V358.012H240.794C240.598 360.644 239.254 362.898 236.552 364.508L237.224 365.32C239.604 363.906 240.962 362.016 241.55 359.902H243.622V362.114H241.354V363.052H243.622V367.392H244.714V355.814H243.622V358.978ZM246.142 355.478V368.022H247.234V355.478H246.142ZM253.654 359.874C253.654 358.474 254.41 357.55 255.39 357.55C256.706 357.55 257.49 358.67 257.63 360.784C256.972 361.75 256.188 362.156 255.488 362.156C254.27 362.156 253.654 361.26 253.654 359.874ZM255.11 367.182C257.042 367.182 258.834 365.586 258.834 361.428C258.834 358.166 257.364 356.542 255.39 356.542C253.794 356.542 252.45 357.886 252.45 359.874C252.45 362.002 253.57 363.108 255.278 363.108C256.132 363.108 257.014 362.618 257.644 361.848C257.546 365.026 256.398 366.118 255.068 366.118C254.41 366.118 253.78 365.824 253.36 365.334L252.646 366.132C253.22 366.734 254.004 367.182 255.11 367.182ZM260.832 367H266.46V365.936H264.402V356.724H263.422C262.862 357.06 262.204 357.298 261.294 357.466V358.278H263.114V365.936H260.832V367ZM271.271 367.182C273.203 367.182 274.491 366.02 274.491 364.522C274.491 363.122 273.651 362.352 272.755 361.834V361.764C273.371 361.288 274.127 360.364 274.127 359.286C274.127 357.704 273.063 356.584 271.313 356.584C269.717 356.584 268.499 357.62 268.499 359.188C268.499 360.266 269.129 361.036 269.885 361.554V361.624C268.947 362.128 267.995 363.08 267.995 364.452C267.995 366.034 269.381 367.182 271.271 367.182ZM271.971 361.428C270.767 360.952 269.661 360.42 269.661 359.188C269.661 358.194 270.347 357.522 271.299 357.522C272.405 357.522 273.035 358.348 273.035 359.356C273.035 360.112 272.671 360.812 271.971 361.428ZM271.299 366.23C270.067 366.23 269.157 365.432 269.157 364.34C269.157 363.36 269.731 362.548 270.557 362.016C272.013 362.604 273.273 363.122 273.273 364.494C273.273 365.516 272.475 366.23 271.299 366.23ZM284.651 357.186C284.651 358.166 284.651 359.09 284.315 360.378L285.435 360.504C285.785 359.216 285.785 358.194 285.785 357.186V356.122H277.231V357.046H284.651V357.186ZM281.501 367.126C279.541 367.126 278.281 366.594 278.281 365.726C278.281 364.83 279.541 364.298 281.501 364.298C283.475 364.298 284.735 364.83 284.735 365.726C284.735 366.594 283.475 367.126 281.501 367.126ZM281.501 363.416C278.827 363.416 277.133 364.27 277.133 365.726C277.133 367.154 278.827 368.022 281.501 368.022C284.175 368.022 285.883 367.154 285.883 365.726C285.883 364.27 284.175 363.416 281.501 363.416ZM281.683 361.33V358.922H280.535V361.33H275.901V362.254H287.199V361.33H281.683ZM300.12 361.694H298.258C298.608 359.888 298.608 358.558 298.608 357.382V356.29H290.18V357.214H297.488V357.382C297.488 358.558 297.488 359.888 297.096 361.694H288.766V362.632H293.834V368.05H294.996V362.632H300.12V361.694ZM311.23 359.356V360.294H313.946V364.76H315.108V355.492H313.946V359.356H311.23ZM305.588 356.458V357.396H310.054C309.802 359.65 307.828 361.442 304.958 362.394L305.448 363.318C309.004 362.142 311.286 359.692 311.286 356.458H305.588ZM308.318 366.818V363.822H307.17V367.756H315.43V366.818H308.318ZM326.824 361.974H327.986V355.492H326.824V357.76H324.094V358.698H326.824V361.974ZM324.976 360.812C323.17 360.21 321.896 358.684 321.896 357.046V355.884H320.762V357.046C320.762 358.866 319.516 360.448 317.626 361.092L318.228 362.002C319.698 361.456 320.832 360.364 321.364 358.95C321.91 360.224 323.002 361.218 324.388 361.708L324.976 360.812ZM321.056 366.958V365.614H327.986V362.604H319.894V363.514H326.852V364.746H319.922V367.868H328.462V366.958H321.056ZM339.297 357.186C339.297 358.166 339.297 359.09 338.961 360.378L340.081 360.504C340.431 359.216 340.431 358.194 340.431 357.186V356.122H331.877V357.046H339.297V357.186ZM336.147 367.126C334.187 367.126 332.927 366.594 332.927 365.726C332.927 364.83 334.187 364.298 336.147 364.298C338.121 364.298 339.381 364.83 339.381 365.726C339.381 366.594 338.121 367.126 336.147 367.126ZM336.147 363.416C333.473 363.416 331.779 364.27 331.779 365.726C331.779 367.154 333.473 368.022 336.147 368.022C338.821 368.022 340.529 367.154 340.529 365.726C340.529 364.27 338.821 363.416 336.147 363.416ZM336.329 361.33V358.922H335.181V361.33H330.547V362.254H341.845V361.33H336.329ZM347.612 356.57H346.478V358.824C346.478 361.106 345.05 363.514 343.244 364.438L343.93 365.362C345.344 364.606 346.506 363.038 347.052 361.204C347.626 362.926 348.76 364.396 350.09 365.11L350.804 364.2C349.04 363.318 347.612 361.036 347.612 358.824V356.57ZM355.13 360.574H353.058V355.492H351.91V368.036H353.058V361.526H355.13V360.574Z" fill="#2C2C2C"/>
<path d="M1081.14 261.626C1081.58 259.022 1081.58 257.244 1081.58 255.662V254.416H1072.1V255.886H1079.73C1079.73 257.37 1079.72 259.106 1079.3 261.444L1081.14 261.626ZM1078.41 263.166V259.092H1076.61V263.166H1075.24V259.092H1073.42V263.166H1070.97V264.65H1082.64V263.166H1078.41ZM1089.67 254.99C1091.43 254.99 1092.44 255.368 1092.44 256.096C1092.44 256.852 1091.43 257.216 1089.67 257.216C1087.92 257.216 1086.91 256.852 1086.91 256.096C1086.91 255.368 1087.92 254.99 1089.67 254.99ZM1089.67 258.644C1092.51 258.644 1094.34 257.678 1094.34 256.096C1094.34 254.542 1092.51 253.576 1089.67 253.576C1086.84 253.576 1085.01 254.542 1085.01 256.096C1085.01 257.678 1086.84 258.644 1089.67 258.644ZM1090.89 261.976H1088.44V260.786H1090.89V261.976ZM1095.49 260.786V259.316H1083.84V260.786H1086.59V261.976H1085.13V263.418H1092.24V266.218H1094.09V261.976H1092.72V260.786H1095.49ZM1105.56 253.296V266.232H1107.41V253.296H1105.56ZM1100.48 254.206C1098.53 254.206 1097.09 255.97 1097.09 258.798C1097.09 261.64 1098.53 263.418 1100.48 263.418C1102.42 263.418 1103.86 261.64 1103.86 258.798C1103.86 255.97 1102.42 254.206 1100.48 254.206ZM1100.48 255.872C1101.43 255.872 1102.09 256.894 1102.09 258.798C1102.09 260.716 1101.43 261.738 1100.48 261.738C1099.52 261.738 1098.87 260.716 1098.87 258.798C1098.87 256.894 1099.52 255.872 1100.48 255.872ZM1117.89 257.986H1118.84V261.374H1120.59V253.31H1118.84V256.488H1117.89V253.548H1116.17V260.968H1117.89V257.986ZM1115.8 254.626H1113.58V253.45H1111.76V254.626H1109.53V256.054H1115.8V254.626ZM1111.55 258.714C1111.55 258.112 1112.01 257.79 1112.7 257.79C1113.38 257.79 1113.83 258.112 1113.83 258.714C1113.83 259.316 1113.38 259.652 1112.7 259.652C1112.01 259.652 1111.55 259.316 1111.55 258.714ZM1115.47 258.714C1115.47 257.384 1114.32 256.474 1112.7 256.474C1111.06 256.474 1109.91 257.384 1109.91 258.714C1109.91 260.044 1111.06 260.968 1112.7 260.968C1114.32 260.968 1115.47 260.044 1115.47 258.714ZM1116.22 264.832C1114.5 264.832 1113.63 264.538 1113.63 263.866C1113.63 263.194 1114.5 262.9 1116.22 262.9C1117.95 262.9 1118.81 263.194 1118.81 263.866C1118.81 264.538 1117.95 264.832 1116.22 264.832ZM1116.22 261.514C1113.45 261.514 1111.79 262.368 1111.79 263.866C1111.79 265.364 1113.45 266.204 1116.22 266.204C1119 266.204 1120.66 265.364 1120.66 263.866C1120.66 262.368 1119 261.514 1116.22 261.514ZM1127.48 254.304H1125.63V256.18C1125.63 258.686 1124.57 261.178 1122.31 262.144L1123.42 263.67C1124.96 262.942 1126.01 261.556 1126.58 259.834C1127.16 261.416 1128.15 262.69 1129.63 263.362L1130.68 261.864C1128.5 260.926 1127.48 258.574 1127.48 256.18V254.304ZM1131.31 253.296V266.232H1133.16V253.296H1131.31ZM1135.82 254.276V255.746H1140.02C1139.73 257.552 1138.13 259.05 1135.26 259.834L1136.03 261.304C1139.87 260.198 1142.02 257.776 1142.02 254.276H1135.82ZM1139.03 261.612H1137.18V265.98H1145.94V264.51H1139.03V261.612ZM1145.5 256.908V253.31H1143.65V262.536H1145.5V258.42H1147.22V256.908H1145.5Z" fill="#2C2C2C"/>
<path d="M1280.02 261.626C1280.46 259.022 1280.46 257.244 1280.46 255.662V254.416H1270.98V255.886H1278.61C1278.61 257.37 1278.59 259.106 1278.17 261.444L1280.02 261.626ZM1277.29 263.166V259.092H1275.49V263.166H1274.11V259.092H1272.29V263.166H1269.84V264.65H1281.52V263.166H1277.29ZM1288.55 254.99C1290.31 254.99 1291.32 255.368 1291.32 256.096C1291.32 256.852 1290.31 257.216 1288.55 257.216C1286.8 257.216 1285.79 256.852 1285.79 256.096C1285.79 255.368 1286.8 254.99 1288.55 254.99ZM1288.55 258.644C1291.39 258.644 1293.22 257.678 1293.22 256.096C1293.22 254.542 1291.39 253.576 1288.55 253.576C1285.72 253.576 1283.89 254.542 1283.89 256.096C1283.89 257.678 1285.72 258.644 1288.55 258.644ZM1289.77 261.976H1287.32V260.786H1289.77V261.976ZM1294.37 260.786V259.316H1282.72V260.786H1285.47V261.976H1284.01V263.418H1291.12V266.218H1292.97V261.976H1291.6V260.786H1294.37ZM1306.31 253.324H1304.45V262.578H1306.31V253.324ZM1297.59 257.412C1297.59 256.348 1298.35 255.732 1299.3 255.732C1300.26 255.732 1300.99 256.348 1300.99 257.412C1300.99 258.448 1300.26 259.078 1299.3 259.078C1298.35 259.078 1297.59 258.448 1297.59 257.412ZM1302.8 257.412C1302.8 255.508 1301.27 254.136 1299.3 254.136C1297.32 254.136 1295.78 255.508 1295.78 257.412C1295.78 259.288 1297.32 260.674 1299.3 260.674C1301.27 260.674 1302.8 259.288 1302.8 257.412ZM1299.58 264.51V261.668H1297.73V265.98H1306.63V264.51H1299.58ZM1315.06 260.8V262.06H1317.48V263.082H1319.33V253.31H1317.48V260.8H1315.06ZM1312.58 255.088C1313.44 255.088 1314.04 255.424 1314.04 256.054C1314.04 256.684 1313.44 257.006 1312.58 257.006C1311.71 257.006 1311.11 256.684 1311.11 256.054C1311.11 255.424 1311.71 255.088 1312.58 255.088ZM1312.58 258.35C1314.46 258.35 1315.79 257.426 1315.79 256.054C1315.79 254.682 1314.46 253.744 1312.58 253.744C1310.69 253.744 1309.38 254.682 1309.38 256.054C1309.38 257.426 1310.69 258.35 1312.58 258.35ZM1311.9 264.51V262.746H1313.67V260.31C1314.71 260.226 1315.75 260.114 1316.75 259.946L1316.63 258.63C1313.91 258.98 1310.78 259.008 1308.42 259.022L1308.66 260.492C1309.63 260.492 1310.71 260.478 1311.84 260.422V262.144H1310.05V265.98H1319.61V264.51H1311.9Z" fill="#2C2C2C"/>
<line x1="458.5" y1="182" x2="458.5" y2="387" stroke="#CDCDCD"/>
<line x1="644.5" y1="233" x2="644.5" y2="387" stroke="#CDCDCD"/>
<line x1="830.5" y1="233" x2="830.5" y2="387" stroke="#CDCDCD"/>
<line x1="1016.5" y1="233" x2="1016.5" y2="387" stroke="#CDCDCD"/>
<line x1="1202.5" y1="234" x2="1202.5" y2="387" stroke="#CDCDCD"/>
<line x1="1388.5" y1="182" x2="1388.5" y2="387" stroke="#CDCDCD"/>
<path d="M551.001 303.334C547.321 303.334 544.334 306.321 544.334 310.001C544.334 313.681 547.321 316.667 551.001 316.667C554.681 316.667 557.667 313.681 557.667 310.001C557.667 306.321 554.681 303.334 551.001 303.334Z" fill="#FB0000"/>
<path d="M738.001 303.334C734.321 303.334 731.334 306.321 731.334 310.001C731.334 313.681 734.321 316.667 738.001 316.667C741.681 316.667 744.667 313.681 744.667 310.001C744.667 306.321 741.681 303.334 738.001 303.334Z" fill="#7E72F2"/>
<path d="M924.001 303.334C920.321 303.334 917.334 306.321 917.334 310.001C917.334 313.681 920.321 316.667 924.001 316.667C927.681 316.667 930.667 313.681 930.667 310.001C930.667 306.321 927.681 303.334 924.001 303.334Z" fill="#FFD600"/>
<path d="M1102.22 316H1108.1V314.67H1106.08V305.682H1104.87C1104.28 306.06 1103.59 306.298 1102.63 306.48V307.502H1104.47V314.67H1102.22V316ZM1112.99 316.182C1115.01 316.182 1116.32 314.39 1116.32 310.806C1116.32 307.25 1115.01 305.5 1112.99 305.5C1110.97 305.5 1109.66 307.236 1109.66 310.806C1109.66 314.39 1110.97 316.182 1112.99 316.182ZM1112.99 314.908C1111.94 314.908 1111.2 313.788 1111.2 310.806C1111.2 307.852 1111.94 306.774 1112.99 306.774C1114.04 306.774 1114.78 307.852 1114.78 310.806C1114.78 313.788 1114.04 314.908 1112.99 314.908Z" fill="black"/>
<path d="M1288.22 316H1294.1V314.67H1292.08V305.682H1290.87C1290.28 306.06 1289.59 306.298 1288.63 306.48V307.502H1290.47V314.67H1288.22V316ZM1298.99 316.182C1301.01 316.182 1302.32 314.39 1302.32 310.806C1302.32 307.25 1301.01 305.5 1298.99 305.5C1296.97 305.5 1295.66 307.236 1295.66 310.806C1295.66 314.39 1296.97 316.182 1298.99 316.182ZM1298.99 314.908C1297.94 314.908 1297.2 313.788 1297.2 310.806C1297.2 307.852 1297.94 306.774 1298.99 306.774C1300.04 306.774 1300.78 307.852 1300.78 310.806C1300.78 313.788 1300.04 314.908 1298.99 314.908Z" fill="black"/>
<line x1="458" y1="232.5" x2="1388" y2="232.5" stroke="#CDCDCD"/>
<rect x="1437" y="290" width="90" height="40" rx="8" fill="white" stroke="#6670CB"/>
<path d="M1464.21 311.03H1461.09V306.662H1464.21V311.03ZM1459.94 311.03H1458.02V311.968H1467.27V311.03H1465.36V306.662H1467.3V305.738H1457.99V306.662H1459.94V311.03ZM1456.98 314.474V315.426H1468.37V314.474H1456.98ZM1476.12 314.544V312.178H1480.14V311.254H1472.41V309.224H1479.85V305.402H1471.25V306.34H1478.73V308.3H1471.28V312.178H1474.96V314.544H1469.85V315.482H1481.26V314.544H1476.12ZM1487.92 307.712V308.65H1489.81V312.066H1490.9V304.758H1489.81V307.712H1487.92ZM1488.9 310.68C1487.33 310.008 1486.45 308.524 1486.45 307.138V306.438H1488.61V305.5H1483.04V306.438H1485.35V307.152C1485.35 308.65 1484.42 310.274 1482.8 310.974L1483.4 311.856C1484.62 311.31 1485.49 310.274 1485.92 309.056C1486.35 310.148 1487.18 311.058 1488.33 311.562L1488.9 310.68ZM1484.9 313.648H1492.19V317.05H1493.34V312.724H1484.9V313.648ZM1492.23 304.492V312.164H1493.34V304.492H1492.23ZM1505.7 311.254H1498.24V309.266H1505.29V308.356H1498.24V306.494H1505.57V305.57H1497.08V312.178H1505.7V311.254ZM1495.61 314.474V315.412H1507V314.474H1495.61Z" fill="#6670CB"/>
<rect x="1437" y="341" width="90" height="40" rx="8" fill="white" stroke="#6670CB"/>
<path d="M1464.21 362.03H1461.09V357.662H1464.21V362.03ZM1459.94 362.03H1458.02V362.968H1467.27V362.03H1465.36V357.662H1467.3V356.738H1457.99V357.662H1459.94V362.03ZM1456.98 365.474V366.426H1468.37V365.474H1456.98ZM1476.12 365.544V363.178H1480.14V362.254H1472.41V360.224H1479.85V356.402H1471.25V357.34H1478.73V359.3H1471.28V363.178H1474.96V365.544H1469.85V366.482H1481.26V365.544H1476.12ZM1487.92 358.712V359.65H1489.81V363.066H1490.9V355.758H1489.81V358.712H1487.92ZM1488.9 361.68C1487.33 361.008 1486.45 359.524 1486.45 358.138V357.438H1488.61V356.5H1483.04V357.438H1485.35V358.152C1485.35 359.65 1484.42 361.274 1482.8 361.974L1483.4 362.856C1484.62 362.31 1485.49 361.274 1485.92 360.056C1486.35 361.148 1487.18 362.058 1488.33 362.562L1488.9 361.68ZM1484.9 364.648H1492.19V368.05H1493.34V363.724H1484.9V364.648ZM1492.23 355.492V363.164H1493.34V355.492H1492.23ZM1505.7 362.254H1498.24V360.266H1505.29V359.356H1498.24V357.494H1505.57V356.57H1497.08V363.178H1505.7V362.254ZM1495.61 365.474V366.412H1507V365.474H1495.61Z" fill="#6670CB"/>
<rect x="1486" y="118" width="90" height="40" rx="8" fill="white" stroke="#6670CB"/>
<path d="M1501.46 144H1507.54V142.894H1502.76V139.156H1506.65V138.05H1502.76V134.83H1507.38V133.724H1501.46V144ZM1508.02 144H1509.37L1510.39 142.222C1510.65 141.76 1510.91 141.298 1511.17 140.864H1511.24C1511.52 141.298 1511.8 141.76 1512.05 142.222L1513.17 144H1514.57L1512.07 140.164L1514.38 136.398H1513.05L1512.11 138.064C1511.89 138.498 1511.66 138.918 1511.42 139.338H1511.37C1511.12 138.918 1510.85 138.498 1510.61 138.064L1509.59 136.398H1508.22L1510.53 140.038L1508.02 144ZM1518.81 144.182C1519.72 144.182 1520.59 143.832 1521.27 143.216L1520.71 142.362C1520.24 142.796 1519.62 143.118 1518.92 143.118C1517.52 143.118 1516.57 141.956 1516.57 140.206C1516.57 138.456 1517.58 137.266 1518.96 137.266C1519.57 137.266 1520.03 137.546 1520.48 137.938L1521.13 137.098C1520.59 136.622 1519.9 136.202 1518.91 136.202C1516.96 136.202 1515.24 137.672 1515.24 140.206C1515.24 142.726 1516.79 144.182 1518.81 144.182ZM1525.66 144.182C1526.7 144.182 1527.51 143.832 1528.18 143.398L1527.72 142.558C1527.16 142.936 1526.56 143.16 1525.81 143.16C1524.37 143.16 1523.38 142.124 1523.29 140.5H1528.42C1528.45 140.318 1528.47 140.052 1528.47 139.772C1528.47 137.602 1527.38 136.202 1525.45 136.202C1523.69 136.202 1522.02 137.742 1522.02 140.206C1522.02 142.712 1523.64 144.182 1525.66 144.182ZM1523.28 139.576C1523.43 138.092 1524.39 137.224 1525.46 137.224C1526.65 137.224 1527.35 138.05 1527.35 139.576H1523.28ZM1531.69 144.182C1532.04 144.182 1532.25 144.14 1532.43 144.07L1532.25 143.09C1532.11 143.118 1532.05 143.118 1531.98 143.118C1531.79 143.118 1531.62 142.964 1531.62 142.572V132.856H1530.35V142.488C1530.35 143.566 1530.74 144.182 1531.69 144.182ZM1541.26 134.704H1544.12V133.766H1537.27V134.704H1540.12V136.16C1540.12 138.386 1538.62 140.766 1536.83 141.648L1537.5 142.558C1538.93 141.802 1540.14 140.192 1540.69 138.344C1541.26 140.08 1542.47 141.578 1543.87 142.292L1544.55 141.396C1542.73 140.528 1541.26 138.246 1541.26 136.16V134.704ZM1546.12 132.478V137.042H1543.41V137.98H1546.12V145.05H1547.27V132.478H1546.12ZM1557.08 138.554C1555.23 137.938 1554.04 136.468 1554.04 134.83V134.34H1556.82V133.416H1550.08V134.34H1552.9V134.83C1552.9 136.636 1551.64 138.26 1549.75 138.918L1550.33 139.828C1551.83 139.296 1552.97 138.176 1553.5 136.748C1554.03 137.994 1555.11 138.988 1556.54 139.45L1557.08 138.554ZM1555.56 144.112C1553.68 144.112 1552.56 143.594 1552.56 142.698C1552.56 141.816 1553.68 141.298 1555.56 141.298C1557.4 141.298 1558.54 141.816 1558.54 142.698C1558.54 143.594 1557.4 144.112 1555.56 144.112ZM1555.56 140.388C1552.98 140.388 1551.41 141.242 1551.41 142.698C1551.41 144.168 1552.98 145.022 1555.56 145.022C1558.1 145.022 1559.69 144.168 1559.69 142.698C1559.69 141.242 1558.1 140.388 1555.56 140.388ZM1559.55 135.656V132.492H1558.4V140.066H1559.55V136.622H1561.41V135.656H1559.55Z" fill="#6670CB"/>
<defs>
<filter id="filter0_d" x="0" y="0" width="1584" height="104" filterUnits="userSpaceOnUse" color-interpolation-filters="sRGB">
<feFlood flood-opacity="0" result="BackgroundImageFix"/>
<feColorMatrix in="SourceAlpha" type="matrix" values="0 0 0 0 0 0 0 0 0 0 0 0 0 0 0 0 0 0 127 0"/>
<feOffset dy="2"/>
<feGaussianBlur stdDeviation="4"/>
<feColorMatrix type="matrix" values="0 0 0 0 0 0 0 0 0 0 0 0 0 0 0 0 0 0 0.13 0"/>
<feBlend mode="normal" in2="BackgroundImageFix" result="effect1_dropShadow"/>
<feBlend mode="normal" in="SourceGraphic" in2="effect1_dropShadow" result="shape"/>
</filter>
<filter id="filter1_d" x="74" y="24" width="315" height="56" filterUnits="userSpaceOnUse" color-interpolation-filters="sRGB">
<feFlood flood-opacity="0" result="BackgroundImageFix"/>
<feColorMatrix in="SourceAlpha" type="matrix" values="0 0 0 0 0 0 0 0 0 0 0 0 0 0 0 0 0 0 127 0"/>
<feOffset dy="2"/>
<feGaussianBlur stdDeviation="4"/>
<feColorMatrix type="matrix" values="0 0 0 0 0 0 0 0 0 0 0 0 0 0 0 0 0 0 0.135216 0"/>
<feBlend mode="normal" in2="BackgroundImageFix" result="effect1_dropShadow"/>
<feBlend mode="normal" in="SourceGraphic" in2="effect1_dropShadow" result="shape"/>
</filter>
<filter id="filter2_d" x="487" y="24" width="296" height="56" filterUnits="userSpaceOnUse" color-interpolation-filters="sRGB">
<feFlood flood-opacity="0" result="BackgroundImageFix"/>
<feColorMatrix in="SourceAlpha" type="matrix" values="0 0 0 0 0 0 0 0 0 0 0 0 0 0 0 0 0 0 127 0"/>
<feOffset dy="2"/>
<feGaussianBlur stdDeviation="4"/>
<feColorMatrix type="matrix" values="0 0 0 0 0 0 0 0 0 0 0 0 0 0 0 0 0 0 0.135216 0"/>
<feBlend mode="normal" in2="BackgroundImageFix" result="effect1_dropShadow"/>
<feBlend mode="normal" in="SourceGraphic" in2="effect1_dropShadow" result="shape"/>
</filter>
<filter id="filter3_d" x="776.5" y="23.5" width="107" height="57" filterUnits="userSpaceOnUse" color-interpolation-filters="sRGB">
<feFlood flood-opacity="0" result="BackgroundImageFix"/>
<feColorMatrix in="SourceAlpha" type="matrix" values="0 0 0 0 0 0 0 0 0 0 0 0 0 0 0 0 0 0 127 0"/>
<feOffset dy="2"/>
<feGaussianBlur stdDeviation="4"/>
<feColorMatrix type="matrix" values="0 0 0 0 0 0 0 0 0 0 0 0 0 0 0 0 0 0 0.13 0"/>
<feBlend mode="normal" in2="BackgroundImageFix" result="effect1_dropShadow"/>
<feBlend mode="normal" in="SourceGraphic" in2="effect1_dropShadow" result="shape"/>
</filter>
<filter id="filter4_d" x="1149" y="24" width="166" height="58" filterUnits="userSpaceOnUse" color-interpolation-filters="sRGB">
<feFlood flood-opacity="0" result="BackgroundImageFix"/>
<feColorMatrix in="SourceAlpha" type="matrix" values="0 0 0 0 0 0 0 0 0 0 0 0 0 0 0 0 0 0 127 0"/>
<feOffset dy="2"/>
<feGaussianBlur stdDeviation="4"/>
<feColorMatrix type="matrix" values="0 0 0 0 0 0 0 0 0 0 0 0 0 0 0 0 0 0 0.135216 0"/>
<feBlend mode="normal" in2="BackgroundImageFix" result="effect1_dropShadow"/>
<feBlend mode="normal" in="SourceGraphic" in2="effect1_dropShadow" result="shape"/>
</filter>
</defs>
</svg>
